G04 #@! TF.GenerationSoftware,KiCad,Pcbnew,(5.0.1)-rc2*
G04 #@! TF.CreationDate,2018-12-27T01:27:39+01:00*
G04 #@! TF.ProjectId,IoP_plant_base,496F505F706C616E745F626173652E6B,rev?*
G04 #@! TF.SameCoordinates,Original*
G04 #@! TF.FileFunction,Legend,Top*
G04 #@! TF.FilePolarity,Positive*
%FSLAX46Y46*%
G04 Gerber Fmt 4.6, Leading zero omitted, Abs format (unit mm)*
G04 Created by KiCad (PCBNEW (5.0.1)-rc2) date 2018/12/27 1:27:39*
%MOMM*%
%LPD*%
G01*
G04 APERTURE LIST*
%ADD10C,0.150000*%
%ADD11C,0.200000*%
%ADD12C,0.120000*%
%ADD13C,0.010000*%
%ADD14C,0.254000*%
G04 APERTURE END LIST*
D10*
X115936780Y-92266542D02*
X115936780Y-91647495D01*
X116317733Y-91980828D01*
X116317733Y-91837971D01*
X116365352Y-91742733D01*
X116412971Y-91695114D01*
X116508209Y-91647495D01*
X116746304Y-91647495D01*
X116841542Y-91695114D01*
X116889161Y-91742733D01*
X116936780Y-91837971D01*
X116936780Y-92123685D01*
X116889161Y-92218923D01*
X116841542Y-92266542D01*
X116841542Y-91218923D02*
X116889161Y-91171304D01*
X116936780Y-91218923D01*
X116889161Y-91266542D01*
X116841542Y-91218923D01*
X116936780Y-91218923D01*
X115936780Y-90837971D02*
X115936780Y-90218923D01*
X116317733Y-90552257D01*
X116317733Y-90409400D01*
X116365352Y-90314161D01*
X116412971Y-90266542D01*
X116508209Y-90218923D01*
X116746304Y-90218923D01*
X116841542Y-90266542D01*
X116889161Y-90314161D01*
X116936780Y-90409400D01*
X116936780Y-90695114D01*
X116889161Y-90790352D01*
X116841542Y-90837971D01*
X115936780Y-89933209D02*
X116936780Y-89599876D01*
X115936780Y-89266542D01*
X116889161Y-88218923D02*
X116936780Y-88076066D01*
X116936780Y-87837971D01*
X116889161Y-87742733D01*
X116841542Y-87695114D01*
X116746304Y-87647495D01*
X116651066Y-87647495D01*
X116555828Y-87695114D01*
X116508209Y-87742733D01*
X116460590Y-87837971D01*
X116412971Y-88028447D01*
X116365352Y-88123685D01*
X116317733Y-88171304D01*
X116222495Y-88218923D01*
X116127257Y-88218923D01*
X116032019Y-88171304D01*
X115984400Y-88123685D01*
X115936780Y-88028447D01*
X115936780Y-87790352D01*
X115984400Y-87647495D01*
X116936780Y-87218923D02*
X115936780Y-87218923D01*
X115936780Y-86837971D01*
X115984400Y-86742733D01*
X116032019Y-86695114D01*
X116127257Y-86647495D01*
X116270114Y-86647495D01*
X116365352Y-86695114D01*
X116412971Y-86742733D01*
X116460590Y-86837971D01*
X116460590Y-87218923D01*
X116936780Y-86218923D02*
X115936780Y-86218923D01*
X115936780Y-84504638D02*
X115936780Y-84980828D01*
X116412971Y-85028447D01*
X116365352Y-84980828D01*
X116317733Y-84885590D01*
X116317733Y-84647495D01*
X116365352Y-84552257D01*
X116412971Y-84504638D01*
X116508209Y-84457019D01*
X116746304Y-84457019D01*
X116841542Y-84504638D01*
X116889161Y-84552257D01*
X116936780Y-84647495D01*
X116936780Y-84885590D01*
X116889161Y-84980828D01*
X116841542Y-85028447D01*
X115936780Y-84171304D02*
X116936780Y-83837971D01*
X115936780Y-83504638D01*
X127657933Y-118292571D02*
X127991266Y-118292571D01*
X128134123Y-118816380D02*
X127657933Y-118816380D01*
X127657933Y-117816380D01*
X128134123Y-117816380D01*
X128562695Y-118435428D02*
X129324600Y-118435428D01*
X128943647Y-118816380D02*
X128943647Y-118054476D01*
X131086504Y-117864000D02*
X130991266Y-117816380D01*
X130848409Y-117816380D01*
X130705552Y-117864000D01*
X130610314Y-117959238D01*
X130562695Y-118054476D01*
X130515076Y-118244952D01*
X130515076Y-118387809D01*
X130562695Y-118578285D01*
X130610314Y-118673523D01*
X130705552Y-118768761D01*
X130848409Y-118816380D01*
X130943647Y-118816380D01*
X131086504Y-118768761D01*
X131134123Y-118721142D01*
X131134123Y-118387809D01*
X130943647Y-118387809D01*
X132276980Y-118768761D02*
X132419838Y-118816380D01*
X132657933Y-118816380D01*
X132753171Y-118768761D01*
X132800790Y-118721142D01*
X132848409Y-118625904D01*
X132848409Y-118530666D01*
X132800790Y-118435428D01*
X132753171Y-118387809D01*
X132657933Y-118340190D01*
X132467457Y-118292571D01*
X132372219Y-118244952D01*
X132324600Y-118197333D01*
X132276980Y-118102095D01*
X132276980Y-118006857D01*
X132324600Y-117911619D01*
X132372219Y-117864000D01*
X132467457Y-117816380D01*
X132705552Y-117816380D01*
X132848409Y-117864000D01*
X133276980Y-118435428D02*
X134038885Y-118435428D01*
X134467457Y-118768761D02*
X134610314Y-118816380D01*
X134848409Y-118816380D01*
X134943647Y-118768761D01*
X134991266Y-118721142D01*
X135038885Y-118625904D01*
X135038885Y-118530666D01*
X134991266Y-118435428D01*
X134943647Y-118387809D01*
X134848409Y-118340190D01*
X134657933Y-118292571D01*
X134562695Y-118244952D01*
X134515076Y-118197333D01*
X134467457Y-118102095D01*
X134467457Y-118006857D01*
X134515076Y-117911619D01*
X134562695Y-117864000D01*
X134657933Y-117816380D01*
X134896028Y-117816380D01*
X135038885Y-117864000D01*
X135467457Y-118435428D02*
X136229361Y-118435428D01*
X135848409Y-118816380D02*
X135848409Y-118054476D01*
X137419838Y-118768761D02*
X137562695Y-118816380D01*
X137800790Y-118816380D01*
X137896028Y-118768761D01*
X137943647Y-118721142D01*
X137991266Y-118625904D01*
X137991266Y-118530666D01*
X137943647Y-118435428D01*
X137896028Y-118387809D01*
X137800790Y-118340190D01*
X137610314Y-118292571D01*
X137515076Y-118244952D01*
X137467457Y-118197333D01*
X137419838Y-118102095D01*
X137419838Y-118006857D01*
X137467457Y-117911619D01*
X137515076Y-117864000D01*
X137610314Y-117816380D01*
X137848409Y-117816380D01*
X137991266Y-117864000D01*
X138419838Y-118816380D02*
X138419838Y-117816380D01*
X138419838Y-118292571D02*
X138991266Y-118292571D01*
X138991266Y-118816380D02*
X138991266Y-117816380D01*
X105823380Y-118810066D02*
X106299571Y-118810066D01*
X105728142Y-119095780D02*
X106061476Y-118095780D01*
X106394809Y-119095780D01*
X106728142Y-119095780D02*
X106728142Y-118095780D01*
X106966238Y-118095780D01*
X107109095Y-118143400D01*
X107204333Y-118238638D01*
X107251952Y-118333876D01*
X107299571Y-118524352D01*
X107299571Y-118667209D01*
X107251952Y-118857685D01*
X107204333Y-118952923D01*
X107109095Y-119048161D01*
X106966238Y-119095780D01*
X106728142Y-119095780D01*
X108299571Y-119000542D02*
X108251952Y-119048161D01*
X108109095Y-119095780D01*
X108013857Y-119095780D01*
X107871000Y-119048161D01*
X107775761Y-118952923D01*
X107728142Y-118857685D01*
X107680523Y-118667209D01*
X107680523Y-118524352D01*
X107728142Y-118333876D01*
X107775761Y-118238638D01*
X107871000Y-118143400D01*
X108013857Y-118095780D01*
X108109095Y-118095780D01*
X108251952Y-118143400D01*
X108299571Y-118191019D01*
X109490047Y-118714828D02*
X110251952Y-118714828D01*
X109871000Y-119095780D02*
X109871000Y-118333876D01*
X111204333Y-118095780D02*
X110728142Y-118095780D01*
X110680523Y-118571971D01*
X110728142Y-118524352D01*
X110823380Y-118476733D01*
X111061476Y-118476733D01*
X111156714Y-118524352D01*
X111204333Y-118571971D01*
X111251952Y-118667209D01*
X111251952Y-118905304D01*
X111204333Y-119000542D01*
X111156714Y-119048161D01*
X111061476Y-119095780D01*
X110823380Y-119095780D01*
X110728142Y-119048161D01*
X110680523Y-119000542D01*
X111537666Y-118095780D02*
X111871000Y-119095780D01*
X112204333Y-118095780D01*
X113823380Y-118143400D02*
X113728142Y-118095780D01*
X113585285Y-118095780D01*
X113442428Y-118143400D01*
X113347190Y-118238638D01*
X113299571Y-118333876D01*
X113251952Y-118524352D01*
X113251952Y-118667209D01*
X113299571Y-118857685D01*
X113347190Y-118952923D01*
X113442428Y-119048161D01*
X113585285Y-119095780D01*
X113680523Y-119095780D01*
X113823380Y-119048161D01*
X113871000Y-119000542D01*
X113871000Y-118667209D01*
X113680523Y-118667209D01*
X114299571Y-119095780D02*
X114299571Y-118095780D01*
X114871000Y-119095780D01*
X114871000Y-118095780D01*
X115347190Y-119095780D02*
X115347190Y-118095780D01*
X115585285Y-118095780D01*
X115728142Y-118143400D01*
X115823380Y-118238638D01*
X115871000Y-118333876D01*
X115918619Y-118524352D01*
X115918619Y-118667209D01*
X115871000Y-118857685D01*
X115823380Y-118952923D01*
X115728142Y-119048161D01*
X115585285Y-119095780D01*
X115347190Y-119095780D01*
X137684047Y-78633628D02*
X138445952Y-78633628D01*
X138065000Y-79014580D02*
X138065000Y-78252676D01*
X139684047Y-78633628D02*
X140445952Y-78633628D01*
X142005305Y-79149960D02*
X141529115Y-79149960D01*
X141481496Y-79626151D01*
X141529115Y-79578532D01*
X141624353Y-79530913D01*
X141862448Y-79530913D01*
X141957686Y-79578532D01*
X142005305Y-79626151D01*
X142052924Y-79721389D01*
X142052924Y-79959484D01*
X142005305Y-80054722D01*
X141957686Y-80102341D01*
X141862448Y-80149960D01*
X141624353Y-80149960D01*
X141529115Y-80102341D01*
X141481496Y-80054722D01*
X142338639Y-79149960D02*
X142671972Y-80149960D01*
X143005305Y-79149960D01*
X143338639Y-80149960D02*
X143338639Y-79149960D01*
X143576734Y-79149960D01*
X143719591Y-79197580D01*
X143814829Y-79292818D01*
X143862448Y-79388056D01*
X143910067Y-79578532D01*
X143910067Y-79721389D01*
X143862448Y-79911865D01*
X143814829Y-80007103D01*
X143719591Y-80102341D01*
X143576734Y-80149960D01*
X143338639Y-80149960D01*
X144910067Y-80054722D02*
X144862448Y-80102341D01*
X144719591Y-80149960D01*
X144624353Y-80149960D01*
X144481496Y-80102341D01*
X144386258Y-80007103D01*
X144338639Y-79911865D01*
X144291020Y-79721389D01*
X144291020Y-79578532D01*
X144338639Y-79388056D01*
X144386258Y-79292818D01*
X144481496Y-79197580D01*
X144624353Y-79149960D01*
X144719591Y-79149960D01*
X144862448Y-79197580D01*
X144910067Y-79245199D01*
X146386258Y-80530913D02*
X146338639Y-80483294D01*
X146243400Y-80340437D01*
X146195781Y-80245199D01*
X146148162Y-80102341D01*
X146100543Y-79864246D01*
X146100543Y-79673770D01*
X146148162Y-79435675D01*
X146195781Y-79292818D01*
X146243400Y-79197580D01*
X146338639Y-79054722D01*
X146386258Y-79007103D01*
X146767210Y-79769008D02*
X147529115Y-79769008D01*
X147148162Y-80149960D02*
X147148162Y-79388056D01*
X147910067Y-80530913D02*
X147957686Y-80483294D01*
X148052924Y-80340437D01*
X148100543Y-80245199D01*
X148148162Y-80102341D01*
X148195781Y-79864246D01*
X148195781Y-79673770D01*
X148148162Y-79435675D01*
X148100543Y-79292818D01*
X148052924Y-79197580D01*
X147957686Y-79054722D01*
X147910067Y-79007103D01*
X147054914Y-113883104D02*
X147721580Y-113692628D01*
X147245390Y-113502152D01*
X147721580Y-113311676D01*
X147054914Y-113121200D01*
X147054914Y-112835485D02*
X147721580Y-112645009D01*
X147245390Y-112454533D01*
X147721580Y-112264057D01*
X147054914Y-112073580D01*
X147054914Y-111787866D02*
X147721580Y-111597390D01*
X147245390Y-111406914D01*
X147721580Y-111216438D01*
X147054914Y-111025961D01*
X147626342Y-110645009D02*
X147673961Y-110597390D01*
X147721580Y-110645009D01*
X147673961Y-110692628D01*
X147626342Y-110645009D01*
X147721580Y-110645009D01*
X147054914Y-110168819D02*
X147721580Y-110168819D01*
X147150152Y-110168819D02*
X147102533Y-110121200D01*
X147054914Y-110025961D01*
X147054914Y-109883104D01*
X147102533Y-109787866D01*
X147197771Y-109740247D01*
X147721580Y-109740247D01*
X147054914Y-109359295D02*
X147721580Y-109121200D01*
X147054914Y-108883104D02*
X147721580Y-109121200D01*
X147959676Y-109216438D01*
X148007295Y-109264057D01*
X148054914Y-109359295D01*
X147721580Y-108073580D02*
X147197771Y-108073580D01*
X147102533Y-108121200D01*
X147054914Y-108216438D01*
X147054914Y-108406914D01*
X147102533Y-108502152D01*
X147673961Y-108073580D02*
X147721580Y-108168819D01*
X147721580Y-108406914D01*
X147673961Y-108502152D01*
X147578723Y-108549771D01*
X147483485Y-108549771D01*
X147388247Y-108502152D01*
X147340628Y-108406914D01*
X147340628Y-108168819D01*
X147293009Y-108073580D01*
X147054914Y-107597390D02*
X147721580Y-107597390D01*
X147150152Y-107597390D02*
X147102533Y-107549771D01*
X147054914Y-107454533D01*
X147054914Y-107311676D01*
X147102533Y-107216438D01*
X147197771Y-107168819D01*
X147721580Y-107168819D01*
X147054914Y-106835485D02*
X147054914Y-106454533D01*
X146721580Y-106692628D02*
X147578723Y-106692628D01*
X147673961Y-106645009D01*
X147721580Y-106549771D01*
X147721580Y-106454533D01*
X147721580Y-106121200D02*
X147054914Y-106121200D01*
X147245390Y-106121200D02*
X147150152Y-106073580D01*
X147102533Y-106025961D01*
X147054914Y-105930723D01*
X147054914Y-105835485D01*
X147721580Y-105359295D02*
X147673961Y-105454533D01*
X147626342Y-105502152D01*
X147531104Y-105549771D01*
X147245390Y-105549771D01*
X147150152Y-105502152D01*
X147102533Y-105454533D01*
X147054914Y-105359295D01*
X147054914Y-105216438D01*
X147102533Y-105121200D01*
X147150152Y-105073580D01*
X147245390Y-105025961D01*
X147531104Y-105025961D01*
X147626342Y-105073580D01*
X147673961Y-105121200D01*
X147721580Y-105216438D01*
X147721580Y-105359295D01*
X147054914Y-104597390D02*
X147721580Y-104597390D01*
X147150152Y-104597390D02*
X147102533Y-104549771D01*
X147054914Y-104454533D01*
X147054914Y-104311676D01*
X147102533Y-104216438D01*
X147197771Y-104168819D01*
X147721580Y-104168819D01*
X147721580Y-103692628D02*
X147054914Y-103692628D01*
X146721580Y-103692628D02*
X146769200Y-103740247D01*
X146816819Y-103692628D01*
X146769200Y-103645009D01*
X146721580Y-103692628D01*
X146816819Y-103692628D01*
X147673961Y-102787866D02*
X147721580Y-102883104D01*
X147721580Y-103073580D01*
X147673961Y-103168819D01*
X147626342Y-103216438D01*
X147531104Y-103264057D01*
X147245390Y-103264057D01*
X147150152Y-103216438D01*
X147102533Y-103168819D01*
X147054914Y-103073580D01*
X147054914Y-102883104D01*
X147102533Y-102787866D01*
X147673961Y-102406914D02*
X147721580Y-102311676D01*
X147721580Y-102121200D01*
X147673961Y-102025961D01*
X147578723Y-101978342D01*
X147531104Y-101978342D01*
X147435866Y-102025961D01*
X147388247Y-102121200D01*
X147388247Y-102264057D01*
X147340628Y-102359295D01*
X147245390Y-102406914D01*
X147197771Y-102406914D01*
X147102533Y-102359295D01*
X147054914Y-102264057D01*
X147054914Y-102121200D01*
X147102533Y-102025961D01*
X147626342Y-101549771D02*
X147673961Y-101502152D01*
X147721580Y-101549771D01*
X147673961Y-101597390D01*
X147626342Y-101549771D01*
X147721580Y-101549771D01*
X147673961Y-100645009D02*
X147721580Y-100740247D01*
X147721580Y-100930723D01*
X147673961Y-101025961D01*
X147626342Y-101073580D01*
X147531104Y-101121200D01*
X147245390Y-101121200D01*
X147150152Y-101073580D01*
X147102533Y-101025961D01*
X147054914Y-100930723D01*
X147054914Y-100740247D01*
X147102533Y-100645009D01*
X147721580Y-100073580D02*
X147673961Y-100168819D01*
X147626342Y-100216438D01*
X147531104Y-100264057D01*
X147245390Y-100264057D01*
X147150152Y-100216438D01*
X147102533Y-100168819D01*
X147054914Y-100073580D01*
X147054914Y-99930723D01*
X147102533Y-99835485D01*
X147150152Y-99787866D01*
X147245390Y-99740247D01*
X147531104Y-99740247D01*
X147626342Y-99787866D01*
X147673961Y-99835485D01*
X147721580Y-99930723D01*
X147721580Y-100073580D01*
X147721580Y-99311676D02*
X147054914Y-99311676D01*
X147150152Y-99311676D02*
X147102533Y-99264057D01*
X147054914Y-99168819D01*
X147054914Y-99025961D01*
X147102533Y-98930723D01*
X147197771Y-98883104D01*
X147721580Y-98883104D01*
X147197771Y-98883104D02*
X147102533Y-98835485D01*
X147054914Y-98740247D01*
X147054914Y-98597390D01*
X147102533Y-98502152D01*
X147197771Y-98454533D01*
X147721580Y-98454533D01*
X101468466Y-84704180D02*
X101468466Y-83704180D01*
X101849419Y-83704180D01*
X101944657Y-83751800D01*
X101992276Y-83799419D01*
X102039895Y-83894657D01*
X102039895Y-84037514D01*
X101992276Y-84132752D01*
X101944657Y-84180371D01*
X101849419Y-84227990D01*
X101468466Y-84227990D01*
X102897038Y-84037514D02*
X102897038Y-84704180D01*
X102468466Y-84037514D02*
X102468466Y-84561323D01*
X102516085Y-84656561D01*
X102611323Y-84704180D01*
X102754180Y-84704180D01*
X102849419Y-84656561D01*
X102897038Y-84608942D01*
X103373228Y-84704180D02*
X103373228Y-84037514D01*
X103373228Y-84132752D02*
X103420847Y-84085133D01*
X103516085Y-84037514D01*
X103658942Y-84037514D01*
X103754180Y-84085133D01*
X103801800Y-84180371D01*
X103801800Y-84704180D01*
X103801800Y-84180371D02*
X103849419Y-84085133D01*
X103944657Y-84037514D01*
X104087514Y-84037514D01*
X104182752Y-84085133D01*
X104230371Y-84180371D01*
X104230371Y-84704180D01*
X104706561Y-84037514D02*
X104706561Y-85037514D01*
X104706561Y-84085133D02*
X104801800Y-84037514D01*
X104992276Y-84037514D01*
X105087514Y-84085133D01*
X105135133Y-84132752D01*
X105182752Y-84227990D01*
X105182752Y-84513704D01*
X105135133Y-84608942D01*
X105087514Y-84656561D01*
X104992276Y-84704180D01*
X104801800Y-84704180D01*
X104706561Y-84656561D01*
X107972314Y-115000066D02*
X108448504Y-115000066D01*
X107877076Y-115285780D02*
X108210409Y-114285780D01*
X108543742Y-115285780D01*
X109067552Y-114285780D02*
X109162790Y-114285780D01*
X109258028Y-114333400D01*
X109305647Y-114381019D01*
X109353266Y-114476257D01*
X109400885Y-114666733D01*
X109400885Y-114904828D01*
X109353266Y-115095304D01*
X109305647Y-115190542D01*
X109258028Y-115238161D01*
X109162790Y-115285780D01*
X109067552Y-115285780D01*
X108972314Y-115238161D01*
X108924695Y-115190542D01*
X108877076Y-115095304D01*
X108829457Y-114904828D01*
X108829457Y-114666733D01*
X108877076Y-114476257D01*
X108924695Y-114381019D01*
X108972314Y-114333400D01*
X109067552Y-114285780D01*
X118751600Y-117940200D02*
X118656361Y-117892580D01*
X118513504Y-117892580D01*
X118370647Y-117940200D01*
X118275409Y-118035438D01*
X118227790Y-118130676D01*
X118180171Y-118321152D01*
X118180171Y-118464009D01*
X118227790Y-118654485D01*
X118275409Y-118749723D01*
X118370647Y-118844961D01*
X118513504Y-118892580D01*
X118608742Y-118892580D01*
X118751600Y-118844961D01*
X118799219Y-118797342D01*
X118799219Y-118464009D01*
X118608742Y-118464009D01*
X119227790Y-118892580D02*
X119227790Y-117892580D01*
X119799219Y-118892580D01*
X119799219Y-117892580D01*
X120275409Y-118892580D02*
X120275409Y-117892580D01*
X120513504Y-117892580D01*
X120656361Y-117940200D01*
X120751600Y-118035438D01*
X120799219Y-118130676D01*
X120846838Y-118321152D01*
X120846838Y-118464009D01*
X120799219Y-118654485D01*
X120751600Y-118749723D01*
X120656361Y-118844961D01*
X120513504Y-118892580D01*
X120275409Y-118892580D01*
X121894457Y-117892580D02*
X122465885Y-117892580D01*
X122180171Y-118892580D02*
X122180171Y-117892580D01*
X122703980Y-117892580D02*
X123370647Y-118892580D01*
X123370647Y-117892580D02*
X122703980Y-118892580D01*
X101299400Y-100768876D02*
X101347019Y-100673638D01*
X101347019Y-100530780D01*
X101299400Y-100387923D01*
X101204161Y-100292685D01*
X101108923Y-100245066D01*
X100918447Y-100197447D01*
X100775590Y-100197447D01*
X100585114Y-100245066D01*
X100489876Y-100292685D01*
X100394638Y-100387923D01*
X100347019Y-100530780D01*
X100347019Y-100626019D01*
X100394638Y-100768876D01*
X100442257Y-100816495D01*
X100775590Y-100816495D01*
X100775590Y-100626019D01*
X100347019Y-101245066D02*
X101013685Y-101245066D01*
X100823209Y-101245066D02*
X100918447Y-101292685D01*
X100966066Y-101340304D01*
X101013685Y-101435542D01*
X101013685Y-101530780D01*
X100394638Y-102245066D02*
X100347019Y-102149828D01*
X100347019Y-101959352D01*
X100394638Y-101864114D01*
X100489876Y-101816495D01*
X100870828Y-101816495D01*
X100966066Y-101864114D01*
X101013685Y-101959352D01*
X101013685Y-102149828D01*
X100966066Y-102245066D01*
X100870828Y-102292685D01*
X100775590Y-102292685D01*
X100680352Y-101816495D01*
X100394638Y-103102209D02*
X100347019Y-103006971D01*
X100347019Y-102816495D01*
X100394638Y-102721257D01*
X100489876Y-102673638D01*
X100870828Y-102673638D01*
X100966066Y-102721257D01*
X101013685Y-102816495D01*
X101013685Y-103006971D01*
X100966066Y-103102209D01*
X100870828Y-103149828D01*
X100775590Y-103149828D01*
X100680352Y-102673638D01*
X101013685Y-103578400D02*
X100347019Y-103578400D01*
X100918447Y-103578400D02*
X100966066Y-103626019D01*
X101013685Y-103721257D01*
X101013685Y-103864114D01*
X100966066Y-103959352D01*
X100870828Y-104006971D01*
X100347019Y-104006971D01*
X101347019Y-104340304D02*
X101347019Y-104911733D01*
X100347019Y-104626019D02*
X101347019Y-104626019D01*
X100347019Y-105245066D02*
X101013685Y-105245066D01*
X100823209Y-105245066D02*
X100918447Y-105292685D01*
X100966066Y-105340304D01*
X101013685Y-105435542D01*
X101013685Y-105530780D01*
X100347019Y-106006971D02*
X100394638Y-105911733D01*
X100442257Y-105864114D01*
X100537495Y-105816495D01*
X100823209Y-105816495D01*
X100918447Y-105864114D01*
X100966066Y-105911733D01*
X101013685Y-106006971D01*
X101013685Y-106149828D01*
X100966066Y-106245066D01*
X100918447Y-106292685D01*
X100823209Y-106340304D01*
X100537495Y-106340304D01*
X100442257Y-106292685D01*
X100394638Y-106245066D01*
X100347019Y-106149828D01*
X100347019Y-106006971D01*
X101013685Y-106768876D02*
X100013685Y-106768876D01*
X100966066Y-106768876D02*
X101013685Y-106864114D01*
X101013685Y-107054590D01*
X100966066Y-107149828D01*
X100918447Y-107197447D01*
X100823209Y-107245066D01*
X100537495Y-107245066D01*
X100442257Y-107197447D01*
X100394638Y-107149828D01*
X100347019Y-107054590D01*
X100347019Y-106864114D01*
X100394638Y-106768876D01*
X100347019Y-107673638D02*
X101013685Y-107673638D01*
X101347019Y-107673638D02*
X101299400Y-107626019D01*
X101251780Y-107673638D01*
X101299400Y-107721257D01*
X101347019Y-107673638D01*
X101251780Y-107673638D01*
X100347019Y-108578400D02*
X100870828Y-108578400D01*
X100966066Y-108530780D01*
X101013685Y-108435542D01*
X101013685Y-108245066D01*
X100966066Y-108149828D01*
X100394638Y-108578400D02*
X100347019Y-108483161D01*
X100347019Y-108245066D01*
X100394638Y-108149828D01*
X100489876Y-108102209D01*
X100585114Y-108102209D01*
X100680352Y-108149828D01*
X100727971Y-108245066D01*
X100727971Y-108483161D01*
X100775590Y-108578400D01*
X100870828Y-110149828D02*
X100823209Y-110292685D01*
X100775590Y-110340304D01*
X100680352Y-110387923D01*
X100537495Y-110387923D01*
X100442257Y-110340304D01*
X100394638Y-110292685D01*
X100347019Y-110197447D01*
X100347019Y-109816495D01*
X101347019Y-109816495D01*
X101347019Y-110149828D01*
X101299400Y-110245066D01*
X101251780Y-110292685D01*
X101156542Y-110340304D01*
X101061304Y-110340304D01*
X100966066Y-110292685D01*
X100918447Y-110245066D01*
X100870828Y-110149828D01*
X100870828Y-109816495D01*
X100347019Y-111245066D02*
X100870828Y-111245066D01*
X100966066Y-111197447D01*
X101013685Y-111102209D01*
X101013685Y-110911733D01*
X100966066Y-110816495D01*
X100394638Y-111245066D02*
X100347019Y-111149828D01*
X100347019Y-110911733D01*
X100394638Y-110816495D01*
X100489876Y-110768876D01*
X100585114Y-110768876D01*
X100680352Y-110816495D01*
X100727971Y-110911733D01*
X100727971Y-111149828D01*
X100775590Y-111245066D01*
X100394638Y-111673638D02*
X100347019Y-111768876D01*
X100347019Y-111959352D01*
X100394638Y-112054590D01*
X100489876Y-112102209D01*
X100537495Y-112102209D01*
X100632733Y-112054590D01*
X100680352Y-111959352D01*
X100680352Y-111816495D01*
X100727971Y-111721257D01*
X100823209Y-111673638D01*
X100870828Y-111673638D01*
X100966066Y-111721257D01*
X101013685Y-111816495D01*
X101013685Y-111959352D01*
X100966066Y-112054590D01*
X100394638Y-112911733D02*
X100347019Y-112816495D01*
X100347019Y-112626019D01*
X100394638Y-112530780D01*
X100489876Y-112483161D01*
X100870828Y-112483161D01*
X100966066Y-112530780D01*
X101013685Y-112626019D01*
X101013685Y-112816495D01*
X100966066Y-112911733D01*
X100870828Y-112959352D01*
X100775590Y-112959352D01*
X100680352Y-112483161D01*
X99363685Y-100292685D02*
X98697019Y-100530780D01*
X99363685Y-100768876D01*
X99697019Y-101340304D02*
X99697019Y-101435542D01*
X99649400Y-101530780D01*
X99601780Y-101578400D01*
X99506542Y-101626019D01*
X99316066Y-101673638D01*
X99077971Y-101673638D01*
X98887495Y-101626019D01*
X98792257Y-101578400D01*
X98744638Y-101530780D01*
X98697019Y-101435542D01*
X98697019Y-101340304D01*
X98744638Y-101245066D01*
X98792257Y-101197447D01*
X98887495Y-101149828D01*
X99077971Y-101102209D01*
X99316066Y-101102209D01*
X99506542Y-101149828D01*
X99601780Y-101197447D01*
X99649400Y-101245066D01*
X99697019Y-101340304D01*
X98792257Y-102102209D02*
X98744638Y-102149828D01*
X98697019Y-102102209D01*
X98744638Y-102054590D01*
X98792257Y-102102209D01*
X98697019Y-102102209D01*
X98697019Y-103102209D02*
X98697019Y-102530780D01*
X98697019Y-102816495D02*
X99697019Y-102816495D01*
X99554161Y-102721257D01*
X99458923Y-102626019D01*
X99411304Y-102530780D01*
X98697019Y-104292685D02*
X99697019Y-104292685D01*
X98982733Y-104626019D01*
X99697019Y-104959352D01*
X98697019Y-104959352D01*
X98697019Y-105864114D02*
X99220828Y-105864114D01*
X99316066Y-105816495D01*
X99363685Y-105721257D01*
X99363685Y-105530780D01*
X99316066Y-105435542D01*
X98744638Y-105864114D02*
X98697019Y-105768876D01*
X98697019Y-105530780D01*
X98744638Y-105435542D01*
X98839876Y-105387923D01*
X98935114Y-105387923D01*
X99030352Y-105435542D01*
X99077971Y-105530780D01*
X99077971Y-105768876D01*
X99125590Y-105864114D01*
X99363685Y-106245066D02*
X98697019Y-106483161D01*
X99363685Y-106721257D02*
X98697019Y-106483161D01*
X98458923Y-106387923D01*
X98411304Y-106340304D01*
X98363685Y-106245066D01*
X98697019Y-107530780D02*
X99220828Y-107530780D01*
X99316066Y-107483161D01*
X99363685Y-107387923D01*
X99363685Y-107197447D01*
X99316066Y-107102209D01*
X98744638Y-107530780D02*
X98697019Y-107435542D01*
X98697019Y-107197447D01*
X98744638Y-107102209D01*
X98839876Y-107054590D01*
X98935114Y-107054590D01*
X99030352Y-107102209D01*
X99077971Y-107197447D01*
X99077971Y-107435542D01*
X99125590Y-107530780D01*
X98697019Y-108768876D02*
X99697019Y-108768876D01*
X99697019Y-109149828D01*
X99649400Y-109245066D01*
X99601780Y-109292685D01*
X99506542Y-109340304D01*
X99363685Y-109340304D01*
X99268447Y-109292685D01*
X99220828Y-109245066D01*
X99173209Y-109149828D01*
X99173209Y-108768876D01*
X98697019Y-109911733D02*
X98744638Y-109816495D01*
X98792257Y-109768876D01*
X98887495Y-109721257D01*
X99173209Y-109721257D01*
X99268447Y-109768876D01*
X99316066Y-109816495D01*
X99363685Y-109911733D01*
X99363685Y-110054590D01*
X99316066Y-110149828D01*
X99268447Y-110197447D01*
X99173209Y-110245066D01*
X98887495Y-110245066D01*
X98792257Y-110197447D01*
X98744638Y-110149828D01*
X98697019Y-110054590D01*
X98697019Y-109911733D01*
X98744638Y-110626019D02*
X98697019Y-110721257D01*
X98697019Y-110911733D01*
X98744638Y-111006971D01*
X98839876Y-111054590D01*
X98887495Y-111054590D01*
X98982733Y-111006971D01*
X99030352Y-110911733D01*
X99030352Y-110768876D01*
X99077971Y-110673638D01*
X99173209Y-110626019D01*
X99220828Y-110626019D01*
X99316066Y-110673638D01*
X99363685Y-110768876D01*
X99363685Y-110911733D01*
X99316066Y-111006971D01*
X98744638Y-111911733D02*
X98697019Y-111816495D01*
X98697019Y-111626019D01*
X98744638Y-111530780D01*
X98792257Y-111483161D01*
X98887495Y-111435542D01*
X99173209Y-111435542D01*
X99268447Y-111483161D01*
X99316066Y-111530780D01*
X99363685Y-111626019D01*
X99363685Y-111816495D01*
X99316066Y-111911733D01*
X98697019Y-112340304D02*
X99697019Y-112340304D01*
X98697019Y-112768876D02*
X99220828Y-112768876D01*
X99316066Y-112721257D01*
X99363685Y-112626019D01*
X99363685Y-112483161D01*
X99316066Y-112387923D01*
X99268447Y-112340304D01*
D11*
G04 #@! TO.C,U1*
X99822000Y-117379000D02*
X99822000Y-92631000D01*
X148082000Y-118031000D02*
X148082000Y-92631000D01*
D12*
G04 #@! TO.C,SPI0*
X134998800Y-78056000D02*
X134998800Y-76806000D01*
X133748800Y-78056000D02*
X134998800Y-78056000D01*
X123638800Y-73646000D02*
X123638800Y-74146000D01*
X123538800Y-74146000D02*
X123538800Y-73646000D01*
X123738800Y-74146000D02*
X123538800Y-74146000D01*
X123738800Y-73646000D02*
X123738800Y-74146000D01*
X125638800Y-73646000D02*
X125638800Y-74146000D01*
X125538800Y-74146000D02*
X125538800Y-73646000D01*
X125738800Y-74146000D02*
X125538800Y-74146000D01*
X125738800Y-73646000D02*
X125738800Y-74146000D01*
X127638800Y-73646000D02*
X127638800Y-74146000D01*
X127538800Y-74146000D02*
X127538800Y-73646000D01*
X127738800Y-74146000D02*
X127538800Y-74146000D01*
X127738800Y-73646000D02*
X127738800Y-74146000D01*
X129638800Y-73646000D02*
X129638800Y-74146000D01*
X129538800Y-74146000D02*
X129538800Y-73646000D01*
X129738800Y-74146000D02*
X129538800Y-74146000D01*
X129738800Y-73646000D02*
X129738800Y-74146000D01*
X131638800Y-73646000D02*
X131638800Y-74146000D01*
X131538800Y-74146000D02*
X131538800Y-73646000D01*
X131738800Y-74146000D02*
X131538800Y-74146000D01*
X131738800Y-73646000D02*
X131738800Y-74146000D01*
X120578800Y-75146000D02*
X121188800Y-75146000D01*
X120578800Y-76446000D02*
X121188800Y-76446000D01*
X134698800Y-75146000D02*
X134088800Y-75146000D01*
X134698800Y-76446000D02*
X134088800Y-76446000D01*
X123138800Y-77146000D02*
X123138800Y-77756000D01*
X121188800Y-77146000D02*
X123138800Y-77146000D01*
X121188800Y-73646000D02*
X121188800Y-77146000D01*
X134088800Y-73646000D02*
X121188800Y-73646000D01*
X134088800Y-77146000D02*
X134088800Y-73646000D01*
X132138800Y-77146000D02*
X134088800Y-77146000D01*
X132138800Y-77756000D02*
X132138800Y-77146000D01*
X132938800Y-77856000D02*
X133238800Y-77856000D01*
X133238800Y-77956000D02*
X133238800Y-77756000D01*
X132938800Y-77956000D02*
X133238800Y-77956000D01*
X132938800Y-77756000D02*
X132938800Y-77956000D01*
X120578800Y-77756000D02*
X134698800Y-77756000D01*
X120578800Y-73036000D02*
X120578800Y-77756000D01*
X134698800Y-73036000D02*
X120578800Y-73036000D01*
X134698800Y-77756000D02*
X134698800Y-73036000D01*
G04 #@! TO.C,J4*
X106601600Y-83491600D02*
X106601600Y-82241600D01*
X105351600Y-83491600D02*
X106601600Y-83491600D01*
X103241600Y-79081600D02*
X103241600Y-79581600D01*
X103141600Y-79581600D02*
X103141600Y-79081600D01*
X103341600Y-79581600D02*
X103141600Y-79581600D01*
X103341600Y-79081600D02*
X103341600Y-79581600D01*
X100181600Y-80581600D02*
X100791600Y-80581600D01*
X100181600Y-81881600D02*
X100791600Y-81881600D01*
X106301600Y-80581600D02*
X105691600Y-80581600D01*
X106301600Y-81881600D02*
X105691600Y-81881600D01*
X102741600Y-82581600D02*
X102741600Y-83191600D01*
X100791600Y-82581600D02*
X102741600Y-82581600D01*
X100791600Y-79081600D02*
X100791600Y-82581600D01*
X105691600Y-79081600D02*
X100791600Y-79081600D01*
X105691600Y-82581600D02*
X105691600Y-79081600D01*
X103741600Y-82581600D02*
X105691600Y-82581600D01*
X103741600Y-83191600D02*
X103741600Y-82581600D01*
X104541600Y-83291600D02*
X104841600Y-83291600D01*
X104841600Y-83391600D02*
X104841600Y-83191600D01*
X104541600Y-83391600D02*
X104841600Y-83391600D01*
X104541600Y-83191600D02*
X104541600Y-83391600D01*
X100181600Y-83191600D02*
X106301600Y-83191600D01*
X100181600Y-78471600D02*
X100181600Y-83191600D01*
X106301600Y-78471600D02*
X100181600Y-78471600D01*
X106301600Y-83191600D02*
X106301600Y-78471600D01*
G04 #@! TO.C,J1*
X142314000Y-78056000D02*
X142314000Y-76806000D01*
X141064000Y-78056000D02*
X142314000Y-78056000D01*
X138954000Y-73646000D02*
X138954000Y-74146000D01*
X138854000Y-74146000D02*
X138854000Y-73646000D01*
X139054000Y-74146000D02*
X138854000Y-74146000D01*
X139054000Y-73646000D02*
X139054000Y-74146000D01*
X135894000Y-75146000D02*
X136504000Y-75146000D01*
X135894000Y-76446000D02*
X136504000Y-76446000D01*
X142014000Y-75146000D02*
X141404000Y-75146000D01*
X142014000Y-76446000D02*
X141404000Y-76446000D01*
X138454000Y-77146000D02*
X138454000Y-77756000D01*
X136504000Y-77146000D02*
X138454000Y-77146000D01*
X136504000Y-73646000D02*
X136504000Y-77146000D01*
X141404000Y-73646000D02*
X136504000Y-73646000D01*
X141404000Y-77146000D02*
X141404000Y-73646000D01*
X139454000Y-77146000D02*
X141404000Y-77146000D01*
X139454000Y-77756000D02*
X139454000Y-77146000D01*
X140254000Y-77856000D02*
X140554000Y-77856000D01*
X140554000Y-77956000D02*
X140554000Y-77756000D01*
X140254000Y-77956000D02*
X140554000Y-77956000D01*
X140254000Y-77756000D02*
X140254000Y-77956000D01*
X135894000Y-77756000D02*
X142014000Y-77756000D01*
X135894000Y-73036000D02*
X135894000Y-77756000D01*
X142014000Y-73036000D02*
X135894000Y-73036000D01*
X142014000Y-77756000D02*
X142014000Y-73036000D01*
G04 #@! TO.C,EXT0*
X114526400Y-90756000D02*
X114526400Y-89506000D01*
X113276400Y-90756000D02*
X114526400Y-90756000D01*
X103166400Y-86346000D02*
X103166400Y-86846000D01*
X103066400Y-86846000D02*
X103066400Y-86346000D01*
X103266400Y-86846000D02*
X103066400Y-86846000D01*
X103266400Y-86346000D02*
X103266400Y-86846000D01*
X105166400Y-86346000D02*
X105166400Y-86846000D01*
X105066400Y-86846000D02*
X105066400Y-86346000D01*
X105266400Y-86846000D02*
X105066400Y-86846000D01*
X105266400Y-86346000D02*
X105266400Y-86846000D01*
X107166400Y-86346000D02*
X107166400Y-86846000D01*
X107066400Y-86846000D02*
X107066400Y-86346000D01*
X107266400Y-86846000D02*
X107066400Y-86846000D01*
X107266400Y-86346000D02*
X107266400Y-86846000D01*
X109166400Y-86346000D02*
X109166400Y-86846000D01*
X109066400Y-86846000D02*
X109066400Y-86346000D01*
X109266400Y-86846000D02*
X109066400Y-86846000D01*
X109266400Y-86346000D02*
X109266400Y-86846000D01*
X111166400Y-86346000D02*
X111166400Y-86846000D01*
X111066400Y-86846000D02*
X111066400Y-86346000D01*
X111266400Y-86846000D02*
X111066400Y-86846000D01*
X111266400Y-86346000D02*
X111266400Y-86846000D01*
X100106400Y-87846000D02*
X100716400Y-87846000D01*
X100106400Y-89146000D02*
X100716400Y-89146000D01*
X114226400Y-87846000D02*
X113616400Y-87846000D01*
X114226400Y-89146000D02*
X113616400Y-89146000D01*
X102666400Y-89846000D02*
X102666400Y-90456000D01*
X100716400Y-89846000D02*
X102666400Y-89846000D01*
X100716400Y-86346000D02*
X100716400Y-89846000D01*
X113616400Y-86346000D02*
X100716400Y-86346000D01*
X113616400Y-89846000D02*
X113616400Y-86346000D01*
X111666400Y-89846000D02*
X113616400Y-89846000D01*
X111666400Y-90456000D02*
X111666400Y-89846000D01*
X112466400Y-90556000D02*
X112766400Y-90556000D01*
X112766400Y-90656000D02*
X112766400Y-90456000D01*
X112466400Y-90656000D02*
X112766400Y-90656000D01*
X112466400Y-90456000D02*
X112466400Y-90656000D01*
X100106400Y-90456000D02*
X114226400Y-90456000D01*
X100106400Y-85736000D02*
X100106400Y-90456000D01*
X114226400Y-85736000D02*
X100106400Y-85736000D01*
X114226400Y-90456000D02*
X114226400Y-85736000D01*
G04 #@! TO.C,J6*
X124284800Y-123730000D02*
X124284800Y-119010000D01*
X124284800Y-119010000D02*
X118164800Y-119010000D01*
X118164800Y-119010000D02*
X118164800Y-123730000D01*
X118164800Y-123730000D02*
X124284800Y-123730000D01*
X122524800Y-123730000D02*
X122524800Y-123930000D01*
X122524800Y-123930000D02*
X122824800Y-123930000D01*
X122824800Y-123930000D02*
X122824800Y-123730000D01*
X122524800Y-123830000D02*
X122824800Y-123830000D01*
X121724800Y-123730000D02*
X121724800Y-123120000D01*
X121724800Y-123120000D02*
X123674800Y-123120000D01*
X123674800Y-123120000D02*
X123674800Y-119620000D01*
X123674800Y-119620000D02*
X118774800Y-119620000D01*
X118774800Y-119620000D02*
X118774800Y-123120000D01*
X118774800Y-123120000D02*
X120724800Y-123120000D01*
X120724800Y-123120000D02*
X120724800Y-123730000D01*
X124284800Y-122420000D02*
X123674800Y-122420000D01*
X124284800Y-121120000D02*
X123674800Y-121120000D01*
X118164800Y-122420000D02*
X118774800Y-122420000D01*
X118164800Y-121120000D02*
X118774800Y-121120000D01*
X121324800Y-119620000D02*
X121324800Y-120120000D01*
X121324800Y-120120000D02*
X121124800Y-120120000D01*
X121124800Y-120120000D02*
X121124800Y-119620000D01*
X121224800Y-119620000D02*
X121224800Y-120120000D01*
X123334800Y-124030000D02*
X124584800Y-124030000D01*
X124584800Y-124030000D02*
X124584800Y-122780000D01*
G04 #@! TO.C,U2*
X113182000Y-79458400D02*
X113182000Y-77008400D01*
X109962000Y-77658400D02*
X109962000Y-79458400D01*
D10*
G04 #@! TO.C,U3*
X123911200Y-90408600D02*
X123911200Y-91758600D01*
X129036200Y-90408600D02*
X129036200Y-85758600D01*
X123786200Y-90408600D02*
X123786200Y-85758600D01*
X129036200Y-90408600D02*
X128811200Y-90408600D01*
X129036200Y-85758600D02*
X128811200Y-85758600D01*
X123786200Y-85758600D02*
X124011200Y-85758600D01*
X123786200Y-90408600D02*
X123911200Y-90408600D01*
D12*
G04 #@! TO.C,R14*
X112181521Y-84812600D02*
X112507079Y-84812600D01*
X112181521Y-83792600D02*
X112507079Y-83792600D01*
G04 #@! TO.C,R13*
X111762000Y-98257579D02*
X111762000Y-97932021D01*
X110742000Y-98257579D02*
X110742000Y-97932021D01*
G04 #@! TO.C,R12*
X109222000Y-98282879D02*
X109222000Y-97957321D01*
X108202000Y-98282879D02*
X108202000Y-97957321D01*
G04 #@! TO.C,Q2*
X107040600Y-83903600D02*
X107040600Y-82443600D01*
X110200600Y-83903600D02*
X110200600Y-81743600D01*
X110200600Y-83903600D02*
X109270600Y-83903600D01*
X107040600Y-83903600D02*
X107970600Y-83903600D01*
G04 #@! TO.C,JP1*
X120202000Y-91855600D02*
X118872000Y-91855600D01*
X120202000Y-90525600D02*
X120202000Y-91855600D01*
X120202000Y-89255600D02*
X117542000Y-89255600D01*
X117542000Y-89255600D02*
X117542000Y-84115600D01*
X120202000Y-89255600D02*
X120202000Y-84115600D01*
X120202000Y-84115600D02*
X117542000Y-84115600D01*
G04 #@! TO.C,D3*
X98333000Y-81915000D02*
X98333000Y-80065000D01*
X99533000Y-81915000D02*
X99533000Y-80065000D01*
X99533000Y-80065000D02*
X98333000Y-80065000D01*
G04 #@! TO.C,C19*
X111795879Y-74420000D02*
X111470321Y-74420000D01*
X111795879Y-75440000D02*
X111470321Y-75440000D01*
G04 #@! TO.C,C18*
X122785600Y-86090879D02*
X122785600Y-85765321D01*
X121765600Y-86090879D02*
X121765600Y-85765321D01*
G04 #@! TO.C,C17*
X121765600Y-90083321D02*
X121765600Y-90408879D01*
X122785600Y-90083321D02*
X122785600Y-90408879D01*
G04 #@! TO.C,C5*
X111372122Y-73608000D02*
X111889278Y-73608000D01*
X111372122Y-72188000D02*
X111889278Y-72188000D01*
G04 #@! TO.C,C1*
X112481479Y-81709800D02*
X112155921Y-81709800D01*
X112481479Y-82729800D02*
X112155921Y-82729800D01*
G04 #@! TO.C,J2*
X141520720Y-91368400D02*
X135460720Y-91368400D01*
X135460720Y-91368400D02*
X135460720Y-88558400D01*
X135460720Y-83958400D02*
X135460720Y-81148400D01*
X135460720Y-81148400D02*
X141520720Y-81148400D01*
X145620720Y-81148400D02*
X148680720Y-81148400D01*
X148680720Y-81148400D02*
X148680720Y-91368400D01*
X148680720Y-91368400D02*
X145620720Y-91368400D01*
X135270720Y-87258400D02*
X135270720Y-85258400D01*
G04 #@! TO.C,J5*
X115217000Y-123730000D02*
X115217000Y-119010000D01*
X115217000Y-119010000D02*
X107097000Y-119010000D01*
X107097000Y-119010000D02*
X107097000Y-123730000D01*
X107097000Y-123730000D02*
X115217000Y-123730000D01*
X113457000Y-123730000D02*
X113457000Y-123930000D01*
X113457000Y-123930000D02*
X113757000Y-123930000D01*
X113757000Y-123930000D02*
X113757000Y-123730000D01*
X113457000Y-123830000D02*
X113757000Y-123830000D01*
X112657000Y-123730000D02*
X112657000Y-123120000D01*
X112657000Y-123120000D02*
X114607000Y-123120000D01*
X114607000Y-123120000D02*
X114607000Y-119620000D01*
X114607000Y-119620000D02*
X107707000Y-119620000D01*
X107707000Y-119620000D02*
X107707000Y-123120000D01*
X107707000Y-123120000D02*
X109657000Y-123120000D01*
X109657000Y-123120000D02*
X109657000Y-123730000D01*
X115217000Y-122420000D02*
X114607000Y-122420000D01*
X115217000Y-121120000D02*
X114607000Y-121120000D01*
X107097000Y-122420000D02*
X107707000Y-122420000D01*
X107097000Y-121120000D02*
X107707000Y-121120000D01*
X112257000Y-119620000D02*
X112257000Y-120120000D01*
X112257000Y-120120000D02*
X112057000Y-120120000D01*
X112057000Y-120120000D02*
X112057000Y-119620000D01*
X112157000Y-119620000D02*
X112157000Y-120120000D01*
X110257000Y-119620000D02*
X110257000Y-120120000D01*
X110257000Y-120120000D02*
X110057000Y-120120000D01*
X110057000Y-120120000D02*
X110057000Y-119620000D01*
X110157000Y-119620000D02*
X110157000Y-120120000D01*
X114267000Y-124030000D02*
X115517000Y-124030000D01*
X115517000Y-124030000D02*
X115517000Y-122780000D01*
G04 #@! TO.C,J7*
X139474000Y-123730000D02*
X139474000Y-119010000D01*
X139474000Y-119010000D02*
X127354000Y-119010000D01*
X127354000Y-119010000D02*
X127354000Y-123730000D01*
X127354000Y-123730000D02*
X139474000Y-123730000D01*
X137714000Y-123730000D02*
X137714000Y-123930000D01*
X137714000Y-123930000D02*
X138014000Y-123930000D01*
X138014000Y-123930000D02*
X138014000Y-123730000D01*
X137714000Y-123830000D02*
X138014000Y-123830000D01*
X136914000Y-123730000D02*
X136914000Y-123120000D01*
X136914000Y-123120000D02*
X138864000Y-123120000D01*
X138864000Y-123120000D02*
X138864000Y-119620000D01*
X138864000Y-119620000D02*
X127964000Y-119620000D01*
X127964000Y-119620000D02*
X127964000Y-123120000D01*
X127964000Y-123120000D02*
X129914000Y-123120000D01*
X129914000Y-123120000D02*
X129914000Y-123730000D01*
X139474000Y-122420000D02*
X138864000Y-122420000D01*
X139474000Y-121120000D02*
X138864000Y-121120000D01*
X127354000Y-122420000D02*
X127964000Y-122420000D01*
X127354000Y-121120000D02*
X127964000Y-121120000D01*
X136514000Y-119620000D02*
X136514000Y-120120000D01*
X136514000Y-120120000D02*
X136314000Y-120120000D01*
X136314000Y-120120000D02*
X136314000Y-119620000D01*
X136414000Y-119620000D02*
X136414000Y-120120000D01*
X134514000Y-119620000D02*
X134514000Y-120120000D01*
X134514000Y-120120000D02*
X134314000Y-120120000D01*
X134314000Y-120120000D02*
X134314000Y-119620000D01*
X134414000Y-119620000D02*
X134414000Y-120120000D01*
X132514000Y-119620000D02*
X132514000Y-120120000D01*
X132514000Y-120120000D02*
X132314000Y-120120000D01*
X132314000Y-120120000D02*
X132314000Y-119620000D01*
X132414000Y-119620000D02*
X132414000Y-120120000D01*
X130514000Y-119620000D02*
X130514000Y-120120000D01*
X130514000Y-120120000D02*
X130314000Y-120120000D01*
X130314000Y-120120000D02*
X130314000Y-119620000D01*
X130414000Y-119620000D02*
X130414000Y-120120000D01*
X138524000Y-124030000D02*
X139774000Y-124030000D01*
X139774000Y-124030000D02*
X139774000Y-122780000D01*
G04 #@! TO.C,D1*
X134394400Y-83285600D02*
X134394400Y-79985600D01*
X134394400Y-79985600D02*
X128994400Y-79985600D01*
X134394400Y-83285600D02*
X128994400Y-83285600D01*
G04 #@! TO.C,F1*
X134298000Y-85884248D02*
X134298000Y-88656752D01*
X130878000Y-85884248D02*
X130878000Y-88656752D01*
G04 #@! TO.C,C16*
X137602279Y-98554000D02*
X137276721Y-98554000D01*
X137602279Y-97534000D02*
X137276721Y-97534000D01*
G04 #@! TO.C,R9*
X142565664Y-99572400D02*
X141361536Y-99572400D01*
X142565664Y-101392400D02*
X141361536Y-101392400D01*
G04 #@! TO.C,C3*
X115690122Y-82929800D02*
X116207278Y-82929800D01*
X115690122Y-81509800D02*
X116207278Y-81509800D01*
G04 #@! TO.C,C12*
X125099578Y-98477000D02*
X124582422Y-98477000D01*
X125099578Y-99897000D02*
X124582422Y-99897000D01*
G04 #@! TO.C,C14*
X132915922Y-97334000D02*
X133433078Y-97334000D01*
X132915922Y-98754000D02*
X133433078Y-98754000D01*
G04 #@! TO.C,C15*
X108202000Y-112659479D02*
X108202000Y-112333921D01*
X109222000Y-112659479D02*
X109222000Y-112333921D01*
G04 #@! TO.C,C4*
X108100400Y-75346679D02*
X108100400Y-75021121D01*
X109120400Y-75346679D02*
X109120400Y-75021121D01*
G04 #@! TO.C,C6*
X129423279Y-103634000D02*
X129097721Y-103634000D01*
X129423279Y-102614000D02*
X129097721Y-102614000D01*
G04 #@! TO.C,C8*
X139952000Y-108676221D02*
X139952000Y-109001779D01*
X140972000Y-108676221D02*
X140972000Y-109001779D01*
G04 #@! TO.C,C9*
X129423279Y-106174000D02*
X129097721Y-106174000D01*
X129423279Y-105154000D02*
X129097721Y-105154000D01*
G04 #@! TO.C,D2*
X113954000Y-73930000D02*
X113954000Y-75930000D01*
X113954000Y-75930000D02*
X117854000Y-75930000D01*
X113954000Y-73930000D02*
X117854000Y-73930000D01*
G04 #@! TO.C,R7*
X124589221Y-105154000D02*
X124914779Y-105154000D01*
X124589221Y-106174000D02*
X124914779Y-106174000D01*
G04 #@! TO.C,R6*
X123442000Y-102707221D02*
X123442000Y-103032779D01*
X124462000Y-102707221D02*
X124462000Y-103032779D01*
G04 #@! TO.C,R5*
X137276721Y-113790000D02*
X137602279Y-113790000D01*
X137276721Y-114810000D02*
X137602279Y-114810000D01*
G04 #@! TO.C,R4*
X133161721Y-114810000D02*
X133487279Y-114810000D01*
X133161721Y-113790000D02*
X133487279Y-113790000D01*
G04 #@! TO.C,R3*
X107240800Y-75021121D02*
X107240800Y-75346679D01*
X106220800Y-75021121D02*
X106220800Y-75346679D01*
G04 #@! TO.C,R1*
X105662000Y-97957321D02*
X105662000Y-98282879D01*
X106682000Y-97957321D02*
X106682000Y-98282879D01*
G04 #@! TO.C,R2*
X109095000Y-78450121D02*
X109095000Y-78775679D01*
X108075000Y-78450121D02*
X108075000Y-78775679D01*
G04 #@! TO.C,L1*
X118330400Y-79150000D02*
X118330400Y-78160000D01*
X114130400Y-79150000D02*
X114130400Y-78160000D01*
D10*
G04 #@! TO.C,IC1*
X133086000Y-99979000D02*
X131711000Y-99979000D01*
X133086000Y-110104000D02*
X137236000Y-110104000D01*
X133086000Y-99954000D02*
X137236000Y-99954000D01*
X133086000Y-110104000D02*
X133086000Y-109999000D01*
X137236000Y-110104000D02*
X137236000Y-109999000D01*
X137236000Y-99954000D02*
X137236000Y-100059000D01*
X133086000Y-99954000D02*
X133086000Y-99979000D01*
D12*
G04 #@! TO.C,R8*
X123696000Y-110708221D02*
X123696000Y-111033779D01*
X124716000Y-110708221D02*
X124716000Y-111033779D01*
G04 #@! TO.C,R10*
X140565600Y-103850121D02*
X140565600Y-104175679D01*
X139545600Y-103850121D02*
X139545600Y-104175679D01*
G04 #@! TO.C,R11*
X141628400Y-103850121D02*
X141628400Y-104175679D01*
X142648400Y-103850121D02*
X142648400Y-104175679D01*
G04 #@! TO.C,Q1*
X128161000Y-98435000D02*
X129621000Y-98435000D01*
X128161000Y-101595000D02*
X130321000Y-101595000D01*
X128161000Y-101595000D02*
X128161000Y-100665000D01*
X128161000Y-98435000D02*
X128161000Y-99365000D01*
G04 #@! TO.C,C13*
X130716500Y-107329000D02*
X126506500Y-107329000D01*
X130716500Y-110349000D02*
X130716500Y-107329000D01*
X126506500Y-110349000D02*
X130716500Y-110349000D01*
G04 #@! TO.C,C7*
X130006500Y-111520000D02*
X125796500Y-111520000D01*
X125796500Y-111520000D02*
X125796500Y-114540000D01*
X125796500Y-114540000D02*
X130006500Y-114540000D01*
G04 #@! TO.C,CFF1*
X125474000Y-102707221D02*
X125474000Y-103032779D01*
X126494000Y-102707221D02*
X126494000Y-103032779D01*
G04 #@! TO.C,C11*
X137276721Y-112651000D02*
X137602279Y-112651000D01*
X137276721Y-111631000D02*
X137602279Y-111631000D01*
G04 #@! TO.C,C10*
X133487279Y-112651000D02*
X133161721Y-112651000D01*
X133487279Y-111631000D02*
X133161721Y-111631000D01*
D13*
G04 #@! TO.C,G\002A\002A\002A*
G36*
X117092027Y-103754856D02*
X117100586Y-103602163D01*
X117123432Y-103501465D01*
X117167586Y-103442475D01*
X117240071Y-103414905D01*
X117347906Y-103408466D01*
X117471527Y-103411884D01*
X117617304Y-103419119D01*
X117707897Y-103430997D01*
X117760691Y-103452792D01*
X117793071Y-103489781D01*
X117805896Y-103513346D01*
X117828600Y-103598541D01*
X117843656Y-103735096D01*
X117851064Y-103902202D01*
X117850822Y-104079051D01*
X117842932Y-104244835D01*
X117827392Y-104378746D01*
X117805906Y-104456775D01*
X117775864Y-104503791D01*
X117732426Y-104532211D01*
X117657480Y-104547840D01*
X117532914Y-104556481D01*
X117488941Y-104558349D01*
X117342678Y-104560863D01*
X117237419Y-104548243D01*
X117166439Y-104510549D01*
X117123010Y-104437840D01*
X117100408Y-104320175D01*
X117091905Y-104147615D01*
X117090735Y-103969833D01*
X117092027Y-103754856D01*
X117092027Y-103754856D01*
G37*
X117092027Y-103754856D02*
X117100586Y-103602163D01*
X117123432Y-103501465D01*
X117167586Y-103442475D01*
X117240071Y-103414905D01*
X117347906Y-103408466D01*
X117471527Y-103411884D01*
X117617304Y-103419119D01*
X117707897Y-103430997D01*
X117760691Y-103452792D01*
X117793071Y-103489781D01*
X117805896Y-103513346D01*
X117828600Y-103598541D01*
X117843656Y-103735096D01*
X117851064Y-103902202D01*
X117850822Y-104079051D01*
X117842932Y-104244835D01*
X117827392Y-104378746D01*
X117805906Y-104456775D01*
X117775864Y-104503791D01*
X117732426Y-104532211D01*
X117657480Y-104547840D01*
X117532914Y-104556481D01*
X117488941Y-104558349D01*
X117342678Y-104560863D01*
X117237419Y-104548243D01*
X117166439Y-104510549D01*
X117123010Y-104437840D01*
X117100408Y-104320175D01*
X117091905Y-104147615D01*
X117090735Y-103969833D01*
X117092027Y-103754856D01*
G36*
X117434448Y-109476283D02*
X117479097Y-109352681D01*
X117494102Y-109332112D01*
X117564407Y-109295149D01*
X117650073Y-109289993D01*
X117731992Y-109311126D01*
X117780059Y-109368732D01*
X117802337Y-109427917D01*
X117838467Y-109569605D01*
X117862280Y-109717329D01*
X117870209Y-109843474D01*
X117864035Y-109905614D01*
X117819313Y-109972834D01*
X117743534Y-109989635D01*
X117652075Y-109961368D01*
X117560315Y-109893383D01*
X117483633Y-109791030D01*
X117472656Y-109769448D01*
X117431826Y-109624896D01*
X117434448Y-109476283D01*
X117434448Y-109476283D01*
G37*
X117434448Y-109476283D02*
X117479097Y-109352681D01*
X117494102Y-109332112D01*
X117564407Y-109295149D01*
X117650073Y-109289993D01*
X117731992Y-109311126D01*
X117780059Y-109368732D01*
X117802337Y-109427917D01*
X117838467Y-109569605D01*
X117862280Y-109717329D01*
X117870209Y-109843474D01*
X117864035Y-109905614D01*
X117819313Y-109972834D01*
X117743534Y-109989635D01*
X117652075Y-109961368D01*
X117560315Y-109893383D01*
X117483633Y-109791030D01*
X117472656Y-109769448D01*
X117431826Y-109624896D01*
X117434448Y-109476283D01*
G36*
X115604914Y-104848319D02*
X115607447Y-104403862D01*
X115611849Y-103981309D01*
X115618119Y-103592466D01*
X115626258Y-103249141D01*
X115636266Y-102963139D01*
X115639512Y-102892737D01*
X115693887Y-101952943D01*
X115761824Y-101059921D01*
X115842887Y-100216193D01*
X115936640Y-99424279D01*
X116042645Y-98686700D01*
X116160468Y-98005976D01*
X116289670Y-97384628D01*
X116429817Y-96825176D01*
X116580471Y-96330140D01*
X116741196Y-95902042D01*
X116911555Y-95543402D01*
X116912109Y-95542381D01*
X116985930Y-95396066D01*
X117018201Y-95305265D01*
X117010035Y-95266789D01*
X117008482Y-95266144D01*
X116993355Y-95234615D01*
X117026867Y-95180578D01*
X117094589Y-95117430D01*
X117182092Y-95058564D01*
X117274946Y-95017377D01*
X117277182Y-95016698D01*
X117440541Y-95003788D01*
X117602402Y-95062904D01*
X117762119Y-95193506D01*
X117919048Y-95395052D01*
X118072541Y-95667003D01*
X118085127Y-95692765D01*
X118256747Y-96094435D01*
X118417466Y-96566232D01*
X118566994Y-97106489D01*
X118705045Y-97713543D01*
X118831331Y-98385727D01*
X118945562Y-99121377D01*
X119047452Y-99918827D01*
X119136711Y-100776413D01*
X119213052Y-101692469D01*
X119268615Y-102533632D01*
X119279976Y-102771146D01*
X119290195Y-103070037D01*
X119299188Y-103419119D01*
X119306870Y-103807205D01*
X119313154Y-104223109D01*
X119317954Y-104655644D01*
X119321186Y-105093623D01*
X119322764Y-105525861D01*
X119322601Y-105941170D01*
X119320612Y-106328364D01*
X119316712Y-106676256D01*
X119310815Y-106973660D01*
X119304176Y-107178203D01*
X119261018Y-108055220D01*
X119205405Y-108898016D01*
X119137896Y-109703716D01*
X119059046Y-110469443D01*
X118969413Y-111192321D01*
X118869554Y-111869476D01*
X118760024Y-112498030D01*
X118641382Y-113075109D01*
X118514183Y-113597836D01*
X118378984Y-114063336D01*
X118236342Y-114468733D01*
X118086814Y-114811151D01*
X117930956Y-115087714D01*
X117769326Y-115295547D01*
X117724090Y-115340131D01*
X117607567Y-115435199D01*
X117519335Y-115482024D01*
X117466239Y-115478067D01*
X117453592Y-115440492D01*
X117438893Y-115420509D01*
X117438893Y-113012438D01*
X117446079Y-113012270D01*
X117870878Y-113002060D01*
X117870878Y-112875060D01*
X117865027Y-112790408D01*
X117837321Y-112758345D01*
X117780465Y-112758258D01*
X117635834Y-112753041D01*
X117463247Y-112716143D01*
X117295056Y-112656249D01*
X117187664Y-112599110D01*
X117051146Y-112474874D01*
X116979960Y-112328993D01*
X116977320Y-112168748D01*
X116984506Y-112138452D01*
X117045415Y-112010470D01*
X117155966Y-111902958D01*
X117323972Y-111810174D01*
X117536688Y-111732670D01*
X117749255Y-111665162D01*
X117901693Y-111611217D01*
X118003811Y-111565028D01*
X118065418Y-111520787D01*
X118096324Y-111472689D01*
X118106338Y-111414927D01*
X118106735Y-111395230D01*
X118102142Y-111311417D01*
X118074517Y-111281373D01*
X118003086Y-111286329D01*
X117988806Y-111288681D01*
X117845491Y-111323806D01*
X117662900Y-111384174D01*
X117465397Y-111460150D01*
X117277348Y-111542099D01*
X117123115Y-111620386D01*
X117072399Y-111651087D01*
X117038334Y-111677757D01*
X117038334Y-111269141D01*
X117137698Y-111253104D01*
X117283876Y-111187682D01*
X117376035Y-111136257D01*
X117581651Y-111000059D01*
X117732337Y-110860018D01*
X117837271Y-110713871D01*
X117869991Y-110672791D01*
X117914947Y-110668353D01*
X117998426Y-110698145D01*
X118000291Y-110698917D01*
X118135027Y-110774043D01*
X118261865Y-110877454D01*
X118361487Y-110990538D01*
X118414573Y-111094681D01*
X118415606Y-111099078D01*
X118448194Y-111178723D01*
X118509686Y-111205304D01*
X118526903Y-111205917D01*
X118586209Y-111196015D01*
X118610615Y-111152233D01*
X118614735Y-111077752D01*
X118599565Y-110949327D01*
X118565240Y-110831129D01*
X118477045Y-110695527D01*
X118336573Y-110566156D01*
X118163291Y-110460188D01*
X118124877Y-110442654D01*
X118004460Y-110406555D01*
X117830449Y-110374325D01*
X117709976Y-110358857D01*
X117709976Y-110243598D01*
X117816999Y-110226071D01*
X117976200Y-110168698D01*
X118077935Y-110082769D01*
X118118682Y-110008489D01*
X118129276Y-109919230D01*
X118116958Y-109779618D01*
X118084299Y-109607252D01*
X118033872Y-109419728D01*
X118031560Y-109412284D01*
X117959985Y-109214314D01*
X117887150Y-109070882D01*
X117816716Y-108987773D01*
X117752346Y-108970775D01*
X117752150Y-108970834D01*
X117685852Y-108985553D01*
X117572236Y-109005883D01*
X117526163Y-109013163D01*
X117526163Y-108804574D01*
X117870878Y-108792917D01*
X117882139Y-108656846D01*
X117893401Y-108520775D01*
X117682568Y-108519978D01*
X117435936Y-108487824D01*
X117221026Y-108396006D01*
X117083821Y-108287321D01*
X116995063Y-108165402D01*
X116970866Y-108033455D01*
X116988789Y-107924792D01*
X117039735Y-107804069D01*
X117128851Y-107704070D01*
X117265973Y-107617713D01*
X117460935Y-107537918D01*
X117579745Y-107499318D01*
X117785079Y-107434000D01*
X117930025Y-107380212D01*
X118024601Y-107331874D01*
X118078821Y-107282908D01*
X118102703Y-107227237D01*
X118106735Y-107179508D01*
X118096957Y-107097105D01*
X118075095Y-107054075D01*
X118024733Y-107055404D01*
X117923207Y-107080061D01*
X117786011Y-107122676D01*
X117628638Y-107177883D01*
X117466584Y-107240314D01*
X117315340Y-107304601D01*
X117217735Y-107351104D01*
X117080503Y-107431514D01*
X116950178Y-107525176D01*
X116875365Y-107591800D01*
X116801470Y-107678876D01*
X116760608Y-107763674D01*
X116740278Y-107877174D01*
X116734926Y-107939884D01*
X116739147Y-108152328D01*
X116788624Y-108315074D01*
X116886411Y-108437462D01*
X116901689Y-108450000D01*
X116961521Y-108499083D01*
X116965975Y-108515938D01*
X116916899Y-108512962D01*
X116910983Y-108512270D01*
X116826668Y-108531319D01*
X116774411Y-108594249D01*
X116774193Y-108676003D01*
X116828008Y-108723448D01*
X116942311Y-108762023D01*
X117105343Y-108789717D01*
X117305347Y-108804521D01*
X117526163Y-108804574D01*
X117526163Y-109013163D01*
X117435861Y-109027432D01*
X117435449Y-109027494D01*
X117206327Y-109065821D01*
X117037095Y-109105684D01*
X116915128Y-109151459D01*
X116827800Y-109207522D01*
X116781335Y-109254260D01*
X116707583Y-109394683D01*
X116686851Y-109563547D01*
X116718899Y-109740004D01*
X116788625Y-109882137D01*
X116866750Y-109991322D01*
X116923833Y-110047890D01*
X116974142Y-110062626D01*
X117014873Y-110053136D01*
X117078248Y-110015568D01*
X117095715Y-109957668D01*
X117067257Y-109866477D01*
X117014461Y-109766161D01*
X116955203Y-109657961D01*
X116929380Y-109588183D01*
X116932727Y-109533237D01*
X116960878Y-109469726D01*
X117030855Y-109382865D01*
X117116846Y-109328031D01*
X117217735Y-109292847D01*
X117217735Y-109587168D01*
X117220072Y-109738925D01*
X117230816Y-109841077D01*
X117255568Y-109916534D01*
X117299927Y-109988207D01*
X117323458Y-110019699D01*
X117447809Y-110155803D01*
X117571239Y-110228175D01*
X117709976Y-110243598D01*
X117709976Y-110358857D01*
X117621787Y-110347533D01*
X117397416Y-110327750D01*
X117176278Y-110316546D01*
X116977315Y-110315489D01*
X116819468Y-110326152D01*
X116784612Y-110331563D01*
X116669549Y-110354154D01*
X116587853Y-110372686D01*
X116560368Y-110381618D01*
X116579015Y-110408237D01*
X116638409Y-110462289D01*
X116666427Y-110485215D01*
X116730364Y-110529771D01*
X116800365Y-110559266D01*
X116895081Y-110578117D01*
X117033165Y-110590744D01*
X117137503Y-110596802D01*
X117291512Y-110607245D01*
X117417477Y-110620256D01*
X117498310Y-110633830D01*
X117518071Y-110641445D01*
X117508411Y-110679811D01*
X117432658Y-110748127D01*
X117290816Y-110846388D01*
X117147172Y-110936039D01*
X117040417Y-111006769D01*
X116984601Y-111064518D01*
X116964867Y-111126919D01*
X116963735Y-111153753D01*
X116981705Y-111235966D01*
X117038334Y-111269141D01*
X117038334Y-111677757D01*
X116898998Y-111786847D01*
X116789733Y-111929834D01*
X116736420Y-112093343D01*
X116727877Y-112210942D01*
X116752506Y-112420299D01*
X116824550Y-112583336D01*
X116893587Y-112659357D01*
X116932211Y-112698911D01*
X116909951Y-112719887D01*
X116868765Y-112730773D01*
X116791791Y-112779719D01*
X116770612Y-112831946D01*
X116785220Y-112905009D01*
X116855588Y-112958584D01*
X116985479Y-112993677D01*
X117178660Y-113011294D01*
X117438893Y-113012438D01*
X117438893Y-115420509D01*
X117422741Y-115398549D01*
X117346603Y-115355219D01*
X117327309Y-115347689D01*
X117187615Y-115262058D01*
X117046173Y-115107552D01*
X116904712Y-114887786D01*
X116764961Y-114606372D01*
X116628650Y-114266924D01*
X116497510Y-113873056D01*
X116473878Y-113788475D01*
X116473878Y-106996774D01*
X116727877Y-106996774D01*
X116727877Y-106271060D01*
X117359910Y-106271060D01*
X117570294Y-106269798D01*
X117758023Y-106266299D01*
X117909956Y-106260997D01*
X118012953Y-106254323D01*
X118051253Y-106248300D01*
X118092603Y-106206273D01*
X118101044Y-106115328D01*
X118099578Y-106094086D01*
X118088592Y-105962632D01*
X117726407Y-105957377D01*
X117726407Y-105764210D01*
X117880049Y-105762332D01*
X118000929Y-105755813D01*
X118072256Y-105744288D01*
X118082544Y-105738870D01*
X118099148Y-105689073D01*
X118106693Y-105600911D01*
X118106735Y-105593727D01*
X118106735Y-105472774D01*
X117698520Y-105472279D01*
X117482544Y-105470911D01*
X117482544Y-104855917D01*
X117649045Y-104854734D01*
X117760140Y-104848779D01*
X117832982Y-104834442D01*
X117884728Y-104808114D01*
X117932533Y-104766187D01*
X117938831Y-104759925D01*
X117999239Y-104689326D01*
X118042890Y-104608330D01*
X118072431Y-104504134D01*
X118090507Y-104363934D01*
X118099761Y-104174927D01*
X118102665Y-103966917D01*
X118101888Y-103758003D01*
X118095884Y-103605675D01*
X118082963Y-103494035D01*
X118061437Y-103407186D01*
X118036451Y-103343916D01*
X117978617Y-103242539D01*
X117915260Y-103168265D01*
X117894491Y-103153416D01*
X117827609Y-103136482D01*
X117708182Y-103123225D01*
X117556401Y-103115476D01*
X117556401Y-102932775D01*
X117740566Y-102930994D01*
X117898233Y-102926111D01*
X118015428Y-102918809D01*
X118078177Y-102909777D01*
X118084264Y-102906864D01*
X118099462Y-102855575D01*
X118099383Y-102770793D01*
X118088592Y-102660632D01*
X117637327Y-102650389D01*
X117452422Y-102643175D01*
X117297897Y-102631352D01*
X117188089Y-102616353D01*
X117138399Y-102600589D01*
X117117491Y-102560945D01*
X117103189Y-102476955D01*
X117094743Y-102340129D01*
X117091405Y-102141978D01*
X117091290Y-102066546D01*
X117093469Y-101881790D01*
X117099051Y-101721639D01*
X117107249Y-101600868D01*
X117117278Y-101534247D01*
X117119941Y-101527844D01*
X117167410Y-101505955D01*
X117280204Y-101489502D01*
X117460993Y-101478192D01*
X117618314Y-101473416D01*
X118088592Y-101463203D01*
X118088592Y-101209203D01*
X117589197Y-101199105D01*
X117356779Y-101197705D01*
X117177349Y-101203630D01*
X117058084Y-101216503D01*
X117014625Y-101229240D01*
X116950930Y-101278183D01*
X116903569Y-101353681D01*
X116870509Y-101465202D01*
X116849720Y-101622214D01*
X116839170Y-101834185D01*
X116836735Y-102058390D01*
X116838698Y-102300881D01*
X116846042Y-102483021D01*
X116860949Y-102616959D01*
X116885599Y-102714845D01*
X116922173Y-102788828D01*
X116972854Y-102851058D01*
X116980428Y-102858754D01*
X117016121Y-102888516D01*
X117062038Y-102909075D01*
X117131199Y-102922104D01*
X117236626Y-102929278D01*
X117391340Y-102932269D01*
X117556401Y-102932775D01*
X117556401Y-103115476D01*
X117556215Y-103115466D01*
X117464051Y-103114203D01*
X117264839Y-103119213D01*
X117112647Y-103139904D01*
X117001226Y-103184765D01*
X116924327Y-103262288D01*
X116875701Y-103380964D01*
X116849100Y-103549282D01*
X116838274Y-103775734D01*
X116836735Y-103966561D01*
X116837959Y-104181919D01*
X116842668Y-104339063D01*
X116852410Y-104452323D01*
X116868736Y-104536030D01*
X116893197Y-104604515D01*
X116909425Y-104638435D01*
X116970383Y-104735842D01*
X117034448Y-104806238D01*
X117052182Y-104818418D01*
X117117457Y-104834530D01*
X117235614Y-104847175D01*
X117386985Y-104854638D01*
X117482544Y-104855917D01*
X117482544Y-105470911D01*
X117477193Y-105470877D01*
X117317794Y-105463373D01*
X117209680Y-105443890D01*
X117142209Y-105406550D01*
X117104738Y-105345475D01*
X117086623Y-105254789D01*
X117077256Y-105129186D01*
X117057084Y-104990764D01*
X117014087Y-104916844D01*
X116944051Y-104901784D01*
X116912959Y-104909187D01*
X116871815Y-104930436D01*
X116848769Y-104973016D01*
X116838780Y-105054568D01*
X116836791Y-105175863D01*
X116856881Y-105399821D01*
X116915494Y-105572788D01*
X117010321Y-105689022D01*
X117054449Y-105716663D01*
X117120036Y-105732555D01*
X117236817Y-105745619D01*
X117387999Y-105755491D01*
X117556793Y-105761809D01*
X117726407Y-105764210D01*
X117726407Y-105957377D01*
X117408235Y-105952760D01*
X116727877Y-105942887D01*
X116727877Y-105582972D01*
X116724104Y-105412705D01*
X116713617Y-105284545D01*
X116697670Y-105211011D01*
X116689529Y-105199357D01*
X116667552Y-105195760D01*
X116667552Y-101003789D01*
X116760905Y-100957803D01*
X116770377Y-100949579D01*
X116820950Y-100917049D01*
X116836735Y-100931436D01*
X116870629Y-100944576D01*
X116962793Y-100955630D01*
X117098951Y-100964414D01*
X117264826Y-100970745D01*
X117446144Y-100974441D01*
X117628626Y-100975318D01*
X117797997Y-100973193D01*
X117939982Y-100967884D01*
X118040302Y-100959206D01*
X118084264Y-100947436D01*
X118099462Y-100896146D01*
X118099383Y-100811364D01*
X118088592Y-100701203D01*
X117513258Y-100691856D01*
X117513258Y-100501363D01*
X117672088Y-100499941D01*
X117805625Y-100493641D01*
X117894311Y-100482160D01*
X117908436Y-100477979D01*
X117960517Y-100432126D01*
X118018297Y-100344948D01*
X118038001Y-100305622D01*
X118061492Y-100246957D01*
X118078629Y-100181215D01*
X118090189Y-100096933D01*
X118096949Y-99982649D01*
X118099685Y-99826901D01*
X118099174Y-99618225D01*
X118097260Y-99431203D01*
X118088592Y-98705489D01*
X117995955Y-98705489D01*
X117995955Y-98580341D01*
X118039678Y-98572978D01*
X118070078Y-98540803D01*
X118089568Y-98474650D01*
X118100563Y-98365350D01*
X118105474Y-98203736D01*
X118106714Y-97980642D01*
X118106735Y-97925319D01*
X118104540Y-97660396D01*
X118097579Y-97459616D01*
X118085283Y-97314671D01*
X118067085Y-97217256D01*
X118056139Y-97185066D01*
X117966919Y-97051761D01*
X117842111Y-96969314D01*
X117698894Y-96942199D01*
X117554446Y-96974891D01*
X117466651Y-97031514D01*
X117427136Y-97068217D01*
X117398932Y-97107738D01*
X117379279Y-97163143D01*
X117365414Y-97247493D01*
X117354576Y-97373852D01*
X117344002Y-97555284D01*
X117340058Y-97630276D01*
X117326754Y-97866103D01*
X117313607Y-98038704D01*
X117298434Y-98157384D01*
X117279054Y-98231451D01*
X117253282Y-98270212D01*
X117218938Y-98282972D01*
X117187404Y-98281247D01*
X117147097Y-98268670D01*
X117121545Y-98234694D01*
X117105602Y-98163840D01*
X117094119Y-98040627D01*
X117090735Y-97990524D01*
X117073351Y-97816798D01*
X117045313Y-97706958D01*
X117002200Y-97652588D01*
X116939593Y-97645270D01*
X116912959Y-97652044D01*
X116876240Y-97669737D01*
X116853636Y-97704420D01*
X116841775Y-97771253D01*
X116837291Y-97885393D01*
X116836735Y-97994997D01*
X116839532Y-98159377D01*
X116850534Y-98272213D01*
X116873657Y-98354405D01*
X116912817Y-98426853D01*
X116919562Y-98437051D01*
X116990124Y-98521656D01*
X117072056Y-98560549D01*
X117154033Y-98571436D01*
X117286561Y-98570056D01*
X117389052Y-98539098D01*
X117465715Y-98471017D01*
X117520759Y-98358268D01*
X117558395Y-98193304D01*
X117582830Y-97968580D01*
X117593808Y-97783062D01*
X117616878Y-97290346D01*
X117716663Y-97278864D01*
X117791495Y-97274136D01*
X117823341Y-97278864D01*
X117826680Y-97317058D01*
X117831675Y-97415901D01*
X117837825Y-97563501D01*
X117844630Y-97747970D01*
X117850555Y-97924921D01*
X117858528Y-98154893D01*
X117866391Y-98322360D01*
X117875479Y-98437375D01*
X117887126Y-98509991D01*
X117902669Y-98550261D01*
X117923442Y-98568236D01*
X117936497Y-98572061D01*
X117995955Y-98580341D01*
X117995955Y-98705489D01*
X117870878Y-98705489D01*
X117852735Y-99413060D01*
X117845667Y-99634416D01*
X117836719Y-99832175D01*
X117826646Y-99994377D01*
X117816201Y-100109065D01*
X117806139Y-100164279D01*
X117805236Y-100165989D01*
X117754978Y-100189370D01*
X117653850Y-100204663D01*
X117523108Y-100211809D01*
X117384009Y-100210751D01*
X117257807Y-100201431D01*
X117165760Y-100183793D01*
X117134278Y-100167803D01*
X117116803Y-100122095D01*
X117104040Y-100021575D01*
X117095685Y-99861360D01*
X117091438Y-99636567D01*
X117090735Y-99463199D01*
X117089567Y-99248241D01*
X117086324Y-99056038D01*
X117081397Y-98899326D01*
X117075176Y-98790840D01*
X117068710Y-98744742D01*
X117016863Y-98700416D01*
X116941710Y-98687346D01*
X116836735Y-98687346D01*
X116836735Y-99451148D01*
X116838124Y-99737806D01*
X116843369Y-99961046D01*
X116854085Y-100129986D01*
X116871886Y-100253743D01*
X116898386Y-100341437D01*
X116935202Y-100402185D01*
X116983947Y-100445105D01*
X117016153Y-100464270D01*
X117080583Y-100479360D01*
X117197949Y-100490772D01*
X117348693Y-100498207D01*
X117513258Y-100501363D01*
X117513258Y-100691856D01*
X117474436Y-100691225D01*
X117232054Y-100688765D01*
X117054380Y-100690677D01*
X116933661Y-100697388D01*
X116862141Y-100709325D01*
X116832317Y-100726494D01*
X116803504Y-100747143D01*
X116780376Y-100709258D01*
X116729823Y-100662081D01*
X116648782Y-100646908D01*
X116570714Y-100664425D01*
X116532188Y-100704171D01*
X116507925Y-100828533D01*
X116529864Y-100927616D01*
X116586806Y-100989880D01*
X116667552Y-101003789D01*
X116667552Y-105195760D01*
X116627515Y-105189207D01*
X116562529Y-105197907D01*
X116473878Y-105220157D01*
X116473878Y-106996774D01*
X116473878Y-113788475D01*
X116373268Y-113428381D01*
X116334828Y-113274203D01*
X116181456Y-112572615D01*
X116044543Y-111801262D01*
X115924203Y-110961086D01*
X115820551Y-110053029D01*
X115733703Y-109078034D01*
X115663773Y-108037044D01*
X115639512Y-107581098D01*
X115628963Y-107313891D01*
X115620283Y-106985944D01*
X115613471Y-106609062D01*
X115608529Y-106195052D01*
X115605455Y-105755721D01*
X115604250Y-105302874D01*
X115604914Y-104848319D01*
X115604914Y-104848319D01*
G37*
X115604914Y-104848319D02*
X115607447Y-104403862D01*
X115611849Y-103981309D01*
X115618119Y-103592466D01*
X115626258Y-103249141D01*
X115636266Y-102963139D01*
X115639512Y-102892737D01*
X115693887Y-101952943D01*
X115761824Y-101059921D01*
X115842887Y-100216193D01*
X115936640Y-99424279D01*
X116042645Y-98686700D01*
X116160468Y-98005976D01*
X116289670Y-97384628D01*
X116429817Y-96825176D01*
X116580471Y-96330140D01*
X116741196Y-95902042D01*
X116911555Y-95543402D01*
X116912109Y-95542381D01*
X116985930Y-95396066D01*
X117018201Y-95305265D01*
X117010035Y-95266789D01*
X117008482Y-95266144D01*
X116993355Y-95234615D01*
X117026867Y-95180578D01*
X117094589Y-95117430D01*
X117182092Y-95058564D01*
X117274946Y-95017377D01*
X117277182Y-95016698D01*
X117440541Y-95003788D01*
X117602402Y-95062904D01*
X117762119Y-95193506D01*
X117919048Y-95395052D01*
X118072541Y-95667003D01*
X118085127Y-95692765D01*
X118256747Y-96094435D01*
X118417466Y-96566232D01*
X118566994Y-97106489D01*
X118705045Y-97713543D01*
X118831331Y-98385727D01*
X118945562Y-99121377D01*
X119047452Y-99918827D01*
X119136711Y-100776413D01*
X119213052Y-101692469D01*
X119268615Y-102533632D01*
X119279976Y-102771146D01*
X119290195Y-103070037D01*
X119299188Y-103419119D01*
X119306870Y-103807205D01*
X119313154Y-104223109D01*
X119317954Y-104655644D01*
X119321186Y-105093623D01*
X119322764Y-105525861D01*
X119322601Y-105941170D01*
X119320612Y-106328364D01*
X119316712Y-106676256D01*
X119310815Y-106973660D01*
X119304176Y-107178203D01*
X119261018Y-108055220D01*
X119205405Y-108898016D01*
X119137896Y-109703716D01*
X119059046Y-110469443D01*
X118969413Y-111192321D01*
X118869554Y-111869476D01*
X118760024Y-112498030D01*
X118641382Y-113075109D01*
X118514183Y-113597836D01*
X118378984Y-114063336D01*
X118236342Y-114468733D01*
X118086814Y-114811151D01*
X117930956Y-115087714D01*
X117769326Y-115295547D01*
X117724090Y-115340131D01*
X117607567Y-115435199D01*
X117519335Y-115482024D01*
X117466239Y-115478067D01*
X117453592Y-115440492D01*
X117438893Y-115420509D01*
X117438893Y-113012438D01*
X117446079Y-113012270D01*
X117870878Y-113002060D01*
X117870878Y-112875060D01*
X117865027Y-112790408D01*
X117837321Y-112758345D01*
X117780465Y-112758258D01*
X117635834Y-112753041D01*
X117463247Y-112716143D01*
X117295056Y-112656249D01*
X117187664Y-112599110D01*
X117051146Y-112474874D01*
X116979960Y-112328993D01*
X116977320Y-112168748D01*
X116984506Y-112138452D01*
X117045415Y-112010470D01*
X117155966Y-111902958D01*
X117323972Y-111810174D01*
X117536688Y-111732670D01*
X117749255Y-111665162D01*
X117901693Y-111611217D01*
X118003811Y-111565028D01*
X118065418Y-111520787D01*
X118096324Y-111472689D01*
X118106338Y-111414927D01*
X118106735Y-111395230D01*
X118102142Y-111311417D01*
X118074517Y-111281373D01*
X118003086Y-111286329D01*
X117988806Y-111288681D01*
X117845491Y-111323806D01*
X117662900Y-111384174D01*
X117465397Y-111460150D01*
X117277348Y-111542099D01*
X117123115Y-111620386D01*
X117072399Y-111651087D01*
X117038334Y-111677757D01*
X117038334Y-111269141D01*
X117137698Y-111253104D01*
X117283876Y-111187682D01*
X117376035Y-111136257D01*
X117581651Y-111000059D01*
X117732337Y-110860018D01*
X117837271Y-110713871D01*
X117869991Y-110672791D01*
X117914947Y-110668353D01*
X117998426Y-110698145D01*
X118000291Y-110698917D01*
X118135027Y-110774043D01*
X118261865Y-110877454D01*
X118361487Y-110990538D01*
X118414573Y-111094681D01*
X118415606Y-111099078D01*
X118448194Y-111178723D01*
X118509686Y-111205304D01*
X118526903Y-111205917D01*
X118586209Y-111196015D01*
X118610615Y-111152233D01*
X118614735Y-111077752D01*
X118599565Y-110949327D01*
X118565240Y-110831129D01*
X118477045Y-110695527D01*
X118336573Y-110566156D01*
X118163291Y-110460188D01*
X118124877Y-110442654D01*
X118004460Y-110406555D01*
X117830449Y-110374325D01*
X117709976Y-110358857D01*
X117709976Y-110243598D01*
X117816999Y-110226071D01*
X117976200Y-110168698D01*
X118077935Y-110082769D01*
X118118682Y-110008489D01*
X118129276Y-109919230D01*
X118116958Y-109779618D01*
X118084299Y-109607252D01*
X118033872Y-109419728D01*
X118031560Y-109412284D01*
X117959985Y-109214314D01*
X117887150Y-109070882D01*
X117816716Y-108987773D01*
X117752346Y-108970775D01*
X117752150Y-108970834D01*
X117685852Y-108985553D01*
X117572236Y-109005883D01*
X117526163Y-109013163D01*
X117526163Y-108804574D01*
X117870878Y-108792917D01*
X117882139Y-108656846D01*
X117893401Y-108520775D01*
X117682568Y-108519978D01*
X117435936Y-108487824D01*
X117221026Y-108396006D01*
X117083821Y-108287321D01*
X116995063Y-108165402D01*
X116970866Y-108033455D01*
X116988789Y-107924792D01*
X117039735Y-107804069D01*
X117128851Y-107704070D01*
X117265973Y-107617713D01*
X117460935Y-107537918D01*
X117579745Y-107499318D01*
X117785079Y-107434000D01*
X117930025Y-107380212D01*
X118024601Y-107331874D01*
X118078821Y-107282908D01*
X118102703Y-107227237D01*
X118106735Y-107179508D01*
X118096957Y-107097105D01*
X118075095Y-107054075D01*
X118024733Y-107055404D01*
X117923207Y-107080061D01*
X117786011Y-107122676D01*
X117628638Y-107177883D01*
X117466584Y-107240314D01*
X117315340Y-107304601D01*
X117217735Y-107351104D01*
X117080503Y-107431514D01*
X116950178Y-107525176D01*
X116875365Y-107591800D01*
X116801470Y-107678876D01*
X116760608Y-107763674D01*
X116740278Y-107877174D01*
X116734926Y-107939884D01*
X116739147Y-108152328D01*
X116788624Y-108315074D01*
X116886411Y-108437462D01*
X116901689Y-108450000D01*
X116961521Y-108499083D01*
X116965975Y-108515938D01*
X116916899Y-108512962D01*
X116910983Y-108512270D01*
X116826668Y-108531319D01*
X116774411Y-108594249D01*
X116774193Y-108676003D01*
X116828008Y-108723448D01*
X116942311Y-108762023D01*
X117105343Y-108789717D01*
X117305347Y-108804521D01*
X117526163Y-108804574D01*
X117526163Y-109013163D01*
X117435861Y-109027432D01*
X117435449Y-109027494D01*
X117206327Y-109065821D01*
X117037095Y-109105684D01*
X116915128Y-109151459D01*
X116827800Y-109207522D01*
X116781335Y-109254260D01*
X116707583Y-109394683D01*
X116686851Y-109563547D01*
X116718899Y-109740004D01*
X116788625Y-109882137D01*
X116866750Y-109991322D01*
X116923833Y-110047890D01*
X116974142Y-110062626D01*
X117014873Y-110053136D01*
X117078248Y-110015568D01*
X117095715Y-109957668D01*
X117067257Y-109866477D01*
X117014461Y-109766161D01*
X116955203Y-109657961D01*
X116929380Y-109588183D01*
X116932727Y-109533237D01*
X116960878Y-109469726D01*
X117030855Y-109382865D01*
X117116846Y-109328031D01*
X117217735Y-109292847D01*
X117217735Y-109587168D01*
X117220072Y-109738925D01*
X117230816Y-109841077D01*
X117255568Y-109916534D01*
X117299927Y-109988207D01*
X117323458Y-110019699D01*
X117447809Y-110155803D01*
X117571239Y-110228175D01*
X117709976Y-110243598D01*
X117709976Y-110358857D01*
X117621787Y-110347533D01*
X117397416Y-110327750D01*
X117176278Y-110316546D01*
X116977315Y-110315489D01*
X116819468Y-110326152D01*
X116784612Y-110331563D01*
X116669549Y-110354154D01*
X116587853Y-110372686D01*
X116560368Y-110381618D01*
X116579015Y-110408237D01*
X116638409Y-110462289D01*
X116666427Y-110485215D01*
X116730364Y-110529771D01*
X116800365Y-110559266D01*
X116895081Y-110578117D01*
X117033165Y-110590744D01*
X117137503Y-110596802D01*
X117291512Y-110607245D01*
X117417477Y-110620256D01*
X117498310Y-110633830D01*
X117518071Y-110641445D01*
X117508411Y-110679811D01*
X117432658Y-110748127D01*
X117290816Y-110846388D01*
X117147172Y-110936039D01*
X117040417Y-111006769D01*
X116984601Y-111064518D01*
X116964867Y-111126919D01*
X116963735Y-111153753D01*
X116981705Y-111235966D01*
X117038334Y-111269141D01*
X117038334Y-111677757D01*
X116898998Y-111786847D01*
X116789733Y-111929834D01*
X116736420Y-112093343D01*
X116727877Y-112210942D01*
X116752506Y-112420299D01*
X116824550Y-112583336D01*
X116893587Y-112659357D01*
X116932211Y-112698911D01*
X116909951Y-112719887D01*
X116868765Y-112730773D01*
X116791791Y-112779719D01*
X116770612Y-112831946D01*
X116785220Y-112905009D01*
X116855588Y-112958584D01*
X116985479Y-112993677D01*
X117178660Y-113011294D01*
X117438893Y-113012438D01*
X117438893Y-115420509D01*
X117422741Y-115398549D01*
X117346603Y-115355219D01*
X117327309Y-115347689D01*
X117187615Y-115262058D01*
X117046173Y-115107552D01*
X116904712Y-114887786D01*
X116764961Y-114606372D01*
X116628650Y-114266924D01*
X116497510Y-113873056D01*
X116473878Y-113788475D01*
X116473878Y-106996774D01*
X116727877Y-106996774D01*
X116727877Y-106271060D01*
X117359910Y-106271060D01*
X117570294Y-106269798D01*
X117758023Y-106266299D01*
X117909956Y-106260997D01*
X118012953Y-106254323D01*
X118051253Y-106248300D01*
X118092603Y-106206273D01*
X118101044Y-106115328D01*
X118099578Y-106094086D01*
X118088592Y-105962632D01*
X117726407Y-105957377D01*
X117726407Y-105764210D01*
X117880049Y-105762332D01*
X118000929Y-105755813D01*
X118072256Y-105744288D01*
X118082544Y-105738870D01*
X118099148Y-105689073D01*
X118106693Y-105600911D01*
X118106735Y-105593727D01*
X118106735Y-105472774D01*
X117698520Y-105472279D01*
X117482544Y-105470911D01*
X117482544Y-104855917D01*
X117649045Y-104854734D01*
X117760140Y-104848779D01*
X117832982Y-104834442D01*
X117884728Y-104808114D01*
X117932533Y-104766187D01*
X117938831Y-104759925D01*
X117999239Y-104689326D01*
X118042890Y-104608330D01*
X118072431Y-104504134D01*
X118090507Y-104363934D01*
X118099761Y-104174927D01*
X118102665Y-103966917D01*
X118101888Y-103758003D01*
X118095884Y-103605675D01*
X118082963Y-103494035D01*
X118061437Y-103407186D01*
X118036451Y-103343916D01*
X117978617Y-103242539D01*
X117915260Y-103168265D01*
X117894491Y-103153416D01*
X117827609Y-103136482D01*
X117708182Y-103123225D01*
X117556401Y-103115476D01*
X117556401Y-102932775D01*
X117740566Y-102930994D01*
X117898233Y-102926111D01*
X118015428Y-102918809D01*
X118078177Y-102909777D01*
X118084264Y-102906864D01*
X118099462Y-102855575D01*
X118099383Y-102770793D01*
X118088592Y-102660632D01*
X117637327Y-102650389D01*
X117452422Y-102643175D01*
X117297897Y-102631352D01*
X117188089Y-102616353D01*
X117138399Y-102600589D01*
X117117491Y-102560945D01*
X117103189Y-102476955D01*
X117094743Y-102340129D01*
X117091405Y-102141978D01*
X117091290Y-102066546D01*
X117093469Y-101881790D01*
X117099051Y-101721639D01*
X117107249Y-101600868D01*
X117117278Y-101534247D01*
X117119941Y-101527844D01*
X117167410Y-101505955D01*
X117280204Y-101489502D01*
X117460993Y-101478192D01*
X117618314Y-101473416D01*
X118088592Y-101463203D01*
X118088592Y-101209203D01*
X117589197Y-101199105D01*
X117356779Y-101197705D01*
X117177349Y-101203630D01*
X117058084Y-101216503D01*
X117014625Y-101229240D01*
X116950930Y-101278183D01*
X116903569Y-101353681D01*
X116870509Y-101465202D01*
X116849720Y-101622214D01*
X116839170Y-101834185D01*
X116836735Y-102058390D01*
X116838698Y-102300881D01*
X116846042Y-102483021D01*
X116860949Y-102616959D01*
X116885599Y-102714845D01*
X116922173Y-102788828D01*
X116972854Y-102851058D01*
X116980428Y-102858754D01*
X117016121Y-102888516D01*
X117062038Y-102909075D01*
X117131199Y-102922104D01*
X117236626Y-102929278D01*
X117391340Y-102932269D01*
X117556401Y-102932775D01*
X117556401Y-103115476D01*
X117556215Y-103115466D01*
X117464051Y-103114203D01*
X117264839Y-103119213D01*
X117112647Y-103139904D01*
X117001226Y-103184765D01*
X116924327Y-103262288D01*
X116875701Y-103380964D01*
X116849100Y-103549282D01*
X116838274Y-103775734D01*
X116836735Y-103966561D01*
X116837959Y-104181919D01*
X116842668Y-104339063D01*
X116852410Y-104452323D01*
X116868736Y-104536030D01*
X116893197Y-104604515D01*
X116909425Y-104638435D01*
X116970383Y-104735842D01*
X117034448Y-104806238D01*
X117052182Y-104818418D01*
X117117457Y-104834530D01*
X117235614Y-104847175D01*
X117386985Y-104854638D01*
X117482544Y-104855917D01*
X117482544Y-105470911D01*
X117477193Y-105470877D01*
X117317794Y-105463373D01*
X117209680Y-105443890D01*
X117142209Y-105406550D01*
X117104738Y-105345475D01*
X117086623Y-105254789D01*
X117077256Y-105129186D01*
X117057084Y-104990764D01*
X117014087Y-104916844D01*
X116944051Y-104901784D01*
X116912959Y-104909187D01*
X116871815Y-104930436D01*
X116848769Y-104973016D01*
X116838780Y-105054568D01*
X116836791Y-105175863D01*
X116856881Y-105399821D01*
X116915494Y-105572788D01*
X117010321Y-105689022D01*
X117054449Y-105716663D01*
X117120036Y-105732555D01*
X117236817Y-105745619D01*
X117387999Y-105755491D01*
X117556793Y-105761809D01*
X117726407Y-105764210D01*
X117726407Y-105957377D01*
X117408235Y-105952760D01*
X116727877Y-105942887D01*
X116727877Y-105582972D01*
X116724104Y-105412705D01*
X116713617Y-105284545D01*
X116697670Y-105211011D01*
X116689529Y-105199357D01*
X116667552Y-105195760D01*
X116667552Y-101003789D01*
X116760905Y-100957803D01*
X116770377Y-100949579D01*
X116820950Y-100917049D01*
X116836735Y-100931436D01*
X116870629Y-100944576D01*
X116962793Y-100955630D01*
X117098951Y-100964414D01*
X117264826Y-100970745D01*
X117446144Y-100974441D01*
X117628626Y-100975318D01*
X117797997Y-100973193D01*
X117939982Y-100967884D01*
X118040302Y-100959206D01*
X118084264Y-100947436D01*
X118099462Y-100896146D01*
X118099383Y-100811364D01*
X118088592Y-100701203D01*
X117513258Y-100691856D01*
X117513258Y-100501363D01*
X117672088Y-100499941D01*
X117805625Y-100493641D01*
X117894311Y-100482160D01*
X117908436Y-100477979D01*
X117960517Y-100432126D01*
X118018297Y-100344948D01*
X118038001Y-100305622D01*
X118061492Y-100246957D01*
X118078629Y-100181215D01*
X118090189Y-100096933D01*
X118096949Y-99982649D01*
X118099685Y-99826901D01*
X118099174Y-99618225D01*
X118097260Y-99431203D01*
X118088592Y-98705489D01*
X117995955Y-98705489D01*
X117995955Y-98580341D01*
X118039678Y-98572978D01*
X118070078Y-98540803D01*
X118089568Y-98474650D01*
X118100563Y-98365350D01*
X118105474Y-98203736D01*
X118106714Y-97980642D01*
X118106735Y-97925319D01*
X118104540Y-97660396D01*
X118097579Y-97459616D01*
X118085283Y-97314671D01*
X118067085Y-97217256D01*
X118056139Y-97185066D01*
X117966919Y-97051761D01*
X117842111Y-96969314D01*
X117698894Y-96942199D01*
X117554446Y-96974891D01*
X117466651Y-97031514D01*
X117427136Y-97068217D01*
X117398932Y-97107738D01*
X117379279Y-97163143D01*
X117365414Y-97247493D01*
X117354576Y-97373852D01*
X117344002Y-97555284D01*
X117340058Y-97630276D01*
X117326754Y-97866103D01*
X117313607Y-98038704D01*
X117298434Y-98157384D01*
X117279054Y-98231451D01*
X117253282Y-98270212D01*
X117218938Y-98282972D01*
X117187404Y-98281247D01*
X117147097Y-98268670D01*
X117121545Y-98234694D01*
X117105602Y-98163840D01*
X117094119Y-98040627D01*
X117090735Y-97990524D01*
X117073351Y-97816798D01*
X117045313Y-97706958D01*
X117002200Y-97652588D01*
X116939593Y-97645270D01*
X116912959Y-97652044D01*
X116876240Y-97669737D01*
X116853636Y-97704420D01*
X116841775Y-97771253D01*
X116837291Y-97885393D01*
X116836735Y-97994997D01*
X116839532Y-98159377D01*
X116850534Y-98272213D01*
X116873657Y-98354405D01*
X116912817Y-98426853D01*
X116919562Y-98437051D01*
X116990124Y-98521656D01*
X117072056Y-98560549D01*
X117154033Y-98571436D01*
X117286561Y-98570056D01*
X117389052Y-98539098D01*
X117465715Y-98471017D01*
X117520759Y-98358268D01*
X117558395Y-98193304D01*
X117582830Y-97968580D01*
X117593808Y-97783062D01*
X117616878Y-97290346D01*
X117716663Y-97278864D01*
X117791495Y-97274136D01*
X117823341Y-97278864D01*
X117826680Y-97317058D01*
X117831675Y-97415901D01*
X117837825Y-97563501D01*
X117844630Y-97747970D01*
X117850555Y-97924921D01*
X117858528Y-98154893D01*
X117866391Y-98322360D01*
X117875479Y-98437375D01*
X117887126Y-98509991D01*
X117902669Y-98550261D01*
X117923442Y-98568236D01*
X117936497Y-98572061D01*
X117995955Y-98580341D01*
X117995955Y-98705489D01*
X117870878Y-98705489D01*
X117852735Y-99413060D01*
X117845667Y-99634416D01*
X117836719Y-99832175D01*
X117826646Y-99994377D01*
X117816201Y-100109065D01*
X117806139Y-100164279D01*
X117805236Y-100165989D01*
X117754978Y-100189370D01*
X117653850Y-100204663D01*
X117523108Y-100211809D01*
X117384009Y-100210751D01*
X117257807Y-100201431D01*
X117165760Y-100183793D01*
X117134278Y-100167803D01*
X117116803Y-100122095D01*
X117104040Y-100021575D01*
X117095685Y-99861360D01*
X117091438Y-99636567D01*
X117090735Y-99463199D01*
X117089567Y-99248241D01*
X117086324Y-99056038D01*
X117081397Y-98899326D01*
X117075176Y-98790840D01*
X117068710Y-98744742D01*
X117016863Y-98700416D01*
X116941710Y-98687346D01*
X116836735Y-98687346D01*
X116836735Y-99451148D01*
X116838124Y-99737806D01*
X116843369Y-99961046D01*
X116854085Y-100129986D01*
X116871886Y-100253743D01*
X116898386Y-100341437D01*
X116935202Y-100402185D01*
X116983947Y-100445105D01*
X117016153Y-100464270D01*
X117080583Y-100479360D01*
X117197949Y-100490772D01*
X117348693Y-100498207D01*
X117513258Y-100501363D01*
X117513258Y-100691856D01*
X117474436Y-100691225D01*
X117232054Y-100688765D01*
X117054380Y-100690677D01*
X116933661Y-100697388D01*
X116862141Y-100709325D01*
X116832317Y-100726494D01*
X116803504Y-100747143D01*
X116780376Y-100709258D01*
X116729823Y-100662081D01*
X116648782Y-100646908D01*
X116570714Y-100664425D01*
X116532188Y-100704171D01*
X116507925Y-100828533D01*
X116529864Y-100927616D01*
X116586806Y-100989880D01*
X116667552Y-101003789D01*
X116667552Y-105195760D01*
X116627515Y-105189207D01*
X116562529Y-105197907D01*
X116473878Y-105220157D01*
X116473878Y-106996774D01*
X116473878Y-113788475D01*
X116373268Y-113428381D01*
X116334828Y-113274203D01*
X116181456Y-112572615D01*
X116044543Y-111801262D01*
X115924203Y-110961086D01*
X115820551Y-110053029D01*
X115733703Y-109078034D01*
X115663773Y-108037044D01*
X115639512Y-107581098D01*
X115628963Y-107313891D01*
X115620283Y-106985944D01*
X115613471Y-106609062D01*
X115608529Y-106195052D01*
X115605455Y-105755721D01*
X115604250Y-105302874D01*
X115604914Y-104848319D01*
G36*
X114325114Y-110618877D02*
X114363860Y-110435526D01*
X114449275Y-110299952D01*
X114596778Y-110192204D01*
X114690508Y-110146141D01*
X114859818Y-110091611D01*
X115055605Y-110060529D01*
X115253076Y-110053310D01*
X115427437Y-110070368D01*
X115553893Y-110112121D01*
X115580704Y-110131225D01*
X115656951Y-110237441D01*
X115655583Y-110353017D01*
X115575379Y-110484289D01*
X115497096Y-110565594D01*
X115348129Y-110722925D01*
X115255590Y-110872628D01*
X115201482Y-111047442D01*
X115186821Y-111130080D01*
X115133215Y-111335319D01*
X115049459Y-111463588D01*
X114939335Y-111513317D01*
X114806626Y-111482942D01*
X114655114Y-111370892D01*
X114640495Y-111356558D01*
X114453201Y-111123407D01*
X114347078Y-110881225D01*
X114323819Y-110633976D01*
X114325114Y-110618877D01*
X114325114Y-110618877D01*
G37*
X114325114Y-110618877D02*
X114363860Y-110435526D01*
X114449275Y-110299952D01*
X114596778Y-110192204D01*
X114690508Y-110146141D01*
X114859818Y-110091611D01*
X115055605Y-110060529D01*
X115253076Y-110053310D01*
X115427437Y-110070368D01*
X115553893Y-110112121D01*
X115580704Y-110131225D01*
X115656951Y-110237441D01*
X115655583Y-110353017D01*
X115575379Y-110484289D01*
X115497096Y-110565594D01*
X115348129Y-110722925D01*
X115255590Y-110872628D01*
X115201482Y-111047442D01*
X115186821Y-111130080D01*
X115133215Y-111335319D01*
X115049459Y-111463588D01*
X114939335Y-111513317D01*
X114806626Y-111482942D01*
X114655114Y-111370892D01*
X114640495Y-111356558D01*
X114453201Y-111123407D01*
X114347078Y-110881225D01*
X114323819Y-110633976D01*
X114325114Y-110618877D01*
G36*
X114374050Y-109337378D02*
X114454625Y-109250250D01*
X114580849Y-109226588D01*
X114743412Y-109270564D01*
X114782292Y-109289297D01*
X114898027Y-109382470D01*
X114982909Y-109513146D01*
X115029685Y-109657783D01*
X115031099Y-109792842D01*
X114979898Y-109894783D01*
X114971276Y-109902522D01*
X114850090Y-109954627D01*
X114712546Y-109940874D01*
X114576126Y-109873015D01*
X114458310Y-109762803D01*
X114376579Y-109621990D01*
X114348434Y-109483797D01*
X114374050Y-109337378D01*
X114374050Y-109337378D01*
G37*
X114374050Y-109337378D02*
X114454625Y-109250250D01*
X114580849Y-109226588D01*
X114743412Y-109270564D01*
X114782292Y-109289297D01*
X114898027Y-109382470D01*
X114982909Y-109513146D01*
X115029685Y-109657783D01*
X115031099Y-109792842D01*
X114979898Y-109894783D01*
X114971276Y-109902522D01*
X114850090Y-109954627D01*
X114712546Y-109940874D01*
X114576126Y-109873015D01*
X114458310Y-109762803D01*
X114376579Y-109621990D01*
X114348434Y-109483797D01*
X114374050Y-109337378D01*
G36*
X113506607Y-111041789D02*
X113604102Y-110953822D01*
X113736152Y-110893242D01*
X113849751Y-110876080D01*
X114040573Y-110899251D01*
X114186656Y-110961572D01*
X114279223Y-111052252D01*
X114309499Y-111160504D01*
X114268708Y-111275537D01*
X114219990Y-111331230D01*
X114054913Y-111432413D01*
X113866126Y-111453243D01*
X113746119Y-111427199D01*
X113608942Y-111355325D01*
X113508956Y-111253083D01*
X113468628Y-111143728D01*
X113468573Y-111139903D01*
X113506607Y-111041789D01*
X113506607Y-111041789D01*
G37*
X113506607Y-111041789D02*
X113604102Y-110953822D01*
X113736152Y-110893242D01*
X113849751Y-110876080D01*
X114040573Y-110899251D01*
X114186656Y-110961572D01*
X114279223Y-111052252D01*
X114309499Y-111160504D01*
X114268708Y-111275537D01*
X114219990Y-111331230D01*
X114054913Y-111432413D01*
X113866126Y-111453243D01*
X113746119Y-111427199D01*
X113608942Y-111355325D01*
X113508956Y-111253083D01*
X113468628Y-111143728D01*
X113468573Y-111139903D01*
X113506607Y-111041789D01*
G36*
X113502802Y-109477664D02*
X113594500Y-109390785D01*
X113727185Y-109355931D01*
X113884375Y-109378501D01*
X114006268Y-109435033D01*
X114149256Y-109559414D01*
X114238990Y-109714661D01*
X114265600Y-109878178D01*
X114243958Y-109979233D01*
X114173937Y-110051414D01*
X114053456Y-110088180D01*
X113911846Y-110082439D01*
X113866758Y-110070433D01*
X113728251Y-109995737D01*
X113601339Y-109878752D01*
X113507621Y-109744393D01*
X113468695Y-109617569D01*
X113468573Y-109611169D01*
X113502802Y-109477664D01*
X113502802Y-109477664D01*
G37*
X113502802Y-109477664D02*
X113594500Y-109390785D01*
X113727185Y-109355931D01*
X113884375Y-109378501D01*
X114006268Y-109435033D01*
X114149256Y-109559414D01*
X114238990Y-109714661D01*
X114265600Y-109878178D01*
X114243958Y-109979233D01*
X114173937Y-110051414D01*
X114053456Y-110088180D01*
X113911846Y-110082439D01*
X113866758Y-110070433D01*
X113728251Y-109995737D01*
X113601339Y-109878752D01*
X113507621Y-109744393D01*
X113468695Y-109617569D01*
X113468573Y-109611169D01*
X113502802Y-109477664D01*
G36*
X113110936Y-110216789D02*
X113193804Y-110148027D01*
X113231030Y-110128967D01*
X113422300Y-110081454D01*
X113615316Y-110114441D01*
X113797006Y-110225067D01*
X113835979Y-110261353D01*
X113931585Y-110364310D01*
X113968114Y-110437990D01*
X113949826Y-110509302D01*
X113888834Y-110595205D01*
X113812217Y-110669285D01*
X113715354Y-110701400D01*
X113611565Y-110706747D01*
X113391693Y-110678377D01*
X113225965Y-110597171D01*
X113122052Y-110468988D01*
X113087573Y-110306679D01*
X113110936Y-110216789D01*
X113110936Y-110216789D01*
G37*
X113110936Y-110216789D02*
X113193804Y-110148027D01*
X113231030Y-110128967D01*
X113422300Y-110081454D01*
X113615316Y-110114441D01*
X113797006Y-110225067D01*
X113835979Y-110261353D01*
X113931585Y-110364310D01*
X113968114Y-110437990D01*
X113949826Y-110509302D01*
X113888834Y-110595205D01*
X113812217Y-110669285D01*
X113715354Y-110701400D01*
X113611565Y-110706747D01*
X113391693Y-110678377D01*
X113225965Y-110597171D01*
X113122052Y-110468988D01*
X113087573Y-110306679D01*
X113110936Y-110216789D01*
G36*
X109921229Y-110082688D02*
X109923316Y-110059505D01*
X109979684Y-109850888D01*
X110104825Y-109689937D01*
X110299902Y-109575536D01*
X110486888Y-109520830D01*
X110691609Y-109492496D01*
X110892515Y-109488970D01*
X111065248Y-109508829D01*
X111185452Y-109550651D01*
X111202335Y-109562581D01*
X111265054Y-109662313D01*
X111252567Y-109788188D01*
X111166923Y-109931708D01*
X111094417Y-110010239D01*
X110947657Y-110168284D01*
X110856032Y-110315317D01*
X110802117Y-110483951D01*
X110782852Y-110593382D01*
X110732574Y-110773607D01*
X110647390Y-110899553D01*
X110537127Y-110958152D01*
X110506713Y-110960747D01*
X110402097Y-110925146D01*
X110277681Y-110828930D01*
X110149954Y-110687978D01*
X110035406Y-110518170D01*
X110021747Y-110493710D01*
X109950393Y-110345752D01*
X109920108Y-110222953D01*
X109921229Y-110082688D01*
X109921229Y-110082688D01*
G37*
X109921229Y-110082688D02*
X109923316Y-110059505D01*
X109979684Y-109850888D01*
X110104825Y-109689937D01*
X110299902Y-109575536D01*
X110486888Y-109520830D01*
X110691609Y-109492496D01*
X110892515Y-109488970D01*
X111065248Y-109508829D01*
X111185452Y-109550651D01*
X111202335Y-109562581D01*
X111265054Y-109662313D01*
X111252567Y-109788188D01*
X111166923Y-109931708D01*
X111094417Y-110010239D01*
X110947657Y-110168284D01*
X110856032Y-110315317D01*
X110802117Y-110483951D01*
X110782852Y-110593382D01*
X110732574Y-110773607D01*
X110647390Y-110899553D01*
X110537127Y-110958152D01*
X110506713Y-110960747D01*
X110402097Y-110925146D01*
X110277681Y-110828930D01*
X110149954Y-110687978D01*
X110035406Y-110518170D01*
X110021747Y-110493710D01*
X109950393Y-110345752D01*
X109920108Y-110222953D01*
X109921229Y-110082688D01*
G36*
X109974237Y-108788556D02*
X110040073Y-108706011D01*
X110164178Y-108675662D01*
X110200440Y-108674747D01*
X110356478Y-108713476D01*
X110494140Y-108815301D01*
X110592891Y-108958677D01*
X110632193Y-109122062D01*
X110632240Y-109127714D01*
X110619926Y-109247496D01*
X110589504Y-109333456D01*
X110581440Y-109343614D01*
X110474315Y-109398233D01*
X110344583Y-109390055D01*
X110210061Y-109330679D01*
X110088566Y-109231700D01*
X109997915Y-109104716D01*
X109955924Y-108961324D01*
X109954907Y-108935803D01*
X109974237Y-108788556D01*
X109974237Y-108788556D01*
G37*
X109974237Y-108788556D02*
X110040073Y-108706011D01*
X110164178Y-108675662D01*
X110200440Y-108674747D01*
X110356478Y-108713476D01*
X110494140Y-108815301D01*
X110592891Y-108958677D01*
X110632193Y-109122062D01*
X110632240Y-109127714D01*
X110619926Y-109247496D01*
X110589504Y-109333456D01*
X110581440Y-109343614D01*
X110474315Y-109398233D01*
X110344583Y-109390055D01*
X110210061Y-109330679D01*
X110088566Y-109231700D01*
X109997915Y-109104716D01*
X109955924Y-108961324D01*
X109954907Y-108935803D01*
X109974237Y-108788556D01*
G36*
X108893433Y-105862133D02*
X108999813Y-105690241D01*
X109156583Y-105557081D01*
X109205507Y-105530912D01*
X109329955Y-105489390D01*
X109500760Y-105453949D01*
X109669692Y-105433345D01*
X109895901Y-105427967D01*
X110052116Y-105454255D01*
X110148469Y-105516523D01*
X110195091Y-105619082D01*
X110201008Y-105659493D01*
X110198840Y-105746860D01*
X110163420Y-105824289D01*
X110080657Y-105916357D01*
X110022712Y-105970480D01*
X109896905Y-106101009D01*
X109812993Y-106236086D01*
X109756454Y-106404837D01*
X109723277Y-106571025D01*
X109670436Y-106728062D01*
X109580563Y-106842581D01*
X109469926Y-106895305D01*
X109448380Y-106896747D01*
X109334472Y-106859171D01*
X109209591Y-106758647D01*
X109086552Y-106613484D01*
X108978171Y-106441989D01*
X108897266Y-106262471D01*
X108856652Y-106093238D01*
X108854240Y-106048029D01*
X108893433Y-105862133D01*
X108893433Y-105862133D01*
G37*
X108893433Y-105862133D02*
X108999813Y-105690241D01*
X109156583Y-105557081D01*
X109205507Y-105530912D01*
X109329955Y-105489390D01*
X109500760Y-105453949D01*
X109669692Y-105433345D01*
X109895901Y-105427967D01*
X110052116Y-105454255D01*
X110148469Y-105516523D01*
X110195091Y-105619082D01*
X110201008Y-105659493D01*
X110198840Y-105746860D01*
X110163420Y-105824289D01*
X110080657Y-105916357D01*
X110022712Y-105970480D01*
X109896905Y-106101009D01*
X109812993Y-106236086D01*
X109756454Y-106404837D01*
X109723277Y-106571025D01*
X109670436Y-106728062D01*
X109580563Y-106842581D01*
X109469926Y-106895305D01*
X109448380Y-106896747D01*
X109334472Y-106859171D01*
X109209591Y-106758647D01*
X109086552Y-106613484D01*
X108978171Y-106441989D01*
X108897266Y-106262471D01*
X108856652Y-106093238D01*
X108854240Y-106048029D01*
X108893433Y-105862133D01*
G36*
X109089029Y-110542347D02*
X109099319Y-110518921D01*
X109187947Y-110412948D01*
X109327016Y-110334636D01*
X109483265Y-110298893D01*
X109576304Y-110305107D01*
X109723596Y-110362582D01*
X109841015Y-110453889D01*
X109906165Y-110559327D01*
X109912573Y-110600914D01*
X109878608Y-110700883D01*
X109801031Y-110788341D01*
X109638235Y-110866376D01*
X109454345Y-110875773D01*
X109275734Y-110818006D01*
X109184559Y-110753954D01*
X109100782Y-110671948D01*
X109072628Y-110611585D01*
X109089029Y-110542347D01*
X109089029Y-110542347D01*
G37*
X109089029Y-110542347D02*
X109099319Y-110518921D01*
X109187947Y-110412948D01*
X109327016Y-110334636D01*
X109483265Y-110298893D01*
X109576304Y-110305107D01*
X109723596Y-110362582D01*
X109841015Y-110453889D01*
X109906165Y-110559327D01*
X109912573Y-110600914D01*
X109878608Y-110700883D01*
X109801031Y-110788341D01*
X109638235Y-110866376D01*
X109454345Y-110875773D01*
X109275734Y-110818006D01*
X109184559Y-110753954D01*
X109100782Y-110671948D01*
X109072628Y-110611585D01*
X109089029Y-110542347D01*
G36*
X109085291Y-108953149D02*
X109162153Y-108856154D01*
X109305590Y-108806461D01*
X109381137Y-108801747D01*
X109494568Y-108815099D01*
X109593612Y-108865947D01*
X109705887Y-108966100D01*
X109825402Y-109121265D01*
X109872512Y-109269606D01*
X109845072Y-109400405D01*
X109803716Y-109454890D01*
X109689012Y-109514850D01*
X109542856Y-109516098D01*
X109387449Y-109465418D01*
X109244992Y-109369594D01*
X109148859Y-109254775D01*
X109079395Y-109088879D01*
X109085291Y-108953149D01*
X109085291Y-108953149D01*
G37*
X109085291Y-108953149D02*
X109162153Y-108856154D01*
X109305590Y-108806461D01*
X109381137Y-108801747D01*
X109494568Y-108815099D01*
X109593612Y-108865947D01*
X109705887Y-108966100D01*
X109825402Y-109121265D01*
X109872512Y-109269606D01*
X109845072Y-109400405D01*
X109803716Y-109454890D01*
X109689012Y-109514850D01*
X109542856Y-109516098D01*
X109387449Y-109465418D01*
X109244992Y-109369594D01*
X109148859Y-109254775D01*
X109079395Y-109088879D01*
X109085291Y-108953149D01*
G36*
X108721034Y-109652363D02*
X108818993Y-109566237D01*
X108963148Y-109524594D01*
X109137865Y-109532592D01*
X109289516Y-109578356D01*
X109447222Y-109672434D01*
X109535817Y-109787454D01*
X109550796Y-109911818D01*
X109487654Y-110033924D01*
X109472626Y-110049876D01*
X109339423Y-110132271D01*
X109180115Y-110157418D01*
X109015066Y-110132350D01*
X108864641Y-110064100D01*
X108749204Y-109959702D01*
X108689118Y-109826189D01*
X108684907Y-109777814D01*
X108721034Y-109652363D01*
X108721034Y-109652363D01*
G37*
X108721034Y-109652363D02*
X108818993Y-109566237D01*
X108963148Y-109524594D01*
X109137865Y-109532592D01*
X109289516Y-109578356D01*
X109447222Y-109672434D01*
X109535817Y-109787454D01*
X109550796Y-109911818D01*
X109487654Y-110033924D01*
X109472626Y-110049876D01*
X109339423Y-110132271D01*
X109180115Y-110157418D01*
X109015066Y-110132350D01*
X108864641Y-110064100D01*
X108749204Y-109959702D01*
X108689118Y-109826189D01*
X108684907Y-109777814D01*
X108721034Y-109652363D01*
G36*
X108905689Y-104735079D02*
X108947373Y-104661547D01*
X109022443Y-104626488D01*
X109135123Y-104610806D01*
X109142107Y-104610747D01*
X109298144Y-104649476D01*
X109435807Y-104751301D01*
X109534558Y-104894677D01*
X109573860Y-105058062D01*
X109573907Y-105063714D01*
X109561592Y-105183496D01*
X109531171Y-105269456D01*
X109523107Y-105279614D01*
X109427039Y-105323228D01*
X109294236Y-105322803D01*
X109159241Y-105279988D01*
X109125753Y-105260627D01*
X109015068Y-105154296D01*
X108936576Y-105014740D01*
X108897657Y-104866741D01*
X108905689Y-104735079D01*
X108905689Y-104735079D01*
G37*
X108905689Y-104735079D02*
X108947373Y-104661547D01*
X109022443Y-104626488D01*
X109135123Y-104610806D01*
X109142107Y-104610747D01*
X109298144Y-104649476D01*
X109435807Y-104751301D01*
X109534558Y-104894677D01*
X109573860Y-105058062D01*
X109573907Y-105063714D01*
X109561592Y-105183496D01*
X109531171Y-105269456D01*
X109523107Y-105279614D01*
X109427039Y-105323228D01*
X109294236Y-105322803D01*
X109159241Y-105279988D01*
X109125753Y-105260627D01*
X109015068Y-105154296D01*
X108936576Y-105014740D01*
X108897657Y-104866741D01*
X108905689Y-104735079D01*
G36*
X108080804Y-106391230D02*
X108182372Y-106310775D01*
X108318002Y-106259143D01*
X108470850Y-106247135D01*
X108564552Y-106263653D01*
X108726741Y-106336685D01*
X108823699Y-106436504D01*
X108850506Y-106550387D01*
X108802243Y-106665614D01*
X108742697Y-106724341D01*
X108586809Y-106799476D01*
X108410697Y-106812282D01*
X108240189Y-106767546D01*
X108101114Y-106670058D01*
X108047225Y-106595404D01*
X108030141Y-106489707D01*
X108080804Y-106391230D01*
X108080804Y-106391230D01*
G37*
X108080804Y-106391230D02*
X108182372Y-106310775D01*
X108318002Y-106259143D01*
X108470850Y-106247135D01*
X108564552Y-106263653D01*
X108726741Y-106336685D01*
X108823699Y-106436504D01*
X108850506Y-106550387D01*
X108802243Y-106665614D01*
X108742697Y-106724341D01*
X108586809Y-106799476D01*
X108410697Y-106812282D01*
X108240189Y-106767546D01*
X108101114Y-106670058D01*
X108047225Y-106595404D01*
X108030141Y-106489707D01*
X108080804Y-106391230D01*
G36*
X108042201Y-104891423D02*
X108051635Y-104874261D01*
X108113968Y-104795283D01*
X108205479Y-104757038D01*
X108297099Y-104745778D01*
X108410167Y-104744864D01*
X108495148Y-104771835D01*
X108584867Y-104841198D01*
X108645001Y-104899547D01*
X108751512Y-105020957D01*
X108801885Y-105124739D01*
X108811907Y-105211133D01*
X108797858Y-105324813D01*
X108763774Y-105403747D01*
X108761107Y-105406614D01*
X108668775Y-105447936D01*
X108532972Y-105453538D01*
X108386110Y-105425256D01*
X108282567Y-105379542D01*
X108177847Y-105289546D01*
X108084062Y-105168024D01*
X108071281Y-105145798D01*
X108020415Y-105040096D01*
X108011642Y-104968029D01*
X108042201Y-104891423D01*
X108042201Y-104891423D01*
G37*
X108042201Y-104891423D02*
X108051635Y-104874261D01*
X108113968Y-104795283D01*
X108205479Y-104757038D01*
X108297099Y-104745778D01*
X108410167Y-104744864D01*
X108495148Y-104771835D01*
X108584867Y-104841198D01*
X108645001Y-104899547D01*
X108751512Y-105020957D01*
X108801885Y-105124739D01*
X108811907Y-105211133D01*
X108797858Y-105324813D01*
X108763774Y-105403747D01*
X108761107Y-105406614D01*
X108668775Y-105447936D01*
X108532972Y-105453538D01*
X108386110Y-105425256D01*
X108282567Y-105379542D01*
X108177847Y-105289546D01*
X108084062Y-105168024D01*
X108071281Y-105145798D01*
X108020415Y-105040096D01*
X108011642Y-104968029D01*
X108042201Y-104891423D01*
G36*
X107641317Y-105658433D02*
X107706489Y-105552564D01*
X107824721Y-105488324D01*
X107975571Y-105465318D01*
X108138599Y-105483148D01*
X108293363Y-105541420D01*
X108419423Y-105639737D01*
X108446541Y-105674028D01*
X108508138Y-105802590D01*
X108490653Y-105910977D01*
X108404031Y-106004675D01*
X108261073Y-106075186D01*
X108100432Y-106090423D01*
X107939881Y-106058454D01*
X107797191Y-105987347D01*
X107690134Y-105885169D01*
X107636480Y-105759988D01*
X107641317Y-105658433D01*
X107641317Y-105658433D01*
G37*
X107641317Y-105658433D02*
X107706489Y-105552564D01*
X107824721Y-105488324D01*
X107975571Y-105465318D01*
X108138599Y-105483148D01*
X108293363Y-105541420D01*
X108419423Y-105639737D01*
X108446541Y-105674028D01*
X108508138Y-105802590D01*
X108490653Y-105910977D01*
X108404031Y-106004675D01*
X108261073Y-106075186D01*
X108100432Y-106090423D01*
X107939881Y-106058454D01*
X107797191Y-105987347D01*
X107690134Y-105885169D01*
X107636480Y-105759988D01*
X107641317Y-105658433D01*
G36*
X105332645Y-107349428D02*
X105436437Y-107181092D01*
X105610481Y-107058005D01*
X105855643Y-106979510D01*
X106112357Y-106947841D01*
X106360770Y-106949783D01*
X106534685Y-106988483D01*
X106633012Y-107062131D01*
X106654661Y-107168922D01*
X106598543Y-107307047D01*
X106463568Y-107474698D01*
X106442767Y-107495963D01*
X106322991Y-107625472D01*
X106249979Y-107736366D01*
X106204589Y-107863175D01*
X106181439Y-107967398D01*
X106121202Y-108175271D01*
X106037640Y-108320577D01*
X105936815Y-108395742D01*
X105837285Y-108397454D01*
X105696188Y-108317805D01*
X105557435Y-108176841D01*
X105435553Y-107997032D01*
X105345070Y-107800850D01*
X105300512Y-107610765D01*
X105298240Y-107563666D01*
X105332645Y-107349428D01*
X105332645Y-107349428D01*
G37*
X105332645Y-107349428D02*
X105436437Y-107181092D01*
X105610481Y-107058005D01*
X105855643Y-106979510D01*
X106112357Y-106947841D01*
X106360770Y-106949783D01*
X106534685Y-106988483D01*
X106633012Y-107062131D01*
X106654661Y-107168922D01*
X106598543Y-107307047D01*
X106463568Y-107474698D01*
X106442767Y-107495963D01*
X106322991Y-107625472D01*
X106249979Y-107736366D01*
X106204589Y-107863175D01*
X106181439Y-107967398D01*
X106121202Y-108175271D01*
X106037640Y-108320577D01*
X105936815Y-108395742D01*
X105837285Y-108397454D01*
X105696188Y-108317805D01*
X105557435Y-108176841D01*
X105435553Y-107997032D01*
X105345070Y-107800850D01*
X105300512Y-107610765D01*
X105298240Y-107563666D01*
X105332645Y-107349428D01*
G36*
X105370030Y-106211181D02*
X105449043Y-106128524D01*
X105563578Y-106105372D01*
X105699600Y-106143529D01*
X105843074Y-106244798D01*
X105880323Y-106282178D01*
X105982256Y-106432421D01*
X106019905Y-106584401D01*
X105991010Y-106719247D01*
X105940490Y-106784353D01*
X105820730Y-106844167D01*
X105687937Y-106835676D01*
X105557820Y-106770214D01*
X105446087Y-106659113D01*
X105368449Y-106513707D01*
X105340573Y-106351540D01*
X105370030Y-106211181D01*
X105370030Y-106211181D01*
G37*
X105370030Y-106211181D02*
X105449043Y-106128524D01*
X105563578Y-106105372D01*
X105699600Y-106143529D01*
X105843074Y-106244798D01*
X105880323Y-106282178D01*
X105982256Y-106432421D01*
X106019905Y-106584401D01*
X105991010Y-106719247D01*
X105940490Y-106784353D01*
X105820730Y-106844167D01*
X105687937Y-106835676D01*
X105557820Y-106770214D01*
X105446087Y-106659113D01*
X105368449Y-106513707D01*
X105340573Y-106351540D01*
X105370030Y-106211181D01*
G36*
X104364971Y-102853765D02*
X104457084Y-102686267D01*
X104613165Y-102561604D01*
X104617241Y-102559476D01*
X104785450Y-102497061D01*
X104993976Y-102454103D01*
X105210012Y-102434325D01*
X105400752Y-102441445D01*
X105490306Y-102460469D01*
X105600604Y-102505918D01*
X105652771Y-102563755D01*
X105671425Y-102653989D01*
X105670034Y-102737369D01*
X105639123Y-102813293D01*
X105565860Y-102903809D01*
X105470342Y-102999412D01*
X105364453Y-103103732D01*
X105287825Y-103183537D01*
X105256048Y-103222547D01*
X105255907Y-103223312D01*
X105244285Y-103330411D01*
X105214712Y-103473043D01*
X105175120Y-103621477D01*
X105133443Y-103745984D01*
X105097616Y-103816834D01*
X105097470Y-103816997D01*
X104987247Y-103887490D01*
X104857961Y-103877095D01*
X104712918Y-103786581D01*
X104632893Y-103708681D01*
X104470788Y-103491556D01*
X104371989Y-103268581D01*
X104336661Y-103051927D01*
X104364971Y-102853765D01*
X104364971Y-102853765D01*
G37*
X104364971Y-102853765D02*
X104457084Y-102686267D01*
X104613165Y-102561604D01*
X104617241Y-102559476D01*
X104785450Y-102497061D01*
X104993976Y-102454103D01*
X105210012Y-102434325D01*
X105400752Y-102441445D01*
X105490306Y-102460469D01*
X105600604Y-102505918D01*
X105652771Y-102563755D01*
X105671425Y-102653989D01*
X105670034Y-102737369D01*
X105639123Y-102813293D01*
X105565860Y-102903809D01*
X105470342Y-102999412D01*
X105364453Y-103103732D01*
X105287825Y-103183537D01*
X105256048Y-103222547D01*
X105255907Y-103223312D01*
X105244285Y-103330411D01*
X105214712Y-103473043D01*
X105175120Y-103621477D01*
X105133443Y-103745984D01*
X105097616Y-103816834D01*
X105097470Y-103816997D01*
X104987247Y-103887490D01*
X104857961Y-103877095D01*
X104712918Y-103786581D01*
X104632893Y-103708681D01*
X104470788Y-103491556D01*
X104371989Y-103268581D01*
X104336661Y-103051927D01*
X104364971Y-102853765D01*
G36*
X104525949Y-107885413D02*
X104622690Y-107811134D01*
X104749539Y-107764057D01*
X104892856Y-107751078D01*
X105039002Y-107779090D01*
X105174338Y-107854989D01*
X105198477Y-107876117D01*
X105282552Y-107998148D01*
X105285168Y-108122300D01*
X105209129Y-108234269D01*
X105111298Y-108289798D01*
X104964705Y-108313195D01*
X104892591Y-108314914D01*
X104744463Y-108307131D01*
X104645427Y-108276118D01*
X104560725Y-108210380D01*
X104552770Y-108202520D01*
X104477350Y-108088001D01*
X104472956Y-107980001D01*
X104525949Y-107885413D01*
X104525949Y-107885413D01*
G37*
X104525949Y-107885413D02*
X104622690Y-107811134D01*
X104749539Y-107764057D01*
X104892856Y-107751078D01*
X105039002Y-107779090D01*
X105174338Y-107854989D01*
X105198477Y-107876117D01*
X105282552Y-107998148D01*
X105285168Y-108122300D01*
X105209129Y-108234269D01*
X105111298Y-108289798D01*
X104964705Y-108313195D01*
X104892591Y-108314914D01*
X104744463Y-108307131D01*
X104645427Y-108276118D01*
X104560725Y-108210380D01*
X104552770Y-108202520D01*
X104477350Y-108088001D01*
X104472956Y-107980001D01*
X104525949Y-107885413D01*
G36*
X104470301Y-106417596D02*
X104474576Y-106404424D01*
X104552504Y-106289139D01*
X104676018Y-106241152D01*
X104836952Y-106262348D01*
X104929052Y-106299552D01*
X105085372Y-106404510D01*
X105194525Y-106536057D01*
X105249540Y-106677099D01*
X105243450Y-106810540D01*
X105178490Y-106911353D01*
X105055891Y-106971910D01*
X104912501Y-106968652D01*
X104765081Y-106913650D01*
X104630392Y-106818974D01*
X104525192Y-106696693D01*
X104466241Y-106558877D01*
X104470301Y-106417596D01*
X104470301Y-106417596D01*
G37*
X104470301Y-106417596D02*
X104474576Y-106404424D01*
X104552504Y-106289139D01*
X104676018Y-106241152D01*
X104836952Y-106262348D01*
X104929052Y-106299552D01*
X105085372Y-106404510D01*
X105194525Y-106536057D01*
X105249540Y-106677099D01*
X105243450Y-106810540D01*
X105178490Y-106911353D01*
X105055891Y-106971910D01*
X104912501Y-106968652D01*
X104765081Y-106913650D01*
X104630392Y-106818974D01*
X104525192Y-106696693D01*
X104466241Y-106558877D01*
X104470301Y-106417596D01*
G36*
X104387196Y-101715626D02*
X104455204Y-101634025D01*
X104581639Y-101605496D01*
X104605192Y-101605080D01*
X104736337Y-101634135D01*
X104872661Y-101728892D01*
X104893059Y-101747662D01*
X104990161Y-101853116D01*
X105034470Y-101950476D01*
X105044240Y-102064187D01*
X105031553Y-102192741D01*
X104984093Y-102272513D01*
X104942414Y-102304847D01*
X104862892Y-102345668D01*
X104786663Y-102343944D01*
X104695522Y-102310953D01*
X104522800Y-102200809D01*
X104409146Y-102047222D01*
X104366940Y-101867110D01*
X104366907Y-101861838D01*
X104387196Y-101715626D01*
X104387196Y-101715626D01*
G37*
X104387196Y-101715626D02*
X104455204Y-101634025D01*
X104581639Y-101605496D01*
X104605192Y-101605080D01*
X104736337Y-101634135D01*
X104872661Y-101728892D01*
X104893059Y-101747662D01*
X104990161Y-101853116D01*
X105034470Y-101950476D01*
X105044240Y-102064187D01*
X105031553Y-102192741D01*
X104984093Y-102272513D01*
X104942414Y-102304847D01*
X104862892Y-102345668D01*
X104786663Y-102343944D01*
X104695522Y-102310953D01*
X104522800Y-102200809D01*
X104409146Y-102047222D01*
X104366940Y-101867110D01*
X104366907Y-101861838D01*
X104387196Y-101715626D01*
G36*
X104107449Y-107103577D02*
X104164659Y-107047314D01*
X104311601Y-106989830D01*
X104485424Y-106987421D01*
X104660203Y-107032794D01*
X104810011Y-107118653D01*
X104908921Y-107237704D01*
X104918295Y-107259356D01*
X104948882Y-107341329D01*
X104952807Y-107384490D01*
X104929781Y-107430480D01*
X104916956Y-107452112D01*
X104825160Y-107536589D01*
X104683625Y-107591058D01*
X104525076Y-107604694D01*
X104474691Y-107598406D01*
X104309899Y-107541247D01*
X104182093Y-107447744D01*
X104099958Y-107333339D01*
X104072181Y-107213470D01*
X104107449Y-107103577D01*
X104107449Y-107103577D01*
G37*
X104107449Y-107103577D02*
X104164659Y-107047314D01*
X104311601Y-106989830D01*
X104485424Y-106987421D01*
X104660203Y-107032794D01*
X104810011Y-107118653D01*
X104908921Y-107237704D01*
X104918295Y-107259356D01*
X104948882Y-107341329D01*
X104952807Y-107384490D01*
X104929781Y-107430480D01*
X104916956Y-107452112D01*
X104825160Y-107536589D01*
X104683625Y-107591058D01*
X104525076Y-107604694D01*
X104474691Y-107598406D01*
X104309899Y-107541247D01*
X104182093Y-107447744D01*
X104099958Y-107333339D01*
X104072181Y-107213470D01*
X104107449Y-107103577D01*
G36*
X103510772Y-103457047D02*
X103576337Y-103358998D01*
X103698582Y-103293683D01*
X103854562Y-103265065D01*
X104021330Y-103277106D01*
X104175938Y-103333767D01*
X104186990Y-103340283D01*
X104292345Y-103440729D01*
X104329787Y-103558692D01*
X104297159Y-103672611D01*
X104227110Y-103741322D01*
X104066489Y-103812199D01*
X103899565Y-103830176D01*
X103743025Y-103801875D01*
X103613553Y-103733917D01*
X103527834Y-103632923D01*
X103502554Y-103505514D01*
X103510772Y-103457047D01*
X103510772Y-103457047D01*
G37*
X103510772Y-103457047D02*
X103576337Y-103358998D01*
X103698582Y-103293683D01*
X103854562Y-103265065D01*
X104021330Y-103277106D01*
X104175938Y-103333767D01*
X104186990Y-103340283D01*
X104292345Y-103440729D01*
X104329787Y-103558692D01*
X104297159Y-103672611D01*
X104227110Y-103741322D01*
X104066489Y-103812199D01*
X103899565Y-103830176D01*
X103743025Y-103801875D01*
X103613553Y-103733917D01*
X103527834Y-103632923D01*
X103502554Y-103505514D01*
X103510772Y-103457047D01*
G36*
X103512202Y-101874796D02*
X103517862Y-101863523D01*
X103610711Y-101768652D01*
X103742720Y-101735418D01*
X103896724Y-101762242D01*
X104055563Y-101847544D01*
X104140802Y-101920842D01*
X104248564Y-102067631D01*
X104288380Y-102214546D01*
X104259203Y-102345563D01*
X104174488Y-102435731D01*
X104042609Y-102477740D01*
X103896845Y-102456109D01*
X103752980Y-102384595D01*
X103626799Y-102276951D01*
X103534086Y-102146933D01*
X103490625Y-102008296D01*
X103512202Y-101874796D01*
X103512202Y-101874796D01*
G37*
X103512202Y-101874796D02*
X103517862Y-101863523D01*
X103610711Y-101768652D01*
X103742720Y-101735418D01*
X103896724Y-101762242D01*
X104055563Y-101847544D01*
X104140802Y-101920842D01*
X104248564Y-102067631D01*
X104288380Y-102214546D01*
X104259203Y-102345563D01*
X104174488Y-102435731D01*
X104042609Y-102477740D01*
X103896845Y-102456109D01*
X103752980Y-102384595D01*
X103626799Y-102276951D01*
X103534086Y-102146933D01*
X103490625Y-102008296D01*
X103512202Y-101874796D01*
G36*
X103137937Y-102607426D02*
X103249768Y-102512970D01*
X103363326Y-102471162D01*
X103513826Y-102466810D01*
X103673368Y-102513857D01*
X103819738Y-102598699D01*
X103930719Y-102707732D01*
X103984095Y-102827350D01*
X103985907Y-102852424D01*
X103957833Y-102928732D01*
X103901240Y-103002080D01*
X103781136Y-103068261D01*
X103620413Y-103088430D01*
X103446414Y-103067068D01*
X103286484Y-103008656D01*
X103167965Y-102917675D01*
X103140495Y-102877425D01*
X103099820Y-102731996D01*
X103137937Y-102607426D01*
X103137937Y-102607426D01*
G37*
X103137937Y-102607426D02*
X103249768Y-102512970D01*
X103363326Y-102471162D01*
X103513826Y-102466810D01*
X103673368Y-102513857D01*
X103819738Y-102598699D01*
X103930719Y-102707732D01*
X103984095Y-102827350D01*
X103985907Y-102852424D01*
X103957833Y-102928732D01*
X103901240Y-103002080D01*
X103781136Y-103068261D01*
X103620413Y-103088430D01*
X103446414Y-103067068D01*
X103286484Y-103008656D01*
X103167965Y-102917675D01*
X103140495Y-102877425D01*
X103099820Y-102731996D01*
X103137937Y-102607426D01*
G04 #@! TO.C,U1*
D14*
X103495323Y-117655219D02*
X104523419Y-117655219D01*
X104644371Y-117594742D01*
X104704847Y-117534266D01*
X104765323Y-117413314D01*
X104765323Y-117171409D01*
X104704847Y-117050457D01*
X104644371Y-116989980D01*
X104523419Y-116929504D01*
X103495323Y-116929504D01*
X104765323Y-115659504D02*
X104765323Y-116385219D01*
X104765323Y-116022361D02*
X103495323Y-116022361D01*
X103676752Y-116143314D01*
X103797704Y-116264266D01*
X103858180Y-116385219D01*
G04 #@! TO.C,SPI0*
D10*
X131240400Y-72667761D02*
X131383257Y-72715380D01*
X131621352Y-72715380D01*
X131716590Y-72667761D01*
X131764209Y-72620142D01*
X131811828Y-72524904D01*
X131811828Y-72429666D01*
X131764209Y-72334428D01*
X131716590Y-72286809D01*
X131621352Y-72239190D01*
X131430876Y-72191571D01*
X131335638Y-72143952D01*
X131288019Y-72096333D01*
X131240400Y-72001095D01*
X131240400Y-71905857D01*
X131288019Y-71810619D01*
X131335638Y-71763000D01*
X131430876Y-71715380D01*
X131668971Y-71715380D01*
X131811828Y-71763000D01*
X132240400Y-72715380D02*
X132240400Y-71715380D01*
X132621352Y-71715380D01*
X132716590Y-71763000D01*
X132764209Y-71810619D01*
X132811828Y-71905857D01*
X132811828Y-72048714D01*
X132764209Y-72143952D01*
X132716590Y-72191571D01*
X132621352Y-72239190D01*
X132240400Y-72239190D01*
X133240400Y-72715380D02*
X133240400Y-71715380D01*
X133907066Y-71715380D02*
X134002304Y-71715380D01*
X134097542Y-71763000D01*
X134145161Y-71810619D01*
X134192780Y-71905857D01*
X134240400Y-72096333D01*
X134240400Y-72334428D01*
X134192780Y-72524904D01*
X134145161Y-72620142D01*
X134097542Y-72667761D01*
X134002304Y-72715380D01*
X133907066Y-72715380D01*
X133811828Y-72667761D01*
X133764209Y-72620142D01*
X133716590Y-72524904D01*
X133668971Y-72334428D01*
X133668971Y-72096333D01*
X133716590Y-71905857D01*
X133764209Y-71810619D01*
X133811828Y-71763000D01*
X133907066Y-71715380D01*
G04 #@! TO.C,J4*
X103882866Y-77176380D02*
X103882866Y-77890666D01*
X103835247Y-78033523D01*
X103740009Y-78128761D01*
X103597152Y-78176380D01*
X103501914Y-78176380D01*
X104787628Y-77509714D02*
X104787628Y-78176380D01*
X104549533Y-77128761D02*
X104311438Y-77843047D01*
X104930485Y-77843047D01*
G04 #@! TO.C,J1*
X139925466Y-71664580D02*
X139925466Y-72378866D01*
X139877847Y-72521723D01*
X139782609Y-72616961D01*
X139639752Y-72664580D01*
X139544514Y-72664580D01*
X140925466Y-72664580D02*
X140354038Y-72664580D01*
X140639752Y-72664580D02*
X140639752Y-71664580D01*
X140544514Y-71807438D01*
X140449276Y-71902676D01*
X140354038Y-71950295D01*
G04 #@! TO.C,EXT0*
X110644180Y-91571771D02*
X110977514Y-91571771D01*
X111120371Y-92095580D02*
X110644180Y-92095580D01*
X110644180Y-91095580D01*
X111120371Y-91095580D01*
X111453704Y-91095580D02*
X112120371Y-92095580D01*
X112120371Y-91095580D02*
X111453704Y-92095580D01*
X112358466Y-91095580D02*
X112929895Y-91095580D01*
X112644180Y-92095580D02*
X112644180Y-91095580D01*
X113453704Y-91095580D02*
X113548942Y-91095580D01*
X113644180Y-91143200D01*
X113691800Y-91190819D01*
X113739419Y-91286057D01*
X113787038Y-91476533D01*
X113787038Y-91714628D01*
X113739419Y-91905104D01*
X113691800Y-92000342D01*
X113644180Y-92047961D01*
X113548942Y-92095580D01*
X113453704Y-92095580D01*
X113358466Y-92047961D01*
X113310847Y-92000342D01*
X113263228Y-91905104D01*
X113215609Y-91714628D01*
X113215609Y-91476533D01*
X113263228Y-91286057D01*
X113310847Y-91190819D01*
X113358466Y-91143200D01*
X113453704Y-91095580D01*
G04 #@! TO.C,J6*
X125295066Y-121372380D02*
X125295066Y-122086666D01*
X125247447Y-122229523D01*
X125152209Y-122324761D01*
X125009352Y-122372380D01*
X124914114Y-122372380D01*
X126199828Y-121372380D02*
X126009352Y-121372380D01*
X125914114Y-121420000D01*
X125866495Y-121467619D01*
X125771257Y-121610476D01*
X125723638Y-121800952D01*
X125723638Y-122181904D01*
X125771257Y-122277142D01*
X125818876Y-122324761D01*
X125914114Y-122372380D01*
X126104590Y-122372380D01*
X126199828Y-122324761D01*
X126247447Y-122277142D01*
X126295066Y-122181904D01*
X126295066Y-121943809D01*
X126247447Y-121848571D01*
X126199828Y-121800952D01*
X126104590Y-121753333D01*
X125914114Y-121753333D01*
X125818876Y-121800952D01*
X125771257Y-121848571D01*
X125723638Y-121943809D01*
G04 #@! TO.C,U2*
X108026295Y-80300580D02*
X108026295Y-81110104D01*
X108073914Y-81205342D01*
X108121533Y-81252961D01*
X108216771Y-81300580D01*
X108407247Y-81300580D01*
X108502485Y-81252961D01*
X108550104Y-81205342D01*
X108597723Y-81110104D01*
X108597723Y-80300580D01*
X109026295Y-80395819D02*
X109073914Y-80348200D01*
X109169152Y-80300580D01*
X109407247Y-80300580D01*
X109502485Y-80348200D01*
X109550104Y-80395819D01*
X109597723Y-80491057D01*
X109597723Y-80586295D01*
X109550104Y-80729152D01*
X108978676Y-81300580D01*
X109597723Y-81300580D01*
G04 #@! TO.C,U3*
X123937780Y-83667504D02*
X124747304Y-83667504D01*
X124842542Y-83619885D01*
X124890161Y-83572266D01*
X124937780Y-83477028D01*
X124937780Y-83286552D01*
X124890161Y-83191314D01*
X124842542Y-83143695D01*
X124747304Y-83096076D01*
X123937780Y-83096076D01*
X123937780Y-82715123D02*
X123937780Y-82096076D01*
X124318733Y-82429409D01*
X124318733Y-82286552D01*
X124366352Y-82191314D01*
X124413971Y-82143695D01*
X124509209Y-82096076D01*
X124747304Y-82096076D01*
X124842542Y-82143695D01*
X124890161Y-82191314D01*
X124937780Y-82286552D01*
X124937780Y-82572266D01*
X124890161Y-82667504D01*
X124842542Y-82715123D01*
G04 #@! TO.C,R14*
X115031780Y-85275657D02*
X114555590Y-85608990D01*
X115031780Y-85847085D02*
X114031780Y-85847085D01*
X114031780Y-85466133D01*
X114079400Y-85370895D01*
X114127019Y-85323276D01*
X114222257Y-85275657D01*
X114365114Y-85275657D01*
X114460352Y-85323276D01*
X114507971Y-85370895D01*
X114555590Y-85466133D01*
X114555590Y-85847085D01*
X115031780Y-84323276D02*
X115031780Y-84894704D01*
X115031780Y-84608990D02*
X114031780Y-84608990D01*
X114174638Y-84704228D01*
X114269876Y-84799466D01*
X114317495Y-84894704D01*
X114365114Y-83466133D02*
X115031780Y-83466133D01*
X113984161Y-83704228D02*
X114698447Y-83942323D01*
X114698447Y-83323276D01*
G04 #@! TO.C,R13*
X110434380Y-98737657D02*
X109958190Y-99070990D01*
X110434380Y-99309085D02*
X109434380Y-99309085D01*
X109434380Y-98928133D01*
X109482000Y-98832895D01*
X109529619Y-98785276D01*
X109624857Y-98737657D01*
X109767714Y-98737657D01*
X109862952Y-98785276D01*
X109910571Y-98832895D01*
X109958190Y-98928133D01*
X109958190Y-99309085D01*
X110434380Y-97785276D02*
X110434380Y-98356704D01*
X110434380Y-98070990D02*
X109434380Y-98070990D01*
X109577238Y-98166228D01*
X109672476Y-98261466D01*
X109720095Y-98356704D01*
X109434380Y-97451942D02*
X109434380Y-96832895D01*
X109815333Y-97166228D01*
X109815333Y-97023371D01*
X109862952Y-96928133D01*
X109910571Y-96880514D01*
X110005809Y-96832895D01*
X110243904Y-96832895D01*
X110339142Y-96880514D01*
X110386761Y-96928133D01*
X110434380Y-97023371D01*
X110434380Y-97309085D01*
X110386761Y-97404323D01*
X110339142Y-97451942D01*
G04 #@! TO.C,R12*
X107919780Y-98737657D02*
X107443590Y-99070990D01*
X107919780Y-99309085D02*
X106919780Y-99309085D01*
X106919780Y-98928133D01*
X106967400Y-98832895D01*
X107015019Y-98785276D01*
X107110257Y-98737657D01*
X107253114Y-98737657D01*
X107348352Y-98785276D01*
X107395971Y-98832895D01*
X107443590Y-98928133D01*
X107443590Y-99309085D01*
X107919780Y-97785276D02*
X107919780Y-98356704D01*
X107919780Y-98070990D02*
X106919780Y-98070990D01*
X107062638Y-98166228D01*
X107157876Y-98261466D01*
X107205495Y-98356704D01*
X107015019Y-97404323D02*
X106967400Y-97356704D01*
X106919780Y-97261466D01*
X106919780Y-97023371D01*
X106967400Y-96928133D01*
X107015019Y-96880514D01*
X107110257Y-96832895D01*
X107205495Y-96832895D01*
X107348352Y-96880514D01*
X107919780Y-97451942D01*
X107919780Y-96832895D01*
G04 #@! TO.C,Q2*
X106660961Y-85180419D02*
X106565723Y-85132800D01*
X106470485Y-85037561D01*
X106327628Y-84894704D01*
X106232390Y-84847085D01*
X106137152Y-84847085D01*
X106184771Y-85085180D02*
X106089533Y-85037561D01*
X105994295Y-84942323D01*
X105946676Y-84751847D01*
X105946676Y-84418514D01*
X105994295Y-84228038D01*
X106089533Y-84132800D01*
X106184771Y-84085180D01*
X106375247Y-84085180D01*
X106470485Y-84132800D01*
X106565723Y-84228038D01*
X106613342Y-84418514D01*
X106613342Y-84751847D01*
X106565723Y-84942323D01*
X106470485Y-85037561D01*
X106375247Y-85085180D01*
X106184771Y-85085180D01*
X106994295Y-84180419D02*
X107041914Y-84132800D01*
X107137152Y-84085180D01*
X107375247Y-84085180D01*
X107470485Y-84132800D01*
X107518104Y-84180419D01*
X107565723Y-84275657D01*
X107565723Y-84370895D01*
X107518104Y-84513752D01*
X106946676Y-85085180D01*
X107565723Y-85085180D01*
G04 #@! TO.C,JP1*
X118676206Y-82622140D02*
X118676206Y-83336426D01*
X118628587Y-83479283D01*
X118533349Y-83574521D01*
X118390492Y-83622140D01*
X118295254Y-83622140D01*
X119152397Y-83622140D02*
X119152397Y-82622140D01*
X119533349Y-82622140D01*
X119628587Y-82669760D01*
X119676206Y-82717379D01*
X119723825Y-82812617D01*
X119723825Y-82955474D01*
X119676206Y-83050712D01*
X119628587Y-83098331D01*
X119533349Y-83145950D01*
X119152397Y-83145950D01*
X120676206Y-83622140D02*
X120104778Y-83622140D01*
X120390492Y-83622140D02*
X120390492Y-82622140D01*
X120295254Y-82764998D01*
X120200016Y-82860236D01*
X120104778Y-82907855D01*
G04 #@! TO.C,D3*
X99436180Y-79478095D02*
X98436180Y-79478095D01*
X98436180Y-79240000D01*
X98483800Y-79097142D01*
X98579038Y-79001904D01*
X98674276Y-78954285D01*
X98864752Y-78906666D01*
X99007609Y-78906666D01*
X99198085Y-78954285D01*
X99293323Y-79001904D01*
X99388561Y-79097142D01*
X99436180Y-79240000D01*
X99436180Y-79478095D01*
X98436180Y-78573333D02*
X98436180Y-77954285D01*
X98817133Y-78287619D01*
X98817133Y-78144761D01*
X98864752Y-78049523D01*
X98912371Y-78001904D01*
X99007609Y-77954285D01*
X99245704Y-77954285D01*
X99340942Y-78001904D01*
X99388561Y-78049523D01*
X99436180Y-78144761D01*
X99436180Y-78430476D01*
X99388561Y-78525714D01*
X99340942Y-78573333D01*
G04 #@! TO.C,C19*
X114774742Y-73559942D02*
X114727123Y-73607561D01*
X114584266Y-73655180D01*
X114489028Y-73655180D01*
X114346171Y-73607561D01*
X114250933Y-73512323D01*
X114203314Y-73417085D01*
X114155695Y-73226609D01*
X114155695Y-73083752D01*
X114203314Y-72893276D01*
X114250933Y-72798038D01*
X114346171Y-72702800D01*
X114489028Y-72655180D01*
X114584266Y-72655180D01*
X114727123Y-72702800D01*
X114774742Y-72750419D01*
X115727123Y-73655180D02*
X115155695Y-73655180D01*
X115441409Y-73655180D02*
X115441409Y-72655180D01*
X115346171Y-72798038D01*
X115250933Y-72893276D01*
X115155695Y-72940895D01*
X116203314Y-73655180D02*
X116393790Y-73655180D01*
X116489028Y-73607561D01*
X116536647Y-73559942D01*
X116631885Y-73417085D01*
X116679504Y-73226609D01*
X116679504Y-72845657D01*
X116631885Y-72750419D01*
X116584266Y-72702800D01*
X116489028Y-72655180D01*
X116298552Y-72655180D01*
X116203314Y-72702800D01*
X116155695Y-72750419D01*
X116108076Y-72845657D01*
X116108076Y-73083752D01*
X116155695Y-73178990D01*
X116203314Y-73226609D01*
X116298552Y-73274228D01*
X116489028Y-73274228D01*
X116584266Y-73226609D01*
X116631885Y-73178990D01*
X116679504Y-73083752D01*
G04 #@! TO.C,C18*
X121202742Y-86570957D02*
X121250361Y-86618576D01*
X121297980Y-86761433D01*
X121297980Y-86856671D01*
X121250361Y-86999528D01*
X121155123Y-87094766D01*
X121059885Y-87142385D01*
X120869409Y-87190004D01*
X120726552Y-87190004D01*
X120536076Y-87142385D01*
X120440838Y-87094766D01*
X120345600Y-86999528D01*
X120297980Y-86856671D01*
X120297980Y-86761433D01*
X120345600Y-86618576D01*
X120393219Y-86570957D01*
X121297980Y-85618576D02*
X121297980Y-86190004D01*
X121297980Y-85904290D02*
X120297980Y-85904290D01*
X120440838Y-85999528D01*
X120536076Y-86094766D01*
X120583695Y-86190004D01*
X120726552Y-85047147D02*
X120678933Y-85142385D01*
X120631314Y-85190004D01*
X120536076Y-85237623D01*
X120488457Y-85237623D01*
X120393219Y-85190004D01*
X120345600Y-85142385D01*
X120297980Y-85047147D01*
X120297980Y-84856671D01*
X120345600Y-84761433D01*
X120393219Y-84713814D01*
X120488457Y-84666195D01*
X120536076Y-84666195D01*
X120631314Y-84713814D01*
X120678933Y-84761433D01*
X120726552Y-84856671D01*
X120726552Y-85047147D01*
X120774171Y-85142385D01*
X120821790Y-85190004D01*
X120917028Y-85237623D01*
X121107504Y-85237623D01*
X121202742Y-85190004D01*
X121250361Y-85142385D01*
X121297980Y-85047147D01*
X121297980Y-84856671D01*
X121250361Y-84761433D01*
X121202742Y-84713814D01*
X121107504Y-84666195D01*
X120917028Y-84666195D01*
X120821790Y-84713814D01*
X120774171Y-84761433D01*
X120726552Y-84856671D01*
G04 #@! TO.C,C17*
X121286542Y-90888957D02*
X121334161Y-90936576D01*
X121381780Y-91079433D01*
X121381780Y-91174671D01*
X121334161Y-91317528D01*
X121238923Y-91412766D01*
X121143685Y-91460385D01*
X120953209Y-91508004D01*
X120810352Y-91508004D01*
X120619876Y-91460385D01*
X120524638Y-91412766D01*
X120429400Y-91317528D01*
X120381780Y-91174671D01*
X120381780Y-91079433D01*
X120429400Y-90936576D01*
X120477019Y-90888957D01*
X121381780Y-89936576D02*
X121381780Y-90508004D01*
X121381780Y-90222290D02*
X120381780Y-90222290D01*
X120524638Y-90317528D01*
X120619876Y-90412766D01*
X120667495Y-90508004D01*
X120381780Y-89603242D02*
X120381780Y-88936576D01*
X121381780Y-89365147D01*
G04 #@! TO.C,C5*
X114742933Y-72391542D02*
X114695314Y-72439161D01*
X114552457Y-72486780D01*
X114457219Y-72486780D01*
X114314361Y-72439161D01*
X114219123Y-72343923D01*
X114171504Y-72248685D01*
X114123885Y-72058209D01*
X114123885Y-71915352D01*
X114171504Y-71724876D01*
X114219123Y-71629638D01*
X114314361Y-71534400D01*
X114457219Y-71486780D01*
X114552457Y-71486780D01*
X114695314Y-71534400D01*
X114742933Y-71582019D01*
X115647695Y-71486780D02*
X115171504Y-71486780D01*
X115123885Y-71962971D01*
X115171504Y-71915352D01*
X115266742Y-71867733D01*
X115504838Y-71867733D01*
X115600076Y-71915352D01*
X115647695Y-71962971D01*
X115695314Y-72058209D01*
X115695314Y-72296304D01*
X115647695Y-72391542D01*
X115600076Y-72439161D01*
X115504838Y-72486780D01*
X115266742Y-72486780D01*
X115171504Y-72439161D01*
X115123885Y-72391542D01*
G04 #@! TO.C,C1*
X113701533Y-81408542D02*
X113653914Y-81456161D01*
X113511057Y-81503780D01*
X113415819Y-81503780D01*
X113272961Y-81456161D01*
X113177723Y-81360923D01*
X113130104Y-81265685D01*
X113082485Y-81075209D01*
X113082485Y-80932352D01*
X113130104Y-80741876D01*
X113177723Y-80646638D01*
X113272961Y-80551400D01*
X113415819Y-80503780D01*
X113511057Y-80503780D01*
X113653914Y-80551400D01*
X113701533Y-80599019D01*
X114653914Y-81503780D02*
X114082485Y-81503780D01*
X114368200Y-81503780D02*
X114368200Y-80503780D01*
X114272961Y-80646638D01*
X114177723Y-80741876D01*
X114082485Y-80789495D01*
G04 #@! TO.C,J2*
X146111980Y-93094133D02*
X146826266Y-93094133D01*
X146969123Y-93141752D01*
X147064361Y-93236990D01*
X147111980Y-93379847D01*
X147111980Y-93475085D01*
X146207219Y-92665561D02*
X146159600Y-92617942D01*
X146111980Y-92522704D01*
X146111980Y-92284609D01*
X146159600Y-92189371D01*
X146207219Y-92141752D01*
X146302457Y-92094133D01*
X146397695Y-92094133D01*
X146540552Y-92141752D01*
X147111980Y-92713180D01*
X147111980Y-92094133D01*
G04 #@! TO.C,J5*
X116405066Y-121372380D02*
X116405066Y-122086666D01*
X116357447Y-122229523D01*
X116262209Y-122324761D01*
X116119352Y-122372380D01*
X116024114Y-122372380D01*
X117357447Y-121372380D02*
X116881257Y-121372380D01*
X116833638Y-121848571D01*
X116881257Y-121800952D01*
X116976495Y-121753333D01*
X117214590Y-121753333D01*
X117309828Y-121800952D01*
X117357447Y-121848571D01*
X117405066Y-121943809D01*
X117405066Y-122181904D01*
X117357447Y-122277142D01*
X117309828Y-122324761D01*
X117214590Y-122372380D01*
X116976495Y-122372380D01*
X116881257Y-122324761D01*
X116833638Y-122277142D01*
G04 #@! TO.C,J7*
X140535066Y-121372380D02*
X140535066Y-122086666D01*
X140487447Y-122229523D01*
X140392209Y-122324761D01*
X140249352Y-122372380D01*
X140154114Y-122372380D01*
X140916019Y-121372380D02*
X141582685Y-121372380D01*
X141154114Y-122372380D01*
G04 #@! TO.C,D1*
X130275104Y-79624180D02*
X130275104Y-78624180D01*
X130513200Y-78624180D01*
X130656057Y-78671800D01*
X130751295Y-78767038D01*
X130798914Y-78862276D01*
X130846533Y-79052752D01*
X130846533Y-79195609D01*
X130798914Y-79386085D01*
X130751295Y-79481323D01*
X130656057Y-79576561D01*
X130513200Y-79624180D01*
X130275104Y-79624180D01*
X131798914Y-79624180D02*
X131227485Y-79624180D01*
X131513200Y-79624180D02*
X131513200Y-78624180D01*
X131417961Y-78767038D01*
X131322723Y-78862276D01*
X131227485Y-78909895D01*
G04 #@! TO.C,F1*
X130027371Y-87328333D02*
X130027371Y-87661666D01*
X130551180Y-87661666D02*
X129551180Y-87661666D01*
X129551180Y-87185476D01*
X130551180Y-86280714D02*
X130551180Y-86852142D01*
X130551180Y-86566428D02*
X129551180Y-86566428D01*
X129694038Y-86661666D01*
X129789276Y-86756904D01*
X129836895Y-86852142D01*
G04 #@! TO.C,C16*
X136694942Y-97004142D02*
X136647323Y-97051761D01*
X136504466Y-97099380D01*
X136409228Y-97099380D01*
X136266371Y-97051761D01*
X136171133Y-96956523D01*
X136123514Y-96861285D01*
X136075895Y-96670809D01*
X136075895Y-96527952D01*
X136123514Y-96337476D01*
X136171133Y-96242238D01*
X136266371Y-96147000D01*
X136409228Y-96099380D01*
X136504466Y-96099380D01*
X136647323Y-96147000D01*
X136694942Y-96194619D01*
X137647323Y-97099380D02*
X137075895Y-97099380D01*
X137361609Y-97099380D02*
X137361609Y-96099380D01*
X137266371Y-96242238D01*
X137171133Y-96337476D01*
X137075895Y-96385095D01*
X138504466Y-96099380D02*
X138313990Y-96099380D01*
X138218752Y-96147000D01*
X138171133Y-96194619D01*
X138075895Y-96337476D01*
X138028276Y-96527952D01*
X138028276Y-96908904D01*
X138075895Y-97004142D01*
X138123514Y-97051761D01*
X138218752Y-97099380D01*
X138409228Y-97099380D01*
X138504466Y-97051761D01*
X138552085Y-97004142D01*
X138599704Y-96908904D01*
X138599704Y-96670809D01*
X138552085Y-96575571D01*
X138504466Y-96527952D01*
X138409228Y-96480333D01*
X138218752Y-96480333D01*
X138123514Y-96527952D01*
X138075895Y-96575571D01*
X138028276Y-96670809D01*
G04 #@! TO.C,R9*
X141844733Y-99105980D02*
X141511400Y-98629790D01*
X141273304Y-99105980D02*
X141273304Y-98105980D01*
X141654257Y-98105980D01*
X141749495Y-98153600D01*
X141797114Y-98201219D01*
X141844733Y-98296457D01*
X141844733Y-98439314D01*
X141797114Y-98534552D01*
X141749495Y-98582171D01*
X141654257Y-98629790D01*
X141273304Y-98629790D01*
X142320923Y-99105980D02*
X142511400Y-99105980D01*
X142606638Y-99058361D01*
X142654257Y-99010742D01*
X142749495Y-98867885D01*
X142797114Y-98677409D01*
X142797114Y-98296457D01*
X142749495Y-98201219D01*
X142701876Y-98153600D01*
X142606638Y-98105980D01*
X142416161Y-98105980D01*
X142320923Y-98153600D01*
X142273304Y-98201219D01*
X142225685Y-98296457D01*
X142225685Y-98534552D01*
X142273304Y-98629790D01*
X142320923Y-98677409D01*
X142416161Y-98725028D01*
X142606638Y-98725028D01*
X142701876Y-98677409D01*
X142749495Y-98629790D01*
X142797114Y-98534552D01*
G04 #@! TO.C,C3*
X119066013Y-81835262D02*
X119018394Y-81882881D01*
X118875537Y-81930500D01*
X118780299Y-81930500D01*
X118637441Y-81882881D01*
X118542203Y-81787643D01*
X118494584Y-81692405D01*
X118446965Y-81501929D01*
X118446965Y-81359072D01*
X118494584Y-81168596D01*
X118542203Y-81073358D01*
X118637441Y-80978120D01*
X118780299Y-80930500D01*
X118875537Y-80930500D01*
X119018394Y-80978120D01*
X119066013Y-81025739D01*
X119399346Y-80930500D02*
X120018394Y-80930500D01*
X119685060Y-81311453D01*
X119827918Y-81311453D01*
X119923156Y-81359072D01*
X119970775Y-81406691D01*
X120018394Y-81501929D01*
X120018394Y-81740024D01*
X119970775Y-81835262D01*
X119923156Y-81882881D01*
X119827918Y-81930500D01*
X119542203Y-81930500D01*
X119446965Y-81882881D01*
X119399346Y-81835262D01*
G04 #@! TO.C,C12*
X124198142Y-97893142D02*
X124150523Y-97940761D01*
X124007666Y-97988380D01*
X123912428Y-97988380D01*
X123769571Y-97940761D01*
X123674333Y-97845523D01*
X123626714Y-97750285D01*
X123579095Y-97559809D01*
X123579095Y-97416952D01*
X123626714Y-97226476D01*
X123674333Y-97131238D01*
X123769571Y-97036000D01*
X123912428Y-96988380D01*
X124007666Y-96988380D01*
X124150523Y-97036000D01*
X124198142Y-97083619D01*
X125150523Y-97988380D02*
X124579095Y-97988380D01*
X124864809Y-97988380D02*
X124864809Y-96988380D01*
X124769571Y-97131238D01*
X124674333Y-97226476D01*
X124579095Y-97274095D01*
X125531476Y-97083619D02*
X125579095Y-97036000D01*
X125674333Y-96988380D01*
X125912428Y-96988380D01*
X126007666Y-97036000D01*
X126055285Y-97083619D01*
X126102904Y-97178857D01*
X126102904Y-97274095D01*
X126055285Y-97416952D01*
X125483857Y-97988380D01*
X126102904Y-97988380D01*
G04 #@! TO.C,C14*
X132531642Y-96751142D02*
X132484023Y-96798761D01*
X132341166Y-96846380D01*
X132245928Y-96846380D01*
X132103071Y-96798761D01*
X132007833Y-96703523D01*
X131960214Y-96608285D01*
X131912595Y-96417809D01*
X131912595Y-96274952D01*
X131960214Y-96084476D01*
X132007833Y-95989238D01*
X132103071Y-95894000D01*
X132245928Y-95846380D01*
X132341166Y-95846380D01*
X132484023Y-95894000D01*
X132531642Y-95941619D01*
X133484023Y-96846380D02*
X132912595Y-96846380D01*
X133198309Y-96846380D02*
X133198309Y-95846380D01*
X133103071Y-95989238D01*
X133007833Y-96084476D01*
X132912595Y-96132095D01*
X134341166Y-96179714D02*
X134341166Y-96846380D01*
X134103071Y-95798761D02*
X133864976Y-96513047D01*
X134484023Y-96513047D01*
G04 #@! TO.C,C15*
X107479102Y-112982177D02*
X107526721Y-113029796D01*
X107574340Y-113172653D01*
X107574340Y-113267891D01*
X107526721Y-113410748D01*
X107431483Y-113505986D01*
X107336245Y-113553605D01*
X107145769Y-113601224D01*
X107002912Y-113601224D01*
X106812436Y-113553605D01*
X106717198Y-113505986D01*
X106621960Y-113410748D01*
X106574340Y-113267891D01*
X106574340Y-113172653D01*
X106621960Y-113029796D01*
X106669579Y-112982177D01*
X107574340Y-112029796D02*
X107574340Y-112601224D01*
X107574340Y-112315510D02*
X106574340Y-112315510D01*
X106717198Y-112410748D01*
X106812436Y-112505986D01*
X106860055Y-112601224D01*
X106574340Y-111125034D02*
X106574340Y-111601224D01*
X107050531Y-111648843D01*
X107002912Y-111601224D01*
X106955293Y-111505986D01*
X106955293Y-111267891D01*
X107002912Y-111172653D01*
X107050531Y-111125034D01*
X107145769Y-111077415D01*
X107383864Y-111077415D01*
X107479102Y-111125034D01*
X107526721Y-111172653D01*
X107574340Y-111267891D01*
X107574340Y-111505986D01*
X107526721Y-111601224D01*
X107479102Y-111648843D01*
G04 #@! TO.C,C4*
X109013262Y-72820726D02*
X109060881Y-72868345D01*
X109108500Y-73011202D01*
X109108500Y-73106440D01*
X109060881Y-73249298D01*
X108965643Y-73344536D01*
X108870405Y-73392155D01*
X108679929Y-73439774D01*
X108537072Y-73439774D01*
X108346596Y-73392155D01*
X108251358Y-73344536D01*
X108156120Y-73249298D01*
X108108500Y-73106440D01*
X108108500Y-73011202D01*
X108156120Y-72868345D01*
X108203739Y-72820726D01*
X108441834Y-71963583D02*
X109108500Y-71963583D01*
X108060881Y-72201679D02*
X108775167Y-72439774D01*
X108775167Y-71820726D01*
G04 #@! TO.C,C6*
X128611333Y-104776542D02*
X128563714Y-104824161D01*
X128420857Y-104871780D01*
X128325619Y-104871780D01*
X128182761Y-104824161D01*
X128087523Y-104728923D01*
X128039904Y-104633685D01*
X127992285Y-104443209D01*
X127992285Y-104300352D01*
X128039904Y-104109876D01*
X128087523Y-104014638D01*
X128182761Y-103919400D01*
X128325619Y-103871780D01*
X128420857Y-103871780D01*
X128563714Y-103919400D01*
X128611333Y-103967019D01*
X129468476Y-103871780D02*
X129278000Y-103871780D01*
X129182761Y-103919400D01*
X129135142Y-103967019D01*
X129039904Y-104109876D01*
X128992285Y-104300352D01*
X128992285Y-104681304D01*
X129039904Y-104776542D01*
X129087523Y-104824161D01*
X129182761Y-104871780D01*
X129373238Y-104871780D01*
X129468476Y-104824161D01*
X129516095Y-104776542D01*
X129563714Y-104681304D01*
X129563714Y-104443209D01*
X129516095Y-104347971D01*
X129468476Y-104300352D01*
X129373238Y-104252733D01*
X129182761Y-104252733D01*
X129087523Y-104300352D01*
X129039904Y-104347971D01*
X128992285Y-104443209D01*
G04 #@! TO.C,C8*
X142249142Y-109005666D02*
X142296761Y-109053285D01*
X142344380Y-109196142D01*
X142344380Y-109291380D01*
X142296761Y-109434238D01*
X142201523Y-109529476D01*
X142106285Y-109577095D01*
X141915809Y-109624714D01*
X141772952Y-109624714D01*
X141582476Y-109577095D01*
X141487238Y-109529476D01*
X141392000Y-109434238D01*
X141344380Y-109291380D01*
X141344380Y-109196142D01*
X141392000Y-109053285D01*
X141439619Y-109005666D01*
X141772952Y-108434238D02*
X141725333Y-108529476D01*
X141677714Y-108577095D01*
X141582476Y-108624714D01*
X141534857Y-108624714D01*
X141439619Y-108577095D01*
X141392000Y-108529476D01*
X141344380Y-108434238D01*
X141344380Y-108243761D01*
X141392000Y-108148523D01*
X141439619Y-108100904D01*
X141534857Y-108053285D01*
X141582476Y-108053285D01*
X141677714Y-108100904D01*
X141725333Y-108148523D01*
X141772952Y-108243761D01*
X141772952Y-108434238D01*
X141820571Y-108529476D01*
X141868190Y-108577095D01*
X141963428Y-108624714D01*
X142153904Y-108624714D01*
X142249142Y-108577095D01*
X142296761Y-108529476D01*
X142344380Y-108434238D01*
X142344380Y-108243761D01*
X142296761Y-108148523D01*
X142249142Y-108100904D01*
X142153904Y-108053285D01*
X141963428Y-108053285D01*
X141868190Y-108100904D01*
X141820571Y-108148523D01*
X141772952Y-108243761D01*
G04 #@! TO.C,C9*
X128611333Y-107265742D02*
X128563714Y-107313361D01*
X128420857Y-107360980D01*
X128325619Y-107360980D01*
X128182761Y-107313361D01*
X128087523Y-107218123D01*
X128039904Y-107122885D01*
X127992285Y-106932409D01*
X127992285Y-106789552D01*
X128039904Y-106599076D01*
X128087523Y-106503838D01*
X128182761Y-106408600D01*
X128325619Y-106360980D01*
X128420857Y-106360980D01*
X128563714Y-106408600D01*
X128611333Y-106456219D01*
X129087523Y-107360980D02*
X129278000Y-107360980D01*
X129373238Y-107313361D01*
X129420857Y-107265742D01*
X129516095Y-107122885D01*
X129563714Y-106932409D01*
X129563714Y-106551457D01*
X129516095Y-106456219D01*
X129468476Y-106408600D01*
X129373238Y-106360980D01*
X129182761Y-106360980D01*
X129087523Y-106408600D01*
X129039904Y-106456219D01*
X128992285Y-106551457D01*
X128992285Y-106789552D01*
X129039904Y-106884790D01*
X129087523Y-106932409D01*
X129182761Y-106980028D01*
X129373238Y-106980028D01*
X129468476Y-106932409D01*
X129516095Y-106884790D01*
X129563714Y-106789552D01*
G04 #@! TO.C,D2*
X117498904Y-73680580D02*
X117498904Y-72680580D01*
X117737000Y-72680580D01*
X117879857Y-72728200D01*
X117975095Y-72823438D01*
X118022714Y-72918676D01*
X118070333Y-73109152D01*
X118070333Y-73252009D01*
X118022714Y-73442485D01*
X117975095Y-73537723D01*
X117879857Y-73632961D01*
X117737000Y-73680580D01*
X117498904Y-73680580D01*
X118451285Y-72775819D02*
X118498904Y-72728200D01*
X118594142Y-72680580D01*
X118832238Y-72680580D01*
X118927476Y-72728200D01*
X118975095Y-72775819D01*
X119022714Y-72871057D01*
X119022714Y-72966295D01*
X118975095Y-73109152D01*
X118403666Y-73680580D01*
X119022714Y-73680580D01*
G04 #@! TO.C,R7*
X121778733Y-106116380D02*
X121445400Y-105640190D01*
X121207304Y-106116380D02*
X121207304Y-105116380D01*
X121588257Y-105116380D01*
X121683495Y-105164000D01*
X121731114Y-105211619D01*
X121778733Y-105306857D01*
X121778733Y-105449714D01*
X121731114Y-105544952D01*
X121683495Y-105592571D01*
X121588257Y-105640190D01*
X121207304Y-105640190D01*
X122112066Y-105116380D02*
X122778733Y-105116380D01*
X122350161Y-106116380D01*
G04 #@! TO.C,R6*
X121381780Y-103011266D02*
X120905590Y-103344600D01*
X121381780Y-103582695D02*
X120381780Y-103582695D01*
X120381780Y-103201742D01*
X120429400Y-103106504D01*
X120477019Y-103058885D01*
X120572257Y-103011266D01*
X120715114Y-103011266D01*
X120810352Y-103058885D01*
X120857971Y-103106504D01*
X120905590Y-103201742D01*
X120905590Y-103582695D01*
X120381780Y-102154123D02*
X120381780Y-102344600D01*
X120429400Y-102439838D01*
X120477019Y-102487457D01*
X120619876Y-102582695D01*
X120810352Y-102630314D01*
X121191304Y-102630314D01*
X121286542Y-102582695D01*
X121334161Y-102535076D01*
X121381780Y-102439838D01*
X121381780Y-102249361D01*
X121334161Y-102154123D01*
X121286542Y-102106504D01*
X121191304Y-102058885D01*
X120953209Y-102058885D01*
X120857971Y-102106504D01*
X120810352Y-102154123D01*
X120762733Y-102249361D01*
X120762733Y-102439838D01*
X120810352Y-102535076D01*
X120857971Y-102582695D01*
X120953209Y-102630314D01*
G04 #@! TO.C,R5*
X139812733Y-114726980D02*
X139479400Y-114250790D01*
X139241304Y-114726980D02*
X139241304Y-113726980D01*
X139622257Y-113726980D01*
X139717495Y-113774600D01*
X139765114Y-113822219D01*
X139812733Y-113917457D01*
X139812733Y-114060314D01*
X139765114Y-114155552D01*
X139717495Y-114203171D01*
X139622257Y-114250790D01*
X139241304Y-114250790D01*
X140717495Y-113726980D02*
X140241304Y-113726980D01*
X140193685Y-114203171D01*
X140241304Y-114155552D01*
X140336542Y-114107933D01*
X140574638Y-114107933D01*
X140669876Y-114155552D01*
X140717495Y-114203171D01*
X140765114Y-114298409D01*
X140765114Y-114536504D01*
X140717495Y-114631742D01*
X140669876Y-114679361D01*
X140574638Y-114726980D01*
X140336542Y-114726980D01*
X140241304Y-114679361D01*
X140193685Y-114631742D01*
G04 #@! TO.C,R4*
X131770380Y-114619066D02*
X131294190Y-114952400D01*
X131770380Y-115190495D02*
X130770380Y-115190495D01*
X130770380Y-114809542D01*
X130818000Y-114714304D01*
X130865619Y-114666685D01*
X130960857Y-114619066D01*
X131103714Y-114619066D01*
X131198952Y-114666685D01*
X131246571Y-114714304D01*
X131294190Y-114809542D01*
X131294190Y-115190495D01*
X131103714Y-113761923D02*
X131770380Y-113761923D01*
X130722761Y-114000019D02*
X131437047Y-114238114D01*
X131437047Y-113619066D01*
G04 #@! TO.C,R3*
X107101900Y-72866446D02*
X106625710Y-73199780D01*
X107101900Y-73437875D02*
X106101900Y-73437875D01*
X106101900Y-73056922D01*
X106149520Y-72961684D01*
X106197139Y-72914065D01*
X106292377Y-72866446D01*
X106435234Y-72866446D01*
X106530472Y-72914065D01*
X106578091Y-72961684D01*
X106625710Y-73056922D01*
X106625710Y-73437875D01*
X106101900Y-72533113D02*
X106101900Y-71914065D01*
X106482853Y-72247399D01*
X106482853Y-72104541D01*
X106530472Y-72009303D01*
X106578091Y-71961684D01*
X106673329Y-71914065D01*
X106911424Y-71914065D01*
X107006662Y-71961684D01*
X107054281Y-72009303D01*
X107101900Y-72104541D01*
X107101900Y-72390256D01*
X107054281Y-72485494D01*
X107006662Y-72533113D01*
G04 #@! TO.C,R1*
X105354380Y-98312266D02*
X104878190Y-98645600D01*
X105354380Y-98883695D02*
X104354380Y-98883695D01*
X104354380Y-98502742D01*
X104402000Y-98407504D01*
X104449619Y-98359885D01*
X104544857Y-98312266D01*
X104687714Y-98312266D01*
X104782952Y-98359885D01*
X104830571Y-98407504D01*
X104878190Y-98502742D01*
X104878190Y-98883695D01*
X105354380Y-97359885D02*
X105354380Y-97931314D01*
X105354380Y-97645600D02*
X104354380Y-97645600D01*
X104497238Y-97740838D01*
X104592476Y-97836076D01*
X104640095Y-97931314D01*
G04 #@! TO.C,R2*
X107792780Y-78830466D02*
X107316590Y-79163800D01*
X107792780Y-79401895D02*
X106792780Y-79401895D01*
X106792780Y-79020942D01*
X106840400Y-78925704D01*
X106888019Y-78878085D01*
X106983257Y-78830466D01*
X107126114Y-78830466D01*
X107221352Y-78878085D01*
X107268971Y-78925704D01*
X107316590Y-79020942D01*
X107316590Y-79401895D01*
X106888019Y-78449514D02*
X106840400Y-78401895D01*
X106792780Y-78306657D01*
X106792780Y-78068561D01*
X106840400Y-77973323D01*
X106888019Y-77925704D01*
X106983257Y-77878085D01*
X107078495Y-77878085D01*
X107221352Y-77925704D01*
X107792780Y-78497133D01*
X107792780Y-77878085D01*
G04 #@! TO.C,L1*
X119756180Y-78652666D02*
X119756180Y-79128857D01*
X118756180Y-79128857D01*
X119756180Y-77795523D02*
X119756180Y-78366952D01*
X119756180Y-78081238D02*
X118756180Y-78081238D01*
X118899038Y-78176476D01*
X118994276Y-78271714D01*
X119041895Y-78366952D01*
G04 #@! TO.C,IC1*
X135752009Y-99867980D02*
X135752009Y-98867980D01*
X136799628Y-99772742D02*
X136752009Y-99820361D01*
X136609152Y-99867980D01*
X136513914Y-99867980D01*
X136371057Y-99820361D01*
X136275819Y-99725123D01*
X136228200Y-99629885D01*
X136180580Y-99439409D01*
X136180580Y-99296552D01*
X136228200Y-99106076D01*
X136275819Y-99010838D01*
X136371057Y-98915600D01*
X136513914Y-98867980D01*
X136609152Y-98867980D01*
X136752009Y-98915600D01*
X136799628Y-98963219D01*
X137752009Y-99867980D02*
X137180580Y-99867980D01*
X137466295Y-99867980D02*
X137466295Y-98867980D01*
X137371057Y-99010838D01*
X137275819Y-99106076D01*
X137180580Y-99153695D01*
G04 #@! TO.C,R8*
X123185180Y-110986866D02*
X122708990Y-111320200D01*
X123185180Y-111558295D02*
X122185180Y-111558295D01*
X122185180Y-111177342D01*
X122232800Y-111082104D01*
X122280419Y-111034485D01*
X122375657Y-110986866D01*
X122518514Y-110986866D01*
X122613752Y-111034485D01*
X122661371Y-111082104D01*
X122708990Y-111177342D01*
X122708990Y-111558295D01*
X122613752Y-110415438D02*
X122566133Y-110510676D01*
X122518514Y-110558295D01*
X122423276Y-110605914D01*
X122375657Y-110605914D01*
X122280419Y-110558295D01*
X122232800Y-110510676D01*
X122185180Y-110415438D01*
X122185180Y-110224961D01*
X122232800Y-110129723D01*
X122280419Y-110082104D01*
X122375657Y-110034485D01*
X122423276Y-110034485D01*
X122518514Y-110082104D01*
X122566133Y-110129723D01*
X122613752Y-110224961D01*
X122613752Y-110415438D01*
X122661371Y-110510676D01*
X122708990Y-110558295D01*
X122804228Y-110605914D01*
X122994704Y-110605914D01*
X123089942Y-110558295D01*
X123137561Y-110510676D01*
X123185180Y-110415438D01*
X123185180Y-110224961D01*
X123137561Y-110129723D01*
X123089942Y-110082104D01*
X122994704Y-110034485D01*
X122804228Y-110034485D01*
X122708990Y-110082104D01*
X122661371Y-110129723D01*
X122613752Y-110224961D01*
G04 #@! TO.C,R10*
X144038580Y-104655757D02*
X143562390Y-104989090D01*
X144038580Y-105227185D02*
X143038580Y-105227185D01*
X143038580Y-104846233D01*
X143086200Y-104750995D01*
X143133819Y-104703376D01*
X143229057Y-104655757D01*
X143371914Y-104655757D01*
X143467152Y-104703376D01*
X143514771Y-104750995D01*
X143562390Y-104846233D01*
X143562390Y-105227185D01*
X144038580Y-103703376D02*
X144038580Y-104274804D01*
X144038580Y-103989090D02*
X143038580Y-103989090D01*
X143181438Y-104084328D01*
X143276676Y-104179566D01*
X143324295Y-104274804D01*
X143038580Y-103084328D02*
X143038580Y-102989090D01*
X143086200Y-102893852D01*
X143133819Y-102846233D01*
X143229057Y-102798614D01*
X143419533Y-102750995D01*
X143657628Y-102750995D01*
X143848104Y-102798614D01*
X143943342Y-102846233D01*
X143990961Y-102893852D01*
X144038580Y-102989090D01*
X144038580Y-103084328D01*
X143990961Y-103179566D01*
X143943342Y-103227185D01*
X143848104Y-103274804D01*
X143657628Y-103322423D01*
X143419533Y-103322423D01*
X143229057Y-103274804D01*
X143133819Y-103227185D01*
X143086200Y-103179566D01*
X143038580Y-103084328D01*
G04 #@! TO.C,R11*
X145308580Y-104630457D02*
X144832390Y-104963790D01*
X145308580Y-105201885D02*
X144308580Y-105201885D01*
X144308580Y-104820933D01*
X144356200Y-104725695D01*
X144403819Y-104678076D01*
X144499057Y-104630457D01*
X144641914Y-104630457D01*
X144737152Y-104678076D01*
X144784771Y-104725695D01*
X144832390Y-104820933D01*
X144832390Y-105201885D01*
X145308580Y-103678076D02*
X145308580Y-104249504D01*
X145308580Y-103963790D02*
X144308580Y-103963790D01*
X144451438Y-104059028D01*
X144546676Y-104154266D01*
X144594295Y-104249504D01*
X145308580Y-102725695D02*
X145308580Y-103297123D01*
X145308580Y-103011409D02*
X144308580Y-103011409D01*
X144451438Y-103106647D01*
X144546676Y-103201885D01*
X144594295Y-103297123D01*
G04 #@! TO.C,Q1*
X128936761Y-98083619D02*
X128841523Y-98036000D01*
X128746285Y-97940761D01*
X128603428Y-97797904D01*
X128508190Y-97750285D01*
X128412952Y-97750285D01*
X128460571Y-97988380D02*
X128365333Y-97940761D01*
X128270095Y-97845523D01*
X128222476Y-97655047D01*
X128222476Y-97321714D01*
X128270095Y-97131238D01*
X128365333Y-97036000D01*
X128460571Y-96988380D01*
X128651047Y-96988380D01*
X128746285Y-97036000D01*
X128841523Y-97131238D01*
X128889142Y-97321714D01*
X128889142Y-97655047D01*
X128841523Y-97845523D01*
X128746285Y-97940761D01*
X128651047Y-97988380D01*
X128460571Y-97988380D01*
X129841523Y-97988380D02*
X129270095Y-97988380D01*
X129555809Y-97988380D02*
X129555809Y-96988380D01*
X129460571Y-97131238D01*
X129365333Y-97226476D01*
X129270095Y-97274095D01*
G04 #@! TO.C,C13*
X123512342Y-108891342D02*
X123464723Y-108938961D01*
X123321866Y-108986580D01*
X123226628Y-108986580D01*
X123083771Y-108938961D01*
X122988533Y-108843723D01*
X122940914Y-108748485D01*
X122893295Y-108558009D01*
X122893295Y-108415152D01*
X122940914Y-108224676D01*
X122988533Y-108129438D01*
X123083771Y-108034200D01*
X123226628Y-107986580D01*
X123321866Y-107986580D01*
X123464723Y-108034200D01*
X123512342Y-108081819D01*
X124464723Y-108986580D02*
X123893295Y-108986580D01*
X124179009Y-108986580D02*
X124179009Y-107986580D01*
X124083771Y-108129438D01*
X123988533Y-108224676D01*
X123893295Y-108272295D01*
X124798057Y-107986580D02*
X125417104Y-107986580D01*
X125083771Y-108367533D01*
X125226628Y-108367533D01*
X125321866Y-108415152D01*
X125369485Y-108462771D01*
X125417104Y-108558009D01*
X125417104Y-108796104D01*
X125369485Y-108891342D01*
X125321866Y-108938961D01*
X125226628Y-108986580D01*
X124940914Y-108986580D01*
X124845676Y-108938961D01*
X124798057Y-108891342D01*
G04 #@! TO.C,C7*
X124699733Y-113691942D02*
X124652114Y-113739561D01*
X124509257Y-113787180D01*
X124414019Y-113787180D01*
X124271161Y-113739561D01*
X124175923Y-113644323D01*
X124128304Y-113549085D01*
X124080685Y-113358609D01*
X124080685Y-113215752D01*
X124128304Y-113025276D01*
X124175923Y-112930038D01*
X124271161Y-112834800D01*
X124414019Y-112787180D01*
X124509257Y-112787180D01*
X124652114Y-112834800D01*
X124699733Y-112882419D01*
X125033066Y-112787180D02*
X125699733Y-112787180D01*
X125271161Y-113787180D01*
G04 #@! TO.C,CFF1*
X122632742Y-103792209D02*
X122680361Y-103839828D01*
X122727980Y-103982685D01*
X122727980Y-104077923D01*
X122680361Y-104220780D01*
X122585123Y-104316019D01*
X122489885Y-104363638D01*
X122299409Y-104411257D01*
X122156552Y-104411257D01*
X121966076Y-104363638D01*
X121870838Y-104316019D01*
X121775600Y-104220780D01*
X121727980Y-104077923D01*
X121727980Y-103982685D01*
X121775600Y-103839828D01*
X121823219Y-103792209D01*
X122204171Y-103030304D02*
X122204171Y-103363638D01*
X122727980Y-103363638D02*
X121727980Y-103363638D01*
X121727980Y-102887447D01*
X122204171Y-102173161D02*
X122204171Y-102506495D01*
X122727980Y-102506495D02*
X121727980Y-102506495D01*
X121727980Y-102030304D01*
X122727980Y-101125542D02*
X122727980Y-101696971D01*
X122727980Y-101411257D02*
X121727980Y-101411257D01*
X121870838Y-101506495D01*
X121966076Y-101601733D01*
X122013695Y-101696971D01*
G04 #@! TO.C,C11*
X139692142Y-112523542D02*
X139644523Y-112571161D01*
X139501666Y-112618780D01*
X139406428Y-112618780D01*
X139263571Y-112571161D01*
X139168333Y-112475923D01*
X139120714Y-112380685D01*
X139073095Y-112190209D01*
X139073095Y-112047352D01*
X139120714Y-111856876D01*
X139168333Y-111761638D01*
X139263571Y-111666400D01*
X139406428Y-111618780D01*
X139501666Y-111618780D01*
X139644523Y-111666400D01*
X139692142Y-111714019D01*
X140644523Y-112618780D02*
X140073095Y-112618780D01*
X140358809Y-112618780D02*
X140358809Y-111618780D01*
X140263571Y-111761638D01*
X140168333Y-111856876D01*
X140073095Y-111904495D01*
X141596904Y-112618780D02*
X141025476Y-112618780D01*
X141311190Y-112618780D02*
X141311190Y-111618780D01*
X141215952Y-111761638D01*
X141120714Y-111856876D01*
X141025476Y-111904495D01*
G04 #@! TO.C,C10*
X132656342Y-111202742D02*
X132608723Y-111250361D01*
X132465866Y-111297980D01*
X132370628Y-111297980D01*
X132227771Y-111250361D01*
X132132533Y-111155123D01*
X132084914Y-111059885D01*
X132037295Y-110869409D01*
X132037295Y-110726552D01*
X132084914Y-110536076D01*
X132132533Y-110440838D01*
X132227771Y-110345600D01*
X132370628Y-110297980D01*
X132465866Y-110297980D01*
X132608723Y-110345600D01*
X132656342Y-110393219D01*
X133608723Y-111297980D02*
X133037295Y-111297980D01*
X133323009Y-111297980D02*
X133323009Y-110297980D01*
X133227771Y-110440838D01*
X133132533Y-110536076D01*
X133037295Y-110583695D01*
X134227771Y-110297980D02*
X134323009Y-110297980D01*
X134418247Y-110345600D01*
X134465866Y-110393219D01*
X134513485Y-110488457D01*
X134561104Y-110678933D01*
X134561104Y-110917028D01*
X134513485Y-111107504D01*
X134465866Y-111202742D01*
X134418247Y-111250361D01*
X134323009Y-111297980D01*
X134227771Y-111297980D01*
X134132533Y-111250361D01*
X134084914Y-111202742D01*
X134037295Y-111107504D01*
X133989676Y-110917028D01*
X133989676Y-110678933D01*
X134037295Y-110488457D01*
X134084914Y-110393219D01*
X134132533Y-110345600D01*
X134227771Y-110297980D01*
G04 #@! TD*
M02*
