M48
INCH,TZ
T1C0.0157
T2C0.0190
T3C0.0295
T4C0.0329
T5C0.0394
%
G90
G05
T1
X38900Y-33750
X39050Y-46150
X39750Y-37000
X39750Y-38500
X39750Y-40000
X39750Y-41500
X39750Y-43000
X39750Y-44750
X40440Y-45480
X40750Y-38500
X40750Y-40000
X40750Y-41500
X40750Y-43000
X41150Y-48450
X41250Y-44500
X41920Y-32490
X41930Y-32160
X42750Y-41500
X42800Y-43470
X44000Y-40250
X44000Y-44750
X44750Y-28550
X44750Y-28900
X45000Y-41500
X45000Y-43500
X45900Y-48100
X46250Y-39250
X46250Y-44750
X46450Y-32200
X46450Y-32550
X46550Y-42500
X46650Y-38000
X47000Y-41500
X47300Y-39200
X47500Y-43750
X48450Y-37600
X48500Y-32250
X48560Y-42700
X48620Y-31620
X48660Y-34140
X48660Y-35220
X49025Y-39675
X49200Y-34400
X49200Y-42240
X49200Y-44600
X49375Y-39675
X49875Y-42000
X50100Y-40800
X50100Y-41400
X50385Y-42850
X50385Y-43200
X50400Y-38700
X50450Y-40150
X50850Y-34700
X51300Y-37550
X51600Y-38600
X51650Y-44150
X51650Y-44500
X52180Y-47040
X52400Y-34350
X52800Y-39175
X52800Y-41600
X53175Y-39175
X53260Y-42220
X53275Y-43900
X53275Y-44400
X53460Y-40220
X53740Y-46740
X54200Y-45500
X54740Y-39120
X54850Y-35450
X54950Y-31550
X55040Y-42080
X55120Y-44560
X55200Y-38840
X55740Y-42080
X56000Y-47250
X56000Y-48500
X56150Y-45100
X56250Y-28600
X57000Y-38000
X57000Y-41710
X57100Y-44050
X58050Y-45950
X58150Y-30650
T2
X43920Y-30920
T3
X40223Y-34900
X41010Y-34900
X41798Y-34900
X42585Y-34900
X43373Y-34900
X44160Y-34900
X40253Y-32040
X41040Y-32040
X54313Y-29900
X55100Y-29900
X50950Y-48000
X51738Y-48000
X52525Y-48000
X53313Y-48000
X54100Y-48000
X48283Y-29900
X49070Y-29900
X49858Y-29900
X50645Y-29900
X51433Y-29900
X52220Y-29900
X47333Y-48000
X48120Y-48000
X42975Y-48000
X43763Y-48000
X44550Y-48000
T4
X41800Y-36969
X41800Y-45969
X42800Y-36969
X42800Y-45969
X43800Y-36969
X43800Y-45969
X44800Y-36969
X44800Y-45969
X45800Y-36969
X45800Y-45969
X46800Y-36969
X46800Y-45969
X47800Y-36969
X47800Y-45969
X48800Y-36969
X48800Y-45969
X49800Y-36969
X49800Y-45969
X50800Y-36969
X50800Y-45969
X51800Y-36969
X51800Y-45969
X52800Y-36969
X52800Y-45969
X53800Y-36969
X53800Y-45969
X54800Y-36969
X54800Y-45969
X55800Y-36969
X55800Y-45969
T5
X46800Y-33640
X46800Y-34640
X46800Y-35640
T5
X53768Y-34354G85X53768Y-33566
G05
X56130Y-34216G85X56130Y-33704
G05
X56229Y-32188G85X56819Y-32188
G05
X56229Y-35732G85X56819Y-35732
G05
T0
M30
