G04 #@! TF.GenerationSoftware,KiCad,Pcbnew,(5.0.1)-rc2*
G04 #@! TF.CreationDate,2018-12-27T01:27:39+01:00*
G04 #@! TF.ProjectId,IoP_plant_base,496F505F706C616E745F626173652E6B,rev?*
G04 #@! TF.SameCoordinates,Original*
G04 #@! TF.FileFunction,Paste,Top*
G04 #@! TF.FilePolarity,Positive*
%FSLAX46Y46*%
G04 Gerber Fmt 4.6, Leading zero omitted, Abs format (unit mm)*
G04 Created by KiCad (PCBNEW (5.0.1)-rc2) date 2018/12/27 1:27:39*
%MOMM*%
%LPD*%
G01*
G04 APERTURE LIST*
%ADD10R,0.650000X1.560000*%
%ADD11R,0.450000X1.450000*%
%ADD12C,0.100000*%
%ADD13C,0.875000*%
%ADD14R,0.800000X0.900000*%
%ADD15R,0.700000X0.600000*%
%ADD16C,0.975000*%
%ADD17R,2.500000X1.800000*%
%ADD18C,1.125000*%
%ADD19C,1.250000*%
%ADD20R,0.900000X1.200000*%
%ADD21R,3.700000X0.980000*%
%ADD22R,1.500000X0.600000*%
%ADD23R,0.900000X0.800000*%
%ADD24C,1.325000*%
G04 APERTURE END LIST*
D10*
G04 #@! TO.C,U2*
X112522000Y-79908400D03*
X110622000Y-79908400D03*
X110622000Y-77208400D03*
X111572000Y-77208400D03*
X112522000Y-77208400D03*
G04 #@! TD*
D11*
G04 #@! TO.C,U3*
X124461200Y-85133600D03*
X125111200Y-85133600D03*
X125761200Y-85133600D03*
X126411200Y-85133600D03*
X127061200Y-85133600D03*
X127711200Y-85133600D03*
X128361200Y-85133600D03*
X128361200Y-91033600D03*
X127711200Y-91033600D03*
X127061200Y-91033600D03*
X126411200Y-91033600D03*
X125761200Y-91033600D03*
X125111200Y-91033600D03*
X124461200Y-91033600D03*
G04 #@! TD*
D12*
G04 #@! TO.C,R14*
G36*
X113371991Y-83828653D02*
X113393226Y-83831803D01*
X113414050Y-83837019D01*
X113434262Y-83844251D01*
X113453668Y-83853430D01*
X113472081Y-83864466D01*
X113489324Y-83877254D01*
X113505230Y-83891670D01*
X113519646Y-83907576D01*
X113532434Y-83924819D01*
X113543470Y-83943232D01*
X113552649Y-83962638D01*
X113559881Y-83982850D01*
X113565097Y-84003674D01*
X113568247Y-84024909D01*
X113569300Y-84046350D01*
X113569300Y-84558850D01*
X113568247Y-84580291D01*
X113565097Y-84601526D01*
X113559881Y-84622350D01*
X113552649Y-84642562D01*
X113543470Y-84661968D01*
X113532434Y-84680381D01*
X113519646Y-84697624D01*
X113505230Y-84713530D01*
X113489324Y-84727946D01*
X113472081Y-84740734D01*
X113453668Y-84751770D01*
X113434262Y-84760949D01*
X113414050Y-84768181D01*
X113393226Y-84773397D01*
X113371991Y-84776547D01*
X113350550Y-84777600D01*
X112913050Y-84777600D01*
X112891609Y-84776547D01*
X112870374Y-84773397D01*
X112849550Y-84768181D01*
X112829338Y-84760949D01*
X112809932Y-84751770D01*
X112791519Y-84740734D01*
X112774276Y-84727946D01*
X112758370Y-84713530D01*
X112743954Y-84697624D01*
X112731166Y-84680381D01*
X112720130Y-84661968D01*
X112710951Y-84642562D01*
X112703719Y-84622350D01*
X112698503Y-84601526D01*
X112695353Y-84580291D01*
X112694300Y-84558850D01*
X112694300Y-84046350D01*
X112695353Y-84024909D01*
X112698503Y-84003674D01*
X112703719Y-83982850D01*
X112710951Y-83962638D01*
X112720130Y-83943232D01*
X112731166Y-83924819D01*
X112743954Y-83907576D01*
X112758370Y-83891670D01*
X112774276Y-83877254D01*
X112791519Y-83864466D01*
X112809932Y-83853430D01*
X112829338Y-83844251D01*
X112849550Y-83837019D01*
X112870374Y-83831803D01*
X112891609Y-83828653D01*
X112913050Y-83827600D01*
X113350550Y-83827600D01*
X113371991Y-83828653D01*
X113371991Y-83828653D01*
G37*
D13*
X113131800Y-84302600D03*
D12*
G36*
X111796991Y-83828653D02*
X111818226Y-83831803D01*
X111839050Y-83837019D01*
X111859262Y-83844251D01*
X111878668Y-83853430D01*
X111897081Y-83864466D01*
X111914324Y-83877254D01*
X111930230Y-83891670D01*
X111944646Y-83907576D01*
X111957434Y-83924819D01*
X111968470Y-83943232D01*
X111977649Y-83962638D01*
X111984881Y-83982850D01*
X111990097Y-84003674D01*
X111993247Y-84024909D01*
X111994300Y-84046350D01*
X111994300Y-84558850D01*
X111993247Y-84580291D01*
X111990097Y-84601526D01*
X111984881Y-84622350D01*
X111977649Y-84642562D01*
X111968470Y-84661968D01*
X111957434Y-84680381D01*
X111944646Y-84697624D01*
X111930230Y-84713530D01*
X111914324Y-84727946D01*
X111897081Y-84740734D01*
X111878668Y-84751770D01*
X111859262Y-84760949D01*
X111839050Y-84768181D01*
X111818226Y-84773397D01*
X111796991Y-84776547D01*
X111775550Y-84777600D01*
X111338050Y-84777600D01*
X111316609Y-84776547D01*
X111295374Y-84773397D01*
X111274550Y-84768181D01*
X111254338Y-84760949D01*
X111234932Y-84751770D01*
X111216519Y-84740734D01*
X111199276Y-84727946D01*
X111183370Y-84713530D01*
X111168954Y-84697624D01*
X111156166Y-84680381D01*
X111145130Y-84661968D01*
X111135951Y-84642562D01*
X111128719Y-84622350D01*
X111123503Y-84601526D01*
X111120353Y-84580291D01*
X111119300Y-84558850D01*
X111119300Y-84046350D01*
X111120353Y-84024909D01*
X111123503Y-84003674D01*
X111128719Y-83982850D01*
X111135951Y-83962638D01*
X111145130Y-83943232D01*
X111156166Y-83924819D01*
X111168954Y-83907576D01*
X111183370Y-83891670D01*
X111199276Y-83877254D01*
X111216519Y-83864466D01*
X111234932Y-83853430D01*
X111254338Y-83844251D01*
X111274550Y-83837019D01*
X111295374Y-83831803D01*
X111316609Y-83828653D01*
X111338050Y-83827600D01*
X111775550Y-83827600D01*
X111796991Y-83828653D01*
X111796991Y-83828653D01*
G37*
D13*
X111556800Y-84302600D03*
G04 #@! TD*
D12*
G04 #@! TO.C,R13*
G36*
X111529691Y-96870853D02*
X111550926Y-96874003D01*
X111571750Y-96879219D01*
X111591962Y-96886451D01*
X111611368Y-96895630D01*
X111629781Y-96906666D01*
X111647024Y-96919454D01*
X111662930Y-96933870D01*
X111677346Y-96949776D01*
X111690134Y-96967019D01*
X111701170Y-96985432D01*
X111710349Y-97004838D01*
X111717581Y-97025050D01*
X111722797Y-97045874D01*
X111725947Y-97067109D01*
X111727000Y-97088550D01*
X111727000Y-97526050D01*
X111725947Y-97547491D01*
X111722797Y-97568726D01*
X111717581Y-97589550D01*
X111710349Y-97609762D01*
X111701170Y-97629168D01*
X111690134Y-97647581D01*
X111677346Y-97664824D01*
X111662930Y-97680730D01*
X111647024Y-97695146D01*
X111629781Y-97707934D01*
X111611368Y-97718970D01*
X111591962Y-97728149D01*
X111571750Y-97735381D01*
X111550926Y-97740597D01*
X111529691Y-97743747D01*
X111508250Y-97744800D01*
X110995750Y-97744800D01*
X110974309Y-97743747D01*
X110953074Y-97740597D01*
X110932250Y-97735381D01*
X110912038Y-97728149D01*
X110892632Y-97718970D01*
X110874219Y-97707934D01*
X110856976Y-97695146D01*
X110841070Y-97680730D01*
X110826654Y-97664824D01*
X110813866Y-97647581D01*
X110802830Y-97629168D01*
X110793651Y-97609762D01*
X110786419Y-97589550D01*
X110781203Y-97568726D01*
X110778053Y-97547491D01*
X110777000Y-97526050D01*
X110777000Y-97088550D01*
X110778053Y-97067109D01*
X110781203Y-97045874D01*
X110786419Y-97025050D01*
X110793651Y-97004838D01*
X110802830Y-96985432D01*
X110813866Y-96967019D01*
X110826654Y-96949776D01*
X110841070Y-96933870D01*
X110856976Y-96919454D01*
X110874219Y-96906666D01*
X110892632Y-96895630D01*
X110912038Y-96886451D01*
X110932250Y-96879219D01*
X110953074Y-96874003D01*
X110974309Y-96870853D01*
X110995750Y-96869800D01*
X111508250Y-96869800D01*
X111529691Y-96870853D01*
X111529691Y-96870853D01*
G37*
D13*
X111252000Y-97307300D03*
D12*
G36*
X111529691Y-98445853D02*
X111550926Y-98449003D01*
X111571750Y-98454219D01*
X111591962Y-98461451D01*
X111611368Y-98470630D01*
X111629781Y-98481666D01*
X111647024Y-98494454D01*
X111662930Y-98508870D01*
X111677346Y-98524776D01*
X111690134Y-98542019D01*
X111701170Y-98560432D01*
X111710349Y-98579838D01*
X111717581Y-98600050D01*
X111722797Y-98620874D01*
X111725947Y-98642109D01*
X111727000Y-98663550D01*
X111727000Y-99101050D01*
X111725947Y-99122491D01*
X111722797Y-99143726D01*
X111717581Y-99164550D01*
X111710349Y-99184762D01*
X111701170Y-99204168D01*
X111690134Y-99222581D01*
X111677346Y-99239824D01*
X111662930Y-99255730D01*
X111647024Y-99270146D01*
X111629781Y-99282934D01*
X111611368Y-99293970D01*
X111591962Y-99303149D01*
X111571750Y-99310381D01*
X111550926Y-99315597D01*
X111529691Y-99318747D01*
X111508250Y-99319800D01*
X110995750Y-99319800D01*
X110974309Y-99318747D01*
X110953074Y-99315597D01*
X110932250Y-99310381D01*
X110912038Y-99303149D01*
X110892632Y-99293970D01*
X110874219Y-99282934D01*
X110856976Y-99270146D01*
X110841070Y-99255730D01*
X110826654Y-99239824D01*
X110813866Y-99222581D01*
X110802830Y-99204168D01*
X110793651Y-99184762D01*
X110786419Y-99164550D01*
X110781203Y-99143726D01*
X110778053Y-99122491D01*
X110777000Y-99101050D01*
X110777000Y-98663550D01*
X110778053Y-98642109D01*
X110781203Y-98620874D01*
X110786419Y-98600050D01*
X110793651Y-98579838D01*
X110802830Y-98560432D01*
X110813866Y-98542019D01*
X110826654Y-98524776D01*
X110841070Y-98508870D01*
X110856976Y-98494454D01*
X110874219Y-98481666D01*
X110892632Y-98470630D01*
X110912038Y-98461451D01*
X110932250Y-98454219D01*
X110953074Y-98449003D01*
X110974309Y-98445853D01*
X110995750Y-98444800D01*
X111508250Y-98444800D01*
X111529691Y-98445853D01*
X111529691Y-98445853D01*
G37*
D13*
X111252000Y-98882300D03*
G04 #@! TD*
D12*
G04 #@! TO.C,R12*
G36*
X108989691Y-96896153D02*
X109010926Y-96899303D01*
X109031750Y-96904519D01*
X109051962Y-96911751D01*
X109071368Y-96920930D01*
X109089781Y-96931966D01*
X109107024Y-96944754D01*
X109122930Y-96959170D01*
X109137346Y-96975076D01*
X109150134Y-96992319D01*
X109161170Y-97010732D01*
X109170349Y-97030138D01*
X109177581Y-97050350D01*
X109182797Y-97071174D01*
X109185947Y-97092409D01*
X109187000Y-97113850D01*
X109187000Y-97551350D01*
X109185947Y-97572791D01*
X109182797Y-97594026D01*
X109177581Y-97614850D01*
X109170349Y-97635062D01*
X109161170Y-97654468D01*
X109150134Y-97672881D01*
X109137346Y-97690124D01*
X109122930Y-97706030D01*
X109107024Y-97720446D01*
X109089781Y-97733234D01*
X109071368Y-97744270D01*
X109051962Y-97753449D01*
X109031750Y-97760681D01*
X109010926Y-97765897D01*
X108989691Y-97769047D01*
X108968250Y-97770100D01*
X108455750Y-97770100D01*
X108434309Y-97769047D01*
X108413074Y-97765897D01*
X108392250Y-97760681D01*
X108372038Y-97753449D01*
X108352632Y-97744270D01*
X108334219Y-97733234D01*
X108316976Y-97720446D01*
X108301070Y-97706030D01*
X108286654Y-97690124D01*
X108273866Y-97672881D01*
X108262830Y-97654468D01*
X108253651Y-97635062D01*
X108246419Y-97614850D01*
X108241203Y-97594026D01*
X108238053Y-97572791D01*
X108237000Y-97551350D01*
X108237000Y-97113850D01*
X108238053Y-97092409D01*
X108241203Y-97071174D01*
X108246419Y-97050350D01*
X108253651Y-97030138D01*
X108262830Y-97010732D01*
X108273866Y-96992319D01*
X108286654Y-96975076D01*
X108301070Y-96959170D01*
X108316976Y-96944754D01*
X108334219Y-96931966D01*
X108352632Y-96920930D01*
X108372038Y-96911751D01*
X108392250Y-96904519D01*
X108413074Y-96899303D01*
X108434309Y-96896153D01*
X108455750Y-96895100D01*
X108968250Y-96895100D01*
X108989691Y-96896153D01*
X108989691Y-96896153D01*
G37*
D13*
X108712000Y-97332600D03*
D12*
G36*
X108989691Y-98471153D02*
X109010926Y-98474303D01*
X109031750Y-98479519D01*
X109051962Y-98486751D01*
X109071368Y-98495930D01*
X109089781Y-98506966D01*
X109107024Y-98519754D01*
X109122930Y-98534170D01*
X109137346Y-98550076D01*
X109150134Y-98567319D01*
X109161170Y-98585732D01*
X109170349Y-98605138D01*
X109177581Y-98625350D01*
X109182797Y-98646174D01*
X109185947Y-98667409D01*
X109187000Y-98688850D01*
X109187000Y-99126350D01*
X109185947Y-99147791D01*
X109182797Y-99169026D01*
X109177581Y-99189850D01*
X109170349Y-99210062D01*
X109161170Y-99229468D01*
X109150134Y-99247881D01*
X109137346Y-99265124D01*
X109122930Y-99281030D01*
X109107024Y-99295446D01*
X109089781Y-99308234D01*
X109071368Y-99319270D01*
X109051962Y-99328449D01*
X109031750Y-99335681D01*
X109010926Y-99340897D01*
X108989691Y-99344047D01*
X108968250Y-99345100D01*
X108455750Y-99345100D01*
X108434309Y-99344047D01*
X108413074Y-99340897D01*
X108392250Y-99335681D01*
X108372038Y-99328449D01*
X108352632Y-99319270D01*
X108334219Y-99308234D01*
X108316976Y-99295446D01*
X108301070Y-99281030D01*
X108286654Y-99265124D01*
X108273866Y-99247881D01*
X108262830Y-99229468D01*
X108253651Y-99210062D01*
X108246419Y-99189850D01*
X108241203Y-99169026D01*
X108238053Y-99147791D01*
X108237000Y-99126350D01*
X108237000Y-98688850D01*
X108238053Y-98667409D01*
X108241203Y-98646174D01*
X108246419Y-98625350D01*
X108253651Y-98605138D01*
X108262830Y-98585732D01*
X108273866Y-98567319D01*
X108286654Y-98550076D01*
X108301070Y-98534170D01*
X108316976Y-98519754D01*
X108334219Y-98506966D01*
X108352632Y-98495930D01*
X108372038Y-98486751D01*
X108392250Y-98479519D01*
X108413074Y-98474303D01*
X108434309Y-98471153D01*
X108455750Y-98470100D01*
X108968250Y-98470100D01*
X108989691Y-98471153D01*
X108989691Y-98471153D01*
G37*
D13*
X108712000Y-98907600D03*
G04 #@! TD*
D14*
G04 #@! TO.C,Q2*
X108620600Y-84143600D03*
X107670600Y-82143600D03*
X109570600Y-82143600D03*
G04 #@! TD*
D15*
G04 #@! TO.C,D3*
X98933000Y-80515000D03*
X98933000Y-81915000D03*
G04 #@! TD*
D12*
G04 #@! TO.C,C19*
G36*
X111085791Y-74456053D02*
X111107026Y-74459203D01*
X111127850Y-74464419D01*
X111148062Y-74471651D01*
X111167468Y-74480830D01*
X111185881Y-74491866D01*
X111203124Y-74504654D01*
X111219030Y-74519070D01*
X111233446Y-74534976D01*
X111246234Y-74552219D01*
X111257270Y-74570632D01*
X111266449Y-74590038D01*
X111273681Y-74610250D01*
X111278897Y-74631074D01*
X111282047Y-74652309D01*
X111283100Y-74673750D01*
X111283100Y-75186250D01*
X111282047Y-75207691D01*
X111278897Y-75228926D01*
X111273681Y-75249750D01*
X111266449Y-75269962D01*
X111257270Y-75289368D01*
X111246234Y-75307781D01*
X111233446Y-75325024D01*
X111219030Y-75340930D01*
X111203124Y-75355346D01*
X111185881Y-75368134D01*
X111167468Y-75379170D01*
X111148062Y-75388349D01*
X111127850Y-75395581D01*
X111107026Y-75400797D01*
X111085791Y-75403947D01*
X111064350Y-75405000D01*
X110626850Y-75405000D01*
X110605409Y-75403947D01*
X110584174Y-75400797D01*
X110563350Y-75395581D01*
X110543138Y-75388349D01*
X110523732Y-75379170D01*
X110505319Y-75368134D01*
X110488076Y-75355346D01*
X110472170Y-75340930D01*
X110457754Y-75325024D01*
X110444966Y-75307781D01*
X110433930Y-75289368D01*
X110424751Y-75269962D01*
X110417519Y-75249750D01*
X110412303Y-75228926D01*
X110409153Y-75207691D01*
X110408100Y-75186250D01*
X110408100Y-74673750D01*
X110409153Y-74652309D01*
X110412303Y-74631074D01*
X110417519Y-74610250D01*
X110424751Y-74590038D01*
X110433930Y-74570632D01*
X110444966Y-74552219D01*
X110457754Y-74534976D01*
X110472170Y-74519070D01*
X110488076Y-74504654D01*
X110505319Y-74491866D01*
X110523732Y-74480830D01*
X110543138Y-74471651D01*
X110563350Y-74464419D01*
X110584174Y-74459203D01*
X110605409Y-74456053D01*
X110626850Y-74455000D01*
X111064350Y-74455000D01*
X111085791Y-74456053D01*
X111085791Y-74456053D01*
G37*
D13*
X110845600Y-74930000D03*
D12*
G36*
X112660791Y-74456053D02*
X112682026Y-74459203D01*
X112702850Y-74464419D01*
X112723062Y-74471651D01*
X112742468Y-74480830D01*
X112760881Y-74491866D01*
X112778124Y-74504654D01*
X112794030Y-74519070D01*
X112808446Y-74534976D01*
X112821234Y-74552219D01*
X112832270Y-74570632D01*
X112841449Y-74590038D01*
X112848681Y-74610250D01*
X112853897Y-74631074D01*
X112857047Y-74652309D01*
X112858100Y-74673750D01*
X112858100Y-75186250D01*
X112857047Y-75207691D01*
X112853897Y-75228926D01*
X112848681Y-75249750D01*
X112841449Y-75269962D01*
X112832270Y-75289368D01*
X112821234Y-75307781D01*
X112808446Y-75325024D01*
X112794030Y-75340930D01*
X112778124Y-75355346D01*
X112760881Y-75368134D01*
X112742468Y-75379170D01*
X112723062Y-75388349D01*
X112702850Y-75395581D01*
X112682026Y-75400797D01*
X112660791Y-75403947D01*
X112639350Y-75405000D01*
X112201850Y-75405000D01*
X112180409Y-75403947D01*
X112159174Y-75400797D01*
X112138350Y-75395581D01*
X112118138Y-75388349D01*
X112098732Y-75379170D01*
X112080319Y-75368134D01*
X112063076Y-75355346D01*
X112047170Y-75340930D01*
X112032754Y-75325024D01*
X112019966Y-75307781D01*
X112008930Y-75289368D01*
X111999751Y-75269962D01*
X111992519Y-75249750D01*
X111987303Y-75228926D01*
X111984153Y-75207691D01*
X111983100Y-75186250D01*
X111983100Y-74673750D01*
X111984153Y-74652309D01*
X111987303Y-74631074D01*
X111992519Y-74610250D01*
X111999751Y-74590038D01*
X112008930Y-74570632D01*
X112019966Y-74552219D01*
X112032754Y-74534976D01*
X112047170Y-74519070D01*
X112063076Y-74504654D01*
X112080319Y-74491866D01*
X112098732Y-74480830D01*
X112118138Y-74471651D01*
X112138350Y-74464419D01*
X112159174Y-74459203D01*
X112180409Y-74456053D01*
X112201850Y-74455000D01*
X112639350Y-74455000D01*
X112660791Y-74456053D01*
X112660791Y-74456053D01*
G37*
D13*
X112420600Y-74930000D03*
G04 #@! TD*
D12*
G04 #@! TO.C,C18*
G36*
X122553291Y-84704153D02*
X122574526Y-84707303D01*
X122595350Y-84712519D01*
X122615562Y-84719751D01*
X122634968Y-84728930D01*
X122653381Y-84739966D01*
X122670624Y-84752754D01*
X122686530Y-84767170D01*
X122700946Y-84783076D01*
X122713734Y-84800319D01*
X122724770Y-84818732D01*
X122733949Y-84838138D01*
X122741181Y-84858350D01*
X122746397Y-84879174D01*
X122749547Y-84900409D01*
X122750600Y-84921850D01*
X122750600Y-85359350D01*
X122749547Y-85380791D01*
X122746397Y-85402026D01*
X122741181Y-85422850D01*
X122733949Y-85443062D01*
X122724770Y-85462468D01*
X122713734Y-85480881D01*
X122700946Y-85498124D01*
X122686530Y-85514030D01*
X122670624Y-85528446D01*
X122653381Y-85541234D01*
X122634968Y-85552270D01*
X122615562Y-85561449D01*
X122595350Y-85568681D01*
X122574526Y-85573897D01*
X122553291Y-85577047D01*
X122531850Y-85578100D01*
X122019350Y-85578100D01*
X121997909Y-85577047D01*
X121976674Y-85573897D01*
X121955850Y-85568681D01*
X121935638Y-85561449D01*
X121916232Y-85552270D01*
X121897819Y-85541234D01*
X121880576Y-85528446D01*
X121864670Y-85514030D01*
X121850254Y-85498124D01*
X121837466Y-85480881D01*
X121826430Y-85462468D01*
X121817251Y-85443062D01*
X121810019Y-85422850D01*
X121804803Y-85402026D01*
X121801653Y-85380791D01*
X121800600Y-85359350D01*
X121800600Y-84921850D01*
X121801653Y-84900409D01*
X121804803Y-84879174D01*
X121810019Y-84858350D01*
X121817251Y-84838138D01*
X121826430Y-84818732D01*
X121837466Y-84800319D01*
X121850254Y-84783076D01*
X121864670Y-84767170D01*
X121880576Y-84752754D01*
X121897819Y-84739966D01*
X121916232Y-84728930D01*
X121935638Y-84719751D01*
X121955850Y-84712519D01*
X121976674Y-84707303D01*
X121997909Y-84704153D01*
X122019350Y-84703100D01*
X122531850Y-84703100D01*
X122553291Y-84704153D01*
X122553291Y-84704153D01*
G37*
D13*
X122275600Y-85140600D03*
D12*
G36*
X122553291Y-86279153D02*
X122574526Y-86282303D01*
X122595350Y-86287519D01*
X122615562Y-86294751D01*
X122634968Y-86303930D01*
X122653381Y-86314966D01*
X122670624Y-86327754D01*
X122686530Y-86342170D01*
X122700946Y-86358076D01*
X122713734Y-86375319D01*
X122724770Y-86393732D01*
X122733949Y-86413138D01*
X122741181Y-86433350D01*
X122746397Y-86454174D01*
X122749547Y-86475409D01*
X122750600Y-86496850D01*
X122750600Y-86934350D01*
X122749547Y-86955791D01*
X122746397Y-86977026D01*
X122741181Y-86997850D01*
X122733949Y-87018062D01*
X122724770Y-87037468D01*
X122713734Y-87055881D01*
X122700946Y-87073124D01*
X122686530Y-87089030D01*
X122670624Y-87103446D01*
X122653381Y-87116234D01*
X122634968Y-87127270D01*
X122615562Y-87136449D01*
X122595350Y-87143681D01*
X122574526Y-87148897D01*
X122553291Y-87152047D01*
X122531850Y-87153100D01*
X122019350Y-87153100D01*
X121997909Y-87152047D01*
X121976674Y-87148897D01*
X121955850Y-87143681D01*
X121935638Y-87136449D01*
X121916232Y-87127270D01*
X121897819Y-87116234D01*
X121880576Y-87103446D01*
X121864670Y-87089030D01*
X121850254Y-87073124D01*
X121837466Y-87055881D01*
X121826430Y-87037468D01*
X121817251Y-87018062D01*
X121810019Y-86997850D01*
X121804803Y-86977026D01*
X121801653Y-86955791D01*
X121800600Y-86934350D01*
X121800600Y-86496850D01*
X121801653Y-86475409D01*
X121804803Y-86454174D01*
X121810019Y-86433350D01*
X121817251Y-86413138D01*
X121826430Y-86393732D01*
X121837466Y-86375319D01*
X121850254Y-86358076D01*
X121864670Y-86342170D01*
X121880576Y-86327754D01*
X121897819Y-86314966D01*
X121916232Y-86303930D01*
X121935638Y-86294751D01*
X121955850Y-86287519D01*
X121976674Y-86282303D01*
X121997909Y-86279153D01*
X122019350Y-86278100D01*
X122531850Y-86278100D01*
X122553291Y-86279153D01*
X122553291Y-86279153D01*
G37*
D13*
X122275600Y-86715600D03*
G04 #@! TD*
D12*
G04 #@! TO.C,C17*
G36*
X122553291Y-90597153D02*
X122574526Y-90600303D01*
X122595350Y-90605519D01*
X122615562Y-90612751D01*
X122634968Y-90621930D01*
X122653381Y-90632966D01*
X122670624Y-90645754D01*
X122686530Y-90660170D01*
X122700946Y-90676076D01*
X122713734Y-90693319D01*
X122724770Y-90711732D01*
X122733949Y-90731138D01*
X122741181Y-90751350D01*
X122746397Y-90772174D01*
X122749547Y-90793409D01*
X122750600Y-90814850D01*
X122750600Y-91252350D01*
X122749547Y-91273791D01*
X122746397Y-91295026D01*
X122741181Y-91315850D01*
X122733949Y-91336062D01*
X122724770Y-91355468D01*
X122713734Y-91373881D01*
X122700946Y-91391124D01*
X122686530Y-91407030D01*
X122670624Y-91421446D01*
X122653381Y-91434234D01*
X122634968Y-91445270D01*
X122615562Y-91454449D01*
X122595350Y-91461681D01*
X122574526Y-91466897D01*
X122553291Y-91470047D01*
X122531850Y-91471100D01*
X122019350Y-91471100D01*
X121997909Y-91470047D01*
X121976674Y-91466897D01*
X121955850Y-91461681D01*
X121935638Y-91454449D01*
X121916232Y-91445270D01*
X121897819Y-91434234D01*
X121880576Y-91421446D01*
X121864670Y-91407030D01*
X121850254Y-91391124D01*
X121837466Y-91373881D01*
X121826430Y-91355468D01*
X121817251Y-91336062D01*
X121810019Y-91315850D01*
X121804803Y-91295026D01*
X121801653Y-91273791D01*
X121800600Y-91252350D01*
X121800600Y-90814850D01*
X121801653Y-90793409D01*
X121804803Y-90772174D01*
X121810019Y-90751350D01*
X121817251Y-90731138D01*
X121826430Y-90711732D01*
X121837466Y-90693319D01*
X121850254Y-90676076D01*
X121864670Y-90660170D01*
X121880576Y-90645754D01*
X121897819Y-90632966D01*
X121916232Y-90621930D01*
X121935638Y-90612751D01*
X121955850Y-90605519D01*
X121976674Y-90600303D01*
X121997909Y-90597153D01*
X122019350Y-90596100D01*
X122531850Y-90596100D01*
X122553291Y-90597153D01*
X122553291Y-90597153D01*
G37*
D13*
X122275600Y-91033600D03*
D12*
G36*
X122553291Y-89022153D02*
X122574526Y-89025303D01*
X122595350Y-89030519D01*
X122615562Y-89037751D01*
X122634968Y-89046930D01*
X122653381Y-89057966D01*
X122670624Y-89070754D01*
X122686530Y-89085170D01*
X122700946Y-89101076D01*
X122713734Y-89118319D01*
X122724770Y-89136732D01*
X122733949Y-89156138D01*
X122741181Y-89176350D01*
X122746397Y-89197174D01*
X122749547Y-89218409D01*
X122750600Y-89239850D01*
X122750600Y-89677350D01*
X122749547Y-89698791D01*
X122746397Y-89720026D01*
X122741181Y-89740850D01*
X122733949Y-89761062D01*
X122724770Y-89780468D01*
X122713734Y-89798881D01*
X122700946Y-89816124D01*
X122686530Y-89832030D01*
X122670624Y-89846446D01*
X122653381Y-89859234D01*
X122634968Y-89870270D01*
X122615562Y-89879449D01*
X122595350Y-89886681D01*
X122574526Y-89891897D01*
X122553291Y-89895047D01*
X122531850Y-89896100D01*
X122019350Y-89896100D01*
X121997909Y-89895047D01*
X121976674Y-89891897D01*
X121955850Y-89886681D01*
X121935638Y-89879449D01*
X121916232Y-89870270D01*
X121897819Y-89859234D01*
X121880576Y-89846446D01*
X121864670Y-89832030D01*
X121850254Y-89816124D01*
X121837466Y-89798881D01*
X121826430Y-89780468D01*
X121817251Y-89761062D01*
X121810019Y-89740850D01*
X121804803Y-89720026D01*
X121801653Y-89698791D01*
X121800600Y-89677350D01*
X121800600Y-89239850D01*
X121801653Y-89218409D01*
X121804803Y-89197174D01*
X121810019Y-89176350D01*
X121817251Y-89156138D01*
X121826430Y-89136732D01*
X121837466Y-89118319D01*
X121850254Y-89101076D01*
X121864670Y-89085170D01*
X121880576Y-89070754D01*
X121897819Y-89057966D01*
X121916232Y-89046930D01*
X121935638Y-89037751D01*
X121955850Y-89030519D01*
X121976674Y-89025303D01*
X121997909Y-89022153D01*
X122019350Y-89021100D01*
X122531850Y-89021100D01*
X122553291Y-89022153D01*
X122553291Y-89022153D01*
G37*
D13*
X122275600Y-89458600D03*
G04 #@! TD*
D12*
G04 #@! TO.C,C5*
G36*
X112835842Y-72199174D02*
X112859503Y-72202684D01*
X112882707Y-72208496D01*
X112905229Y-72216554D01*
X112926853Y-72226782D01*
X112947370Y-72239079D01*
X112966583Y-72253329D01*
X112984307Y-72269393D01*
X113000371Y-72287117D01*
X113014621Y-72306330D01*
X113026918Y-72326847D01*
X113037146Y-72348471D01*
X113045204Y-72370993D01*
X113051016Y-72394197D01*
X113054526Y-72417858D01*
X113055700Y-72441750D01*
X113055700Y-73354250D01*
X113054526Y-73378142D01*
X113051016Y-73401803D01*
X113045204Y-73425007D01*
X113037146Y-73447529D01*
X113026918Y-73469153D01*
X113014621Y-73489670D01*
X113000371Y-73508883D01*
X112984307Y-73526607D01*
X112966583Y-73542671D01*
X112947370Y-73556921D01*
X112926853Y-73569218D01*
X112905229Y-73579446D01*
X112882707Y-73587504D01*
X112859503Y-73593316D01*
X112835842Y-73596826D01*
X112811950Y-73598000D01*
X112324450Y-73598000D01*
X112300558Y-73596826D01*
X112276897Y-73593316D01*
X112253693Y-73587504D01*
X112231171Y-73579446D01*
X112209547Y-73569218D01*
X112189030Y-73556921D01*
X112169817Y-73542671D01*
X112152093Y-73526607D01*
X112136029Y-73508883D01*
X112121779Y-73489670D01*
X112109482Y-73469153D01*
X112099254Y-73447529D01*
X112091196Y-73425007D01*
X112085384Y-73401803D01*
X112081874Y-73378142D01*
X112080700Y-73354250D01*
X112080700Y-72441750D01*
X112081874Y-72417858D01*
X112085384Y-72394197D01*
X112091196Y-72370993D01*
X112099254Y-72348471D01*
X112109482Y-72326847D01*
X112121779Y-72306330D01*
X112136029Y-72287117D01*
X112152093Y-72269393D01*
X112169817Y-72253329D01*
X112189030Y-72239079D01*
X112209547Y-72226782D01*
X112231171Y-72216554D01*
X112253693Y-72208496D01*
X112276897Y-72202684D01*
X112300558Y-72199174D01*
X112324450Y-72198000D01*
X112811950Y-72198000D01*
X112835842Y-72199174D01*
X112835842Y-72199174D01*
G37*
D16*
X112568200Y-72898000D03*
D12*
G36*
X110960842Y-72199174D02*
X110984503Y-72202684D01*
X111007707Y-72208496D01*
X111030229Y-72216554D01*
X111051853Y-72226782D01*
X111072370Y-72239079D01*
X111091583Y-72253329D01*
X111109307Y-72269393D01*
X111125371Y-72287117D01*
X111139621Y-72306330D01*
X111151918Y-72326847D01*
X111162146Y-72348471D01*
X111170204Y-72370993D01*
X111176016Y-72394197D01*
X111179526Y-72417858D01*
X111180700Y-72441750D01*
X111180700Y-73354250D01*
X111179526Y-73378142D01*
X111176016Y-73401803D01*
X111170204Y-73425007D01*
X111162146Y-73447529D01*
X111151918Y-73469153D01*
X111139621Y-73489670D01*
X111125371Y-73508883D01*
X111109307Y-73526607D01*
X111091583Y-73542671D01*
X111072370Y-73556921D01*
X111051853Y-73569218D01*
X111030229Y-73579446D01*
X111007707Y-73587504D01*
X110984503Y-73593316D01*
X110960842Y-73596826D01*
X110936950Y-73598000D01*
X110449450Y-73598000D01*
X110425558Y-73596826D01*
X110401897Y-73593316D01*
X110378693Y-73587504D01*
X110356171Y-73579446D01*
X110334547Y-73569218D01*
X110314030Y-73556921D01*
X110294817Y-73542671D01*
X110277093Y-73526607D01*
X110261029Y-73508883D01*
X110246779Y-73489670D01*
X110234482Y-73469153D01*
X110224254Y-73447529D01*
X110216196Y-73425007D01*
X110210384Y-73401803D01*
X110206874Y-73378142D01*
X110205700Y-73354250D01*
X110205700Y-72441750D01*
X110206874Y-72417858D01*
X110210384Y-72394197D01*
X110216196Y-72370993D01*
X110224254Y-72348471D01*
X110234482Y-72326847D01*
X110246779Y-72306330D01*
X110261029Y-72287117D01*
X110277093Y-72269393D01*
X110294817Y-72253329D01*
X110314030Y-72239079D01*
X110334547Y-72226782D01*
X110356171Y-72216554D01*
X110378693Y-72208496D01*
X110401897Y-72202684D01*
X110425558Y-72199174D01*
X110449450Y-72198000D01*
X110936950Y-72198000D01*
X110960842Y-72199174D01*
X110960842Y-72199174D01*
G37*
D16*
X110693200Y-72898000D03*
G04 #@! TD*
D12*
G04 #@! TO.C,C1*
G36*
X111771391Y-81745853D02*
X111792626Y-81749003D01*
X111813450Y-81754219D01*
X111833662Y-81761451D01*
X111853068Y-81770630D01*
X111871481Y-81781666D01*
X111888724Y-81794454D01*
X111904630Y-81808870D01*
X111919046Y-81824776D01*
X111931834Y-81842019D01*
X111942870Y-81860432D01*
X111952049Y-81879838D01*
X111959281Y-81900050D01*
X111964497Y-81920874D01*
X111967647Y-81942109D01*
X111968700Y-81963550D01*
X111968700Y-82476050D01*
X111967647Y-82497491D01*
X111964497Y-82518726D01*
X111959281Y-82539550D01*
X111952049Y-82559762D01*
X111942870Y-82579168D01*
X111931834Y-82597581D01*
X111919046Y-82614824D01*
X111904630Y-82630730D01*
X111888724Y-82645146D01*
X111871481Y-82657934D01*
X111853068Y-82668970D01*
X111833662Y-82678149D01*
X111813450Y-82685381D01*
X111792626Y-82690597D01*
X111771391Y-82693747D01*
X111749950Y-82694800D01*
X111312450Y-82694800D01*
X111291009Y-82693747D01*
X111269774Y-82690597D01*
X111248950Y-82685381D01*
X111228738Y-82678149D01*
X111209332Y-82668970D01*
X111190919Y-82657934D01*
X111173676Y-82645146D01*
X111157770Y-82630730D01*
X111143354Y-82614824D01*
X111130566Y-82597581D01*
X111119530Y-82579168D01*
X111110351Y-82559762D01*
X111103119Y-82539550D01*
X111097903Y-82518726D01*
X111094753Y-82497491D01*
X111093700Y-82476050D01*
X111093700Y-81963550D01*
X111094753Y-81942109D01*
X111097903Y-81920874D01*
X111103119Y-81900050D01*
X111110351Y-81879838D01*
X111119530Y-81860432D01*
X111130566Y-81842019D01*
X111143354Y-81824776D01*
X111157770Y-81808870D01*
X111173676Y-81794454D01*
X111190919Y-81781666D01*
X111209332Y-81770630D01*
X111228738Y-81761451D01*
X111248950Y-81754219D01*
X111269774Y-81749003D01*
X111291009Y-81745853D01*
X111312450Y-81744800D01*
X111749950Y-81744800D01*
X111771391Y-81745853D01*
X111771391Y-81745853D01*
G37*
D13*
X111531200Y-82219800D03*
D12*
G36*
X113346391Y-81745853D02*
X113367626Y-81749003D01*
X113388450Y-81754219D01*
X113408662Y-81761451D01*
X113428068Y-81770630D01*
X113446481Y-81781666D01*
X113463724Y-81794454D01*
X113479630Y-81808870D01*
X113494046Y-81824776D01*
X113506834Y-81842019D01*
X113517870Y-81860432D01*
X113527049Y-81879838D01*
X113534281Y-81900050D01*
X113539497Y-81920874D01*
X113542647Y-81942109D01*
X113543700Y-81963550D01*
X113543700Y-82476050D01*
X113542647Y-82497491D01*
X113539497Y-82518726D01*
X113534281Y-82539550D01*
X113527049Y-82559762D01*
X113517870Y-82579168D01*
X113506834Y-82597581D01*
X113494046Y-82614824D01*
X113479630Y-82630730D01*
X113463724Y-82645146D01*
X113446481Y-82657934D01*
X113428068Y-82668970D01*
X113408662Y-82678149D01*
X113388450Y-82685381D01*
X113367626Y-82690597D01*
X113346391Y-82693747D01*
X113324950Y-82694800D01*
X112887450Y-82694800D01*
X112866009Y-82693747D01*
X112844774Y-82690597D01*
X112823950Y-82685381D01*
X112803738Y-82678149D01*
X112784332Y-82668970D01*
X112765919Y-82657934D01*
X112748676Y-82645146D01*
X112732770Y-82630730D01*
X112718354Y-82614824D01*
X112705566Y-82597581D01*
X112694530Y-82579168D01*
X112685351Y-82559762D01*
X112678119Y-82539550D01*
X112672903Y-82518726D01*
X112669753Y-82497491D01*
X112668700Y-82476050D01*
X112668700Y-81963550D01*
X112669753Y-81942109D01*
X112672903Y-81920874D01*
X112678119Y-81900050D01*
X112685351Y-81879838D01*
X112694530Y-81860432D01*
X112705566Y-81842019D01*
X112718354Y-81824776D01*
X112732770Y-81808870D01*
X112748676Y-81794454D01*
X112765919Y-81781666D01*
X112784332Y-81770630D01*
X112803738Y-81761451D01*
X112823950Y-81754219D01*
X112844774Y-81749003D01*
X112866009Y-81745853D01*
X112887450Y-81744800D01*
X113324950Y-81744800D01*
X113346391Y-81745853D01*
X113346391Y-81745853D01*
G37*
D13*
X113106200Y-82219800D03*
G04 #@! TD*
D17*
G04 #@! TO.C,D1*
X132994400Y-81635600D03*
X128994400Y-81635600D03*
G04 #@! TD*
D12*
G04 #@! TO.C,F1*
G36*
X134062505Y-84571704D02*
X134086773Y-84575304D01*
X134110572Y-84581265D01*
X134133671Y-84589530D01*
X134155850Y-84600020D01*
X134176893Y-84612632D01*
X134196599Y-84627247D01*
X134214777Y-84643723D01*
X134231253Y-84661901D01*
X134245868Y-84681607D01*
X134258480Y-84702650D01*
X134268970Y-84724829D01*
X134277235Y-84747928D01*
X134283196Y-84771727D01*
X134286796Y-84795995D01*
X134288000Y-84820499D01*
X134288000Y-85445501D01*
X134286796Y-85470005D01*
X134283196Y-85494273D01*
X134277235Y-85518072D01*
X134268970Y-85541171D01*
X134258480Y-85563350D01*
X134245868Y-85584393D01*
X134231253Y-85604099D01*
X134214777Y-85622277D01*
X134196599Y-85638753D01*
X134176893Y-85653368D01*
X134155850Y-85665980D01*
X134133671Y-85676470D01*
X134110572Y-85684735D01*
X134086773Y-85690696D01*
X134062505Y-85694296D01*
X134038001Y-85695500D01*
X131137999Y-85695500D01*
X131113495Y-85694296D01*
X131089227Y-85690696D01*
X131065428Y-85684735D01*
X131042329Y-85676470D01*
X131020150Y-85665980D01*
X130999107Y-85653368D01*
X130979401Y-85638753D01*
X130961223Y-85622277D01*
X130944747Y-85604099D01*
X130930132Y-85584393D01*
X130917520Y-85563350D01*
X130907030Y-85541171D01*
X130898765Y-85518072D01*
X130892804Y-85494273D01*
X130889204Y-85470005D01*
X130888000Y-85445501D01*
X130888000Y-84820499D01*
X130889204Y-84795995D01*
X130892804Y-84771727D01*
X130898765Y-84747928D01*
X130907030Y-84724829D01*
X130917520Y-84702650D01*
X130930132Y-84681607D01*
X130944747Y-84661901D01*
X130961223Y-84643723D01*
X130979401Y-84627247D01*
X130999107Y-84612632D01*
X131020150Y-84600020D01*
X131042329Y-84589530D01*
X131065428Y-84581265D01*
X131089227Y-84575304D01*
X131113495Y-84571704D01*
X131137999Y-84570500D01*
X134038001Y-84570500D01*
X134062505Y-84571704D01*
X134062505Y-84571704D01*
G37*
D18*
X132588000Y-85133000D03*
D12*
G36*
X134062505Y-88846704D02*
X134086773Y-88850304D01*
X134110572Y-88856265D01*
X134133671Y-88864530D01*
X134155850Y-88875020D01*
X134176893Y-88887632D01*
X134196599Y-88902247D01*
X134214777Y-88918723D01*
X134231253Y-88936901D01*
X134245868Y-88956607D01*
X134258480Y-88977650D01*
X134268970Y-88999829D01*
X134277235Y-89022928D01*
X134283196Y-89046727D01*
X134286796Y-89070995D01*
X134288000Y-89095499D01*
X134288000Y-89720501D01*
X134286796Y-89745005D01*
X134283196Y-89769273D01*
X134277235Y-89793072D01*
X134268970Y-89816171D01*
X134258480Y-89838350D01*
X134245868Y-89859393D01*
X134231253Y-89879099D01*
X134214777Y-89897277D01*
X134196599Y-89913753D01*
X134176893Y-89928368D01*
X134155850Y-89940980D01*
X134133671Y-89951470D01*
X134110572Y-89959735D01*
X134086773Y-89965696D01*
X134062505Y-89969296D01*
X134038001Y-89970500D01*
X131137999Y-89970500D01*
X131113495Y-89969296D01*
X131089227Y-89965696D01*
X131065428Y-89959735D01*
X131042329Y-89951470D01*
X131020150Y-89940980D01*
X130999107Y-89928368D01*
X130979401Y-89913753D01*
X130961223Y-89897277D01*
X130944747Y-89879099D01*
X130930132Y-89859393D01*
X130917520Y-89838350D01*
X130907030Y-89816171D01*
X130898765Y-89793072D01*
X130892804Y-89769273D01*
X130889204Y-89745005D01*
X130888000Y-89720501D01*
X130888000Y-89095499D01*
X130889204Y-89070995D01*
X130892804Y-89046727D01*
X130898765Y-89022928D01*
X130907030Y-88999829D01*
X130917520Y-88977650D01*
X130930132Y-88956607D01*
X130944747Y-88936901D01*
X130961223Y-88918723D01*
X130979401Y-88902247D01*
X130999107Y-88887632D01*
X131020150Y-88875020D01*
X131042329Y-88864530D01*
X131065428Y-88856265D01*
X131089227Y-88850304D01*
X131113495Y-88846704D01*
X131137999Y-88845500D01*
X134038001Y-88845500D01*
X134062505Y-88846704D01*
X134062505Y-88846704D01*
G37*
D18*
X132588000Y-89408000D03*
G04 #@! TD*
D12*
G04 #@! TO.C,C16*
G36*
X138467191Y-97570053D02*
X138488426Y-97573203D01*
X138509250Y-97578419D01*
X138529462Y-97585651D01*
X138548868Y-97594830D01*
X138567281Y-97605866D01*
X138584524Y-97618654D01*
X138600430Y-97633070D01*
X138614846Y-97648976D01*
X138627634Y-97666219D01*
X138638670Y-97684632D01*
X138647849Y-97704038D01*
X138655081Y-97724250D01*
X138660297Y-97745074D01*
X138663447Y-97766309D01*
X138664500Y-97787750D01*
X138664500Y-98300250D01*
X138663447Y-98321691D01*
X138660297Y-98342926D01*
X138655081Y-98363750D01*
X138647849Y-98383962D01*
X138638670Y-98403368D01*
X138627634Y-98421781D01*
X138614846Y-98439024D01*
X138600430Y-98454930D01*
X138584524Y-98469346D01*
X138567281Y-98482134D01*
X138548868Y-98493170D01*
X138529462Y-98502349D01*
X138509250Y-98509581D01*
X138488426Y-98514797D01*
X138467191Y-98517947D01*
X138445750Y-98519000D01*
X138008250Y-98519000D01*
X137986809Y-98517947D01*
X137965574Y-98514797D01*
X137944750Y-98509581D01*
X137924538Y-98502349D01*
X137905132Y-98493170D01*
X137886719Y-98482134D01*
X137869476Y-98469346D01*
X137853570Y-98454930D01*
X137839154Y-98439024D01*
X137826366Y-98421781D01*
X137815330Y-98403368D01*
X137806151Y-98383962D01*
X137798919Y-98363750D01*
X137793703Y-98342926D01*
X137790553Y-98321691D01*
X137789500Y-98300250D01*
X137789500Y-97787750D01*
X137790553Y-97766309D01*
X137793703Y-97745074D01*
X137798919Y-97724250D01*
X137806151Y-97704038D01*
X137815330Y-97684632D01*
X137826366Y-97666219D01*
X137839154Y-97648976D01*
X137853570Y-97633070D01*
X137869476Y-97618654D01*
X137886719Y-97605866D01*
X137905132Y-97594830D01*
X137924538Y-97585651D01*
X137944750Y-97578419D01*
X137965574Y-97573203D01*
X137986809Y-97570053D01*
X138008250Y-97569000D01*
X138445750Y-97569000D01*
X138467191Y-97570053D01*
X138467191Y-97570053D01*
G37*
D13*
X138227000Y-98044000D03*
D12*
G36*
X136892191Y-97570053D02*
X136913426Y-97573203D01*
X136934250Y-97578419D01*
X136954462Y-97585651D01*
X136973868Y-97594830D01*
X136992281Y-97605866D01*
X137009524Y-97618654D01*
X137025430Y-97633070D01*
X137039846Y-97648976D01*
X137052634Y-97666219D01*
X137063670Y-97684632D01*
X137072849Y-97704038D01*
X137080081Y-97724250D01*
X137085297Y-97745074D01*
X137088447Y-97766309D01*
X137089500Y-97787750D01*
X137089500Y-98300250D01*
X137088447Y-98321691D01*
X137085297Y-98342926D01*
X137080081Y-98363750D01*
X137072849Y-98383962D01*
X137063670Y-98403368D01*
X137052634Y-98421781D01*
X137039846Y-98439024D01*
X137025430Y-98454930D01*
X137009524Y-98469346D01*
X136992281Y-98482134D01*
X136973868Y-98493170D01*
X136954462Y-98502349D01*
X136934250Y-98509581D01*
X136913426Y-98514797D01*
X136892191Y-98517947D01*
X136870750Y-98519000D01*
X136433250Y-98519000D01*
X136411809Y-98517947D01*
X136390574Y-98514797D01*
X136369750Y-98509581D01*
X136349538Y-98502349D01*
X136330132Y-98493170D01*
X136311719Y-98482134D01*
X136294476Y-98469346D01*
X136278570Y-98454930D01*
X136264154Y-98439024D01*
X136251366Y-98421781D01*
X136240330Y-98403368D01*
X136231151Y-98383962D01*
X136223919Y-98363750D01*
X136218703Y-98342926D01*
X136215553Y-98321691D01*
X136214500Y-98300250D01*
X136214500Y-97787750D01*
X136215553Y-97766309D01*
X136218703Y-97745074D01*
X136223919Y-97724250D01*
X136231151Y-97704038D01*
X136240330Y-97684632D01*
X136251366Y-97666219D01*
X136264154Y-97648976D01*
X136278570Y-97633070D01*
X136294476Y-97618654D01*
X136311719Y-97605866D01*
X136330132Y-97594830D01*
X136349538Y-97585651D01*
X136369750Y-97578419D01*
X136390574Y-97573203D01*
X136411809Y-97570053D01*
X136433250Y-97569000D01*
X136870750Y-97569000D01*
X136892191Y-97570053D01*
X136892191Y-97570053D01*
G37*
D13*
X136652000Y-98044000D03*
G04 #@! TD*
D12*
G04 #@! TO.C,R9*
G36*
X140963104Y-99608604D02*
X140987373Y-99612204D01*
X141011171Y-99618165D01*
X141034271Y-99626430D01*
X141056449Y-99636920D01*
X141077493Y-99649533D01*
X141097198Y-99664147D01*
X141115377Y-99680623D01*
X141131853Y-99698802D01*
X141146467Y-99718507D01*
X141159080Y-99739551D01*
X141169570Y-99761729D01*
X141177835Y-99784829D01*
X141183796Y-99808627D01*
X141187396Y-99832896D01*
X141188600Y-99857400D01*
X141188600Y-101107400D01*
X141187396Y-101131904D01*
X141183796Y-101156173D01*
X141177835Y-101179971D01*
X141169570Y-101203071D01*
X141159080Y-101225249D01*
X141146467Y-101246293D01*
X141131853Y-101265998D01*
X141115377Y-101284177D01*
X141097198Y-101300653D01*
X141077493Y-101315267D01*
X141056449Y-101327880D01*
X141034271Y-101338370D01*
X141011171Y-101346635D01*
X140987373Y-101352596D01*
X140963104Y-101356196D01*
X140938600Y-101357400D01*
X140188600Y-101357400D01*
X140164096Y-101356196D01*
X140139827Y-101352596D01*
X140116029Y-101346635D01*
X140092929Y-101338370D01*
X140070751Y-101327880D01*
X140049707Y-101315267D01*
X140030002Y-101300653D01*
X140011823Y-101284177D01*
X139995347Y-101265998D01*
X139980733Y-101246293D01*
X139968120Y-101225249D01*
X139957630Y-101203071D01*
X139949365Y-101179971D01*
X139943404Y-101156173D01*
X139939804Y-101131904D01*
X139938600Y-101107400D01*
X139938600Y-99857400D01*
X139939804Y-99832896D01*
X139943404Y-99808627D01*
X139949365Y-99784829D01*
X139957630Y-99761729D01*
X139968120Y-99739551D01*
X139980733Y-99718507D01*
X139995347Y-99698802D01*
X140011823Y-99680623D01*
X140030002Y-99664147D01*
X140049707Y-99649533D01*
X140070751Y-99636920D01*
X140092929Y-99626430D01*
X140116029Y-99618165D01*
X140139827Y-99612204D01*
X140164096Y-99608604D01*
X140188600Y-99607400D01*
X140938600Y-99607400D01*
X140963104Y-99608604D01*
X140963104Y-99608604D01*
G37*
D19*
X140563600Y-100482400D03*
D12*
G36*
X143763104Y-99608604D02*
X143787373Y-99612204D01*
X143811171Y-99618165D01*
X143834271Y-99626430D01*
X143856449Y-99636920D01*
X143877493Y-99649533D01*
X143897198Y-99664147D01*
X143915377Y-99680623D01*
X143931853Y-99698802D01*
X143946467Y-99718507D01*
X143959080Y-99739551D01*
X143969570Y-99761729D01*
X143977835Y-99784829D01*
X143983796Y-99808627D01*
X143987396Y-99832896D01*
X143988600Y-99857400D01*
X143988600Y-101107400D01*
X143987396Y-101131904D01*
X143983796Y-101156173D01*
X143977835Y-101179971D01*
X143969570Y-101203071D01*
X143959080Y-101225249D01*
X143946467Y-101246293D01*
X143931853Y-101265998D01*
X143915377Y-101284177D01*
X143897198Y-101300653D01*
X143877493Y-101315267D01*
X143856449Y-101327880D01*
X143834271Y-101338370D01*
X143811171Y-101346635D01*
X143787373Y-101352596D01*
X143763104Y-101356196D01*
X143738600Y-101357400D01*
X142988600Y-101357400D01*
X142964096Y-101356196D01*
X142939827Y-101352596D01*
X142916029Y-101346635D01*
X142892929Y-101338370D01*
X142870751Y-101327880D01*
X142849707Y-101315267D01*
X142830002Y-101300653D01*
X142811823Y-101284177D01*
X142795347Y-101265998D01*
X142780733Y-101246293D01*
X142768120Y-101225249D01*
X142757630Y-101203071D01*
X142749365Y-101179971D01*
X142743404Y-101156173D01*
X142739804Y-101131904D01*
X142738600Y-101107400D01*
X142738600Y-99857400D01*
X142739804Y-99832896D01*
X142743404Y-99808627D01*
X142749365Y-99784829D01*
X142757630Y-99761729D01*
X142768120Y-99739551D01*
X142780733Y-99718507D01*
X142795347Y-99698802D01*
X142811823Y-99680623D01*
X142830002Y-99664147D01*
X142849707Y-99649533D01*
X142870751Y-99636920D01*
X142892929Y-99626430D01*
X142916029Y-99618165D01*
X142939827Y-99612204D01*
X142964096Y-99608604D01*
X142988600Y-99607400D01*
X143738600Y-99607400D01*
X143763104Y-99608604D01*
X143763104Y-99608604D01*
G37*
D19*
X143363600Y-100482400D03*
G04 #@! TD*
D12*
G04 #@! TO.C,C3*
G36*
X117153842Y-81520974D02*
X117177503Y-81524484D01*
X117200707Y-81530296D01*
X117223229Y-81538354D01*
X117244853Y-81548582D01*
X117265370Y-81560879D01*
X117284583Y-81575129D01*
X117302307Y-81591193D01*
X117318371Y-81608917D01*
X117332621Y-81628130D01*
X117344918Y-81648647D01*
X117355146Y-81670271D01*
X117363204Y-81692793D01*
X117369016Y-81715997D01*
X117372526Y-81739658D01*
X117373700Y-81763550D01*
X117373700Y-82676050D01*
X117372526Y-82699942D01*
X117369016Y-82723603D01*
X117363204Y-82746807D01*
X117355146Y-82769329D01*
X117344918Y-82790953D01*
X117332621Y-82811470D01*
X117318371Y-82830683D01*
X117302307Y-82848407D01*
X117284583Y-82864471D01*
X117265370Y-82878721D01*
X117244853Y-82891018D01*
X117223229Y-82901246D01*
X117200707Y-82909304D01*
X117177503Y-82915116D01*
X117153842Y-82918626D01*
X117129950Y-82919800D01*
X116642450Y-82919800D01*
X116618558Y-82918626D01*
X116594897Y-82915116D01*
X116571693Y-82909304D01*
X116549171Y-82901246D01*
X116527547Y-82891018D01*
X116507030Y-82878721D01*
X116487817Y-82864471D01*
X116470093Y-82848407D01*
X116454029Y-82830683D01*
X116439779Y-82811470D01*
X116427482Y-82790953D01*
X116417254Y-82769329D01*
X116409196Y-82746807D01*
X116403384Y-82723603D01*
X116399874Y-82699942D01*
X116398700Y-82676050D01*
X116398700Y-81763550D01*
X116399874Y-81739658D01*
X116403384Y-81715997D01*
X116409196Y-81692793D01*
X116417254Y-81670271D01*
X116427482Y-81648647D01*
X116439779Y-81628130D01*
X116454029Y-81608917D01*
X116470093Y-81591193D01*
X116487817Y-81575129D01*
X116507030Y-81560879D01*
X116527547Y-81548582D01*
X116549171Y-81538354D01*
X116571693Y-81530296D01*
X116594897Y-81524484D01*
X116618558Y-81520974D01*
X116642450Y-81519800D01*
X117129950Y-81519800D01*
X117153842Y-81520974D01*
X117153842Y-81520974D01*
G37*
D16*
X116886200Y-82219800D03*
D12*
G36*
X115278842Y-81520974D02*
X115302503Y-81524484D01*
X115325707Y-81530296D01*
X115348229Y-81538354D01*
X115369853Y-81548582D01*
X115390370Y-81560879D01*
X115409583Y-81575129D01*
X115427307Y-81591193D01*
X115443371Y-81608917D01*
X115457621Y-81628130D01*
X115469918Y-81648647D01*
X115480146Y-81670271D01*
X115488204Y-81692793D01*
X115494016Y-81715997D01*
X115497526Y-81739658D01*
X115498700Y-81763550D01*
X115498700Y-82676050D01*
X115497526Y-82699942D01*
X115494016Y-82723603D01*
X115488204Y-82746807D01*
X115480146Y-82769329D01*
X115469918Y-82790953D01*
X115457621Y-82811470D01*
X115443371Y-82830683D01*
X115427307Y-82848407D01*
X115409583Y-82864471D01*
X115390370Y-82878721D01*
X115369853Y-82891018D01*
X115348229Y-82901246D01*
X115325707Y-82909304D01*
X115302503Y-82915116D01*
X115278842Y-82918626D01*
X115254950Y-82919800D01*
X114767450Y-82919800D01*
X114743558Y-82918626D01*
X114719897Y-82915116D01*
X114696693Y-82909304D01*
X114674171Y-82901246D01*
X114652547Y-82891018D01*
X114632030Y-82878721D01*
X114612817Y-82864471D01*
X114595093Y-82848407D01*
X114579029Y-82830683D01*
X114564779Y-82811470D01*
X114552482Y-82790953D01*
X114542254Y-82769329D01*
X114534196Y-82746807D01*
X114528384Y-82723603D01*
X114524874Y-82699942D01*
X114523700Y-82676050D01*
X114523700Y-81763550D01*
X114524874Y-81739658D01*
X114528384Y-81715997D01*
X114534196Y-81692793D01*
X114542254Y-81670271D01*
X114552482Y-81648647D01*
X114564779Y-81628130D01*
X114579029Y-81608917D01*
X114595093Y-81591193D01*
X114612817Y-81575129D01*
X114632030Y-81560879D01*
X114652547Y-81548582D01*
X114674171Y-81538354D01*
X114696693Y-81530296D01*
X114719897Y-81524484D01*
X114743558Y-81520974D01*
X114767450Y-81519800D01*
X115254950Y-81519800D01*
X115278842Y-81520974D01*
X115278842Y-81520974D01*
G37*
D16*
X115011200Y-82219800D03*
G04 #@! TD*
D12*
G04 #@! TO.C,C12*
G36*
X124171142Y-98488174D02*
X124194803Y-98491684D01*
X124218007Y-98497496D01*
X124240529Y-98505554D01*
X124262153Y-98515782D01*
X124282670Y-98528079D01*
X124301883Y-98542329D01*
X124319607Y-98558393D01*
X124335671Y-98576117D01*
X124349921Y-98595330D01*
X124362218Y-98615847D01*
X124372446Y-98637471D01*
X124380504Y-98659993D01*
X124386316Y-98683197D01*
X124389826Y-98706858D01*
X124391000Y-98730750D01*
X124391000Y-99643250D01*
X124389826Y-99667142D01*
X124386316Y-99690803D01*
X124380504Y-99714007D01*
X124372446Y-99736529D01*
X124362218Y-99758153D01*
X124349921Y-99778670D01*
X124335671Y-99797883D01*
X124319607Y-99815607D01*
X124301883Y-99831671D01*
X124282670Y-99845921D01*
X124262153Y-99858218D01*
X124240529Y-99868446D01*
X124218007Y-99876504D01*
X124194803Y-99882316D01*
X124171142Y-99885826D01*
X124147250Y-99887000D01*
X123659750Y-99887000D01*
X123635858Y-99885826D01*
X123612197Y-99882316D01*
X123588993Y-99876504D01*
X123566471Y-99868446D01*
X123544847Y-99858218D01*
X123524330Y-99845921D01*
X123505117Y-99831671D01*
X123487393Y-99815607D01*
X123471329Y-99797883D01*
X123457079Y-99778670D01*
X123444782Y-99758153D01*
X123434554Y-99736529D01*
X123426496Y-99714007D01*
X123420684Y-99690803D01*
X123417174Y-99667142D01*
X123416000Y-99643250D01*
X123416000Y-98730750D01*
X123417174Y-98706858D01*
X123420684Y-98683197D01*
X123426496Y-98659993D01*
X123434554Y-98637471D01*
X123444782Y-98615847D01*
X123457079Y-98595330D01*
X123471329Y-98576117D01*
X123487393Y-98558393D01*
X123505117Y-98542329D01*
X123524330Y-98528079D01*
X123544847Y-98515782D01*
X123566471Y-98505554D01*
X123588993Y-98497496D01*
X123612197Y-98491684D01*
X123635858Y-98488174D01*
X123659750Y-98487000D01*
X124147250Y-98487000D01*
X124171142Y-98488174D01*
X124171142Y-98488174D01*
G37*
D16*
X123903500Y-99187000D03*
D12*
G36*
X126046142Y-98488174D02*
X126069803Y-98491684D01*
X126093007Y-98497496D01*
X126115529Y-98505554D01*
X126137153Y-98515782D01*
X126157670Y-98528079D01*
X126176883Y-98542329D01*
X126194607Y-98558393D01*
X126210671Y-98576117D01*
X126224921Y-98595330D01*
X126237218Y-98615847D01*
X126247446Y-98637471D01*
X126255504Y-98659993D01*
X126261316Y-98683197D01*
X126264826Y-98706858D01*
X126266000Y-98730750D01*
X126266000Y-99643250D01*
X126264826Y-99667142D01*
X126261316Y-99690803D01*
X126255504Y-99714007D01*
X126247446Y-99736529D01*
X126237218Y-99758153D01*
X126224921Y-99778670D01*
X126210671Y-99797883D01*
X126194607Y-99815607D01*
X126176883Y-99831671D01*
X126157670Y-99845921D01*
X126137153Y-99858218D01*
X126115529Y-99868446D01*
X126093007Y-99876504D01*
X126069803Y-99882316D01*
X126046142Y-99885826D01*
X126022250Y-99887000D01*
X125534750Y-99887000D01*
X125510858Y-99885826D01*
X125487197Y-99882316D01*
X125463993Y-99876504D01*
X125441471Y-99868446D01*
X125419847Y-99858218D01*
X125399330Y-99845921D01*
X125380117Y-99831671D01*
X125362393Y-99815607D01*
X125346329Y-99797883D01*
X125332079Y-99778670D01*
X125319782Y-99758153D01*
X125309554Y-99736529D01*
X125301496Y-99714007D01*
X125295684Y-99690803D01*
X125292174Y-99667142D01*
X125291000Y-99643250D01*
X125291000Y-98730750D01*
X125292174Y-98706858D01*
X125295684Y-98683197D01*
X125301496Y-98659993D01*
X125309554Y-98637471D01*
X125319782Y-98615847D01*
X125332079Y-98595330D01*
X125346329Y-98576117D01*
X125362393Y-98558393D01*
X125380117Y-98542329D01*
X125399330Y-98528079D01*
X125419847Y-98515782D01*
X125441471Y-98505554D01*
X125463993Y-98497496D01*
X125487197Y-98491684D01*
X125510858Y-98488174D01*
X125534750Y-98487000D01*
X126022250Y-98487000D01*
X126046142Y-98488174D01*
X126046142Y-98488174D01*
G37*
D16*
X125778500Y-99187000D03*
G04 #@! TD*
D12*
G04 #@! TO.C,C14*
G36*
X132504642Y-97345174D02*
X132528303Y-97348684D01*
X132551507Y-97354496D01*
X132574029Y-97362554D01*
X132595653Y-97372782D01*
X132616170Y-97385079D01*
X132635383Y-97399329D01*
X132653107Y-97415393D01*
X132669171Y-97433117D01*
X132683421Y-97452330D01*
X132695718Y-97472847D01*
X132705946Y-97494471D01*
X132714004Y-97516993D01*
X132719816Y-97540197D01*
X132723326Y-97563858D01*
X132724500Y-97587750D01*
X132724500Y-98500250D01*
X132723326Y-98524142D01*
X132719816Y-98547803D01*
X132714004Y-98571007D01*
X132705946Y-98593529D01*
X132695718Y-98615153D01*
X132683421Y-98635670D01*
X132669171Y-98654883D01*
X132653107Y-98672607D01*
X132635383Y-98688671D01*
X132616170Y-98702921D01*
X132595653Y-98715218D01*
X132574029Y-98725446D01*
X132551507Y-98733504D01*
X132528303Y-98739316D01*
X132504642Y-98742826D01*
X132480750Y-98744000D01*
X131993250Y-98744000D01*
X131969358Y-98742826D01*
X131945697Y-98739316D01*
X131922493Y-98733504D01*
X131899971Y-98725446D01*
X131878347Y-98715218D01*
X131857830Y-98702921D01*
X131838617Y-98688671D01*
X131820893Y-98672607D01*
X131804829Y-98654883D01*
X131790579Y-98635670D01*
X131778282Y-98615153D01*
X131768054Y-98593529D01*
X131759996Y-98571007D01*
X131754184Y-98547803D01*
X131750674Y-98524142D01*
X131749500Y-98500250D01*
X131749500Y-97587750D01*
X131750674Y-97563858D01*
X131754184Y-97540197D01*
X131759996Y-97516993D01*
X131768054Y-97494471D01*
X131778282Y-97472847D01*
X131790579Y-97452330D01*
X131804829Y-97433117D01*
X131820893Y-97415393D01*
X131838617Y-97399329D01*
X131857830Y-97385079D01*
X131878347Y-97372782D01*
X131899971Y-97362554D01*
X131922493Y-97354496D01*
X131945697Y-97348684D01*
X131969358Y-97345174D01*
X131993250Y-97344000D01*
X132480750Y-97344000D01*
X132504642Y-97345174D01*
X132504642Y-97345174D01*
G37*
D16*
X132237000Y-98044000D03*
D12*
G36*
X134379642Y-97345174D02*
X134403303Y-97348684D01*
X134426507Y-97354496D01*
X134449029Y-97362554D01*
X134470653Y-97372782D01*
X134491170Y-97385079D01*
X134510383Y-97399329D01*
X134528107Y-97415393D01*
X134544171Y-97433117D01*
X134558421Y-97452330D01*
X134570718Y-97472847D01*
X134580946Y-97494471D01*
X134589004Y-97516993D01*
X134594816Y-97540197D01*
X134598326Y-97563858D01*
X134599500Y-97587750D01*
X134599500Y-98500250D01*
X134598326Y-98524142D01*
X134594816Y-98547803D01*
X134589004Y-98571007D01*
X134580946Y-98593529D01*
X134570718Y-98615153D01*
X134558421Y-98635670D01*
X134544171Y-98654883D01*
X134528107Y-98672607D01*
X134510383Y-98688671D01*
X134491170Y-98702921D01*
X134470653Y-98715218D01*
X134449029Y-98725446D01*
X134426507Y-98733504D01*
X134403303Y-98739316D01*
X134379642Y-98742826D01*
X134355750Y-98744000D01*
X133868250Y-98744000D01*
X133844358Y-98742826D01*
X133820697Y-98739316D01*
X133797493Y-98733504D01*
X133774971Y-98725446D01*
X133753347Y-98715218D01*
X133732830Y-98702921D01*
X133713617Y-98688671D01*
X133695893Y-98672607D01*
X133679829Y-98654883D01*
X133665579Y-98635670D01*
X133653282Y-98615153D01*
X133643054Y-98593529D01*
X133634996Y-98571007D01*
X133629184Y-98547803D01*
X133625674Y-98524142D01*
X133624500Y-98500250D01*
X133624500Y-97587750D01*
X133625674Y-97563858D01*
X133629184Y-97540197D01*
X133634996Y-97516993D01*
X133643054Y-97494471D01*
X133653282Y-97472847D01*
X133665579Y-97452330D01*
X133679829Y-97433117D01*
X133695893Y-97415393D01*
X133713617Y-97399329D01*
X133732830Y-97385079D01*
X133753347Y-97372782D01*
X133774971Y-97362554D01*
X133797493Y-97354496D01*
X133820697Y-97348684D01*
X133844358Y-97345174D01*
X133868250Y-97344000D01*
X134355750Y-97344000D01*
X134379642Y-97345174D01*
X134379642Y-97345174D01*
G37*
D16*
X134112000Y-98044000D03*
G04 #@! TD*
D12*
G04 #@! TO.C,C15*
G36*
X108989691Y-112847753D02*
X109010926Y-112850903D01*
X109031750Y-112856119D01*
X109051962Y-112863351D01*
X109071368Y-112872530D01*
X109089781Y-112883566D01*
X109107024Y-112896354D01*
X109122930Y-112910770D01*
X109137346Y-112926676D01*
X109150134Y-112943919D01*
X109161170Y-112962332D01*
X109170349Y-112981738D01*
X109177581Y-113001950D01*
X109182797Y-113022774D01*
X109185947Y-113044009D01*
X109187000Y-113065450D01*
X109187000Y-113502950D01*
X109185947Y-113524391D01*
X109182797Y-113545626D01*
X109177581Y-113566450D01*
X109170349Y-113586662D01*
X109161170Y-113606068D01*
X109150134Y-113624481D01*
X109137346Y-113641724D01*
X109122930Y-113657630D01*
X109107024Y-113672046D01*
X109089781Y-113684834D01*
X109071368Y-113695870D01*
X109051962Y-113705049D01*
X109031750Y-113712281D01*
X109010926Y-113717497D01*
X108989691Y-113720647D01*
X108968250Y-113721700D01*
X108455750Y-113721700D01*
X108434309Y-113720647D01*
X108413074Y-113717497D01*
X108392250Y-113712281D01*
X108372038Y-113705049D01*
X108352632Y-113695870D01*
X108334219Y-113684834D01*
X108316976Y-113672046D01*
X108301070Y-113657630D01*
X108286654Y-113641724D01*
X108273866Y-113624481D01*
X108262830Y-113606068D01*
X108253651Y-113586662D01*
X108246419Y-113566450D01*
X108241203Y-113545626D01*
X108238053Y-113524391D01*
X108237000Y-113502950D01*
X108237000Y-113065450D01*
X108238053Y-113044009D01*
X108241203Y-113022774D01*
X108246419Y-113001950D01*
X108253651Y-112981738D01*
X108262830Y-112962332D01*
X108273866Y-112943919D01*
X108286654Y-112926676D01*
X108301070Y-112910770D01*
X108316976Y-112896354D01*
X108334219Y-112883566D01*
X108352632Y-112872530D01*
X108372038Y-112863351D01*
X108392250Y-112856119D01*
X108413074Y-112850903D01*
X108434309Y-112847753D01*
X108455750Y-112846700D01*
X108968250Y-112846700D01*
X108989691Y-112847753D01*
X108989691Y-112847753D01*
G37*
D13*
X108712000Y-113284200D03*
D12*
G36*
X108989691Y-111272753D02*
X109010926Y-111275903D01*
X109031750Y-111281119D01*
X109051962Y-111288351D01*
X109071368Y-111297530D01*
X109089781Y-111308566D01*
X109107024Y-111321354D01*
X109122930Y-111335770D01*
X109137346Y-111351676D01*
X109150134Y-111368919D01*
X109161170Y-111387332D01*
X109170349Y-111406738D01*
X109177581Y-111426950D01*
X109182797Y-111447774D01*
X109185947Y-111469009D01*
X109187000Y-111490450D01*
X109187000Y-111927950D01*
X109185947Y-111949391D01*
X109182797Y-111970626D01*
X109177581Y-111991450D01*
X109170349Y-112011662D01*
X109161170Y-112031068D01*
X109150134Y-112049481D01*
X109137346Y-112066724D01*
X109122930Y-112082630D01*
X109107024Y-112097046D01*
X109089781Y-112109834D01*
X109071368Y-112120870D01*
X109051962Y-112130049D01*
X109031750Y-112137281D01*
X109010926Y-112142497D01*
X108989691Y-112145647D01*
X108968250Y-112146700D01*
X108455750Y-112146700D01*
X108434309Y-112145647D01*
X108413074Y-112142497D01*
X108392250Y-112137281D01*
X108372038Y-112130049D01*
X108352632Y-112120870D01*
X108334219Y-112109834D01*
X108316976Y-112097046D01*
X108301070Y-112082630D01*
X108286654Y-112066724D01*
X108273866Y-112049481D01*
X108262830Y-112031068D01*
X108253651Y-112011662D01*
X108246419Y-111991450D01*
X108241203Y-111970626D01*
X108238053Y-111949391D01*
X108237000Y-111927950D01*
X108237000Y-111490450D01*
X108238053Y-111469009D01*
X108241203Y-111447774D01*
X108246419Y-111426950D01*
X108253651Y-111406738D01*
X108262830Y-111387332D01*
X108273866Y-111368919D01*
X108286654Y-111351676D01*
X108301070Y-111335770D01*
X108316976Y-111321354D01*
X108334219Y-111308566D01*
X108352632Y-111297530D01*
X108372038Y-111288351D01*
X108392250Y-111281119D01*
X108413074Y-111275903D01*
X108434309Y-111272753D01*
X108455750Y-111271700D01*
X108968250Y-111271700D01*
X108989691Y-111272753D01*
X108989691Y-111272753D01*
G37*
D13*
X108712000Y-111709200D03*
G04 #@! TD*
D12*
G04 #@! TO.C,C4*
G36*
X108888091Y-75534953D02*
X108909326Y-75538103D01*
X108930150Y-75543319D01*
X108950362Y-75550551D01*
X108969768Y-75559730D01*
X108988181Y-75570766D01*
X109005424Y-75583554D01*
X109021330Y-75597970D01*
X109035746Y-75613876D01*
X109048534Y-75631119D01*
X109059570Y-75649532D01*
X109068749Y-75668938D01*
X109075981Y-75689150D01*
X109081197Y-75709974D01*
X109084347Y-75731209D01*
X109085400Y-75752650D01*
X109085400Y-76190150D01*
X109084347Y-76211591D01*
X109081197Y-76232826D01*
X109075981Y-76253650D01*
X109068749Y-76273862D01*
X109059570Y-76293268D01*
X109048534Y-76311681D01*
X109035746Y-76328924D01*
X109021330Y-76344830D01*
X109005424Y-76359246D01*
X108988181Y-76372034D01*
X108969768Y-76383070D01*
X108950362Y-76392249D01*
X108930150Y-76399481D01*
X108909326Y-76404697D01*
X108888091Y-76407847D01*
X108866650Y-76408900D01*
X108354150Y-76408900D01*
X108332709Y-76407847D01*
X108311474Y-76404697D01*
X108290650Y-76399481D01*
X108270438Y-76392249D01*
X108251032Y-76383070D01*
X108232619Y-76372034D01*
X108215376Y-76359246D01*
X108199470Y-76344830D01*
X108185054Y-76328924D01*
X108172266Y-76311681D01*
X108161230Y-76293268D01*
X108152051Y-76273862D01*
X108144819Y-76253650D01*
X108139603Y-76232826D01*
X108136453Y-76211591D01*
X108135400Y-76190150D01*
X108135400Y-75752650D01*
X108136453Y-75731209D01*
X108139603Y-75709974D01*
X108144819Y-75689150D01*
X108152051Y-75668938D01*
X108161230Y-75649532D01*
X108172266Y-75631119D01*
X108185054Y-75613876D01*
X108199470Y-75597970D01*
X108215376Y-75583554D01*
X108232619Y-75570766D01*
X108251032Y-75559730D01*
X108270438Y-75550551D01*
X108290650Y-75543319D01*
X108311474Y-75538103D01*
X108332709Y-75534953D01*
X108354150Y-75533900D01*
X108866650Y-75533900D01*
X108888091Y-75534953D01*
X108888091Y-75534953D01*
G37*
D13*
X108610400Y-75971400D03*
D12*
G36*
X108888091Y-73959953D02*
X108909326Y-73963103D01*
X108930150Y-73968319D01*
X108950362Y-73975551D01*
X108969768Y-73984730D01*
X108988181Y-73995766D01*
X109005424Y-74008554D01*
X109021330Y-74022970D01*
X109035746Y-74038876D01*
X109048534Y-74056119D01*
X109059570Y-74074532D01*
X109068749Y-74093938D01*
X109075981Y-74114150D01*
X109081197Y-74134974D01*
X109084347Y-74156209D01*
X109085400Y-74177650D01*
X109085400Y-74615150D01*
X109084347Y-74636591D01*
X109081197Y-74657826D01*
X109075981Y-74678650D01*
X109068749Y-74698862D01*
X109059570Y-74718268D01*
X109048534Y-74736681D01*
X109035746Y-74753924D01*
X109021330Y-74769830D01*
X109005424Y-74784246D01*
X108988181Y-74797034D01*
X108969768Y-74808070D01*
X108950362Y-74817249D01*
X108930150Y-74824481D01*
X108909326Y-74829697D01*
X108888091Y-74832847D01*
X108866650Y-74833900D01*
X108354150Y-74833900D01*
X108332709Y-74832847D01*
X108311474Y-74829697D01*
X108290650Y-74824481D01*
X108270438Y-74817249D01*
X108251032Y-74808070D01*
X108232619Y-74797034D01*
X108215376Y-74784246D01*
X108199470Y-74769830D01*
X108185054Y-74753924D01*
X108172266Y-74736681D01*
X108161230Y-74718268D01*
X108152051Y-74698862D01*
X108144819Y-74678650D01*
X108139603Y-74657826D01*
X108136453Y-74636591D01*
X108135400Y-74615150D01*
X108135400Y-74177650D01*
X108136453Y-74156209D01*
X108139603Y-74134974D01*
X108144819Y-74114150D01*
X108152051Y-74093938D01*
X108161230Y-74074532D01*
X108172266Y-74056119D01*
X108185054Y-74038876D01*
X108199470Y-74022970D01*
X108215376Y-74008554D01*
X108232619Y-73995766D01*
X108251032Y-73984730D01*
X108270438Y-73975551D01*
X108290650Y-73968319D01*
X108311474Y-73963103D01*
X108332709Y-73959953D01*
X108354150Y-73958900D01*
X108866650Y-73958900D01*
X108888091Y-73959953D01*
X108888091Y-73959953D01*
G37*
D13*
X108610400Y-74396400D03*
G04 #@! TD*
D12*
G04 #@! TO.C,C6*
G36*
X130288191Y-102650053D02*
X130309426Y-102653203D01*
X130330250Y-102658419D01*
X130350462Y-102665651D01*
X130369868Y-102674830D01*
X130388281Y-102685866D01*
X130405524Y-102698654D01*
X130421430Y-102713070D01*
X130435846Y-102728976D01*
X130448634Y-102746219D01*
X130459670Y-102764632D01*
X130468849Y-102784038D01*
X130476081Y-102804250D01*
X130481297Y-102825074D01*
X130484447Y-102846309D01*
X130485500Y-102867750D01*
X130485500Y-103380250D01*
X130484447Y-103401691D01*
X130481297Y-103422926D01*
X130476081Y-103443750D01*
X130468849Y-103463962D01*
X130459670Y-103483368D01*
X130448634Y-103501781D01*
X130435846Y-103519024D01*
X130421430Y-103534930D01*
X130405524Y-103549346D01*
X130388281Y-103562134D01*
X130369868Y-103573170D01*
X130350462Y-103582349D01*
X130330250Y-103589581D01*
X130309426Y-103594797D01*
X130288191Y-103597947D01*
X130266750Y-103599000D01*
X129829250Y-103599000D01*
X129807809Y-103597947D01*
X129786574Y-103594797D01*
X129765750Y-103589581D01*
X129745538Y-103582349D01*
X129726132Y-103573170D01*
X129707719Y-103562134D01*
X129690476Y-103549346D01*
X129674570Y-103534930D01*
X129660154Y-103519024D01*
X129647366Y-103501781D01*
X129636330Y-103483368D01*
X129627151Y-103463962D01*
X129619919Y-103443750D01*
X129614703Y-103422926D01*
X129611553Y-103401691D01*
X129610500Y-103380250D01*
X129610500Y-102867750D01*
X129611553Y-102846309D01*
X129614703Y-102825074D01*
X129619919Y-102804250D01*
X129627151Y-102784038D01*
X129636330Y-102764632D01*
X129647366Y-102746219D01*
X129660154Y-102728976D01*
X129674570Y-102713070D01*
X129690476Y-102698654D01*
X129707719Y-102685866D01*
X129726132Y-102674830D01*
X129745538Y-102665651D01*
X129765750Y-102658419D01*
X129786574Y-102653203D01*
X129807809Y-102650053D01*
X129829250Y-102649000D01*
X130266750Y-102649000D01*
X130288191Y-102650053D01*
X130288191Y-102650053D01*
G37*
D13*
X130048000Y-103124000D03*
D12*
G36*
X128713191Y-102650053D02*
X128734426Y-102653203D01*
X128755250Y-102658419D01*
X128775462Y-102665651D01*
X128794868Y-102674830D01*
X128813281Y-102685866D01*
X128830524Y-102698654D01*
X128846430Y-102713070D01*
X128860846Y-102728976D01*
X128873634Y-102746219D01*
X128884670Y-102764632D01*
X128893849Y-102784038D01*
X128901081Y-102804250D01*
X128906297Y-102825074D01*
X128909447Y-102846309D01*
X128910500Y-102867750D01*
X128910500Y-103380250D01*
X128909447Y-103401691D01*
X128906297Y-103422926D01*
X128901081Y-103443750D01*
X128893849Y-103463962D01*
X128884670Y-103483368D01*
X128873634Y-103501781D01*
X128860846Y-103519024D01*
X128846430Y-103534930D01*
X128830524Y-103549346D01*
X128813281Y-103562134D01*
X128794868Y-103573170D01*
X128775462Y-103582349D01*
X128755250Y-103589581D01*
X128734426Y-103594797D01*
X128713191Y-103597947D01*
X128691750Y-103599000D01*
X128254250Y-103599000D01*
X128232809Y-103597947D01*
X128211574Y-103594797D01*
X128190750Y-103589581D01*
X128170538Y-103582349D01*
X128151132Y-103573170D01*
X128132719Y-103562134D01*
X128115476Y-103549346D01*
X128099570Y-103534930D01*
X128085154Y-103519024D01*
X128072366Y-103501781D01*
X128061330Y-103483368D01*
X128052151Y-103463962D01*
X128044919Y-103443750D01*
X128039703Y-103422926D01*
X128036553Y-103401691D01*
X128035500Y-103380250D01*
X128035500Y-102867750D01*
X128036553Y-102846309D01*
X128039703Y-102825074D01*
X128044919Y-102804250D01*
X128052151Y-102784038D01*
X128061330Y-102764632D01*
X128072366Y-102746219D01*
X128085154Y-102728976D01*
X128099570Y-102713070D01*
X128115476Y-102698654D01*
X128132719Y-102685866D01*
X128151132Y-102674830D01*
X128170538Y-102665651D01*
X128190750Y-102658419D01*
X128211574Y-102653203D01*
X128232809Y-102650053D01*
X128254250Y-102649000D01*
X128691750Y-102649000D01*
X128713191Y-102650053D01*
X128713191Y-102650053D01*
G37*
D13*
X128473000Y-103124000D03*
G04 #@! TD*
D12*
G04 #@! TO.C,C8*
G36*
X140739691Y-109190053D02*
X140760926Y-109193203D01*
X140781750Y-109198419D01*
X140801962Y-109205651D01*
X140821368Y-109214830D01*
X140839781Y-109225866D01*
X140857024Y-109238654D01*
X140872930Y-109253070D01*
X140887346Y-109268976D01*
X140900134Y-109286219D01*
X140911170Y-109304632D01*
X140920349Y-109324038D01*
X140927581Y-109344250D01*
X140932797Y-109365074D01*
X140935947Y-109386309D01*
X140937000Y-109407750D01*
X140937000Y-109845250D01*
X140935947Y-109866691D01*
X140932797Y-109887926D01*
X140927581Y-109908750D01*
X140920349Y-109928962D01*
X140911170Y-109948368D01*
X140900134Y-109966781D01*
X140887346Y-109984024D01*
X140872930Y-109999930D01*
X140857024Y-110014346D01*
X140839781Y-110027134D01*
X140821368Y-110038170D01*
X140801962Y-110047349D01*
X140781750Y-110054581D01*
X140760926Y-110059797D01*
X140739691Y-110062947D01*
X140718250Y-110064000D01*
X140205750Y-110064000D01*
X140184309Y-110062947D01*
X140163074Y-110059797D01*
X140142250Y-110054581D01*
X140122038Y-110047349D01*
X140102632Y-110038170D01*
X140084219Y-110027134D01*
X140066976Y-110014346D01*
X140051070Y-109999930D01*
X140036654Y-109984024D01*
X140023866Y-109966781D01*
X140012830Y-109948368D01*
X140003651Y-109928962D01*
X139996419Y-109908750D01*
X139991203Y-109887926D01*
X139988053Y-109866691D01*
X139987000Y-109845250D01*
X139987000Y-109407750D01*
X139988053Y-109386309D01*
X139991203Y-109365074D01*
X139996419Y-109344250D01*
X140003651Y-109324038D01*
X140012830Y-109304632D01*
X140023866Y-109286219D01*
X140036654Y-109268976D01*
X140051070Y-109253070D01*
X140066976Y-109238654D01*
X140084219Y-109225866D01*
X140102632Y-109214830D01*
X140122038Y-109205651D01*
X140142250Y-109198419D01*
X140163074Y-109193203D01*
X140184309Y-109190053D01*
X140205750Y-109189000D01*
X140718250Y-109189000D01*
X140739691Y-109190053D01*
X140739691Y-109190053D01*
G37*
D13*
X140462000Y-109626500D03*
D12*
G36*
X140739691Y-107615053D02*
X140760926Y-107618203D01*
X140781750Y-107623419D01*
X140801962Y-107630651D01*
X140821368Y-107639830D01*
X140839781Y-107650866D01*
X140857024Y-107663654D01*
X140872930Y-107678070D01*
X140887346Y-107693976D01*
X140900134Y-107711219D01*
X140911170Y-107729632D01*
X140920349Y-107749038D01*
X140927581Y-107769250D01*
X140932797Y-107790074D01*
X140935947Y-107811309D01*
X140937000Y-107832750D01*
X140937000Y-108270250D01*
X140935947Y-108291691D01*
X140932797Y-108312926D01*
X140927581Y-108333750D01*
X140920349Y-108353962D01*
X140911170Y-108373368D01*
X140900134Y-108391781D01*
X140887346Y-108409024D01*
X140872930Y-108424930D01*
X140857024Y-108439346D01*
X140839781Y-108452134D01*
X140821368Y-108463170D01*
X140801962Y-108472349D01*
X140781750Y-108479581D01*
X140760926Y-108484797D01*
X140739691Y-108487947D01*
X140718250Y-108489000D01*
X140205750Y-108489000D01*
X140184309Y-108487947D01*
X140163074Y-108484797D01*
X140142250Y-108479581D01*
X140122038Y-108472349D01*
X140102632Y-108463170D01*
X140084219Y-108452134D01*
X140066976Y-108439346D01*
X140051070Y-108424930D01*
X140036654Y-108409024D01*
X140023866Y-108391781D01*
X140012830Y-108373368D01*
X140003651Y-108353962D01*
X139996419Y-108333750D01*
X139991203Y-108312926D01*
X139988053Y-108291691D01*
X139987000Y-108270250D01*
X139987000Y-107832750D01*
X139988053Y-107811309D01*
X139991203Y-107790074D01*
X139996419Y-107769250D01*
X140003651Y-107749038D01*
X140012830Y-107729632D01*
X140023866Y-107711219D01*
X140036654Y-107693976D01*
X140051070Y-107678070D01*
X140066976Y-107663654D01*
X140084219Y-107650866D01*
X140102632Y-107639830D01*
X140122038Y-107630651D01*
X140142250Y-107623419D01*
X140163074Y-107618203D01*
X140184309Y-107615053D01*
X140205750Y-107614000D01*
X140718250Y-107614000D01*
X140739691Y-107615053D01*
X140739691Y-107615053D01*
G37*
D13*
X140462000Y-108051500D03*
G04 #@! TD*
D12*
G04 #@! TO.C,C9*
G36*
X130288191Y-105190053D02*
X130309426Y-105193203D01*
X130330250Y-105198419D01*
X130350462Y-105205651D01*
X130369868Y-105214830D01*
X130388281Y-105225866D01*
X130405524Y-105238654D01*
X130421430Y-105253070D01*
X130435846Y-105268976D01*
X130448634Y-105286219D01*
X130459670Y-105304632D01*
X130468849Y-105324038D01*
X130476081Y-105344250D01*
X130481297Y-105365074D01*
X130484447Y-105386309D01*
X130485500Y-105407750D01*
X130485500Y-105920250D01*
X130484447Y-105941691D01*
X130481297Y-105962926D01*
X130476081Y-105983750D01*
X130468849Y-106003962D01*
X130459670Y-106023368D01*
X130448634Y-106041781D01*
X130435846Y-106059024D01*
X130421430Y-106074930D01*
X130405524Y-106089346D01*
X130388281Y-106102134D01*
X130369868Y-106113170D01*
X130350462Y-106122349D01*
X130330250Y-106129581D01*
X130309426Y-106134797D01*
X130288191Y-106137947D01*
X130266750Y-106139000D01*
X129829250Y-106139000D01*
X129807809Y-106137947D01*
X129786574Y-106134797D01*
X129765750Y-106129581D01*
X129745538Y-106122349D01*
X129726132Y-106113170D01*
X129707719Y-106102134D01*
X129690476Y-106089346D01*
X129674570Y-106074930D01*
X129660154Y-106059024D01*
X129647366Y-106041781D01*
X129636330Y-106023368D01*
X129627151Y-106003962D01*
X129619919Y-105983750D01*
X129614703Y-105962926D01*
X129611553Y-105941691D01*
X129610500Y-105920250D01*
X129610500Y-105407750D01*
X129611553Y-105386309D01*
X129614703Y-105365074D01*
X129619919Y-105344250D01*
X129627151Y-105324038D01*
X129636330Y-105304632D01*
X129647366Y-105286219D01*
X129660154Y-105268976D01*
X129674570Y-105253070D01*
X129690476Y-105238654D01*
X129707719Y-105225866D01*
X129726132Y-105214830D01*
X129745538Y-105205651D01*
X129765750Y-105198419D01*
X129786574Y-105193203D01*
X129807809Y-105190053D01*
X129829250Y-105189000D01*
X130266750Y-105189000D01*
X130288191Y-105190053D01*
X130288191Y-105190053D01*
G37*
D13*
X130048000Y-105664000D03*
D12*
G36*
X128713191Y-105190053D02*
X128734426Y-105193203D01*
X128755250Y-105198419D01*
X128775462Y-105205651D01*
X128794868Y-105214830D01*
X128813281Y-105225866D01*
X128830524Y-105238654D01*
X128846430Y-105253070D01*
X128860846Y-105268976D01*
X128873634Y-105286219D01*
X128884670Y-105304632D01*
X128893849Y-105324038D01*
X128901081Y-105344250D01*
X128906297Y-105365074D01*
X128909447Y-105386309D01*
X128910500Y-105407750D01*
X128910500Y-105920250D01*
X128909447Y-105941691D01*
X128906297Y-105962926D01*
X128901081Y-105983750D01*
X128893849Y-106003962D01*
X128884670Y-106023368D01*
X128873634Y-106041781D01*
X128860846Y-106059024D01*
X128846430Y-106074930D01*
X128830524Y-106089346D01*
X128813281Y-106102134D01*
X128794868Y-106113170D01*
X128775462Y-106122349D01*
X128755250Y-106129581D01*
X128734426Y-106134797D01*
X128713191Y-106137947D01*
X128691750Y-106139000D01*
X128254250Y-106139000D01*
X128232809Y-106137947D01*
X128211574Y-106134797D01*
X128190750Y-106129581D01*
X128170538Y-106122349D01*
X128151132Y-106113170D01*
X128132719Y-106102134D01*
X128115476Y-106089346D01*
X128099570Y-106074930D01*
X128085154Y-106059024D01*
X128072366Y-106041781D01*
X128061330Y-106023368D01*
X128052151Y-106003962D01*
X128044919Y-105983750D01*
X128039703Y-105962926D01*
X128036553Y-105941691D01*
X128035500Y-105920250D01*
X128035500Y-105407750D01*
X128036553Y-105386309D01*
X128039703Y-105365074D01*
X128044919Y-105344250D01*
X128052151Y-105324038D01*
X128061330Y-105304632D01*
X128072366Y-105286219D01*
X128085154Y-105268976D01*
X128099570Y-105253070D01*
X128115476Y-105238654D01*
X128132719Y-105225866D01*
X128151132Y-105214830D01*
X128170538Y-105205651D01*
X128190750Y-105198419D01*
X128211574Y-105193203D01*
X128232809Y-105190053D01*
X128254250Y-105189000D01*
X128691750Y-105189000D01*
X128713191Y-105190053D01*
X128713191Y-105190053D01*
G37*
D13*
X128473000Y-105664000D03*
G04 #@! TD*
D20*
G04 #@! TO.C,D2*
X114554000Y-74930000D03*
X117854000Y-74930000D03*
G04 #@! TD*
D12*
G04 #@! TO.C,R7*
G36*
X124204691Y-105190053D02*
X124225926Y-105193203D01*
X124246750Y-105198419D01*
X124266962Y-105205651D01*
X124286368Y-105214830D01*
X124304781Y-105225866D01*
X124322024Y-105238654D01*
X124337930Y-105253070D01*
X124352346Y-105268976D01*
X124365134Y-105286219D01*
X124376170Y-105304632D01*
X124385349Y-105324038D01*
X124392581Y-105344250D01*
X124397797Y-105365074D01*
X124400947Y-105386309D01*
X124402000Y-105407750D01*
X124402000Y-105920250D01*
X124400947Y-105941691D01*
X124397797Y-105962926D01*
X124392581Y-105983750D01*
X124385349Y-106003962D01*
X124376170Y-106023368D01*
X124365134Y-106041781D01*
X124352346Y-106059024D01*
X124337930Y-106074930D01*
X124322024Y-106089346D01*
X124304781Y-106102134D01*
X124286368Y-106113170D01*
X124266962Y-106122349D01*
X124246750Y-106129581D01*
X124225926Y-106134797D01*
X124204691Y-106137947D01*
X124183250Y-106139000D01*
X123745750Y-106139000D01*
X123724309Y-106137947D01*
X123703074Y-106134797D01*
X123682250Y-106129581D01*
X123662038Y-106122349D01*
X123642632Y-106113170D01*
X123624219Y-106102134D01*
X123606976Y-106089346D01*
X123591070Y-106074930D01*
X123576654Y-106059024D01*
X123563866Y-106041781D01*
X123552830Y-106023368D01*
X123543651Y-106003962D01*
X123536419Y-105983750D01*
X123531203Y-105962926D01*
X123528053Y-105941691D01*
X123527000Y-105920250D01*
X123527000Y-105407750D01*
X123528053Y-105386309D01*
X123531203Y-105365074D01*
X123536419Y-105344250D01*
X123543651Y-105324038D01*
X123552830Y-105304632D01*
X123563866Y-105286219D01*
X123576654Y-105268976D01*
X123591070Y-105253070D01*
X123606976Y-105238654D01*
X123624219Y-105225866D01*
X123642632Y-105214830D01*
X123662038Y-105205651D01*
X123682250Y-105198419D01*
X123703074Y-105193203D01*
X123724309Y-105190053D01*
X123745750Y-105189000D01*
X124183250Y-105189000D01*
X124204691Y-105190053D01*
X124204691Y-105190053D01*
G37*
D13*
X123964500Y-105664000D03*
D12*
G36*
X125779691Y-105190053D02*
X125800926Y-105193203D01*
X125821750Y-105198419D01*
X125841962Y-105205651D01*
X125861368Y-105214830D01*
X125879781Y-105225866D01*
X125897024Y-105238654D01*
X125912930Y-105253070D01*
X125927346Y-105268976D01*
X125940134Y-105286219D01*
X125951170Y-105304632D01*
X125960349Y-105324038D01*
X125967581Y-105344250D01*
X125972797Y-105365074D01*
X125975947Y-105386309D01*
X125977000Y-105407750D01*
X125977000Y-105920250D01*
X125975947Y-105941691D01*
X125972797Y-105962926D01*
X125967581Y-105983750D01*
X125960349Y-106003962D01*
X125951170Y-106023368D01*
X125940134Y-106041781D01*
X125927346Y-106059024D01*
X125912930Y-106074930D01*
X125897024Y-106089346D01*
X125879781Y-106102134D01*
X125861368Y-106113170D01*
X125841962Y-106122349D01*
X125821750Y-106129581D01*
X125800926Y-106134797D01*
X125779691Y-106137947D01*
X125758250Y-106139000D01*
X125320750Y-106139000D01*
X125299309Y-106137947D01*
X125278074Y-106134797D01*
X125257250Y-106129581D01*
X125237038Y-106122349D01*
X125217632Y-106113170D01*
X125199219Y-106102134D01*
X125181976Y-106089346D01*
X125166070Y-106074930D01*
X125151654Y-106059024D01*
X125138866Y-106041781D01*
X125127830Y-106023368D01*
X125118651Y-106003962D01*
X125111419Y-105983750D01*
X125106203Y-105962926D01*
X125103053Y-105941691D01*
X125102000Y-105920250D01*
X125102000Y-105407750D01*
X125103053Y-105386309D01*
X125106203Y-105365074D01*
X125111419Y-105344250D01*
X125118651Y-105324038D01*
X125127830Y-105304632D01*
X125138866Y-105286219D01*
X125151654Y-105268976D01*
X125166070Y-105253070D01*
X125181976Y-105238654D01*
X125199219Y-105225866D01*
X125217632Y-105214830D01*
X125237038Y-105205651D01*
X125257250Y-105198419D01*
X125278074Y-105193203D01*
X125299309Y-105190053D01*
X125320750Y-105189000D01*
X125758250Y-105189000D01*
X125779691Y-105190053D01*
X125779691Y-105190053D01*
G37*
D13*
X125539500Y-105664000D03*
G04 #@! TD*
D12*
G04 #@! TO.C,R6*
G36*
X124229691Y-103221053D02*
X124250926Y-103224203D01*
X124271750Y-103229419D01*
X124291962Y-103236651D01*
X124311368Y-103245830D01*
X124329781Y-103256866D01*
X124347024Y-103269654D01*
X124362930Y-103284070D01*
X124377346Y-103299976D01*
X124390134Y-103317219D01*
X124401170Y-103335632D01*
X124410349Y-103355038D01*
X124417581Y-103375250D01*
X124422797Y-103396074D01*
X124425947Y-103417309D01*
X124427000Y-103438750D01*
X124427000Y-103876250D01*
X124425947Y-103897691D01*
X124422797Y-103918926D01*
X124417581Y-103939750D01*
X124410349Y-103959962D01*
X124401170Y-103979368D01*
X124390134Y-103997781D01*
X124377346Y-104015024D01*
X124362930Y-104030930D01*
X124347024Y-104045346D01*
X124329781Y-104058134D01*
X124311368Y-104069170D01*
X124291962Y-104078349D01*
X124271750Y-104085581D01*
X124250926Y-104090797D01*
X124229691Y-104093947D01*
X124208250Y-104095000D01*
X123695750Y-104095000D01*
X123674309Y-104093947D01*
X123653074Y-104090797D01*
X123632250Y-104085581D01*
X123612038Y-104078349D01*
X123592632Y-104069170D01*
X123574219Y-104058134D01*
X123556976Y-104045346D01*
X123541070Y-104030930D01*
X123526654Y-104015024D01*
X123513866Y-103997781D01*
X123502830Y-103979368D01*
X123493651Y-103959962D01*
X123486419Y-103939750D01*
X123481203Y-103918926D01*
X123478053Y-103897691D01*
X123477000Y-103876250D01*
X123477000Y-103438750D01*
X123478053Y-103417309D01*
X123481203Y-103396074D01*
X123486419Y-103375250D01*
X123493651Y-103355038D01*
X123502830Y-103335632D01*
X123513866Y-103317219D01*
X123526654Y-103299976D01*
X123541070Y-103284070D01*
X123556976Y-103269654D01*
X123574219Y-103256866D01*
X123592632Y-103245830D01*
X123612038Y-103236651D01*
X123632250Y-103229419D01*
X123653074Y-103224203D01*
X123674309Y-103221053D01*
X123695750Y-103220000D01*
X124208250Y-103220000D01*
X124229691Y-103221053D01*
X124229691Y-103221053D01*
G37*
D13*
X123952000Y-103657500D03*
D12*
G36*
X124229691Y-101646053D02*
X124250926Y-101649203D01*
X124271750Y-101654419D01*
X124291962Y-101661651D01*
X124311368Y-101670830D01*
X124329781Y-101681866D01*
X124347024Y-101694654D01*
X124362930Y-101709070D01*
X124377346Y-101724976D01*
X124390134Y-101742219D01*
X124401170Y-101760632D01*
X124410349Y-101780038D01*
X124417581Y-101800250D01*
X124422797Y-101821074D01*
X124425947Y-101842309D01*
X124427000Y-101863750D01*
X124427000Y-102301250D01*
X124425947Y-102322691D01*
X124422797Y-102343926D01*
X124417581Y-102364750D01*
X124410349Y-102384962D01*
X124401170Y-102404368D01*
X124390134Y-102422781D01*
X124377346Y-102440024D01*
X124362930Y-102455930D01*
X124347024Y-102470346D01*
X124329781Y-102483134D01*
X124311368Y-102494170D01*
X124291962Y-102503349D01*
X124271750Y-102510581D01*
X124250926Y-102515797D01*
X124229691Y-102518947D01*
X124208250Y-102520000D01*
X123695750Y-102520000D01*
X123674309Y-102518947D01*
X123653074Y-102515797D01*
X123632250Y-102510581D01*
X123612038Y-102503349D01*
X123592632Y-102494170D01*
X123574219Y-102483134D01*
X123556976Y-102470346D01*
X123541070Y-102455930D01*
X123526654Y-102440024D01*
X123513866Y-102422781D01*
X123502830Y-102404368D01*
X123493651Y-102384962D01*
X123486419Y-102364750D01*
X123481203Y-102343926D01*
X123478053Y-102322691D01*
X123477000Y-102301250D01*
X123477000Y-101863750D01*
X123478053Y-101842309D01*
X123481203Y-101821074D01*
X123486419Y-101800250D01*
X123493651Y-101780038D01*
X123502830Y-101760632D01*
X123513866Y-101742219D01*
X123526654Y-101724976D01*
X123541070Y-101709070D01*
X123556976Y-101694654D01*
X123574219Y-101681866D01*
X123592632Y-101670830D01*
X123612038Y-101661651D01*
X123632250Y-101654419D01*
X123653074Y-101649203D01*
X123674309Y-101646053D01*
X123695750Y-101645000D01*
X124208250Y-101645000D01*
X124229691Y-101646053D01*
X124229691Y-101646053D01*
G37*
D13*
X123952000Y-102082500D03*
G04 #@! TD*
D12*
G04 #@! TO.C,R5*
G36*
X136892191Y-113826053D02*
X136913426Y-113829203D01*
X136934250Y-113834419D01*
X136954462Y-113841651D01*
X136973868Y-113850830D01*
X136992281Y-113861866D01*
X137009524Y-113874654D01*
X137025430Y-113889070D01*
X137039846Y-113904976D01*
X137052634Y-113922219D01*
X137063670Y-113940632D01*
X137072849Y-113960038D01*
X137080081Y-113980250D01*
X137085297Y-114001074D01*
X137088447Y-114022309D01*
X137089500Y-114043750D01*
X137089500Y-114556250D01*
X137088447Y-114577691D01*
X137085297Y-114598926D01*
X137080081Y-114619750D01*
X137072849Y-114639962D01*
X137063670Y-114659368D01*
X137052634Y-114677781D01*
X137039846Y-114695024D01*
X137025430Y-114710930D01*
X137009524Y-114725346D01*
X136992281Y-114738134D01*
X136973868Y-114749170D01*
X136954462Y-114758349D01*
X136934250Y-114765581D01*
X136913426Y-114770797D01*
X136892191Y-114773947D01*
X136870750Y-114775000D01*
X136433250Y-114775000D01*
X136411809Y-114773947D01*
X136390574Y-114770797D01*
X136369750Y-114765581D01*
X136349538Y-114758349D01*
X136330132Y-114749170D01*
X136311719Y-114738134D01*
X136294476Y-114725346D01*
X136278570Y-114710930D01*
X136264154Y-114695024D01*
X136251366Y-114677781D01*
X136240330Y-114659368D01*
X136231151Y-114639962D01*
X136223919Y-114619750D01*
X136218703Y-114598926D01*
X136215553Y-114577691D01*
X136214500Y-114556250D01*
X136214500Y-114043750D01*
X136215553Y-114022309D01*
X136218703Y-114001074D01*
X136223919Y-113980250D01*
X136231151Y-113960038D01*
X136240330Y-113940632D01*
X136251366Y-113922219D01*
X136264154Y-113904976D01*
X136278570Y-113889070D01*
X136294476Y-113874654D01*
X136311719Y-113861866D01*
X136330132Y-113850830D01*
X136349538Y-113841651D01*
X136369750Y-113834419D01*
X136390574Y-113829203D01*
X136411809Y-113826053D01*
X136433250Y-113825000D01*
X136870750Y-113825000D01*
X136892191Y-113826053D01*
X136892191Y-113826053D01*
G37*
D13*
X136652000Y-114300000D03*
D12*
G36*
X138467191Y-113826053D02*
X138488426Y-113829203D01*
X138509250Y-113834419D01*
X138529462Y-113841651D01*
X138548868Y-113850830D01*
X138567281Y-113861866D01*
X138584524Y-113874654D01*
X138600430Y-113889070D01*
X138614846Y-113904976D01*
X138627634Y-113922219D01*
X138638670Y-113940632D01*
X138647849Y-113960038D01*
X138655081Y-113980250D01*
X138660297Y-114001074D01*
X138663447Y-114022309D01*
X138664500Y-114043750D01*
X138664500Y-114556250D01*
X138663447Y-114577691D01*
X138660297Y-114598926D01*
X138655081Y-114619750D01*
X138647849Y-114639962D01*
X138638670Y-114659368D01*
X138627634Y-114677781D01*
X138614846Y-114695024D01*
X138600430Y-114710930D01*
X138584524Y-114725346D01*
X138567281Y-114738134D01*
X138548868Y-114749170D01*
X138529462Y-114758349D01*
X138509250Y-114765581D01*
X138488426Y-114770797D01*
X138467191Y-114773947D01*
X138445750Y-114775000D01*
X138008250Y-114775000D01*
X137986809Y-114773947D01*
X137965574Y-114770797D01*
X137944750Y-114765581D01*
X137924538Y-114758349D01*
X137905132Y-114749170D01*
X137886719Y-114738134D01*
X137869476Y-114725346D01*
X137853570Y-114710930D01*
X137839154Y-114695024D01*
X137826366Y-114677781D01*
X137815330Y-114659368D01*
X137806151Y-114639962D01*
X137798919Y-114619750D01*
X137793703Y-114598926D01*
X137790553Y-114577691D01*
X137789500Y-114556250D01*
X137789500Y-114043750D01*
X137790553Y-114022309D01*
X137793703Y-114001074D01*
X137798919Y-113980250D01*
X137806151Y-113960038D01*
X137815330Y-113940632D01*
X137826366Y-113922219D01*
X137839154Y-113904976D01*
X137853570Y-113889070D01*
X137869476Y-113874654D01*
X137886719Y-113861866D01*
X137905132Y-113850830D01*
X137924538Y-113841651D01*
X137944750Y-113834419D01*
X137965574Y-113829203D01*
X137986809Y-113826053D01*
X138008250Y-113825000D01*
X138445750Y-113825000D01*
X138467191Y-113826053D01*
X138467191Y-113826053D01*
G37*
D13*
X138227000Y-114300000D03*
G04 #@! TD*
D12*
G04 #@! TO.C,R4*
G36*
X134352191Y-113826053D02*
X134373426Y-113829203D01*
X134394250Y-113834419D01*
X134414462Y-113841651D01*
X134433868Y-113850830D01*
X134452281Y-113861866D01*
X134469524Y-113874654D01*
X134485430Y-113889070D01*
X134499846Y-113904976D01*
X134512634Y-113922219D01*
X134523670Y-113940632D01*
X134532849Y-113960038D01*
X134540081Y-113980250D01*
X134545297Y-114001074D01*
X134548447Y-114022309D01*
X134549500Y-114043750D01*
X134549500Y-114556250D01*
X134548447Y-114577691D01*
X134545297Y-114598926D01*
X134540081Y-114619750D01*
X134532849Y-114639962D01*
X134523670Y-114659368D01*
X134512634Y-114677781D01*
X134499846Y-114695024D01*
X134485430Y-114710930D01*
X134469524Y-114725346D01*
X134452281Y-114738134D01*
X134433868Y-114749170D01*
X134414462Y-114758349D01*
X134394250Y-114765581D01*
X134373426Y-114770797D01*
X134352191Y-114773947D01*
X134330750Y-114775000D01*
X133893250Y-114775000D01*
X133871809Y-114773947D01*
X133850574Y-114770797D01*
X133829750Y-114765581D01*
X133809538Y-114758349D01*
X133790132Y-114749170D01*
X133771719Y-114738134D01*
X133754476Y-114725346D01*
X133738570Y-114710930D01*
X133724154Y-114695024D01*
X133711366Y-114677781D01*
X133700330Y-114659368D01*
X133691151Y-114639962D01*
X133683919Y-114619750D01*
X133678703Y-114598926D01*
X133675553Y-114577691D01*
X133674500Y-114556250D01*
X133674500Y-114043750D01*
X133675553Y-114022309D01*
X133678703Y-114001074D01*
X133683919Y-113980250D01*
X133691151Y-113960038D01*
X133700330Y-113940632D01*
X133711366Y-113922219D01*
X133724154Y-113904976D01*
X133738570Y-113889070D01*
X133754476Y-113874654D01*
X133771719Y-113861866D01*
X133790132Y-113850830D01*
X133809538Y-113841651D01*
X133829750Y-113834419D01*
X133850574Y-113829203D01*
X133871809Y-113826053D01*
X133893250Y-113825000D01*
X134330750Y-113825000D01*
X134352191Y-113826053D01*
X134352191Y-113826053D01*
G37*
D13*
X134112000Y-114300000D03*
D12*
G36*
X132777191Y-113826053D02*
X132798426Y-113829203D01*
X132819250Y-113834419D01*
X132839462Y-113841651D01*
X132858868Y-113850830D01*
X132877281Y-113861866D01*
X132894524Y-113874654D01*
X132910430Y-113889070D01*
X132924846Y-113904976D01*
X132937634Y-113922219D01*
X132948670Y-113940632D01*
X132957849Y-113960038D01*
X132965081Y-113980250D01*
X132970297Y-114001074D01*
X132973447Y-114022309D01*
X132974500Y-114043750D01*
X132974500Y-114556250D01*
X132973447Y-114577691D01*
X132970297Y-114598926D01*
X132965081Y-114619750D01*
X132957849Y-114639962D01*
X132948670Y-114659368D01*
X132937634Y-114677781D01*
X132924846Y-114695024D01*
X132910430Y-114710930D01*
X132894524Y-114725346D01*
X132877281Y-114738134D01*
X132858868Y-114749170D01*
X132839462Y-114758349D01*
X132819250Y-114765581D01*
X132798426Y-114770797D01*
X132777191Y-114773947D01*
X132755750Y-114775000D01*
X132318250Y-114775000D01*
X132296809Y-114773947D01*
X132275574Y-114770797D01*
X132254750Y-114765581D01*
X132234538Y-114758349D01*
X132215132Y-114749170D01*
X132196719Y-114738134D01*
X132179476Y-114725346D01*
X132163570Y-114710930D01*
X132149154Y-114695024D01*
X132136366Y-114677781D01*
X132125330Y-114659368D01*
X132116151Y-114639962D01*
X132108919Y-114619750D01*
X132103703Y-114598926D01*
X132100553Y-114577691D01*
X132099500Y-114556250D01*
X132099500Y-114043750D01*
X132100553Y-114022309D01*
X132103703Y-114001074D01*
X132108919Y-113980250D01*
X132116151Y-113960038D01*
X132125330Y-113940632D01*
X132136366Y-113922219D01*
X132149154Y-113904976D01*
X132163570Y-113889070D01*
X132179476Y-113874654D01*
X132196719Y-113861866D01*
X132215132Y-113850830D01*
X132234538Y-113841651D01*
X132254750Y-113834419D01*
X132275574Y-113829203D01*
X132296809Y-113826053D01*
X132318250Y-113825000D01*
X132755750Y-113825000D01*
X132777191Y-113826053D01*
X132777191Y-113826053D01*
G37*
D13*
X132537000Y-114300000D03*
G04 #@! TD*
D12*
G04 #@! TO.C,R3*
G36*
X107008491Y-73959953D02*
X107029726Y-73963103D01*
X107050550Y-73968319D01*
X107070762Y-73975551D01*
X107090168Y-73984730D01*
X107108581Y-73995766D01*
X107125824Y-74008554D01*
X107141730Y-74022970D01*
X107156146Y-74038876D01*
X107168934Y-74056119D01*
X107179970Y-74074532D01*
X107189149Y-74093938D01*
X107196381Y-74114150D01*
X107201597Y-74134974D01*
X107204747Y-74156209D01*
X107205800Y-74177650D01*
X107205800Y-74615150D01*
X107204747Y-74636591D01*
X107201597Y-74657826D01*
X107196381Y-74678650D01*
X107189149Y-74698862D01*
X107179970Y-74718268D01*
X107168934Y-74736681D01*
X107156146Y-74753924D01*
X107141730Y-74769830D01*
X107125824Y-74784246D01*
X107108581Y-74797034D01*
X107090168Y-74808070D01*
X107070762Y-74817249D01*
X107050550Y-74824481D01*
X107029726Y-74829697D01*
X107008491Y-74832847D01*
X106987050Y-74833900D01*
X106474550Y-74833900D01*
X106453109Y-74832847D01*
X106431874Y-74829697D01*
X106411050Y-74824481D01*
X106390838Y-74817249D01*
X106371432Y-74808070D01*
X106353019Y-74797034D01*
X106335776Y-74784246D01*
X106319870Y-74769830D01*
X106305454Y-74753924D01*
X106292666Y-74736681D01*
X106281630Y-74718268D01*
X106272451Y-74698862D01*
X106265219Y-74678650D01*
X106260003Y-74657826D01*
X106256853Y-74636591D01*
X106255800Y-74615150D01*
X106255800Y-74177650D01*
X106256853Y-74156209D01*
X106260003Y-74134974D01*
X106265219Y-74114150D01*
X106272451Y-74093938D01*
X106281630Y-74074532D01*
X106292666Y-74056119D01*
X106305454Y-74038876D01*
X106319870Y-74022970D01*
X106335776Y-74008554D01*
X106353019Y-73995766D01*
X106371432Y-73984730D01*
X106390838Y-73975551D01*
X106411050Y-73968319D01*
X106431874Y-73963103D01*
X106453109Y-73959953D01*
X106474550Y-73958900D01*
X106987050Y-73958900D01*
X107008491Y-73959953D01*
X107008491Y-73959953D01*
G37*
D13*
X106730800Y-74396400D03*
D12*
G36*
X107008491Y-75534953D02*
X107029726Y-75538103D01*
X107050550Y-75543319D01*
X107070762Y-75550551D01*
X107090168Y-75559730D01*
X107108581Y-75570766D01*
X107125824Y-75583554D01*
X107141730Y-75597970D01*
X107156146Y-75613876D01*
X107168934Y-75631119D01*
X107179970Y-75649532D01*
X107189149Y-75668938D01*
X107196381Y-75689150D01*
X107201597Y-75709974D01*
X107204747Y-75731209D01*
X107205800Y-75752650D01*
X107205800Y-76190150D01*
X107204747Y-76211591D01*
X107201597Y-76232826D01*
X107196381Y-76253650D01*
X107189149Y-76273862D01*
X107179970Y-76293268D01*
X107168934Y-76311681D01*
X107156146Y-76328924D01*
X107141730Y-76344830D01*
X107125824Y-76359246D01*
X107108581Y-76372034D01*
X107090168Y-76383070D01*
X107070762Y-76392249D01*
X107050550Y-76399481D01*
X107029726Y-76404697D01*
X107008491Y-76407847D01*
X106987050Y-76408900D01*
X106474550Y-76408900D01*
X106453109Y-76407847D01*
X106431874Y-76404697D01*
X106411050Y-76399481D01*
X106390838Y-76392249D01*
X106371432Y-76383070D01*
X106353019Y-76372034D01*
X106335776Y-76359246D01*
X106319870Y-76344830D01*
X106305454Y-76328924D01*
X106292666Y-76311681D01*
X106281630Y-76293268D01*
X106272451Y-76273862D01*
X106265219Y-76253650D01*
X106260003Y-76232826D01*
X106256853Y-76211591D01*
X106255800Y-76190150D01*
X106255800Y-75752650D01*
X106256853Y-75731209D01*
X106260003Y-75709974D01*
X106265219Y-75689150D01*
X106272451Y-75668938D01*
X106281630Y-75649532D01*
X106292666Y-75631119D01*
X106305454Y-75613876D01*
X106319870Y-75597970D01*
X106335776Y-75583554D01*
X106353019Y-75570766D01*
X106371432Y-75559730D01*
X106390838Y-75550551D01*
X106411050Y-75543319D01*
X106431874Y-75538103D01*
X106453109Y-75534953D01*
X106474550Y-75533900D01*
X106987050Y-75533900D01*
X107008491Y-75534953D01*
X107008491Y-75534953D01*
G37*
D13*
X106730800Y-75971400D03*
G04 #@! TD*
D12*
G04 #@! TO.C,R1*
G36*
X106449691Y-98471153D02*
X106470926Y-98474303D01*
X106491750Y-98479519D01*
X106511962Y-98486751D01*
X106531368Y-98495930D01*
X106549781Y-98506966D01*
X106567024Y-98519754D01*
X106582930Y-98534170D01*
X106597346Y-98550076D01*
X106610134Y-98567319D01*
X106621170Y-98585732D01*
X106630349Y-98605138D01*
X106637581Y-98625350D01*
X106642797Y-98646174D01*
X106645947Y-98667409D01*
X106647000Y-98688850D01*
X106647000Y-99126350D01*
X106645947Y-99147791D01*
X106642797Y-99169026D01*
X106637581Y-99189850D01*
X106630349Y-99210062D01*
X106621170Y-99229468D01*
X106610134Y-99247881D01*
X106597346Y-99265124D01*
X106582930Y-99281030D01*
X106567024Y-99295446D01*
X106549781Y-99308234D01*
X106531368Y-99319270D01*
X106511962Y-99328449D01*
X106491750Y-99335681D01*
X106470926Y-99340897D01*
X106449691Y-99344047D01*
X106428250Y-99345100D01*
X105915750Y-99345100D01*
X105894309Y-99344047D01*
X105873074Y-99340897D01*
X105852250Y-99335681D01*
X105832038Y-99328449D01*
X105812632Y-99319270D01*
X105794219Y-99308234D01*
X105776976Y-99295446D01*
X105761070Y-99281030D01*
X105746654Y-99265124D01*
X105733866Y-99247881D01*
X105722830Y-99229468D01*
X105713651Y-99210062D01*
X105706419Y-99189850D01*
X105701203Y-99169026D01*
X105698053Y-99147791D01*
X105697000Y-99126350D01*
X105697000Y-98688850D01*
X105698053Y-98667409D01*
X105701203Y-98646174D01*
X105706419Y-98625350D01*
X105713651Y-98605138D01*
X105722830Y-98585732D01*
X105733866Y-98567319D01*
X105746654Y-98550076D01*
X105761070Y-98534170D01*
X105776976Y-98519754D01*
X105794219Y-98506966D01*
X105812632Y-98495930D01*
X105832038Y-98486751D01*
X105852250Y-98479519D01*
X105873074Y-98474303D01*
X105894309Y-98471153D01*
X105915750Y-98470100D01*
X106428250Y-98470100D01*
X106449691Y-98471153D01*
X106449691Y-98471153D01*
G37*
D13*
X106172000Y-98907600D03*
D12*
G36*
X106449691Y-96896153D02*
X106470926Y-96899303D01*
X106491750Y-96904519D01*
X106511962Y-96911751D01*
X106531368Y-96920930D01*
X106549781Y-96931966D01*
X106567024Y-96944754D01*
X106582930Y-96959170D01*
X106597346Y-96975076D01*
X106610134Y-96992319D01*
X106621170Y-97010732D01*
X106630349Y-97030138D01*
X106637581Y-97050350D01*
X106642797Y-97071174D01*
X106645947Y-97092409D01*
X106647000Y-97113850D01*
X106647000Y-97551350D01*
X106645947Y-97572791D01*
X106642797Y-97594026D01*
X106637581Y-97614850D01*
X106630349Y-97635062D01*
X106621170Y-97654468D01*
X106610134Y-97672881D01*
X106597346Y-97690124D01*
X106582930Y-97706030D01*
X106567024Y-97720446D01*
X106549781Y-97733234D01*
X106531368Y-97744270D01*
X106511962Y-97753449D01*
X106491750Y-97760681D01*
X106470926Y-97765897D01*
X106449691Y-97769047D01*
X106428250Y-97770100D01*
X105915750Y-97770100D01*
X105894309Y-97769047D01*
X105873074Y-97765897D01*
X105852250Y-97760681D01*
X105832038Y-97753449D01*
X105812632Y-97744270D01*
X105794219Y-97733234D01*
X105776976Y-97720446D01*
X105761070Y-97706030D01*
X105746654Y-97690124D01*
X105733866Y-97672881D01*
X105722830Y-97654468D01*
X105713651Y-97635062D01*
X105706419Y-97614850D01*
X105701203Y-97594026D01*
X105698053Y-97572791D01*
X105697000Y-97551350D01*
X105697000Y-97113850D01*
X105698053Y-97092409D01*
X105701203Y-97071174D01*
X105706419Y-97050350D01*
X105713651Y-97030138D01*
X105722830Y-97010732D01*
X105733866Y-96992319D01*
X105746654Y-96975076D01*
X105761070Y-96959170D01*
X105776976Y-96944754D01*
X105794219Y-96931966D01*
X105812632Y-96920930D01*
X105832038Y-96911751D01*
X105852250Y-96904519D01*
X105873074Y-96899303D01*
X105894309Y-96896153D01*
X105915750Y-96895100D01*
X106428250Y-96895100D01*
X106449691Y-96896153D01*
X106449691Y-96896153D01*
G37*
D13*
X106172000Y-97332600D03*
G04 #@! TD*
D12*
G04 #@! TO.C,R2*
G36*
X108862691Y-77388953D02*
X108883926Y-77392103D01*
X108904750Y-77397319D01*
X108924962Y-77404551D01*
X108944368Y-77413730D01*
X108962781Y-77424766D01*
X108980024Y-77437554D01*
X108995930Y-77451970D01*
X109010346Y-77467876D01*
X109023134Y-77485119D01*
X109034170Y-77503532D01*
X109043349Y-77522938D01*
X109050581Y-77543150D01*
X109055797Y-77563974D01*
X109058947Y-77585209D01*
X109060000Y-77606650D01*
X109060000Y-78044150D01*
X109058947Y-78065591D01*
X109055797Y-78086826D01*
X109050581Y-78107650D01*
X109043349Y-78127862D01*
X109034170Y-78147268D01*
X109023134Y-78165681D01*
X109010346Y-78182924D01*
X108995930Y-78198830D01*
X108980024Y-78213246D01*
X108962781Y-78226034D01*
X108944368Y-78237070D01*
X108924962Y-78246249D01*
X108904750Y-78253481D01*
X108883926Y-78258697D01*
X108862691Y-78261847D01*
X108841250Y-78262900D01*
X108328750Y-78262900D01*
X108307309Y-78261847D01*
X108286074Y-78258697D01*
X108265250Y-78253481D01*
X108245038Y-78246249D01*
X108225632Y-78237070D01*
X108207219Y-78226034D01*
X108189976Y-78213246D01*
X108174070Y-78198830D01*
X108159654Y-78182924D01*
X108146866Y-78165681D01*
X108135830Y-78147268D01*
X108126651Y-78127862D01*
X108119419Y-78107650D01*
X108114203Y-78086826D01*
X108111053Y-78065591D01*
X108110000Y-78044150D01*
X108110000Y-77606650D01*
X108111053Y-77585209D01*
X108114203Y-77563974D01*
X108119419Y-77543150D01*
X108126651Y-77522938D01*
X108135830Y-77503532D01*
X108146866Y-77485119D01*
X108159654Y-77467876D01*
X108174070Y-77451970D01*
X108189976Y-77437554D01*
X108207219Y-77424766D01*
X108225632Y-77413730D01*
X108245038Y-77404551D01*
X108265250Y-77397319D01*
X108286074Y-77392103D01*
X108307309Y-77388953D01*
X108328750Y-77387900D01*
X108841250Y-77387900D01*
X108862691Y-77388953D01*
X108862691Y-77388953D01*
G37*
D13*
X108585000Y-77825400D03*
D12*
G36*
X108862691Y-78963953D02*
X108883926Y-78967103D01*
X108904750Y-78972319D01*
X108924962Y-78979551D01*
X108944368Y-78988730D01*
X108962781Y-78999766D01*
X108980024Y-79012554D01*
X108995930Y-79026970D01*
X109010346Y-79042876D01*
X109023134Y-79060119D01*
X109034170Y-79078532D01*
X109043349Y-79097938D01*
X109050581Y-79118150D01*
X109055797Y-79138974D01*
X109058947Y-79160209D01*
X109060000Y-79181650D01*
X109060000Y-79619150D01*
X109058947Y-79640591D01*
X109055797Y-79661826D01*
X109050581Y-79682650D01*
X109043349Y-79702862D01*
X109034170Y-79722268D01*
X109023134Y-79740681D01*
X109010346Y-79757924D01*
X108995930Y-79773830D01*
X108980024Y-79788246D01*
X108962781Y-79801034D01*
X108944368Y-79812070D01*
X108924962Y-79821249D01*
X108904750Y-79828481D01*
X108883926Y-79833697D01*
X108862691Y-79836847D01*
X108841250Y-79837900D01*
X108328750Y-79837900D01*
X108307309Y-79836847D01*
X108286074Y-79833697D01*
X108265250Y-79828481D01*
X108245038Y-79821249D01*
X108225632Y-79812070D01*
X108207219Y-79801034D01*
X108189976Y-79788246D01*
X108174070Y-79773830D01*
X108159654Y-79757924D01*
X108146866Y-79740681D01*
X108135830Y-79722268D01*
X108126651Y-79702862D01*
X108119419Y-79682650D01*
X108114203Y-79661826D01*
X108111053Y-79640591D01*
X108110000Y-79619150D01*
X108110000Y-79181650D01*
X108111053Y-79160209D01*
X108114203Y-79138974D01*
X108119419Y-79118150D01*
X108126651Y-79097938D01*
X108135830Y-79078532D01*
X108146866Y-79060119D01*
X108159654Y-79042876D01*
X108174070Y-79026970D01*
X108189976Y-79012554D01*
X108207219Y-78999766D01*
X108225632Y-78988730D01*
X108245038Y-78979551D01*
X108265250Y-78972319D01*
X108286074Y-78967103D01*
X108307309Y-78963953D01*
X108328750Y-78962900D01*
X108841250Y-78962900D01*
X108862691Y-78963953D01*
X108862691Y-78963953D01*
G37*
D13*
X108585000Y-79400400D03*
G04 #@! TD*
D21*
G04 #@! TO.C,L1*
X116230400Y-77470000D03*
X116230400Y-79840000D03*
G04 #@! TD*
D22*
G04 #@! TO.C,IC1*
X137861000Y-100584000D03*
X137861000Y-101854000D03*
X137861000Y-103124000D03*
X137861000Y-104394000D03*
X137861000Y-105664000D03*
X137861000Y-106934000D03*
X137861000Y-108204000D03*
X137861000Y-109474000D03*
X132461000Y-109474000D03*
X132461000Y-108204000D03*
X132461000Y-106934000D03*
X132461000Y-105664000D03*
X132461000Y-104394000D03*
X132461000Y-103124000D03*
X132461000Y-101854000D03*
X132461000Y-100584000D03*
G04 #@! TD*
D12*
G04 #@! TO.C,R8*
G36*
X124483691Y-111222053D02*
X124504926Y-111225203D01*
X124525750Y-111230419D01*
X124545962Y-111237651D01*
X124565368Y-111246830D01*
X124583781Y-111257866D01*
X124601024Y-111270654D01*
X124616930Y-111285070D01*
X124631346Y-111300976D01*
X124644134Y-111318219D01*
X124655170Y-111336632D01*
X124664349Y-111356038D01*
X124671581Y-111376250D01*
X124676797Y-111397074D01*
X124679947Y-111418309D01*
X124681000Y-111439750D01*
X124681000Y-111877250D01*
X124679947Y-111898691D01*
X124676797Y-111919926D01*
X124671581Y-111940750D01*
X124664349Y-111960962D01*
X124655170Y-111980368D01*
X124644134Y-111998781D01*
X124631346Y-112016024D01*
X124616930Y-112031930D01*
X124601024Y-112046346D01*
X124583781Y-112059134D01*
X124565368Y-112070170D01*
X124545962Y-112079349D01*
X124525750Y-112086581D01*
X124504926Y-112091797D01*
X124483691Y-112094947D01*
X124462250Y-112096000D01*
X123949750Y-112096000D01*
X123928309Y-112094947D01*
X123907074Y-112091797D01*
X123886250Y-112086581D01*
X123866038Y-112079349D01*
X123846632Y-112070170D01*
X123828219Y-112059134D01*
X123810976Y-112046346D01*
X123795070Y-112031930D01*
X123780654Y-112016024D01*
X123767866Y-111998781D01*
X123756830Y-111980368D01*
X123747651Y-111960962D01*
X123740419Y-111940750D01*
X123735203Y-111919926D01*
X123732053Y-111898691D01*
X123731000Y-111877250D01*
X123731000Y-111439750D01*
X123732053Y-111418309D01*
X123735203Y-111397074D01*
X123740419Y-111376250D01*
X123747651Y-111356038D01*
X123756830Y-111336632D01*
X123767866Y-111318219D01*
X123780654Y-111300976D01*
X123795070Y-111285070D01*
X123810976Y-111270654D01*
X123828219Y-111257866D01*
X123846632Y-111246830D01*
X123866038Y-111237651D01*
X123886250Y-111230419D01*
X123907074Y-111225203D01*
X123928309Y-111222053D01*
X123949750Y-111221000D01*
X124462250Y-111221000D01*
X124483691Y-111222053D01*
X124483691Y-111222053D01*
G37*
D13*
X124206000Y-111658500D03*
D12*
G36*
X124483691Y-109647053D02*
X124504926Y-109650203D01*
X124525750Y-109655419D01*
X124545962Y-109662651D01*
X124565368Y-109671830D01*
X124583781Y-109682866D01*
X124601024Y-109695654D01*
X124616930Y-109710070D01*
X124631346Y-109725976D01*
X124644134Y-109743219D01*
X124655170Y-109761632D01*
X124664349Y-109781038D01*
X124671581Y-109801250D01*
X124676797Y-109822074D01*
X124679947Y-109843309D01*
X124681000Y-109864750D01*
X124681000Y-110302250D01*
X124679947Y-110323691D01*
X124676797Y-110344926D01*
X124671581Y-110365750D01*
X124664349Y-110385962D01*
X124655170Y-110405368D01*
X124644134Y-110423781D01*
X124631346Y-110441024D01*
X124616930Y-110456930D01*
X124601024Y-110471346D01*
X124583781Y-110484134D01*
X124565368Y-110495170D01*
X124545962Y-110504349D01*
X124525750Y-110511581D01*
X124504926Y-110516797D01*
X124483691Y-110519947D01*
X124462250Y-110521000D01*
X123949750Y-110521000D01*
X123928309Y-110519947D01*
X123907074Y-110516797D01*
X123886250Y-110511581D01*
X123866038Y-110504349D01*
X123846632Y-110495170D01*
X123828219Y-110484134D01*
X123810976Y-110471346D01*
X123795070Y-110456930D01*
X123780654Y-110441024D01*
X123767866Y-110423781D01*
X123756830Y-110405368D01*
X123747651Y-110385962D01*
X123740419Y-110365750D01*
X123735203Y-110344926D01*
X123732053Y-110323691D01*
X123731000Y-110302250D01*
X123731000Y-109864750D01*
X123732053Y-109843309D01*
X123735203Y-109822074D01*
X123740419Y-109801250D01*
X123747651Y-109781038D01*
X123756830Y-109761632D01*
X123767866Y-109743219D01*
X123780654Y-109725976D01*
X123795070Y-109710070D01*
X123810976Y-109695654D01*
X123828219Y-109682866D01*
X123846632Y-109671830D01*
X123866038Y-109662651D01*
X123886250Y-109655419D01*
X123907074Y-109650203D01*
X123928309Y-109647053D01*
X123949750Y-109646000D01*
X124462250Y-109646000D01*
X124483691Y-109647053D01*
X124483691Y-109647053D01*
G37*
D13*
X124206000Y-110083500D03*
G04 #@! TD*
D12*
G04 #@! TO.C,R10*
G36*
X140333291Y-102788953D02*
X140354526Y-102792103D01*
X140375350Y-102797319D01*
X140395562Y-102804551D01*
X140414968Y-102813730D01*
X140433381Y-102824766D01*
X140450624Y-102837554D01*
X140466530Y-102851970D01*
X140480946Y-102867876D01*
X140493734Y-102885119D01*
X140504770Y-102903532D01*
X140513949Y-102922938D01*
X140521181Y-102943150D01*
X140526397Y-102963974D01*
X140529547Y-102985209D01*
X140530600Y-103006650D01*
X140530600Y-103444150D01*
X140529547Y-103465591D01*
X140526397Y-103486826D01*
X140521181Y-103507650D01*
X140513949Y-103527862D01*
X140504770Y-103547268D01*
X140493734Y-103565681D01*
X140480946Y-103582924D01*
X140466530Y-103598830D01*
X140450624Y-103613246D01*
X140433381Y-103626034D01*
X140414968Y-103637070D01*
X140395562Y-103646249D01*
X140375350Y-103653481D01*
X140354526Y-103658697D01*
X140333291Y-103661847D01*
X140311850Y-103662900D01*
X139799350Y-103662900D01*
X139777909Y-103661847D01*
X139756674Y-103658697D01*
X139735850Y-103653481D01*
X139715638Y-103646249D01*
X139696232Y-103637070D01*
X139677819Y-103626034D01*
X139660576Y-103613246D01*
X139644670Y-103598830D01*
X139630254Y-103582924D01*
X139617466Y-103565681D01*
X139606430Y-103547268D01*
X139597251Y-103527862D01*
X139590019Y-103507650D01*
X139584803Y-103486826D01*
X139581653Y-103465591D01*
X139580600Y-103444150D01*
X139580600Y-103006650D01*
X139581653Y-102985209D01*
X139584803Y-102963974D01*
X139590019Y-102943150D01*
X139597251Y-102922938D01*
X139606430Y-102903532D01*
X139617466Y-102885119D01*
X139630254Y-102867876D01*
X139644670Y-102851970D01*
X139660576Y-102837554D01*
X139677819Y-102824766D01*
X139696232Y-102813730D01*
X139715638Y-102804551D01*
X139735850Y-102797319D01*
X139756674Y-102792103D01*
X139777909Y-102788953D01*
X139799350Y-102787900D01*
X140311850Y-102787900D01*
X140333291Y-102788953D01*
X140333291Y-102788953D01*
G37*
D13*
X140055600Y-103225400D03*
D12*
G36*
X140333291Y-104363953D02*
X140354526Y-104367103D01*
X140375350Y-104372319D01*
X140395562Y-104379551D01*
X140414968Y-104388730D01*
X140433381Y-104399766D01*
X140450624Y-104412554D01*
X140466530Y-104426970D01*
X140480946Y-104442876D01*
X140493734Y-104460119D01*
X140504770Y-104478532D01*
X140513949Y-104497938D01*
X140521181Y-104518150D01*
X140526397Y-104538974D01*
X140529547Y-104560209D01*
X140530600Y-104581650D01*
X140530600Y-105019150D01*
X140529547Y-105040591D01*
X140526397Y-105061826D01*
X140521181Y-105082650D01*
X140513949Y-105102862D01*
X140504770Y-105122268D01*
X140493734Y-105140681D01*
X140480946Y-105157924D01*
X140466530Y-105173830D01*
X140450624Y-105188246D01*
X140433381Y-105201034D01*
X140414968Y-105212070D01*
X140395562Y-105221249D01*
X140375350Y-105228481D01*
X140354526Y-105233697D01*
X140333291Y-105236847D01*
X140311850Y-105237900D01*
X139799350Y-105237900D01*
X139777909Y-105236847D01*
X139756674Y-105233697D01*
X139735850Y-105228481D01*
X139715638Y-105221249D01*
X139696232Y-105212070D01*
X139677819Y-105201034D01*
X139660576Y-105188246D01*
X139644670Y-105173830D01*
X139630254Y-105157924D01*
X139617466Y-105140681D01*
X139606430Y-105122268D01*
X139597251Y-105102862D01*
X139590019Y-105082650D01*
X139584803Y-105061826D01*
X139581653Y-105040591D01*
X139580600Y-105019150D01*
X139580600Y-104581650D01*
X139581653Y-104560209D01*
X139584803Y-104538974D01*
X139590019Y-104518150D01*
X139597251Y-104497938D01*
X139606430Y-104478532D01*
X139617466Y-104460119D01*
X139630254Y-104442876D01*
X139644670Y-104426970D01*
X139660576Y-104412554D01*
X139677819Y-104399766D01*
X139696232Y-104388730D01*
X139715638Y-104379551D01*
X139735850Y-104372319D01*
X139756674Y-104367103D01*
X139777909Y-104363953D01*
X139799350Y-104362900D01*
X140311850Y-104362900D01*
X140333291Y-104363953D01*
X140333291Y-104363953D01*
G37*
D13*
X140055600Y-104800400D03*
G04 #@! TD*
D12*
G04 #@! TO.C,R11*
G36*
X142416091Y-104363953D02*
X142437326Y-104367103D01*
X142458150Y-104372319D01*
X142478362Y-104379551D01*
X142497768Y-104388730D01*
X142516181Y-104399766D01*
X142533424Y-104412554D01*
X142549330Y-104426970D01*
X142563746Y-104442876D01*
X142576534Y-104460119D01*
X142587570Y-104478532D01*
X142596749Y-104497938D01*
X142603981Y-104518150D01*
X142609197Y-104538974D01*
X142612347Y-104560209D01*
X142613400Y-104581650D01*
X142613400Y-105019150D01*
X142612347Y-105040591D01*
X142609197Y-105061826D01*
X142603981Y-105082650D01*
X142596749Y-105102862D01*
X142587570Y-105122268D01*
X142576534Y-105140681D01*
X142563746Y-105157924D01*
X142549330Y-105173830D01*
X142533424Y-105188246D01*
X142516181Y-105201034D01*
X142497768Y-105212070D01*
X142478362Y-105221249D01*
X142458150Y-105228481D01*
X142437326Y-105233697D01*
X142416091Y-105236847D01*
X142394650Y-105237900D01*
X141882150Y-105237900D01*
X141860709Y-105236847D01*
X141839474Y-105233697D01*
X141818650Y-105228481D01*
X141798438Y-105221249D01*
X141779032Y-105212070D01*
X141760619Y-105201034D01*
X141743376Y-105188246D01*
X141727470Y-105173830D01*
X141713054Y-105157924D01*
X141700266Y-105140681D01*
X141689230Y-105122268D01*
X141680051Y-105102862D01*
X141672819Y-105082650D01*
X141667603Y-105061826D01*
X141664453Y-105040591D01*
X141663400Y-105019150D01*
X141663400Y-104581650D01*
X141664453Y-104560209D01*
X141667603Y-104538974D01*
X141672819Y-104518150D01*
X141680051Y-104497938D01*
X141689230Y-104478532D01*
X141700266Y-104460119D01*
X141713054Y-104442876D01*
X141727470Y-104426970D01*
X141743376Y-104412554D01*
X141760619Y-104399766D01*
X141779032Y-104388730D01*
X141798438Y-104379551D01*
X141818650Y-104372319D01*
X141839474Y-104367103D01*
X141860709Y-104363953D01*
X141882150Y-104362900D01*
X142394650Y-104362900D01*
X142416091Y-104363953D01*
X142416091Y-104363953D01*
G37*
D13*
X142138400Y-104800400D03*
D12*
G36*
X142416091Y-102788953D02*
X142437326Y-102792103D01*
X142458150Y-102797319D01*
X142478362Y-102804551D01*
X142497768Y-102813730D01*
X142516181Y-102824766D01*
X142533424Y-102837554D01*
X142549330Y-102851970D01*
X142563746Y-102867876D01*
X142576534Y-102885119D01*
X142587570Y-102903532D01*
X142596749Y-102922938D01*
X142603981Y-102943150D01*
X142609197Y-102963974D01*
X142612347Y-102985209D01*
X142613400Y-103006650D01*
X142613400Y-103444150D01*
X142612347Y-103465591D01*
X142609197Y-103486826D01*
X142603981Y-103507650D01*
X142596749Y-103527862D01*
X142587570Y-103547268D01*
X142576534Y-103565681D01*
X142563746Y-103582924D01*
X142549330Y-103598830D01*
X142533424Y-103613246D01*
X142516181Y-103626034D01*
X142497768Y-103637070D01*
X142478362Y-103646249D01*
X142458150Y-103653481D01*
X142437326Y-103658697D01*
X142416091Y-103661847D01*
X142394650Y-103662900D01*
X141882150Y-103662900D01*
X141860709Y-103661847D01*
X141839474Y-103658697D01*
X141818650Y-103653481D01*
X141798438Y-103646249D01*
X141779032Y-103637070D01*
X141760619Y-103626034D01*
X141743376Y-103613246D01*
X141727470Y-103598830D01*
X141713054Y-103582924D01*
X141700266Y-103565681D01*
X141689230Y-103547268D01*
X141680051Y-103527862D01*
X141672819Y-103507650D01*
X141667603Y-103486826D01*
X141664453Y-103465591D01*
X141663400Y-103444150D01*
X141663400Y-103006650D01*
X141664453Y-102985209D01*
X141667603Y-102963974D01*
X141672819Y-102943150D01*
X141680051Y-102922938D01*
X141689230Y-102903532D01*
X141700266Y-102885119D01*
X141713054Y-102867876D01*
X141727470Y-102851970D01*
X141743376Y-102837554D01*
X141760619Y-102824766D01*
X141779032Y-102813730D01*
X141798438Y-102804551D01*
X141818650Y-102797319D01*
X141839474Y-102792103D01*
X141860709Y-102788953D01*
X141882150Y-102787900D01*
X142394650Y-102787900D01*
X142416091Y-102788953D01*
X142416091Y-102788953D01*
G37*
D13*
X142138400Y-103225400D03*
G04 #@! TD*
D23*
G04 #@! TO.C,Q1*
X127921000Y-100015000D03*
X129921000Y-99065000D03*
X129921000Y-100965000D03*
G04 #@! TD*
D12*
G04 #@! TO.C,C13*
G36*
X127156005Y-107665204D02*
X127180273Y-107668804D01*
X127204072Y-107674765D01*
X127227171Y-107683030D01*
X127249350Y-107693520D01*
X127270393Y-107706132D01*
X127290099Y-107720747D01*
X127308277Y-107737223D01*
X127324753Y-107755401D01*
X127339368Y-107775107D01*
X127351980Y-107796150D01*
X127362470Y-107818329D01*
X127370735Y-107841428D01*
X127376696Y-107865227D01*
X127380296Y-107889495D01*
X127381500Y-107913999D01*
X127381500Y-109764001D01*
X127380296Y-109788505D01*
X127376696Y-109812773D01*
X127370735Y-109836572D01*
X127362470Y-109859671D01*
X127351980Y-109881850D01*
X127339368Y-109902893D01*
X127324753Y-109922599D01*
X127308277Y-109940777D01*
X127290099Y-109957253D01*
X127270393Y-109971868D01*
X127249350Y-109984480D01*
X127227171Y-109994970D01*
X127204072Y-110003235D01*
X127180273Y-110009196D01*
X127156005Y-110012796D01*
X127131501Y-110014000D01*
X126306499Y-110014000D01*
X126281995Y-110012796D01*
X126257727Y-110009196D01*
X126233928Y-110003235D01*
X126210829Y-109994970D01*
X126188650Y-109984480D01*
X126167607Y-109971868D01*
X126147901Y-109957253D01*
X126129723Y-109940777D01*
X126113247Y-109922599D01*
X126098632Y-109902893D01*
X126086020Y-109881850D01*
X126075530Y-109859671D01*
X126067265Y-109836572D01*
X126061304Y-109812773D01*
X126057704Y-109788505D01*
X126056500Y-109764001D01*
X126056500Y-107913999D01*
X126057704Y-107889495D01*
X126061304Y-107865227D01*
X126067265Y-107841428D01*
X126075530Y-107818329D01*
X126086020Y-107796150D01*
X126098632Y-107775107D01*
X126113247Y-107755401D01*
X126129723Y-107737223D01*
X126147901Y-107720747D01*
X126167607Y-107706132D01*
X126188650Y-107693520D01*
X126210829Y-107683030D01*
X126233928Y-107674765D01*
X126257727Y-107668804D01*
X126281995Y-107665204D01*
X126306499Y-107664000D01*
X127131501Y-107664000D01*
X127156005Y-107665204D01*
X127156005Y-107665204D01*
G37*
D24*
X126719000Y-108839000D03*
D12*
G36*
X130231005Y-107665204D02*
X130255273Y-107668804D01*
X130279072Y-107674765D01*
X130302171Y-107683030D01*
X130324350Y-107693520D01*
X130345393Y-107706132D01*
X130365099Y-107720747D01*
X130383277Y-107737223D01*
X130399753Y-107755401D01*
X130414368Y-107775107D01*
X130426980Y-107796150D01*
X130437470Y-107818329D01*
X130445735Y-107841428D01*
X130451696Y-107865227D01*
X130455296Y-107889495D01*
X130456500Y-107913999D01*
X130456500Y-109764001D01*
X130455296Y-109788505D01*
X130451696Y-109812773D01*
X130445735Y-109836572D01*
X130437470Y-109859671D01*
X130426980Y-109881850D01*
X130414368Y-109902893D01*
X130399753Y-109922599D01*
X130383277Y-109940777D01*
X130365099Y-109957253D01*
X130345393Y-109971868D01*
X130324350Y-109984480D01*
X130302171Y-109994970D01*
X130279072Y-110003235D01*
X130255273Y-110009196D01*
X130231005Y-110012796D01*
X130206501Y-110014000D01*
X129381499Y-110014000D01*
X129356995Y-110012796D01*
X129332727Y-110009196D01*
X129308928Y-110003235D01*
X129285829Y-109994970D01*
X129263650Y-109984480D01*
X129242607Y-109971868D01*
X129222901Y-109957253D01*
X129204723Y-109940777D01*
X129188247Y-109922599D01*
X129173632Y-109902893D01*
X129161020Y-109881850D01*
X129150530Y-109859671D01*
X129142265Y-109836572D01*
X129136304Y-109812773D01*
X129132704Y-109788505D01*
X129131500Y-109764001D01*
X129131500Y-107913999D01*
X129132704Y-107889495D01*
X129136304Y-107865227D01*
X129142265Y-107841428D01*
X129150530Y-107818329D01*
X129161020Y-107796150D01*
X129173632Y-107775107D01*
X129188247Y-107755401D01*
X129204723Y-107737223D01*
X129222901Y-107720747D01*
X129242607Y-107706132D01*
X129263650Y-107693520D01*
X129285829Y-107683030D01*
X129308928Y-107674765D01*
X129332727Y-107668804D01*
X129356995Y-107665204D01*
X129381499Y-107664000D01*
X130206501Y-107664000D01*
X130231005Y-107665204D01*
X130231005Y-107665204D01*
G37*
D24*
X129794000Y-108839000D03*
G04 #@! TD*
D12*
G04 #@! TO.C,C7*
G36*
X127156005Y-111856204D02*
X127180273Y-111859804D01*
X127204072Y-111865765D01*
X127227171Y-111874030D01*
X127249350Y-111884520D01*
X127270393Y-111897132D01*
X127290099Y-111911747D01*
X127308277Y-111928223D01*
X127324753Y-111946401D01*
X127339368Y-111966107D01*
X127351980Y-111987150D01*
X127362470Y-112009329D01*
X127370735Y-112032428D01*
X127376696Y-112056227D01*
X127380296Y-112080495D01*
X127381500Y-112104999D01*
X127381500Y-113955001D01*
X127380296Y-113979505D01*
X127376696Y-114003773D01*
X127370735Y-114027572D01*
X127362470Y-114050671D01*
X127351980Y-114072850D01*
X127339368Y-114093893D01*
X127324753Y-114113599D01*
X127308277Y-114131777D01*
X127290099Y-114148253D01*
X127270393Y-114162868D01*
X127249350Y-114175480D01*
X127227171Y-114185970D01*
X127204072Y-114194235D01*
X127180273Y-114200196D01*
X127156005Y-114203796D01*
X127131501Y-114205000D01*
X126306499Y-114205000D01*
X126281995Y-114203796D01*
X126257727Y-114200196D01*
X126233928Y-114194235D01*
X126210829Y-114185970D01*
X126188650Y-114175480D01*
X126167607Y-114162868D01*
X126147901Y-114148253D01*
X126129723Y-114131777D01*
X126113247Y-114113599D01*
X126098632Y-114093893D01*
X126086020Y-114072850D01*
X126075530Y-114050671D01*
X126067265Y-114027572D01*
X126061304Y-114003773D01*
X126057704Y-113979505D01*
X126056500Y-113955001D01*
X126056500Y-112104999D01*
X126057704Y-112080495D01*
X126061304Y-112056227D01*
X126067265Y-112032428D01*
X126075530Y-112009329D01*
X126086020Y-111987150D01*
X126098632Y-111966107D01*
X126113247Y-111946401D01*
X126129723Y-111928223D01*
X126147901Y-111911747D01*
X126167607Y-111897132D01*
X126188650Y-111884520D01*
X126210829Y-111874030D01*
X126233928Y-111865765D01*
X126257727Y-111859804D01*
X126281995Y-111856204D01*
X126306499Y-111855000D01*
X127131501Y-111855000D01*
X127156005Y-111856204D01*
X127156005Y-111856204D01*
G37*
D24*
X126719000Y-113030000D03*
D12*
G36*
X130231005Y-111856204D02*
X130255273Y-111859804D01*
X130279072Y-111865765D01*
X130302171Y-111874030D01*
X130324350Y-111884520D01*
X130345393Y-111897132D01*
X130365099Y-111911747D01*
X130383277Y-111928223D01*
X130399753Y-111946401D01*
X130414368Y-111966107D01*
X130426980Y-111987150D01*
X130437470Y-112009329D01*
X130445735Y-112032428D01*
X130451696Y-112056227D01*
X130455296Y-112080495D01*
X130456500Y-112104999D01*
X130456500Y-113955001D01*
X130455296Y-113979505D01*
X130451696Y-114003773D01*
X130445735Y-114027572D01*
X130437470Y-114050671D01*
X130426980Y-114072850D01*
X130414368Y-114093893D01*
X130399753Y-114113599D01*
X130383277Y-114131777D01*
X130365099Y-114148253D01*
X130345393Y-114162868D01*
X130324350Y-114175480D01*
X130302171Y-114185970D01*
X130279072Y-114194235D01*
X130255273Y-114200196D01*
X130231005Y-114203796D01*
X130206501Y-114205000D01*
X129381499Y-114205000D01*
X129356995Y-114203796D01*
X129332727Y-114200196D01*
X129308928Y-114194235D01*
X129285829Y-114185970D01*
X129263650Y-114175480D01*
X129242607Y-114162868D01*
X129222901Y-114148253D01*
X129204723Y-114131777D01*
X129188247Y-114113599D01*
X129173632Y-114093893D01*
X129161020Y-114072850D01*
X129150530Y-114050671D01*
X129142265Y-114027572D01*
X129136304Y-114003773D01*
X129132704Y-113979505D01*
X129131500Y-113955001D01*
X129131500Y-112104999D01*
X129132704Y-112080495D01*
X129136304Y-112056227D01*
X129142265Y-112032428D01*
X129150530Y-112009329D01*
X129161020Y-111987150D01*
X129173632Y-111966107D01*
X129188247Y-111946401D01*
X129204723Y-111928223D01*
X129222901Y-111911747D01*
X129242607Y-111897132D01*
X129263650Y-111884520D01*
X129285829Y-111874030D01*
X129308928Y-111865765D01*
X129332727Y-111859804D01*
X129356995Y-111856204D01*
X129381499Y-111855000D01*
X130206501Y-111855000D01*
X130231005Y-111856204D01*
X130231005Y-111856204D01*
G37*
D24*
X129794000Y-113030000D03*
G04 #@! TD*
D12*
G04 #@! TO.C,CFF1*
G36*
X126261691Y-103221053D02*
X126282926Y-103224203D01*
X126303750Y-103229419D01*
X126323962Y-103236651D01*
X126343368Y-103245830D01*
X126361781Y-103256866D01*
X126379024Y-103269654D01*
X126394930Y-103284070D01*
X126409346Y-103299976D01*
X126422134Y-103317219D01*
X126433170Y-103335632D01*
X126442349Y-103355038D01*
X126449581Y-103375250D01*
X126454797Y-103396074D01*
X126457947Y-103417309D01*
X126459000Y-103438750D01*
X126459000Y-103876250D01*
X126457947Y-103897691D01*
X126454797Y-103918926D01*
X126449581Y-103939750D01*
X126442349Y-103959962D01*
X126433170Y-103979368D01*
X126422134Y-103997781D01*
X126409346Y-104015024D01*
X126394930Y-104030930D01*
X126379024Y-104045346D01*
X126361781Y-104058134D01*
X126343368Y-104069170D01*
X126323962Y-104078349D01*
X126303750Y-104085581D01*
X126282926Y-104090797D01*
X126261691Y-104093947D01*
X126240250Y-104095000D01*
X125727750Y-104095000D01*
X125706309Y-104093947D01*
X125685074Y-104090797D01*
X125664250Y-104085581D01*
X125644038Y-104078349D01*
X125624632Y-104069170D01*
X125606219Y-104058134D01*
X125588976Y-104045346D01*
X125573070Y-104030930D01*
X125558654Y-104015024D01*
X125545866Y-103997781D01*
X125534830Y-103979368D01*
X125525651Y-103959962D01*
X125518419Y-103939750D01*
X125513203Y-103918926D01*
X125510053Y-103897691D01*
X125509000Y-103876250D01*
X125509000Y-103438750D01*
X125510053Y-103417309D01*
X125513203Y-103396074D01*
X125518419Y-103375250D01*
X125525651Y-103355038D01*
X125534830Y-103335632D01*
X125545866Y-103317219D01*
X125558654Y-103299976D01*
X125573070Y-103284070D01*
X125588976Y-103269654D01*
X125606219Y-103256866D01*
X125624632Y-103245830D01*
X125644038Y-103236651D01*
X125664250Y-103229419D01*
X125685074Y-103224203D01*
X125706309Y-103221053D01*
X125727750Y-103220000D01*
X126240250Y-103220000D01*
X126261691Y-103221053D01*
X126261691Y-103221053D01*
G37*
D13*
X125984000Y-103657500D03*
D12*
G36*
X126261691Y-101646053D02*
X126282926Y-101649203D01*
X126303750Y-101654419D01*
X126323962Y-101661651D01*
X126343368Y-101670830D01*
X126361781Y-101681866D01*
X126379024Y-101694654D01*
X126394930Y-101709070D01*
X126409346Y-101724976D01*
X126422134Y-101742219D01*
X126433170Y-101760632D01*
X126442349Y-101780038D01*
X126449581Y-101800250D01*
X126454797Y-101821074D01*
X126457947Y-101842309D01*
X126459000Y-101863750D01*
X126459000Y-102301250D01*
X126457947Y-102322691D01*
X126454797Y-102343926D01*
X126449581Y-102364750D01*
X126442349Y-102384962D01*
X126433170Y-102404368D01*
X126422134Y-102422781D01*
X126409346Y-102440024D01*
X126394930Y-102455930D01*
X126379024Y-102470346D01*
X126361781Y-102483134D01*
X126343368Y-102494170D01*
X126323962Y-102503349D01*
X126303750Y-102510581D01*
X126282926Y-102515797D01*
X126261691Y-102518947D01*
X126240250Y-102520000D01*
X125727750Y-102520000D01*
X125706309Y-102518947D01*
X125685074Y-102515797D01*
X125664250Y-102510581D01*
X125644038Y-102503349D01*
X125624632Y-102494170D01*
X125606219Y-102483134D01*
X125588976Y-102470346D01*
X125573070Y-102455930D01*
X125558654Y-102440024D01*
X125545866Y-102422781D01*
X125534830Y-102404368D01*
X125525651Y-102384962D01*
X125518419Y-102364750D01*
X125513203Y-102343926D01*
X125510053Y-102322691D01*
X125509000Y-102301250D01*
X125509000Y-101863750D01*
X125510053Y-101842309D01*
X125513203Y-101821074D01*
X125518419Y-101800250D01*
X125525651Y-101780038D01*
X125534830Y-101760632D01*
X125545866Y-101742219D01*
X125558654Y-101724976D01*
X125573070Y-101709070D01*
X125588976Y-101694654D01*
X125606219Y-101681866D01*
X125624632Y-101670830D01*
X125644038Y-101661651D01*
X125664250Y-101654419D01*
X125685074Y-101649203D01*
X125706309Y-101646053D01*
X125727750Y-101645000D01*
X126240250Y-101645000D01*
X126261691Y-101646053D01*
X126261691Y-101646053D01*
G37*
D13*
X125984000Y-102082500D03*
G04 #@! TD*
D12*
G04 #@! TO.C,C11*
G36*
X138467191Y-111667053D02*
X138488426Y-111670203D01*
X138509250Y-111675419D01*
X138529462Y-111682651D01*
X138548868Y-111691830D01*
X138567281Y-111702866D01*
X138584524Y-111715654D01*
X138600430Y-111730070D01*
X138614846Y-111745976D01*
X138627634Y-111763219D01*
X138638670Y-111781632D01*
X138647849Y-111801038D01*
X138655081Y-111821250D01*
X138660297Y-111842074D01*
X138663447Y-111863309D01*
X138664500Y-111884750D01*
X138664500Y-112397250D01*
X138663447Y-112418691D01*
X138660297Y-112439926D01*
X138655081Y-112460750D01*
X138647849Y-112480962D01*
X138638670Y-112500368D01*
X138627634Y-112518781D01*
X138614846Y-112536024D01*
X138600430Y-112551930D01*
X138584524Y-112566346D01*
X138567281Y-112579134D01*
X138548868Y-112590170D01*
X138529462Y-112599349D01*
X138509250Y-112606581D01*
X138488426Y-112611797D01*
X138467191Y-112614947D01*
X138445750Y-112616000D01*
X138008250Y-112616000D01*
X137986809Y-112614947D01*
X137965574Y-112611797D01*
X137944750Y-112606581D01*
X137924538Y-112599349D01*
X137905132Y-112590170D01*
X137886719Y-112579134D01*
X137869476Y-112566346D01*
X137853570Y-112551930D01*
X137839154Y-112536024D01*
X137826366Y-112518781D01*
X137815330Y-112500368D01*
X137806151Y-112480962D01*
X137798919Y-112460750D01*
X137793703Y-112439926D01*
X137790553Y-112418691D01*
X137789500Y-112397250D01*
X137789500Y-111884750D01*
X137790553Y-111863309D01*
X137793703Y-111842074D01*
X137798919Y-111821250D01*
X137806151Y-111801038D01*
X137815330Y-111781632D01*
X137826366Y-111763219D01*
X137839154Y-111745976D01*
X137853570Y-111730070D01*
X137869476Y-111715654D01*
X137886719Y-111702866D01*
X137905132Y-111691830D01*
X137924538Y-111682651D01*
X137944750Y-111675419D01*
X137965574Y-111670203D01*
X137986809Y-111667053D01*
X138008250Y-111666000D01*
X138445750Y-111666000D01*
X138467191Y-111667053D01*
X138467191Y-111667053D01*
G37*
D13*
X138227000Y-112141000D03*
D12*
G36*
X136892191Y-111667053D02*
X136913426Y-111670203D01*
X136934250Y-111675419D01*
X136954462Y-111682651D01*
X136973868Y-111691830D01*
X136992281Y-111702866D01*
X137009524Y-111715654D01*
X137025430Y-111730070D01*
X137039846Y-111745976D01*
X137052634Y-111763219D01*
X137063670Y-111781632D01*
X137072849Y-111801038D01*
X137080081Y-111821250D01*
X137085297Y-111842074D01*
X137088447Y-111863309D01*
X137089500Y-111884750D01*
X137089500Y-112397250D01*
X137088447Y-112418691D01*
X137085297Y-112439926D01*
X137080081Y-112460750D01*
X137072849Y-112480962D01*
X137063670Y-112500368D01*
X137052634Y-112518781D01*
X137039846Y-112536024D01*
X137025430Y-112551930D01*
X137009524Y-112566346D01*
X136992281Y-112579134D01*
X136973868Y-112590170D01*
X136954462Y-112599349D01*
X136934250Y-112606581D01*
X136913426Y-112611797D01*
X136892191Y-112614947D01*
X136870750Y-112616000D01*
X136433250Y-112616000D01*
X136411809Y-112614947D01*
X136390574Y-112611797D01*
X136369750Y-112606581D01*
X136349538Y-112599349D01*
X136330132Y-112590170D01*
X136311719Y-112579134D01*
X136294476Y-112566346D01*
X136278570Y-112551930D01*
X136264154Y-112536024D01*
X136251366Y-112518781D01*
X136240330Y-112500368D01*
X136231151Y-112480962D01*
X136223919Y-112460750D01*
X136218703Y-112439926D01*
X136215553Y-112418691D01*
X136214500Y-112397250D01*
X136214500Y-111884750D01*
X136215553Y-111863309D01*
X136218703Y-111842074D01*
X136223919Y-111821250D01*
X136231151Y-111801038D01*
X136240330Y-111781632D01*
X136251366Y-111763219D01*
X136264154Y-111745976D01*
X136278570Y-111730070D01*
X136294476Y-111715654D01*
X136311719Y-111702866D01*
X136330132Y-111691830D01*
X136349538Y-111682651D01*
X136369750Y-111675419D01*
X136390574Y-111670203D01*
X136411809Y-111667053D01*
X136433250Y-111666000D01*
X136870750Y-111666000D01*
X136892191Y-111667053D01*
X136892191Y-111667053D01*
G37*
D13*
X136652000Y-112141000D03*
G04 #@! TD*
D12*
G04 #@! TO.C,C10*
G36*
X134352191Y-111667053D02*
X134373426Y-111670203D01*
X134394250Y-111675419D01*
X134414462Y-111682651D01*
X134433868Y-111691830D01*
X134452281Y-111702866D01*
X134469524Y-111715654D01*
X134485430Y-111730070D01*
X134499846Y-111745976D01*
X134512634Y-111763219D01*
X134523670Y-111781632D01*
X134532849Y-111801038D01*
X134540081Y-111821250D01*
X134545297Y-111842074D01*
X134548447Y-111863309D01*
X134549500Y-111884750D01*
X134549500Y-112397250D01*
X134548447Y-112418691D01*
X134545297Y-112439926D01*
X134540081Y-112460750D01*
X134532849Y-112480962D01*
X134523670Y-112500368D01*
X134512634Y-112518781D01*
X134499846Y-112536024D01*
X134485430Y-112551930D01*
X134469524Y-112566346D01*
X134452281Y-112579134D01*
X134433868Y-112590170D01*
X134414462Y-112599349D01*
X134394250Y-112606581D01*
X134373426Y-112611797D01*
X134352191Y-112614947D01*
X134330750Y-112616000D01*
X133893250Y-112616000D01*
X133871809Y-112614947D01*
X133850574Y-112611797D01*
X133829750Y-112606581D01*
X133809538Y-112599349D01*
X133790132Y-112590170D01*
X133771719Y-112579134D01*
X133754476Y-112566346D01*
X133738570Y-112551930D01*
X133724154Y-112536024D01*
X133711366Y-112518781D01*
X133700330Y-112500368D01*
X133691151Y-112480962D01*
X133683919Y-112460750D01*
X133678703Y-112439926D01*
X133675553Y-112418691D01*
X133674500Y-112397250D01*
X133674500Y-111884750D01*
X133675553Y-111863309D01*
X133678703Y-111842074D01*
X133683919Y-111821250D01*
X133691151Y-111801038D01*
X133700330Y-111781632D01*
X133711366Y-111763219D01*
X133724154Y-111745976D01*
X133738570Y-111730070D01*
X133754476Y-111715654D01*
X133771719Y-111702866D01*
X133790132Y-111691830D01*
X133809538Y-111682651D01*
X133829750Y-111675419D01*
X133850574Y-111670203D01*
X133871809Y-111667053D01*
X133893250Y-111666000D01*
X134330750Y-111666000D01*
X134352191Y-111667053D01*
X134352191Y-111667053D01*
G37*
D13*
X134112000Y-112141000D03*
D12*
G36*
X132777191Y-111667053D02*
X132798426Y-111670203D01*
X132819250Y-111675419D01*
X132839462Y-111682651D01*
X132858868Y-111691830D01*
X132877281Y-111702866D01*
X132894524Y-111715654D01*
X132910430Y-111730070D01*
X132924846Y-111745976D01*
X132937634Y-111763219D01*
X132948670Y-111781632D01*
X132957849Y-111801038D01*
X132965081Y-111821250D01*
X132970297Y-111842074D01*
X132973447Y-111863309D01*
X132974500Y-111884750D01*
X132974500Y-112397250D01*
X132973447Y-112418691D01*
X132970297Y-112439926D01*
X132965081Y-112460750D01*
X132957849Y-112480962D01*
X132948670Y-112500368D01*
X132937634Y-112518781D01*
X132924846Y-112536024D01*
X132910430Y-112551930D01*
X132894524Y-112566346D01*
X132877281Y-112579134D01*
X132858868Y-112590170D01*
X132839462Y-112599349D01*
X132819250Y-112606581D01*
X132798426Y-112611797D01*
X132777191Y-112614947D01*
X132755750Y-112616000D01*
X132318250Y-112616000D01*
X132296809Y-112614947D01*
X132275574Y-112611797D01*
X132254750Y-112606581D01*
X132234538Y-112599349D01*
X132215132Y-112590170D01*
X132196719Y-112579134D01*
X132179476Y-112566346D01*
X132163570Y-112551930D01*
X132149154Y-112536024D01*
X132136366Y-112518781D01*
X132125330Y-112500368D01*
X132116151Y-112480962D01*
X132108919Y-112460750D01*
X132103703Y-112439926D01*
X132100553Y-112418691D01*
X132099500Y-112397250D01*
X132099500Y-111884750D01*
X132100553Y-111863309D01*
X132103703Y-111842074D01*
X132108919Y-111821250D01*
X132116151Y-111801038D01*
X132125330Y-111781632D01*
X132136366Y-111763219D01*
X132149154Y-111745976D01*
X132163570Y-111730070D01*
X132179476Y-111715654D01*
X132196719Y-111702866D01*
X132215132Y-111691830D01*
X132234538Y-111682651D01*
X132254750Y-111675419D01*
X132275574Y-111670203D01*
X132296809Y-111667053D01*
X132318250Y-111666000D01*
X132755750Y-111666000D01*
X132777191Y-111667053D01*
X132777191Y-111667053D01*
G37*
D13*
X132537000Y-112141000D03*
G04 #@! TD*
M02*
