G04 #@! TF.GenerationSoftware,KiCad,Pcbnew,(5.0.1)-rc2*
G04 #@! TF.CreationDate,2018-12-27T01:27:39+01:00*
G04 #@! TF.ProjectId,IoP_plant_base,496F505F706C616E745F626173652E6B,rev?*
G04 #@! TF.SameCoordinates,Original*
G04 #@! TF.FileFunction,Soldermask,Top*
G04 #@! TF.FilePolarity,Negative*
%FSLAX46Y46*%
G04 Gerber Fmt 4.6, Leading zero omitted, Abs format (unit mm)*
G04 Created by KiCad (PCBNEW (5.0.1)-rc2) date 2018/12/27 1:27:39*
%MOMM*%
%LPD*%
G01*
G04 APERTURE LIST*
%ADD10C,0.100000*%
G04 APERTURE END LIST*
D10*
G36*
X120381627Y-120856576D02*
X120457028Y-120879449D01*
X120532429Y-120902321D01*
X120671408Y-120976608D01*
X120793222Y-121076578D01*
X120893192Y-121198392D01*
X120967479Y-121337371D01*
X121013224Y-121488174D01*
X121024800Y-121605705D01*
X121024800Y-122234295D01*
X121013224Y-122351826D01*
X120967479Y-122502629D01*
X120893192Y-122641608D01*
X120793225Y-122763419D01*
X120793223Y-122763420D01*
X120793222Y-122763422D01*
X120707210Y-122834009D01*
X120671404Y-122863394D01*
X120532428Y-122937679D01*
X120457027Y-122960551D01*
X120381626Y-122983424D01*
X120224800Y-122998870D01*
X120067973Y-122983424D01*
X119992572Y-122960551D01*
X119917171Y-122937679D01*
X119778192Y-122863392D01*
X119656381Y-122763425D01*
X119656380Y-122763423D01*
X119656378Y-122763422D01*
X119556407Y-122641605D01*
X119556406Y-122641604D01*
X119482121Y-122502628D01*
X119459249Y-122427227D01*
X119436376Y-122351826D01*
X119424800Y-122234292D01*
X119424800Y-121605707D01*
X119436376Y-121488173D01*
X119482121Y-121337372D01*
X119482121Y-121337371D01*
X119556408Y-121198392D01*
X119656379Y-121076578D01*
X119778193Y-120976608D01*
X119917172Y-120902321D01*
X119992573Y-120879449D01*
X120067974Y-120856576D01*
X120224800Y-120841130D01*
X120381627Y-120856576D01*
X120381627Y-120856576D01*
G37*
G36*
X111313827Y-120856576D02*
X111389228Y-120879449D01*
X111464629Y-120902321D01*
X111603608Y-120976608D01*
X111725422Y-121076578D01*
X111825392Y-121198392D01*
X111899679Y-121337371D01*
X111945424Y-121488174D01*
X111957000Y-121605705D01*
X111957000Y-122234295D01*
X111945424Y-122351826D01*
X111899679Y-122502629D01*
X111825392Y-122641608D01*
X111725425Y-122763419D01*
X111725423Y-122763420D01*
X111725422Y-122763422D01*
X111639410Y-122834009D01*
X111603604Y-122863394D01*
X111464628Y-122937679D01*
X111389227Y-122960551D01*
X111313826Y-122983424D01*
X111157000Y-122998870D01*
X111000173Y-122983424D01*
X110924772Y-122960551D01*
X110849371Y-122937679D01*
X110710392Y-122863392D01*
X110588581Y-122763425D01*
X110588580Y-122763423D01*
X110588578Y-122763422D01*
X110488607Y-122641605D01*
X110488606Y-122641604D01*
X110414321Y-122502628D01*
X110391449Y-122427227D01*
X110368576Y-122351826D01*
X110357000Y-122234292D01*
X110357000Y-121605707D01*
X110368576Y-121488173D01*
X110414321Y-121337372D01*
X110414321Y-121337371D01*
X110488608Y-121198392D01*
X110588579Y-121076578D01*
X110710393Y-120976608D01*
X110849372Y-120902321D01*
X110924773Y-120879449D01*
X111000174Y-120856576D01*
X111157000Y-120841130D01*
X111313827Y-120856576D01*
X111313827Y-120856576D01*
G37*
G36*
X109313827Y-120856576D02*
X109389228Y-120879449D01*
X109464629Y-120902321D01*
X109603608Y-120976608D01*
X109725422Y-121076578D01*
X109825392Y-121198392D01*
X109899679Y-121337371D01*
X109945424Y-121488174D01*
X109957000Y-121605705D01*
X109957000Y-122234295D01*
X109945424Y-122351826D01*
X109899679Y-122502629D01*
X109825392Y-122641608D01*
X109725425Y-122763419D01*
X109725423Y-122763420D01*
X109725422Y-122763422D01*
X109639410Y-122834009D01*
X109603604Y-122863394D01*
X109464628Y-122937679D01*
X109389227Y-122960551D01*
X109313826Y-122983424D01*
X109157000Y-122998870D01*
X109000173Y-122983424D01*
X108924772Y-122960551D01*
X108849371Y-122937679D01*
X108710392Y-122863392D01*
X108588581Y-122763425D01*
X108588580Y-122763423D01*
X108588578Y-122763422D01*
X108488607Y-122641605D01*
X108488606Y-122641604D01*
X108414321Y-122502628D01*
X108391449Y-122427227D01*
X108368576Y-122351826D01*
X108357000Y-122234292D01*
X108357000Y-121605707D01*
X108368576Y-121488173D01*
X108414321Y-121337372D01*
X108414321Y-121337371D01*
X108488608Y-121198392D01*
X108588579Y-121076578D01*
X108710393Y-120976608D01*
X108849372Y-120902321D01*
X108924773Y-120879449D01*
X109000174Y-120856576D01*
X109157000Y-120841130D01*
X109313827Y-120856576D01*
X109313827Y-120856576D01*
G37*
G36*
X135570827Y-120856576D02*
X135646228Y-120879449D01*
X135721629Y-120902321D01*
X135860608Y-120976608D01*
X135982422Y-121076578D01*
X136082392Y-121198392D01*
X136156679Y-121337371D01*
X136202424Y-121488174D01*
X136214000Y-121605705D01*
X136214000Y-122234295D01*
X136202424Y-122351826D01*
X136156679Y-122502629D01*
X136082392Y-122641608D01*
X135982425Y-122763419D01*
X135982423Y-122763420D01*
X135982422Y-122763422D01*
X135896410Y-122834009D01*
X135860604Y-122863394D01*
X135721628Y-122937679D01*
X135646226Y-122960552D01*
X135570826Y-122983424D01*
X135414000Y-122998870D01*
X135257173Y-122983424D01*
X135181772Y-122960551D01*
X135106371Y-122937679D01*
X134967392Y-122863392D01*
X134845581Y-122763425D01*
X134845580Y-122763423D01*
X134845578Y-122763422D01*
X134745607Y-122641605D01*
X134745606Y-122641604D01*
X134671321Y-122502628D01*
X134648449Y-122427227D01*
X134625576Y-122351826D01*
X134614000Y-122234292D01*
X134614000Y-121605707D01*
X134625576Y-121488173D01*
X134671321Y-121337372D01*
X134671321Y-121337371D01*
X134745608Y-121198392D01*
X134845579Y-121076578D01*
X134967393Y-120976608D01*
X135106372Y-120902321D01*
X135181773Y-120879449D01*
X135257174Y-120856576D01*
X135414000Y-120841130D01*
X135570827Y-120856576D01*
X135570827Y-120856576D01*
G37*
G36*
X131570827Y-120856576D02*
X131646228Y-120879449D01*
X131721629Y-120902321D01*
X131860608Y-120976608D01*
X131982422Y-121076578D01*
X132082392Y-121198392D01*
X132156679Y-121337371D01*
X132202424Y-121488174D01*
X132214000Y-121605705D01*
X132214000Y-122234295D01*
X132202424Y-122351826D01*
X132156679Y-122502629D01*
X132082392Y-122641608D01*
X131982425Y-122763419D01*
X131982423Y-122763420D01*
X131982422Y-122763422D01*
X131896410Y-122834009D01*
X131860604Y-122863394D01*
X131721628Y-122937679D01*
X131646226Y-122960552D01*
X131570826Y-122983424D01*
X131414000Y-122998870D01*
X131257173Y-122983424D01*
X131181772Y-122960551D01*
X131106371Y-122937679D01*
X130967392Y-122863392D01*
X130845581Y-122763425D01*
X130845580Y-122763423D01*
X130845578Y-122763422D01*
X130745607Y-122641605D01*
X130745606Y-122641604D01*
X130671321Y-122502628D01*
X130648449Y-122427227D01*
X130625576Y-122351826D01*
X130614000Y-122234292D01*
X130614000Y-121605707D01*
X130625576Y-121488173D01*
X130671321Y-121337372D01*
X130671321Y-121337371D01*
X130745608Y-121198392D01*
X130845579Y-121076578D01*
X130967393Y-120976608D01*
X131106372Y-120902321D01*
X131181773Y-120879449D01*
X131257174Y-120856576D01*
X131414000Y-120841130D01*
X131570827Y-120856576D01*
X131570827Y-120856576D01*
G37*
G36*
X133570827Y-120856576D02*
X133646228Y-120879449D01*
X133721629Y-120902321D01*
X133860608Y-120976608D01*
X133982422Y-121076578D01*
X134082392Y-121198392D01*
X134156679Y-121337371D01*
X134202424Y-121488174D01*
X134214000Y-121605705D01*
X134214000Y-122234295D01*
X134202424Y-122351826D01*
X134156679Y-122502629D01*
X134082392Y-122641608D01*
X133982425Y-122763419D01*
X133982423Y-122763420D01*
X133982422Y-122763422D01*
X133896410Y-122834009D01*
X133860604Y-122863394D01*
X133721628Y-122937679D01*
X133646226Y-122960552D01*
X133570826Y-122983424D01*
X133414000Y-122998870D01*
X133257173Y-122983424D01*
X133181772Y-122960551D01*
X133106371Y-122937679D01*
X132967392Y-122863392D01*
X132845581Y-122763425D01*
X132845580Y-122763423D01*
X132845578Y-122763422D01*
X132745607Y-122641605D01*
X132745606Y-122641604D01*
X132671321Y-122502628D01*
X132648449Y-122427227D01*
X132625576Y-122351826D01*
X132614000Y-122234292D01*
X132614000Y-121605707D01*
X132625576Y-121488173D01*
X132671321Y-121337372D01*
X132671321Y-121337371D01*
X132745608Y-121198392D01*
X132845579Y-121076578D01*
X132967393Y-120976608D01*
X133106372Y-120902321D01*
X133181773Y-120879449D01*
X133257174Y-120856576D01*
X133414000Y-120841130D01*
X133570827Y-120856576D01*
X133570827Y-120856576D01*
G37*
G36*
X129570827Y-120856576D02*
X129646228Y-120879449D01*
X129721629Y-120902321D01*
X129860608Y-120976608D01*
X129982422Y-121076578D01*
X130082392Y-121198392D01*
X130156679Y-121337371D01*
X130202424Y-121488174D01*
X130214000Y-121605705D01*
X130214000Y-122234295D01*
X130202424Y-122351826D01*
X130156679Y-122502629D01*
X130082392Y-122641608D01*
X129982425Y-122763419D01*
X129982423Y-122763420D01*
X129982422Y-122763422D01*
X129896410Y-122834009D01*
X129860604Y-122863394D01*
X129721628Y-122937679D01*
X129646227Y-122960551D01*
X129570826Y-122983424D01*
X129414000Y-122998870D01*
X129257173Y-122983424D01*
X129181772Y-122960551D01*
X129106371Y-122937679D01*
X128967392Y-122863392D01*
X128845581Y-122763425D01*
X128845580Y-122763423D01*
X128845578Y-122763422D01*
X128745607Y-122641605D01*
X128745606Y-122641604D01*
X128671321Y-122502628D01*
X128648449Y-122427227D01*
X128625576Y-122351826D01*
X128614000Y-122234292D01*
X128614000Y-121605707D01*
X128625576Y-121488173D01*
X128671321Y-121337372D01*
X128671321Y-121337371D01*
X128745608Y-121198392D01*
X128845579Y-121076578D01*
X128967393Y-120976608D01*
X129106372Y-120902321D01*
X129181773Y-120879449D01*
X129257174Y-120856576D01*
X129414000Y-120841130D01*
X129570827Y-120856576D01*
X129570827Y-120856576D01*
G37*
G36*
X113747269Y-120850597D02*
X113796009Y-120865382D01*
X113840931Y-120889393D01*
X113880298Y-120921702D01*
X113912607Y-120961069D01*
X113936618Y-121005991D01*
X113951403Y-121054731D01*
X113957000Y-121111557D01*
X113957000Y-122728443D01*
X113951403Y-122785269D01*
X113936618Y-122834009D01*
X113912607Y-122878931D01*
X113880298Y-122918298D01*
X113840931Y-122950607D01*
X113796009Y-122974618D01*
X113747269Y-122989403D01*
X113690443Y-122995000D01*
X112623557Y-122995000D01*
X112566731Y-122989403D01*
X112517991Y-122974618D01*
X112473069Y-122950607D01*
X112433702Y-122918298D01*
X112401393Y-122878931D01*
X112377382Y-122834009D01*
X112362597Y-122785269D01*
X112357000Y-122728443D01*
X112357000Y-121111557D01*
X112362597Y-121054731D01*
X112377382Y-121005991D01*
X112401393Y-120961069D01*
X112433702Y-120921702D01*
X112473069Y-120889393D01*
X112517991Y-120865382D01*
X112566731Y-120850597D01*
X112623557Y-120845000D01*
X113690443Y-120845000D01*
X113747269Y-120850597D01*
X113747269Y-120850597D01*
G37*
G36*
X122815069Y-120850597D02*
X122863809Y-120865382D01*
X122908731Y-120889393D01*
X122948098Y-120921702D01*
X122980407Y-120961069D01*
X123004418Y-121005991D01*
X123019203Y-121054731D01*
X123024800Y-121111557D01*
X123024800Y-122728443D01*
X123019203Y-122785269D01*
X123004418Y-122834009D01*
X122980407Y-122878931D01*
X122948098Y-122918298D01*
X122908731Y-122950607D01*
X122863809Y-122974618D01*
X122815069Y-122989403D01*
X122758243Y-122995000D01*
X121691357Y-122995000D01*
X121634531Y-122989403D01*
X121585791Y-122974618D01*
X121540869Y-122950607D01*
X121501502Y-122918298D01*
X121469193Y-122878931D01*
X121445182Y-122834009D01*
X121430397Y-122785269D01*
X121424800Y-122728443D01*
X121424800Y-121111557D01*
X121430397Y-121054731D01*
X121445182Y-121005991D01*
X121469193Y-120961069D01*
X121501502Y-120921702D01*
X121540869Y-120889393D01*
X121585791Y-120865382D01*
X121634531Y-120850597D01*
X121691357Y-120845000D01*
X122758243Y-120845000D01*
X122815069Y-120850597D01*
X122815069Y-120850597D01*
G37*
G36*
X138004269Y-120850597D02*
X138053009Y-120865382D01*
X138097931Y-120889393D01*
X138137298Y-120921702D01*
X138169607Y-120961069D01*
X138193618Y-121005991D01*
X138208403Y-121054731D01*
X138214000Y-121111557D01*
X138214000Y-122728443D01*
X138208403Y-122785269D01*
X138193618Y-122834009D01*
X138169607Y-122878931D01*
X138137298Y-122918298D01*
X138097931Y-122950607D01*
X138053009Y-122974618D01*
X138004269Y-122989403D01*
X137947443Y-122995000D01*
X136880557Y-122995000D01*
X136823731Y-122989403D01*
X136774991Y-122974618D01*
X136730069Y-122950607D01*
X136690702Y-122918298D01*
X136658393Y-122878931D01*
X136634382Y-122834009D01*
X136619597Y-122785269D01*
X136614000Y-122728443D01*
X136614000Y-121111557D01*
X136619597Y-121054731D01*
X136634382Y-121005991D01*
X136658393Y-120961069D01*
X136690702Y-120921702D01*
X136730069Y-120889393D01*
X136774991Y-120865382D01*
X136823731Y-120850597D01*
X136880557Y-120845000D01*
X137947443Y-120845000D01*
X138004269Y-120850597D01*
X138004269Y-120850597D01*
G37*
G36*
X101125202Y-119393955D02*
X101241121Y-119417013D01*
X101472754Y-119512959D01*
X101519644Y-119532381D01*
X101568700Y-119552701D01*
X101833102Y-119729369D01*
X101863516Y-119749691D01*
X102114229Y-120000404D01*
X102114231Y-120000407D01*
X102311219Y-120295220D01*
X102438491Y-120602480D01*
X102446907Y-120622800D01*
X102516080Y-120970554D01*
X102516080Y-121325126D01*
X102446907Y-121672880D01*
X102311220Y-122000458D01*
X102114229Y-122295276D01*
X101863516Y-122545989D01*
X101863513Y-122545991D01*
X101568700Y-122742979D01*
X101568699Y-122742980D01*
X101568698Y-122742980D01*
X101519339Y-122763425D01*
X101241121Y-122878667D01*
X101147099Y-122897369D01*
X100893366Y-122947840D01*
X100538794Y-122947840D01*
X100285061Y-122897369D01*
X100191039Y-122878667D01*
X99912821Y-122763425D01*
X99863462Y-122742980D01*
X99863461Y-122742980D01*
X99863460Y-122742979D01*
X99568647Y-122545991D01*
X99568644Y-122545989D01*
X99317931Y-122295276D01*
X99120940Y-122000458D01*
X98985253Y-121672880D01*
X98916080Y-121325126D01*
X98916080Y-120970554D01*
X98985253Y-120622800D01*
X98993670Y-120602480D01*
X99120941Y-120295220D01*
X99317929Y-120000407D01*
X99317931Y-120000404D01*
X99568644Y-119749691D01*
X99599058Y-119729369D01*
X99863460Y-119552701D01*
X99912517Y-119532381D01*
X99959406Y-119512959D01*
X100191039Y-119417013D01*
X100306958Y-119393955D01*
X100538794Y-119347840D01*
X100893366Y-119347840D01*
X101125202Y-119393955D01*
X101125202Y-119393955D01*
G37*
G36*
X146586122Y-119373635D02*
X146702041Y-119396693D01*
X147029620Y-119532381D01*
X147060029Y-119552700D01*
X147324436Y-119729371D01*
X147575149Y-119980084D01*
X147772140Y-120274902D01*
X147907827Y-120602480D01*
X147975488Y-120942631D01*
X147977000Y-120950236D01*
X147977000Y-121304804D01*
X147907827Y-121652561D01*
X147772139Y-121980140D01*
X147602318Y-122234295D01*
X147575149Y-122274956D01*
X147324436Y-122525669D01*
X147324433Y-122525671D01*
X147029620Y-122722659D01*
X147029619Y-122722660D01*
X147029618Y-122722660D01*
X146980561Y-122742980D01*
X146702041Y-122858347D01*
X146599885Y-122878667D01*
X146354286Y-122927520D01*
X145999714Y-122927520D01*
X145754115Y-122878667D01*
X145651959Y-122858347D01*
X145373439Y-122742980D01*
X145324382Y-122722660D01*
X145324381Y-122722660D01*
X145324380Y-122722659D01*
X145029567Y-122525671D01*
X145029564Y-122525669D01*
X144778851Y-122274956D01*
X144751682Y-122234295D01*
X144581861Y-121980140D01*
X144446173Y-121652561D01*
X144377000Y-121304804D01*
X144377000Y-120950236D01*
X144378513Y-120942631D01*
X144446173Y-120602480D01*
X144581860Y-120274902D01*
X144778851Y-119980084D01*
X145029564Y-119729371D01*
X145293971Y-119552700D01*
X145324380Y-119532381D01*
X145651959Y-119396693D01*
X145767878Y-119373635D01*
X145999714Y-119327520D01*
X146354286Y-119327520D01*
X146586122Y-119373635D01*
X146586122Y-119373635D01*
G37*
G36*
X141894901Y-115561044D02*
X142051542Y-115608561D01*
X142195902Y-115685723D01*
X142322435Y-115789566D01*
X142426278Y-115916099D01*
X142503440Y-116060459D01*
X142550957Y-116217100D01*
X142567001Y-116380000D01*
X142567001Y-117142000D01*
X142550957Y-117304900D01*
X142503440Y-117461541D01*
X142426278Y-117605901D01*
X142322435Y-117732434D01*
X142195902Y-117836277D01*
X142051542Y-117913439D01*
X141894901Y-117960956D01*
X141732001Y-117977000D01*
X141731999Y-117977000D01*
X141569099Y-117960956D01*
X141412458Y-117913439D01*
X141268098Y-117836277D01*
X141141565Y-117732434D01*
X141037722Y-117605901D01*
X140960560Y-117461541D01*
X140913043Y-117304900D01*
X140896999Y-117142000D01*
X140896999Y-116380000D01*
X140913043Y-116217100D01*
X140960560Y-116060459D01*
X141037722Y-115916099D01*
X141141565Y-115789566D01*
X141268098Y-115685723D01*
X141412458Y-115608561D01*
X141569099Y-115561044D01*
X141731999Y-115545000D01*
X141732001Y-115545000D01*
X141894901Y-115561044D01*
X141894901Y-115561044D01*
G37*
G36*
X124114901Y-115561044D02*
X124271542Y-115608561D01*
X124415902Y-115685723D01*
X124542435Y-115789566D01*
X124646278Y-115916099D01*
X124723440Y-116060459D01*
X124770957Y-116217100D01*
X124787001Y-116380000D01*
X124787001Y-117142000D01*
X124770957Y-117304900D01*
X124723440Y-117461541D01*
X124646278Y-117605901D01*
X124542435Y-117732434D01*
X124415902Y-117836277D01*
X124271542Y-117913439D01*
X124114901Y-117960956D01*
X123952001Y-117977000D01*
X123951999Y-117977000D01*
X123789099Y-117960956D01*
X123632458Y-117913439D01*
X123488098Y-117836277D01*
X123361565Y-117732434D01*
X123257722Y-117605901D01*
X123180560Y-117461541D01*
X123133043Y-117304900D01*
X123116999Y-117142000D01*
X123116999Y-116380000D01*
X123133043Y-116217100D01*
X123180560Y-116060459D01*
X123257722Y-115916099D01*
X123361565Y-115789566D01*
X123488098Y-115685723D01*
X123632458Y-115608561D01*
X123789099Y-115561044D01*
X123951999Y-115545000D01*
X123952001Y-115545000D01*
X124114901Y-115561044D01*
X124114901Y-115561044D01*
G37*
G36*
X139354901Y-115561044D02*
X139511542Y-115608561D01*
X139655902Y-115685723D01*
X139782435Y-115789566D01*
X139886278Y-115916099D01*
X139963440Y-116060459D01*
X140010957Y-116217100D01*
X140027001Y-116380000D01*
X140027001Y-117142000D01*
X140010957Y-117304900D01*
X139963440Y-117461541D01*
X139886278Y-117605901D01*
X139782435Y-117732434D01*
X139655902Y-117836277D01*
X139511542Y-117913439D01*
X139354901Y-117960956D01*
X139192001Y-117977000D01*
X139191999Y-117977000D01*
X139029099Y-117960956D01*
X138872458Y-117913439D01*
X138728098Y-117836277D01*
X138601565Y-117732434D01*
X138497722Y-117605901D01*
X138420560Y-117461541D01*
X138373043Y-117304900D01*
X138356999Y-117142000D01*
X138356999Y-116380000D01*
X138373043Y-116217100D01*
X138420560Y-116060459D01*
X138497722Y-115916099D01*
X138601565Y-115789566D01*
X138728098Y-115685723D01*
X138872458Y-115608561D01*
X139029099Y-115561044D01*
X139191999Y-115545000D01*
X139192001Y-115545000D01*
X139354901Y-115561044D01*
X139354901Y-115561044D01*
G37*
G36*
X136814901Y-115561044D02*
X136971542Y-115608561D01*
X137115902Y-115685723D01*
X137242435Y-115789566D01*
X137346278Y-115916099D01*
X137423440Y-116060459D01*
X137470957Y-116217100D01*
X137487001Y-116380000D01*
X137487001Y-117142000D01*
X137470957Y-117304900D01*
X137423440Y-117461541D01*
X137346278Y-117605901D01*
X137242435Y-117732434D01*
X137115902Y-117836277D01*
X136971542Y-117913439D01*
X136814901Y-117960956D01*
X136652001Y-117977000D01*
X136651999Y-117977000D01*
X136489099Y-117960956D01*
X136332458Y-117913439D01*
X136188098Y-117836277D01*
X136061565Y-117732434D01*
X135957722Y-117605901D01*
X135880560Y-117461541D01*
X135833043Y-117304900D01*
X135816999Y-117142000D01*
X135816999Y-116380000D01*
X135833043Y-116217100D01*
X135880560Y-116060459D01*
X135957722Y-115916099D01*
X136061565Y-115789566D01*
X136188098Y-115685723D01*
X136332458Y-115608561D01*
X136489099Y-115561044D01*
X136651999Y-115545000D01*
X136652001Y-115545000D01*
X136814901Y-115561044D01*
X136814901Y-115561044D01*
G37*
G36*
X134274901Y-115561044D02*
X134431542Y-115608561D01*
X134575902Y-115685723D01*
X134702435Y-115789566D01*
X134806278Y-115916099D01*
X134883440Y-116060459D01*
X134930957Y-116217100D01*
X134947001Y-116380000D01*
X134947001Y-117142000D01*
X134930957Y-117304900D01*
X134883440Y-117461541D01*
X134806278Y-117605901D01*
X134702435Y-117732434D01*
X134575902Y-117836277D01*
X134431542Y-117913439D01*
X134274901Y-117960956D01*
X134112001Y-117977000D01*
X134111999Y-117977000D01*
X133949099Y-117960956D01*
X133792458Y-117913439D01*
X133648098Y-117836277D01*
X133521565Y-117732434D01*
X133417722Y-117605901D01*
X133340560Y-117461541D01*
X133293043Y-117304900D01*
X133276999Y-117142000D01*
X133276999Y-116380000D01*
X133293043Y-116217100D01*
X133340560Y-116060459D01*
X133417722Y-115916099D01*
X133521565Y-115789566D01*
X133648098Y-115685723D01*
X133792458Y-115608561D01*
X133949099Y-115561044D01*
X134111999Y-115545000D01*
X134112001Y-115545000D01*
X134274901Y-115561044D01*
X134274901Y-115561044D01*
G37*
G36*
X131734901Y-115561044D02*
X131891542Y-115608561D01*
X132035902Y-115685723D01*
X132162435Y-115789566D01*
X132266278Y-115916099D01*
X132343440Y-116060459D01*
X132390957Y-116217100D01*
X132407001Y-116380000D01*
X132407001Y-117142000D01*
X132390957Y-117304900D01*
X132343440Y-117461541D01*
X132266278Y-117605901D01*
X132162435Y-117732434D01*
X132035902Y-117836277D01*
X131891542Y-117913439D01*
X131734901Y-117960956D01*
X131572001Y-117977000D01*
X131571999Y-117977000D01*
X131409099Y-117960956D01*
X131252458Y-117913439D01*
X131108098Y-117836277D01*
X130981565Y-117732434D01*
X130877722Y-117605901D01*
X130800560Y-117461541D01*
X130753043Y-117304900D01*
X130736999Y-117142000D01*
X130736999Y-116380000D01*
X130753043Y-116217100D01*
X130800560Y-116060459D01*
X130877722Y-115916099D01*
X130981565Y-115789566D01*
X131108098Y-115685723D01*
X131252458Y-115608561D01*
X131409099Y-115561044D01*
X131571999Y-115545000D01*
X131572001Y-115545000D01*
X131734901Y-115561044D01*
X131734901Y-115561044D01*
G37*
G36*
X129194901Y-115561044D02*
X129351542Y-115608561D01*
X129495902Y-115685723D01*
X129622435Y-115789566D01*
X129726278Y-115916099D01*
X129803440Y-116060459D01*
X129850957Y-116217100D01*
X129867001Y-116380000D01*
X129867001Y-117142000D01*
X129850957Y-117304900D01*
X129803440Y-117461541D01*
X129726278Y-117605901D01*
X129622435Y-117732434D01*
X129495902Y-117836277D01*
X129351542Y-117913439D01*
X129194901Y-117960956D01*
X129032001Y-117977000D01*
X129031999Y-117977000D01*
X128869099Y-117960956D01*
X128712458Y-117913439D01*
X128568098Y-117836277D01*
X128441565Y-117732434D01*
X128337722Y-117605901D01*
X128260560Y-117461541D01*
X128213043Y-117304900D01*
X128196999Y-117142000D01*
X128196999Y-116380000D01*
X128213043Y-116217100D01*
X128260560Y-116060459D01*
X128337722Y-115916099D01*
X128441565Y-115789566D01*
X128568098Y-115685723D01*
X128712458Y-115608561D01*
X128869099Y-115561044D01*
X129031999Y-115545000D01*
X129032001Y-115545000D01*
X129194901Y-115561044D01*
X129194901Y-115561044D01*
G37*
G36*
X121574901Y-115561044D02*
X121731542Y-115608561D01*
X121875902Y-115685723D01*
X122002435Y-115789566D01*
X122106278Y-115916099D01*
X122183440Y-116060459D01*
X122230957Y-116217100D01*
X122247001Y-116380000D01*
X122247001Y-117142000D01*
X122230957Y-117304900D01*
X122183440Y-117461541D01*
X122106278Y-117605901D01*
X122002435Y-117732434D01*
X121875902Y-117836277D01*
X121731542Y-117913439D01*
X121574901Y-117960956D01*
X121412001Y-117977000D01*
X121411999Y-117977000D01*
X121249099Y-117960956D01*
X121092458Y-117913439D01*
X120948098Y-117836277D01*
X120821565Y-117732434D01*
X120717722Y-117605901D01*
X120640560Y-117461541D01*
X120593043Y-117304900D01*
X120576999Y-117142000D01*
X120576999Y-116380000D01*
X120593043Y-116217100D01*
X120640560Y-116060459D01*
X120717722Y-115916099D01*
X120821565Y-115789566D01*
X120948098Y-115685723D01*
X121092458Y-115608561D01*
X121249099Y-115561044D01*
X121411999Y-115545000D01*
X121412001Y-115545000D01*
X121574901Y-115561044D01*
X121574901Y-115561044D01*
G37*
G36*
X119034901Y-115561044D02*
X119191542Y-115608561D01*
X119335902Y-115685723D01*
X119462435Y-115789566D01*
X119566278Y-115916099D01*
X119643440Y-116060459D01*
X119690957Y-116217100D01*
X119707001Y-116380000D01*
X119707001Y-117142000D01*
X119690957Y-117304900D01*
X119643440Y-117461541D01*
X119566278Y-117605901D01*
X119462435Y-117732434D01*
X119335902Y-117836277D01*
X119191542Y-117913439D01*
X119034901Y-117960956D01*
X118872001Y-117977000D01*
X118871999Y-117977000D01*
X118709099Y-117960956D01*
X118552458Y-117913439D01*
X118408098Y-117836277D01*
X118281565Y-117732434D01*
X118177722Y-117605901D01*
X118100560Y-117461541D01*
X118053043Y-117304900D01*
X118036999Y-117142000D01*
X118036999Y-116380000D01*
X118053043Y-116217100D01*
X118100560Y-116060459D01*
X118177722Y-115916099D01*
X118281565Y-115789566D01*
X118408098Y-115685723D01*
X118552458Y-115608561D01*
X118709099Y-115561044D01*
X118871999Y-115545000D01*
X118872001Y-115545000D01*
X119034901Y-115561044D01*
X119034901Y-115561044D01*
G37*
G36*
X116494901Y-115561044D02*
X116651542Y-115608561D01*
X116795902Y-115685723D01*
X116922435Y-115789566D01*
X117026278Y-115916099D01*
X117103440Y-116060459D01*
X117150957Y-116217100D01*
X117167001Y-116380000D01*
X117167001Y-117142000D01*
X117150957Y-117304900D01*
X117103440Y-117461541D01*
X117026278Y-117605901D01*
X116922435Y-117732434D01*
X116795902Y-117836277D01*
X116651542Y-117913439D01*
X116494901Y-117960956D01*
X116332001Y-117977000D01*
X116331999Y-117977000D01*
X116169099Y-117960956D01*
X116012458Y-117913439D01*
X115868098Y-117836277D01*
X115741565Y-117732434D01*
X115637722Y-117605901D01*
X115560560Y-117461541D01*
X115513043Y-117304900D01*
X115496999Y-117142000D01*
X115496999Y-116380000D01*
X115513043Y-116217100D01*
X115560560Y-116060459D01*
X115637722Y-115916099D01*
X115741565Y-115789566D01*
X115868098Y-115685723D01*
X116012458Y-115608561D01*
X116169099Y-115561044D01*
X116331999Y-115545000D01*
X116332001Y-115545000D01*
X116494901Y-115561044D01*
X116494901Y-115561044D01*
G37*
G36*
X113954901Y-115561044D02*
X114111542Y-115608561D01*
X114255902Y-115685723D01*
X114382435Y-115789566D01*
X114486278Y-115916099D01*
X114563440Y-116060459D01*
X114610957Y-116217100D01*
X114627001Y-116380000D01*
X114627001Y-117142000D01*
X114610957Y-117304900D01*
X114563440Y-117461541D01*
X114486278Y-117605901D01*
X114382435Y-117732434D01*
X114255902Y-117836277D01*
X114111542Y-117913439D01*
X113954901Y-117960956D01*
X113792001Y-117977000D01*
X113791999Y-117977000D01*
X113629099Y-117960956D01*
X113472458Y-117913439D01*
X113328098Y-117836277D01*
X113201565Y-117732434D01*
X113097722Y-117605901D01*
X113020560Y-117461541D01*
X112973043Y-117304900D01*
X112956999Y-117142000D01*
X112956999Y-116380000D01*
X112973043Y-116217100D01*
X113020560Y-116060459D01*
X113097722Y-115916099D01*
X113201565Y-115789566D01*
X113328098Y-115685723D01*
X113472458Y-115608561D01*
X113629099Y-115561044D01*
X113791999Y-115545000D01*
X113792001Y-115545000D01*
X113954901Y-115561044D01*
X113954901Y-115561044D01*
G37*
G36*
X111414901Y-115561044D02*
X111571542Y-115608561D01*
X111715902Y-115685723D01*
X111842435Y-115789566D01*
X111946278Y-115916099D01*
X112023440Y-116060459D01*
X112070957Y-116217100D01*
X112087001Y-116380000D01*
X112087001Y-117142000D01*
X112070957Y-117304900D01*
X112023440Y-117461541D01*
X111946278Y-117605901D01*
X111842435Y-117732434D01*
X111715902Y-117836277D01*
X111571542Y-117913439D01*
X111414901Y-117960956D01*
X111252001Y-117977000D01*
X111251999Y-117977000D01*
X111089099Y-117960956D01*
X110932458Y-117913439D01*
X110788098Y-117836277D01*
X110661565Y-117732434D01*
X110557722Y-117605901D01*
X110480560Y-117461541D01*
X110433043Y-117304900D01*
X110416999Y-117142000D01*
X110416999Y-116380000D01*
X110433043Y-116217100D01*
X110480560Y-116060459D01*
X110557722Y-115916099D01*
X110661565Y-115789566D01*
X110788098Y-115685723D01*
X110932458Y-115608561D01*
X111089099Y-115561044D01*
X111251999Y-115545000D01*
X111252001Y-115545000D01*
X111414901Y-115561044D01*
X111414901Y-115561044D01*
G37*
G36*
X108874901Y-115561044D02*
X109031542Y-115608561D01*
X109175902Y-115685723D01*
X109302435Y-115789566D01*
X109406278Y-115916099D01*
X109483440Y-116060459D01*
X109530957Y-116217100D01*
X109547001Y-116380000D01*
X109547001Y-117142000D01*
X109530957Y-117304900D01*
X109483440Y-117461541D01*
X109406278Y-117605901D01*
X109302435Y-117732434D01*
X109175902Y-117836277D01*
X109031542Y-117913439D01*
X108874901Y-117960956D01*
X108712001Y-117977000D01*
X108711999Y-117977000D01*
X108549099Y-117960956D01*
X108392458Y-117913439D01*
X108248098Y-117836277D01*
X108121565Y-117732434D01*
X108017722Y-117605901D01*
X107940560Y-117461541D01*
X107893043Y-117304900D01*
X107876999Y-117142000D01*
X107876999Y-116380000D01*
X107893043Y-116217100D01*
X107940560Y-116060459D01*
X108017722Y-115916099D01*
X108121565Y-115789566D01*
X108248098Y-115685723D01*
X108392458Y-115608561D01*
X108549099Y-115561044D01*
X108711999Y-115545000D01*
X108712001Y-115545000D01*
X108874901Y-115561044D01*
X108874901Y-115561044D01*
G37*
G36*
X107007000Y-117977000D02*
X105337000Y-117977000D01*
X105337000Y-115545000D01*
X107007000Y-115545000D01*
X107007000Y-117977000D01*
X107007000Y-117977000D01*
G37*
G36*
X126654901Y-115561044D02*
X126811542Y-115608561D01*
X126955902Y-115685723D01*
X127082435Y-115789566D01*
X127186278Y-115916099D01*
X127263440Y-116060459D01*
X127310957Y-116217100D01*
X127327001Y-116380000D01*
X127327001Y-117142000D01*
X127310957Y-117304900D01*
X127263440Y-117461541D01*
X127186278Y-117605901D01*
X127082435Y-117732434D01*
X126955902Y-117836277D01*
X126811542Y-117913439D01*
X126654901Y-117960956D01*
X126492001Y-117977000D01*
X126491999Y-117977000D01*
X126329099Y-117960956D01*
X126172458Y-117913439D01*
X126028098Y-117836277D01*
X125901565Y-117732434D01*
X125797722Y-117605901D01*
X125720560Y-117461541D01*
X125673043Y-117304900D01*
X125656999Y-117142000D01*
X125656999Y-116380000D01*
X125673043Y-116217100D01*
X125720560Y-116060459D01*
X125797722Y-115916099D01*
X125901565Y-115789566D01*
X126028098Y-115685723D01*
X126172458Y-115608561D01*
X126329099Y-115561044D01*
X126491999Y-115545000D01*
X126492001Y-115545000D01*
X126654901Y-115561044D01*
X126654901Y-115561044D01*
G37*
G36*
X137083122Y-113630517D02*
X137131085Y-113645066D01*
X137175275Y-113668686D01*
X137214018Y-113700482D01*
X137245814Y-113739225D01*
X137269434Y-113783415D01*
X137283983Y-113831378D01*
X137289500Y-113887391D01*
X137289500Y-114712609D01*
X137283983Y-114768622D01*
X137269434Y-114816585D01*
X137245814Y-114860775D01*
X137214018Y-114899518D01*
X137175275Y-114931314D01*
X137131085Y-114954934D01*
X137083122Y-114969483D01*
X137027109Y-114975000D01*
X136276891Y-114975000D01*
X136220878Y-114969483D01*
X136172915Y-114954934D01*
X136128725Y-114931314D01*
X136089982Y-114899518D01*
X136058186Y-114860775D01*
X136034566Y-114816585D01*
X136020017Y-114768622D01*
X136014500Y-114712609D01*
X136014500Y-113887391D01*
X136020017Y-113831378D01*
X136034566Y-113783415D01*
X136058186Y-113739225D01*
X136089982Y-113700482D01*
X136128725Y-113668686D01*
X136172915Y-113645066D01*
X136220878Y-113630517D01*
X136276891Y-113625000D01*
X137027109Y-113625000D01*
X137083122Y-113630517D01*
X137083122Y-113630517D01*
G37*
G36*
X138658122Y-113630517D02*
X138706085Y-113645066D01*
X138750275Y-113668686D01*
X138789018Y-113700482D01*
X138820814Y-113739225D01*
X138844434Y-113783415D01*
X138858983Y-113831378D01*
X138864500Y-113887391D01*
X138864500Y-114712609D01*
X138858983Y-114768622D01*
X138844434Y-114816585D01*
X138820814Y-114860775D01*
X138789018Y-114899518D01*
X138750275Y-114931314D01*
X138706085Y-114954934D01*
X138658122Y-114969483D01*
X138602109Y-114975000D01*
X137851891Y-114975000D01*
X137795878Y-114969483D01*
X137747915Y-114954934D01*
X137703725Y-114931314D01*
X137664982Y-114899518D01*
X137633186Y-114860775D01*
X137609566Y-114816585D01*
X137595017Y-114768622D01*
X137589500Y-114712609D01*
X137589500Y-113887391D01*
X137595017Y-113831378D01*
X137609566Y-113783415D01*
X137633186Y-113739225D01*
X137664982Y-113700482D01*
X137703725Y-113668686D01*
X137747915Y-113645066D01*
X137795878Y-113630517D01*
X137851891Y-113625000D01*
X138602109Y-113625000D01*
X138658122Y-113630517D01*
X138658122Y-113630517D01*
G37*
G36*
X134543122Y-113630517D02*
X134591085Y-113645066D01*
X134635275Y-113668686D01*
X134674018Y-113700482D01*
X134705814Y-113739225D01*
X134729434Y-113783415D01*
X134743983Y-113831378D01*
X134749500Y-113887391D01*
X134749500Y-114712609D01*
X134743983Y-114768622D01*
X134729434Y-114816585D01*
X134705814Y-114860775D01*
X134674018Y-114899518D01*
X134635275Y-114931314D01*
X134591085Y-114954934D01*
X134543122Y-114969483D01*
X134487109Y-114975000D01*
X133736891Y-114975000D01*
X133680878Y-114969483D01*
X133632915Y-114954934D01*
X133588725Y-114931314D01*
X133549982Y-114899518D01*
X133518186Y-114860775D01*
X133494566Y-114816585D01*
X133480017Y-114768622D01*
X133474500Y-114712609D01*
X133474500Y-113887391D01*
X133480017Y-113831378D01*
X133494566Y-113783415D01*
X133518186Y-113739225D01*
X133549982Y-113700482D01*
X133588725Y-113668686D01*
X133632915Y-113645066D01*
X133680878Y-113630517D01*
X133736891Y-113625000D01*
X134487109Y-113625000D01*
X134543122Y-113630517D01*
X134543122Y-113630517D01*
G37*
G36*
X132968122Y-113630517D02*
X133016085Y-113645066D01*
X133060275Y-113668686D01*
X133099018Y-113700482D01*
X133130814Y-113739225D01*
X133154434Y-113783415D01*
X133168983Y-113831378D01*
X133174500Y-113887391D01*
X133174500Y-114712609D01*
X133168983Y-114768622D01*
X133154434Y-114816585D01*
X133130814Y-114860775D01*
X133099018Y-114899518D01*
X133060275Y-114931314D01*
X133016085Y-114954934D01*
X132968122Y-114969483D01*
X132912109Y-114975000D01*
X132161891Y-114975000D01*
X132105878Y-114969483D01*
X132057915Y-114954934D01*
X132013725Y-114931314D01*
X131974982Y-114899518D01*
X131943186Y-114860775D01*
X131919566Y-114816585D01*
X131905017Y-114768622D01*
X131899500Y-114712609D01*
X131899500Y-113887391D01*
X131905017Y-113831378D01*
X131919566Y-113783415D01*
X131943186Y-113739225D01*
X131974982Y-113700482D01*
X132013725Y-113668686D01*
X132057915Y-113645066D01*
X132105878Y-113630517D01*
X132161891Y-113625000D01*
X132912109Y-113625000D01*
X132968122Y-113630517D01*
X132968122Y-113630517D01*
G37*
G36*
X130457055Y-111660351D02*
X130503396Y-111674409D01*
X130546105Y-111697237D01*
X130583540Y-111727960D01*
X130614263Y-111765395D01*
X130637091Y-111808104D01*
X130651149Y-111854445D01*
X130656500Y-111908781D01*
X130656500Y-114151219D01*
X130651149Y-114205555D01*
X130637091Y-114251896D01*
X130614263Y-114294605D01*
X130583540Y-114332040D01*
X130546105Y-114362763D01*
X130503396Y-114385591D01*
X130457055Y-114399649D01*
X130402719Y-114405000D01*
X129185281Y-114405000D01*
X129130945Y-114399649D01*
X129084604Y-114385591D01*
X129041895Y-114362763D01*
X129004460Y-114332040D01*
X128973737Y-114294605D01*
X128950909Y-114251896D01*
X128936851Y-114205555D01*
X128931500Y-114151219D01*
X128931500Y-111908781D01*
X128936851Y-111854445D01*
X128950909Y-111808104D01*
X128973737Y-111765395D01*
X129004460Y-111727960D01*
X129041895Y-111697237D01*
X129084604Y-111674409D01*
X129130945Y-111660351D01*
X129185281Y-111655000D01*
X130402719Y-111655000D01*
X130457055Y-111660351D01*
X130457055Y-111660351D01*
G37*
G36*
X127382055Y-111660351D02*
X127428396Y-111674409D01*
X127471105Y-111697237D01*
X127508540Y-111727960D01*
X127539263Y-111765395D01*
X127562091Y-111808104D01*
X127576149Y-111854445D01*
X127581500Y-111908781D01*
X127581500Y-114151219D01*
X127576149Y-114205555D01*
X127562091Y-114251896D01*
X127539263Y-114294605D01*
X127508540Y-114332040D01*
X127471105Y-114362763D01*
X127428396Y-114385591D01*
X127382055Y-114399649D01*
X127327719Y-114405000D01*
X126110281Y-114405000D01*
X126055945Y-114399649D01*
X126009604Y-114385591D01*
X125966895Y-114362763D01*
X125929460Y-114332040D01*
X125898737Y-114294605D01*
X125875909Y-114251896D01*
X125861851Y-114205555D01*
X125856500Y-114151219D01*
X125856500Y-111908781D01*
X125861851Y-111854445D01*
X125875909Y-111808104D01*
X125898737Y-111765395D01*
X125929460Y-111727960D01*
X125966895Y-111697237D01*
X126009604Y-111674409D01*
X126055945Y-111660351D01*
X126110281Y-111655000D01*
X127327719Y-111655000D01*
X127382055Y-111660351D01*
X127382055Y-111660351D01*
G37*
G36*
X109180622Y-112652217D02*
X109228585Y-112666766D01*
X109272775Y-112690386D01*
X109311518Y-112722182D01*
X109343314Y-112760925D01*
X109366934Y-112805115D01*
X109381483Y-112853078D01*
X109387000Y-112909091D01*
X109387000Y-113659309D01*
X109381483Y-113715322D01*
X109366934Y-113763285D01*
X109343314Y-113807475D01*
X109311518Y-113846218D01*
X109272775Y-113878014D01*
X109228585Y-113901634D01*
X109180622Y-113916183D01*
X109124609Y-113921700D01*
X108299391Y-113921700D01*
X108243378Y-113916183D01*
X108195415Y-113901634D01*
X108151225Y-113878014D01*
X108112482Y-113846218D01*
X108080686Y-113807475D01*
X108057066Y-113763285D01*
X108042517Y-113715322D01*
X108037000Y-113659309D01*
X108037000Y-112909091D01*
X108042517Y-112853078D01*
X108057066Y-112805115D01*
X108080686Y-112760925D01*
X108112482Y-112722182D01*
X108151225Y-112690386D01*
X108195415Y-112666766D01*
X108243378Y-112652217D01*
X108299391Y-112646700D01*
X109124609Y-112646700D01*
X109180622Y-112652217D01*
X109180622Y-112652217D01*
G37*
G36*
X138658122Y-111471517D02*
X138706085Y-111486066D01*
X138750275Y-111509686D01*
X138789018Y-111541482D01*
X138820814Y-111580225D01*
X138844434Y-111624415D01*
X138858983Y-111672378D01*
X138864500Y-111728391D01*
X138864500Y-112553609D01*
X138858983Y-112609622D01*
X138844434Y-112657585D01*
X138820814Y-112701775D01*
X138789018Y-112740518D01*
X138750275Y-112772314D01*
X138706085Y-112795934D01*
X138658122Y-112810483D01*
X138602109Y-112816000D01*
X137851891Y-112816000D01*
X137795878Y-112810483D01*
X137747915Y-112795934D01*
X137703725Y-112772314D01*
X137664982Y-112740518D01*
X137633186Y-112701775D01*
X137609566Y-112657585D01*
X137595017Y-112609622D01*
X137589500Y-112553609D01*
X137589500Y-111728391D01*
X137595017Y-111672378D01*
X137609566Y-111624415D01*
X137633186Y-111580225D01*
X137664982Y-111541482D01*
X137703725Y-111509686D01*
X137747915Y-111486066D01*
X137795878Y-111471517D01*
X137851891Y-111466000D01*
X138602109Y-111466000D01*
X138658122Y-111471517D01*
X138658122Y-111471517D01*
G37*
G36*
X137083122Y-111471517D02*
X137131085Y-111486066D01*
X137175275Y-111509686D01*
X137214018Y-111541482D01*
X137245814Y-111580225D01*
X137269434Y-111624415D01*
X137283983Y-111672378D01*
X137289500Y-111728391D01*
X137289500Y-112553609D01*
X137283983Y-112609622D01*
X137269434Y-112657585D01*
X137245814Y-112701775D01*
X137214018Y-112740518D01*
X137175275Y-112772314D01*
X137131085Y-112795934D01*
X137083122Y-112810483D01*
X137027109Y-112816000D01*
X136276891Y-112816000D01*
X136220878Y-112810483D01*
X136172915Y-112795934D01*
X136128725Y-112772314D01*
X136089982Y-112740518D01*
X136058186Y-112701775D01*
X136034566Y-112657585D01*
X136020017Y-112609622D01*
X136014500Y-112553609D01*
X136014500Y-111728391D01*
X136020017Y-111672378D01*
X136034566Y-111624415D01*
X136058186Y-111580225D01*
X136089982Y-111541482D01*
X136128725Y-111509686D01*
X136172915Y-111486066D01*
X136220878Y-111471517D01*
X136276891Y-111466000D01*
X137027109Y-111466000D01*
X137083122Y-111471517D01*
X137083122Y-111471517D01*
G37*
G36*
X134543122Y-111471517D02*
X134591085Y-111486066D01*
X134635275Y-111509686D01*
X134674018Y-111541482D01*
X134705814Y-111580225D01*
X134729434Y-111624415D01*
X134743983Y-111672378D01*
X134749500Y-111728391D01*
X134749500Y-112553609D01*
X134743983Y-112609622D01*
X134729434Y-112657585D01*
X134705814Y-112701775D01*
X134674018Y-112740518D01*
X134635275Y-112772314D01*
X134591085Y-112795934D01*
X134543122Y-112810483D01*
X134487109Y-112816000D01*
X133736891Y-112816000D01*
X133680878Y-112810483D01*
X133632915Y-112795934D01*
X133588725Y-112772314D01*
X133549982Y-112740518D01*
X133518186Y-112701775D01*
X133494566Y-112657585D01*
X133480017Y-112609622D01*
X133474500Y-112553609D01*
X133474500Y-111728391D01*
X133480017Y-111672378D01*
X133494566Y-111624415D01*
X133518186Y-111580225D01*
X133549982Y-111541482D01*
X133588725Y-111509686D01*
X133632915Y-111486066D01*
X133680878Y-111471517D01*
X133736891Y-111466000D01*
X134487109Y-111466000D01*
X134543122Y-111471517D01*
X134543122Y-111471517D01*
G37*
G36*
X132968122Y-111471517D02*
X133016085Y-111486066D01*
X133060275Y-111509686D01*
X133099018Y-111541482D01*
X133130814Y-111580225D01*
X133154434Y-111624415D01*
X133168983Y-111672378D01*
X133174500Y-111728391D01*
X133174500Y-112553609D01*
X133168983Y-112609622D01*
X133154434Y-112657585D01*
X133130814Y-112701775D01*
X133099018Y-112740518D01*
X133060275Y-112772314D01*
X133016085Y-112795934D01*
X132968122Y-112810483D01*
X132912109Y-112816000D01*
X132161891Y-112816000D01*
X132105878Y-112810483D01*
X132057915Y-112795934D01*
X132013725Y-112772314D01*
X131974982Y-112740518D01*
X131943186Y-112701775D01*
X131919566Y-112657585D01*
X131905017Y-112609622D01*
X131899500Y-112553609D01*
X131899500Y-111728391D01*
X131905017Y-111672378D01*
X131919566Y-111624415D01*
X131943186Y-111580225D01*
X131974982Y-111541482D01*
X132013725Y-111509686D01*
X132057915Y-111486066D01*
X132105878Y-111471517D01*
X132161891Y-111466000D01*
X132912109Y-111466000D01*
X132968122Y-111471517D01*
X132968122Y-111471517D01*
G37*
G36*
X109180622Y-111077217D02*
X109228585Y-111091766D01*
X109272775Y-111115386D01*
X109311518Y-111147182D01*
X109343314Y-111185925D01*
X109366934Y-111230115D01*
X109381483Y-111278078D01*
X109387000Y-111334091D01*
X109387000Y-112084309D01*
X109381483Y-112140322D01*
X109366934Y-112188285D01*
X109343314Y-112232475D01*
X109311518Y-112271218D01*
X109272775Y-112303014D01*
X109228585Y-112326634D01*
X109180622Y-112341183D01*
X109124609Y-112346700D01*
X108299391Y-112346700D01*
X108243378Y-112341183D01*
X108195415Y-112326634D01*
X108151225Y-112303014D01*
X108112482Y-112271218D01*
X108080686Y-112232475D01*
X108057066Y-112188285D01*
X108042517Y-112140322D01*
X108037000Y-112084309D01*
X108037000Y-111334091D01*
X108042517Y-111278078D01*
X108057066Y-111230115D01*
X108080686Y-111185925D01*
X108112482Y-111147182D01*
X108151225Y-111115386D01*
X108195415Y-111091766D01*
X108243378Y-111077217D01*
X108299391Y-111071700D01*
X109124609Y-111071700D01*
X109180622Y-111077217D01*
X109180622Y-111077217D01*
G37*
G36*
X124674622Y-111026517D02*
X124722585Y-111041066D01*
X124766775Y-111064686D01*
X124805518Y-111096482D01*
X124837314Y-111135225D01*
X124860934Y-111179415D01*
X124875483Y-111227378D01*
X124881000Y-111283391D01*
X124881000Y-112033609D01*
X124875483Y-112089622D01*
X124860934Y-112137585D01*
X124837314Y-112181775D01*
X124805518Y-112220518D01*
X124766775Y-112252314D01*
X124722585Y-112275934D01*
X124674622Y-112290483D01*
X124618609Y-112296000D01*
X123793391Y-112296000D01*
X123737378Y-112290483D01*
X123689415Y-112275934D01*
X123645225Y-112252314D01*
X123606482Y-112220518D01*
X123574686Y-112181775D01*
X123551066Y-112137585D01*
X123536517Y-112089622D01*
X123531000Y-112033609D01*
X123531000Y-111283391D01*
X123536517Y-111227378D01*
X123551066Y-111179415D01*
X123574686Y-111135225D01*
X123606482Y-111096482D01*
X123645225Y-111064686D01*
X123689415Y-111041066D01*
X123737378Y-111026517D01*
X123793391Y-111021000D01*
X124618609Y-111021000D01*
X124674622Y-111026517D01*
X124674622Y-111026517D01*
G37*
G36*
X124674622Y-109451517D02*
X124722585Y-109466066D01*
X124766775Y-109489686D01*
X124805518Y-109521482D01*
X124837314Y-109560225D01*
X124860934Y-109604415D01*
X124875483Y-109652378D01*
X124881000Y-109708391D01*
X124881000Y-110458609D01*
X124875483Y-110514622D01*
X124860934Y-110562585D01*
X124837314Y-110606775D01*
X124805518Y-110645518D01*
X124766775Y-110677314D01*
X124722585Y-110700934D01*
X124674622Y-110715483D01*
X124618609Y-110721000D01*
X123793391Y-110721000D01*
X123737378Y-110715483D01*
X123689415Y-110700934D01*
X123645225Y-110677314D01*
X123606482Y-110645518D01*
X123574686Y-110606775D01*
X123551066Y-110562585D01*
X123536517Y-110514622D01*
X123531000Y-110458609D01*
X123531000Y-109708391D01*
X123536517Y-109652378D01*
X123551066Y-109604415D01*
X123574686Y-109560225D01*
X123606482Y-109521482D01*
X123645225Y-109489686D01*
X123689415Y-109466066D01*
X123737378Y-109451517D01*
X123793391Y-109446000D01*
X124618609Y-109446000D01*
X124674622Y-109451517D01*
X124674622Y-109451517D01*
G37*
G36*
X140930622Y-108994517D02*
X140978585Y-109009066D01*
X141022775Y-109032686D01*
X141061518Y-109064482D01*
X141093314Y-109103225D01*
X141116934Y-109147415D01*
X141131483Y-109195378D01*
X141137000Y-109251391D01*
X141137000Y-110001609D01*
X141131483Y-110057622D01*
X141116934Y-110105585D01*
X141093314Y-110149775D01*
X141061518Y-110188518D01*
X141022775Y-110220314D01*
X140978585Y-110243934D01*
X140930622Y-110258483D01*
X140874609Y-110264000D01*
X140049391Y-110264000D01*
X139993378Y-110258483D01*
X139945415Y-110243934D01*
X139901225Y-110220314D01*
X139862482Y-110188518D01*
X139830686Y-110149775D01*
X139807066Y-110105585D01*
X139792517Y-110057622D01*
X139787000Y-110001609D01*
X139787000Y-109251391D01*
X139792517Y-109195378D01*
X139807066Y-109147415D01*
X139830686Y-109103225D01*
X139862482Y-109064482D01*
X139901225Y-109032686D01*
X139945415Y-109009066D01*
X139993378Y-108994517D01*
X140049391Y-108989000D01*
X140874609Y-108989000D01*
X140930622Y-108994517D01*
X140930622Y-108994517D01*
G37*
G36*
X130457055Y-107469351D02*
X130503396Y-107483409D01*
X130546105Y-107506237D01*
X130583540Y-107536960D01*
X130614263Y-107574395D01*
X130637091Y-107617104D01*
X130651149Y-107663445D01*
X130656500Y-107717781D01*
X130656500Y-109960219D01*
X130651149Y-110014555D01*
X130637091Y-110060896D01*
X130614263Y-110103605D01*
X130583540Y-110141040D01*
X130546105Y-110171763D01*
X130503396Y-110194591D01*
X130457055Y-110208649D01*
X130402719Y-110214000D01*
X129185281Y-110214000D01*
X129130945Y-110208649D01*
X129084604Y-110194591D01*
X129041895Y-110171763D01*
X129004460Y-110141040D01*
X128973737Y-110103605D01*
X128950909Y-110060896D01*
X128936851Y-110014555D01*
X128931500Y-109960219D01*
X128931500Y-107717781D01*
X128936851Y-107663445D01*
X128950909Y-107617104D01*
X128973737Y-107574395D01*
X129004460Y-107536960D01*
X129041895Y-107506237D01*
X129084604Y-107483409D01*
X129130945Y-107469351D01*
X129185281Y-107464000D01*
X130402719Y-107464000D01*
X130457055Y-107469351D01*
X130457055Y-107469351D01*
G37*
G36*
X127382055Y-107469351D02*
X127428396Y-107483409D01*
X127471105Y-107506237D01*
X127508540Y-107536960D01*
X127539263Y-107574395D01*
X127562091Y-107617104D01*
X127576149Y-107663445D01*
X127581500Y-107717781D01*
X127581500Y-109960219D01*
X127576149Y-110014555D01*
X127562091Y-110060896D01*
X127539263Y-110103605D01*
X127508540Y-110141040D01*
X127471105Y-110171763D01*
X127428396Y-110194591D01*
X127382055Y-110208649D01*
X127327719Y-110214000D01*
X126110281Y-110214000D01*
X126055945Y-110208649D01*
X126009604Y-110194591D01*
X125966895Y-110171763D01*
X125929460Y-110141040D01*
X125898737Y-110103605D01*
X125875909Y-110060896D01*
X125861851Y-110014555D01*
X125856500Y-109960219D01*
X125856500Y-107717781D01*
X125861851Y-107663445D01*
X125875909Y-107617104D01*
X125898737Y-107574395D01*
X125929460Y-107536960D01*
X125966895Y-107506237D01*
X126009604Y-107483409D01*
X126055945Y-107469351D01*
X126110281Y-107464000D01*
X127327719Y-107464000D01*
X127382055Y-107469351D01*
X127382055Y-107469351D01*
G37*
G36*
X133411000Y-109974000D02*
X131511000Y-109974000D01*
X131511000Y-108974000D01*
X133411000Y-108974000D01*
X133411000Y-109974000D01*
X133411000Y-109974000D01*
G37*
G36*
X138811000Y-109974000D02*
X136911000Y-109974000D01*
X136911000Y-108974000D01*
X138811000Y-108974000D01*
X138811000Y-109974000D01*
X138811000Y-109974000D01*
G37*
G36*
X133411000Y-108704000D02*
X131511000Y-108704000D01*
X131511000Y-107704000D01*
X133411000Y-107704000D01*
X133411000Y-108704000D01*
X133411000Y-108704000D01*
G37*
G36*
X138811000Y-108704000D02*
X136911000Y-108704000D01*
X136911000Y-107704000D01*
X138811000Y-107704000D01*
X138811000Y-108704000D01*
X138811000Y-108704000D01*
G37*
G36*
X140930622Y-107419517D02*
X140978585Y-107434066D01*
X141022775Y-107457686D01*
X141061518Y-107489482D01*
X141093314Y-107528225D01*
X141116934Y-107572415D01*
X141131483Y-107620378D01*
X141137000Y-107676391D01*
X141137000Y-108426609D01*
X141131483Y-108482622D01*
X141116934Y-108530585D01*
X141093314Y-108574775D01*
X141061518Y-108613518D01*
X141022775Y-108645314D01*
X140978585Y-108668934D01*
X140930622Y-108683483D01*
X140874609Y-108689000D01*
X140049391Y-108689000D01*
X139993378Y-108683483D01*
X139945415Y-108668934D01*
X139901225Y-108645314D01*
X139862482Y-108613518D01*
X139830686Y-108574775D01*
X139807066Y-108530585D01*
X139792517Y-108482622D01*
X139787000Y-108426609D01*
X139787000Y-107676391D01*
X139792517Y-107620378D01*
X139807066Y-107572415D01*
X139830686Y-107528225D01*
X139862482Y-107489482D01*
X139901225Y-107457686D01*
X139945415Y-107434066D01*
X139993378Y-107419517D01*
X140049391Y-107414000D01*
X140874609Y-107414000D01*
X140930622Y-107419517D01*
X140930622Y-107419517D01*
G37*
G36*
X138811000Y-107434000D02*
X136911000Y-107434000D01*
X136911000Y-106434000D01*
X138811000Y-106434000D01*
X138811000Y-107434000D01*
X138811000Y-107434000D01*
G37*
G36*
X133411000Y-107434000D02*
X131511000Y-107434000D01*
X131511000Y-106434000D01*
X133411000Y-106434000D01*
X133411000Y-107434000D01*
X133411000Y-107434000D01*
G37*
G36*
X130479122Y-104994517D02*
X130527085Y-105009066D01*
X130571275Y-105032686D01*
X130610018Y-105064482D01*
X130641814Y-105103225D01*
X130665434Y-105147415D01*
X130679983Y-105195378D01*
X130685500Y-105251391D01*
X130685500Y-106076609D01*
X130679983Y-106132622D01*
X130665434Y-106180585D01*
X130641814Y-106224775D01*
X130610018Y-106263518D01*
X130571275Y-106295314D01*
X130527085Y-106318934D01*
X130479122Y-106333483D01*
X130423109Y-106339000D01*
X129672891Y-106339000D01*
X129616878Y-106333483D01*
X129568915Y-106318934D01*
X129524725Y-106295314D01*
X129485982Y-106263518D01*
X129454186Y-106224775D01*
X129430566Y-106180585D01*
X129416017Y-106132622D01*
X129410500Y-106076609D01*
X129410500Y-105251391D01*
X129416017Y-105195378D01*
X129430566Y-105147415D01*
X129454186Y-105103225D01*
X129485982Y-105064482D01*
X129524725Y-105032686D01*
X129568915Y-105009066D01*
X129616878Y-104994517D01*
X129672891Y-104989000D01*
X130423109Y-104989000D01*
X130479122Y-104994517D01*
X130479122Y-104994517D01*
G37*
G36*
X128904122Y-104994517D02*
X128952085Y-105009066D01*
X128996275Y-105032686D01*
X129035018Y-105064482D01*
X129066814Y-105103225D01*
X129090434Y-105147415D01*
X129104983Y-105195378D01*
X129110500Y-105251391D01*
X129110500Y-106076609D01*
X129104983Y-106132622D01*
X129090434Y-106180585D01*
X129066814Y-106224775D01*
X129035018Y-106263518D01*
X128996275Y-106295314D01*
X128952085Y-106318934D01*
X128904122Y-106333483D01*
X128848109Y-106339000D01*
X128097891Y-106339000D01*
X128041878Y-106333483D01*
X127993915Y-106318934D01*
X127949725Y-106295314D01*
X127910982Y-106263518D01*
X127879186Y-106224775D01*
X127855566Y-106180585D01*
X127841017Y-106132622D01*
X127835500Y-106076609D01*
X127835500Y-105251391D01*
X127841017Y-105195378D01*
X127855566Y-105147415D01*
X127879186Y-105103225D01*
X127910982Y-105064482D01*
X127949725Y-105032686D01*
X127993915Y-105009066D01*
X128041878Y-104994517D01*
X128097891Y-104989000D01*
X128848109Y-104989000D01*
X128904122Y-104994517D01*
X128904122Y-104994517D01*
G37*
G36*
X124395622Y-104994517D02*
X124443585Y-105009066D01*
X124487775Y-105032686D01*
X124526518Y-105064482D01*
X124558314Y-105103225D01*
X124581934Y-105147415D01*
X124596483Y-105195378D01*
X124602000Y-105251391D01*
X124602000Y-106076609D01*
X124596483Y-106132622D01*
X124581934Y-106180585D01*
X124558314Y-106224775D01*
X124526518Y-106263518D01*
X124487775Y-106295314D01*
X124443585Y-106318934D01*
X124395622Y-106333483D01*
X124339609Y-106339000D01*
X123589391Y-106339000D01*
X123533378Y-106333483D01*
X123485415Y-106318934D01*
X123441225Y-106295314D01*
X123402482Y-106263518D01*
X123370686Y-106224775D01*
X123347066Y-106180585D01*
X123332517Y-106132622D01*
X123327000Y-106076609D01*
X123327000Y-105251391D01*
X123332517Y-105195378D01*
X123347066Y-105147415D01*
X123370686Y-105103225D01*
X123402482Y-105064482D01*
X123441225Y-105032686D01*
X123485415Y-105009066D01*
X123533378Y-104994517D01*
X123589391Y-104989000D01*
X124339609Y-104989000D01*
X124395622Y-104994517D01*
X124395622Y-104994517D01*
G37*
G36*
X125970622Y-104994517D02*
X126018585Y-105009066D01*
X126062775Y-105032686D01*
X126101518Y-105064482D01*
X126133314Y-105103225D01*
X126156934Y-105147415D01*
X126171483Y-105195378D01*
X126177000Y-105251391D01*
X126177000Y-106076609D01*
X126171483Y-106132622D01*
X126156934Y-106180585D01*
X126133314Y-106224775D01*
X126101518Y-106263518D01*
X126062775Y-106295314D01*
X126018585Y-106318934D01*
X125970622Y-106333483D01*
X125914609Y-106339000D01*
X125164391Y-106339000D01*
X125108378Y-106333483D01*
X125060415Y-106318934D01*
X125016225Y-106295314D01*
X124977482Y-106263518D01*
X124945686Y-106224775D01*
X124922066Y-106180585D01*
X124907517Y-106132622D01*
X124902000Y-106076609D01*
X124902000Y-105251391D01*
X124907517Y-105195378D01*
X124922066Y-105147415D01*
X124945686Y-105103225D01*
X124977482Y-105064482D01*
X125016225Y-105032686D01*
X125060415Y-105009066D01*
X125108378Y-104994517D01*
X125164391Y-104989000D01*
X125914609Y-104989000D01*
X125970622Y-104994517D01*
X125970622Y-104994517D01*
G37*
G36*
X138811000Y-106164000D02*
X136911000Y-106164000D01*
X136911000Y-105164000D01*
X138811000Y-105164000D01*
X138811000Y-106164000D01*
X138811000Y-106164000D01*
G37*
G36*
X133411000Y-106164000D02*
X131511000Y-106164000D01*
X131511000Y-105164000D01*
X133411000Y-105164000D01*
X133411000Y-106164000D01*
X133411000Y-106164000D01*
G37*
G36*
X140524222Y-104168417D02*
X140572185Y-104182966D01*
X140616375Y-104206586D01*
X140655118Y-104238382D01*
X140686914Y-104277125D01*
X140710534Y-104321315D01*
X140725083Y-104369278D01*
X140730600Y-104425291D01*
X140730600Y-105175509D01*
X140725083Y-105231522D01*
X140710534Y-105279485D01*
X140686914Y-105323675D01*
X140655118Y-105362418D01*
X140616375Y-105394214D01*
X140572185Y-105417834D01*
X140524222Y-105432383D01*
X140468209Y-105437900D01*
X139642991Y-105437900D01*
X139586978Y-105432383D01*
X139539015Y-105417834D01*
X139494825Y-105394214D01*
X139456082Y-105362418D01*
X139424286Y-105323675D01*
X139400666Y-105279485D01*
X139386117Y-105231522D01*
X139380600Y-105175509D01*
X139380600Y-104425291D01*
X139386117Y-104369278D01*
X139400666Y-104321315D01*
X139424286Y-104277125D01*
X139456082Y-104238382D01*
X139494825Y-104206586D01*
X139539015Y-104182966D01*
X139586978Y-104168417D01*
X139642991Y-104162900D01*
X140468209Y-104162900D01*
X140524222Y-104168417D01*
X140524222Y-104168417D01*
G37*
G36*
X142607022Y-104168417D02*
X142654985Y-104182966D01*
X142699175Y-104206586D01*
X142737918Y-104238382D01*
X142769714Y-104277125D01*
X142793334Y-104321315D01*
X142807883Y-104369278D01*
X142813400Y-104425291D01*
X142813400Y-105175509D01*
X142807883Y-105231522D01*
X142793334Y-105279485D01*
X142769714Y-105323675D01*
X142737918Y-105362418D01*
X142699175Y-105394214D01*
X142654985Y-105417834D01*
X142607022Y-105432383D01*
X142551009Y-105437900D01*
X141725791Y-105437900D01*
X141669778Y-105432383D01*
X141621815Y-105417834D01*
X141577625Y-105394214D01*
X141538882Y-105362418D01*
X141507086Y-105323675D01*
X141483466Y-105279485D01*
X141468917Y-105231522D01*
X141463400Y-105175509D01*
X141463400Y-104425291D01*
X141468917Y-104369278D01*
X141483466Y-104321315D01*
X141507086Y-104277125D01*
X141538882Y-104238382D01*
X141577625Y-104206586D01*
X141621815Y-104182966D01*
X141669778Y-104168417D01*
X141725791Y-104162900D01*
X142551009Y-104162900D01*
X142607022Y-104168417D01*
X142607022Y-104168417D01*
G37*
G36*
X133411000Y-104894000D02*
X131511000Y-104894000D01*
X131511000Y-103894000D01*
X133411000Y-103894000D01*
X133411000Y-104894000D01*
X133411000Y-104894000D01*
G37*
G36*
X138811000Y-104894000D02*
X136911000Y-104894000D01*
X136911000Y-103894000D01*
X138811000Y-103894000D01*
X138811000Y-104894000D01*
X138811000Y-104894000D01*
G37*
G36*
X126452622Y-103025517D02*
X126500585Y-103040066D01*
X126544775Y-103063686D01*
X126583518Y-103095482D01*
X126615314Y-103134225D01*
X126638934Y-103178415D01*
X126653483Y-103226378D01*
X126659000Y-103282391D01*
X126659000Y-104032609D01*
X126653483Y-104088622D01*
X126638934Y-104136585D01*
X126615314Y-104180775D01*
X126583518Y-104219518D01*
X126544775Y-104251314D01*
X126500585Y-104274934D01*
X126452622Y-104289483D01*
X126396609Y-104295000D01*
X125571391Y-104295000D01*
X125515378Y-104289483D01*
X125467415Y-104274934D01*
X125423225Y-104251314D01*
X125384482Y-104219518D01*
X125352686Y-104180775D01*
X125329066Y-104136585D01*
X125314517Y-104088622D01*
X125309000Y-104032609D01*
X125309000Y-103282391D01*
X125314517Y-103226378D01*
X125329066Y-103178415D01*
X125352686Y-103134225D01*
X125384482Y-103095482D01*
X125423225Y-103063686D01*
X125467415Y-103040066D01*
X125515378Y-103025517D01*
X125571391Y-103020000D01*
X126396609Y-103020000D01*
X126452622Y-103025517D01*
X126452622Y-103025517D01*
G37*
G36*
X124420622Y-103025517D02*
X124468585Y-103040066D01*
X124512775Y-103063686D01*
X124551518Y-103095482D01*
X124583314Y-103134225D01*
X124606934Y-103178415D01*
X124621483Y-103226378D01*
X124627000Y-103282391D01*
X124627000Y-104032609D01*
X124621483Y-104088622D01*
X124606934Y-104136585D01*
X124583314Y-104180775D01*
X124551518Y-104219518D01*
X124512775Y-104251314D01*
X124468585Y-104274934D01*
X124420622Y-104289483D01*
X124364609Y-104295000D01*
X123539391Y-104295000D01*
X123483378Y-104289483D01*
X123435415Y-104274934D01*
X123391225Y-104251314D01*
X123352482Y-104219518D01*
X123320686Y-104180775D01*
X123297066Y-104136585D01*
X123282517Y-104088622D01*
X123277000Y-104032609D01*
X123277000Y-103282391D01*
X123282517Y-103226378D01*
X123297066Y-103178415D01*
X123320686Y-103134225D01*
X123352482Y-103095482D01*
X123391225Y-103063686D01*
X123435415Y-103040066D01*
X123483378Y-103025517D01*
X123539391Y-103020000D01*
X124364609Y-103020000D01*
X124420622Y-103025517D01*
X124420622Y-103025517D01*
G37*
G36*
X142607022Y-102593417D02*
X142654985Y-102607966D01*
X142699175Y-102631586D01*
X142737918Y-102663382D01*
X142769714Y-102702125D01*
X142793334Y-102746315D01*
X142807883Y-102794278D01*
X142813400Y-102850291D01*
X142813400Y-103600509D01*
X142807883Y-103656522D01*
X142793334Y-103704485D01*
X142769714Y-103748675D01*
X142737918Y-103787418D01*
X142699175Y-103819214D01*
X142654985Y-103842834D01*
X142607022Y-103857383D01*
X142551009Y-103862900D01*
X141725791Y-103862900D01*
X141669778Y-103857383D01*
X141621815Y-103842834D01*
X141577625Y-103819214D01*
X141538882Y-103787418D01*
X141507086Y-103748675D01*
X141483466Y-103704485D01*
X141468917Y-103656522D01*
X141463400Y-103600509D01*
X141463400Y-102850291D01*
X141468917Y-102794278D01*
X141483466Y-102746315D01*
X141507086Y-102702125D01*
X141538882Y-102663382D01*
X141577625Y-102631586D01*
X141621815Y-102607966D01*
X141669778Y-102593417D01*
X141725791Y-102587900D01*
X142551009Y-102587900D01*
X142607022Y-102593417D01*
X142607022Y-102593417D01*
G37*
G36*
X140524222Y-102593417D02*
X140572185Y-102607966D01*
X140616375Y-102631586D01*
X140655118Y-102663382D01*
X140686914Y-102702125D01*
X140710534Y-102746315D01*
X140725083Y-102794278D01*
X140730600Y-102850291D01*
X140730600Y-103600509D01*
X140725083Y-103656522D01*
X140710534Y-103704485D01*
X140686914Y-103748675D01*
X140655118Y-103787418D01*
X140616375Y-103819214D01*
X140572185Y-103842834D01*
X140524222Y-103857383D01*
X140468209Y-103862900D01*
X139642991Y-103862900D01*
X139586978Y-103857383D01*
X139539015Y-103842834D01*
X139494825Y-103819214D01*
X139456082Y-103787418D01*
X139424286Y-103748675D01*
X139400666Y-103704485D01*
X139386117Y-103656522D01*
X139380600Y-103600509D01*
X139380600Y-102850291D01*
X139386117Y-102794278D01*
X139400666Y-102746315D01*
X139424286Y-102702125D01*
X139456082Y-102663382D01*
X139494825Y-102631586D01*
X139539015Y-102607966D01*
X139586978Y-102593417D01*
X139642991Y-102587900D01*
X140468209Y-102587900D01*
X140524222Y-102593417D01*
X140524222Y-102593417D01*
G37*
G36*
X128904122Y-102454517D02*
X128952085Y-102469066D01*
X128996275Y-102492686D01*
X129035018Y-102524482D01*
X129066814Y-102563225D01*
X129090434Y-102607415D01*
X129104983Y-102655378D01*
X129110500Y-102711391D01*
X129110500Y-103536609D01*
X129104983Y-103592622D01*
X129090434Y-103640585D01*
X129066814Y-103684775D01*
X129035018Y-103723518D01*
X128996275Y-103755314D01*
X128952085Y-103778934D01*
X128904122Y-103793483D01*
X128848109Y-103799000D01*
X128097891Y-103799000D01*
X128041878Y-103793483D01*
X127993915Y-103778934D01*
X127949725Y-103755314D01*
X127910982Y-103723518D01*
X127879186Y-103684775D01*
X127855566Y-103640585D01*
X127841017Y-103592622D01*
X127835500Y-103536609D01*
X127835500Y-102711391D01*
X127841017Y-102655378D01*
X127855566Y-102607415D01*
X127879186Y-102563225D01*
X127910982Y-102524482D01*
X127949725Y-102492686D01*
X127993915Y-102469066D01*
X128041878Y-102454517D01*
X128097891Y-102449000D01*
X128848109Y-102449000D01*
X128904122Y-102454517D01*
X128904122Y-102454517D01*
G37*
G36*
X130479122Y-102454517D02*
X130527085Y-102469066D01*
X130571275Y-102492686D01*
X130610018Y-102524482D01*
X130641814Y-102563225D01*
X130665434Y-102607415D01*
X130679983Y-102655378D01*
X130685500Y-102711391D01*
X130685500Y-103536609D01*
X130679983Y-103592622D01*
X130665434Y-103640585D01*
X130641814Y-103684775D01*
X130610018Y-103723518D01*
X130571275Y-103755314D01*
X130527085Y-103778934D01*
X130479122Y-103793483D01*
X130423109Y-103799000D01*
X129672891Y-103799000D01*
X129616878Y-103793483D01*
X129568915Y-103778934D01*
X129524725Y-103755314D01*
X129485982Y-103723518D01*
X129454186Y-103684775D01*
X129430566Y-103640585D01*
X129416017Y-103592622D01*
X129410500Y-103536609D01*
X129410500Y-102711391D01*
X129416017Y-102655378D01*
X129430566Y-102607415D01*
X129454186Y-102563225D01*
X129485982Y-102524482D01*
X129524725Y-102492686D01*
X129568915Y-102469066D01*
X129616878Y-102454517D01*
X129672891Y-102449000D01*
X130423109Y-102449000D01*
X130479122Y-102454517D01*
X130479122Y-102454517D01*
G37*
G36*
X133411000Y-103624000D02*
X131511000Y-103624000D01*
X131511000Y-102624000D01*
X133411000Y-102624000D01*
X133411000Y-103624000D01*
X133411000Y-103624000D01*
G37*
G36*
X138811000Y-103624000D02*
X136911000Y-103624000D01*
X136911000Y-102624000D01*
X138811000Y-102624000D01*
X138811000Y-103624000D01*
X138811000Y-103624000D01*
G37*
G36*
X124420622Y-101450517D02*
X124468585Y-101465066D01*
X124512775Y-101488686D01*
X124551518Y-101520482D01*
X124583314Y-101559225D01*
X124606934Y-101603415D01*
X124621483Y-101651378D01*
X124627000Y-101707391D01*
X124627000Y-102457609D01*
X124621483Y-102513622D01*
X124606934Y-102561585D01*
X124583314Y-102605775D01*
X124551518Y-102644518D01*
X124512775Y-102676314D01*
X124468585Y-102699934D01*
X124420622Y-102714483D01*
X124364609Y-102720000D01*
X123539391Y-102720000D01*
X123483378Y-102714483D01*
X123435415Y-102699934D01*
X123391225Y-102676314D01*
X123352482Y-102644518D01*
X123320686Y-102605775D01*
X123297066Y-102561585D01*
X123282517Y-102513622D01*
X123277000Y-102457609D01*
X123277000Y-101707391D01*
X123282517Y-101651378D01*
X123297066Y-101603415D01*
X123320686Y-101559225D01*
X123352482Y-101520482D01*
X123391225Y-101488686D01*
X123435415Y-101465066D01*
X123483378Y-101450517D01*
X123539391Y-101445000D01*
X124364609Y-101445000D01*
X124420622Y-101450517D01*
X124420622Y-101450517D01*
G37*
G36*
X126452622Y-101450517D02*
X126500585Y-101465066D01*
X126544775Y-101488686D01*
X126583518Y-101520482D01*
X126615314Y-101559225D01*
X126638934Y-101603415D01*
X126653483Y-101651378D01*
X126659000Y-101707391D01*
X126659000Y-102457609D01*
X126653483Y-102513622D01*
X126638934Y-102561585D01*
X126615314Y-102605775D01*
X126583518Y-102644518D01*
X126544775Y-102676314D01*
X126500585Y-102699934D01*
X126452622Y-102714483D01*
X126396609Y-102720000D01*
X125571391Y-102720000D01*
X125515378Y-102714483D01*
X125467415Y-102699934D01*
X125423225Y-102676314D01*
X125384482Y-102644518D01*
X125352686Y-102605775D01*
X125329066Y-102561585D01*
X125314517Y-102513622D01*
X125309000Y-102457609D01*
X125309000Y-101707391D01*
X125314517Y-101651378D01*
X125329066Y-101603415D01*
X125352686Y-101559225D01*
X125384482Y-101520482D01*
X125423225Y-101488686D01*
X125467415Y-101465066D01*
X125515378Y-101450517D01*
X125571391Y-101445000D01*
X126396609Y-101445000D01*
X126452622Y-101450517D01*
X126452622Y-101450517D01*
G37*
G36*
X133411000Y-102354000D02*
X131511000Y-102354000D01*
X131511000Y-101354000D01*
X133411000Y-101354000D01*
X133411000Y-102354000D01*
X133411000Y-102354000D01*
G37*
G36*
X138811000Y-102354000D02*
X136911000Y-102354000D01*
X136911000Y-101354000D01*
X138811000Y-101354000D01*
X138811000Y-102354000D01*
X138811000Y-102354000D01*
G37*
G36*
X130571000Y-101565000D02*
X129271000Y-101565000D01*
X129271000Y-100365000D01*
X130571000Y-100365000D01*
X130571000Y-101565000D01*
X130571000Y-101565000D01*
G37*
G36*
X141183228Y-99412893D02*
X141230954Y-99427370D01*
X141274936Y-99450879D01*
X141313485Y-99482515D01*
X141345121Y-99521064D01*
X141368630Y-99565046D01*
X141383107Y-99612772D01*
X141388600Y-99668541D01*
X141388600Y-101296259D01*
X141383107Y-101352028D01*
X141368630Y-101399754D01*
X141345121Y-101443736D01*
X141313485Y-101482285D01*
X141274936Y-101513921D01*
X141230954Y-101537430D01*
X141183228Y-101551907D01*
X141127459Y-101557400D01*
X139999741Y-101557400D01*
X139943972Y-101551907D01*
X139896246Y-101537430D01*
X139852264Y-101513921D01*
X139813715Y-101482285D01*
X139782079Y-101443736D01*
X139758570Y-101399754D01*
X139744093Y-101352028D01*
X139738600Y-101296259D01*
X139738600Y-99668541D01*
X139744093Y-99612772D01*
X139758570Y-99565046D01*
X139782079Y-99521064D01*
X139813715Y-99482515D01*
X139852264Y-99450879D01*
X139896246Y-99427370D01*
X139943972Y-99412893D01*
X139999741Y-99407400D01*
X141127459Y-99407400D01*
X141183228Y-99412893D01*
X141183228Y-99412893D01*
G37*
G36*
X143983228Y-99412893D02*
X144030954Y-99427370D01*
X144074936Y-99450879D01*
X144113485Y-99482515D01*
X144145121Y-99521064D01*
X144168630Y-99565046D01*
X144183107Y-99612772D01*
X144188600Y-99668541D01*
X144188600Y-101296259D01*
X144183107Y-101352028D01*
X144168630Y-101399754D01*
X144145121Y-101443736D01*
X144113485Y-101482285D01*
X144074936Y-101513921D01*
X144030954Y-101537430D01*
X143983228Y-101551907D01*
X143927459Y-101557400D01*
X142799741Y-101557400D01*
X142743972Y-101551907D01*
X142696246Y-101537430D01*
X142652264Y-101513921D01*
X142613715Y-101482285D01*
X142582079Y-101443736D01*
X142558570Y-101399754D01*
X142544093Y-101352028D01*
X142538600Y-101296259D01*
X142538600Y-99668541D01*
X142544093Y-99612772D01*
X142558570Y-99565046D01*
X142582079Y-99521064D01*
X142613715Y-99482515D01*
X142652264Y-99450879D01*
X142696246Y-99427370D01*
X142743972Y-99412893D01*
X142799741Y-99407400D01*
X143927459Y-99407400D01*
X143983228Y-99412893D01*
X143983228Y-99412893D01*
G37*
G36*
X133411000Y-101084000D02*
X131511000Y-101084000D01*
X131511000Y-100084000D01*
X133411000Y-100084000D01*
X133411000Y-101084000D01*
X133411000Y-101084000D01*
G37*
G36*
X138811000Y-101084000D02*
X136911000Y-101084000D01*
X136911000Y-100084000D01*
X138811000Y-100084000D01*
X138811000Y-101084000D01*
X138811000Y-101084000D01*
G37*
G36*
X128571000Y-100615000D02*
X127271000Y-100615000D01*
X127271000Y-99415000D01*
X128571000Y-99415000D01*
X128571000Y-100615000D01*
X128571000Y-100615000D01*
G37*
G36*
X126239497Y-98292997D02*
X126292153Y-98308970D01*
X126340665Y-98334900D01*
X126383196Y-98369804D01*
X126418100Y-98412335D01*
X126444030Y-98460847D01*
X126460003Y-98513503D01*
X126466000Y-98574390D01*
X126466000Y-99799610D01*
X126460003Y-99860497D01*
X126444030Y-99913153D01*
X126418100Y-99961665D01*
X126383196Y-100004196D01*
X126340665Y-100039100D01*
X126292153Y-100065030D01*
X126239497Y-100081003D01*
X126178610Y-100087000D01*
X125378390Y-100087000D01*
X125317503Y-100081003D01*
X125264847Y-100065030D01*
X125216335Y-100039100D01*
X125173804Y-100004196D01*
X125138900Y-99961665D01*
X125112970Y-99913153D01*
X125096997Y-99860497D01*
X125091000Y-99799610D01*
X125091000Y-98574390D01*
X125096997Y-98513503D01*
X125112970Y-98460847D01*
X125138900Y-98412335D01*
X125173804Y-98369804D01*
X125216335Y-98334900D01*
X125264847Y-98308970D01*
X125317503Y-98292997D01*
X125378390Y-98287000D01*
X126178610Y-98287000D01*
X126239497Y-98292997D01*
X126239497Y-98292997D01*
G37*
G36*
X124364497Y-98292997D02*
X124417153Y-98308970D01*
X124465665Y-98334900D01*
X124508196Y-98369804D01*
X124543100Y-98412335D01*
X124569030Y-98460847D01*
X124585003Y-98513503D01*
X124591000Y-98574390D01*
X124591000Y-99799610D01*
X124585003Y-99860497D01*
X124569030Y-99913153D01*
X124543100Y-99961665D01*
X124508196Y-100004196D01*
X124465665Y-100039100D01*
X124417153Y-100065030D01*
X124364497Y-100081003D01*
X124303610Y-100087000D01*
X123503390Y-100087000D01*
X123442503Y-100081003D01*
X123389847Y-100065030D01*
X123341335Y-100039100D01*
X123298804Y-100004196D01*
X123263900Y-99961665D01*
X123237970Y-99913153D01*
X123221997Y-99860497D01*
X123216000Y-99799610D01*
X123216000Y-98574390D01*
X123221997Y-98513503D01*
X123237970Y-98460847D01*
X123263900Y-98412335D01*
X123298804Y-98369804D01*
X123341335Y-98334900D01*
X123389847Y-98308970D01*
X123442503Y-98292997D01*
X123503390Y-98287000D01*
X124303610Y-98287000D01*
X124364497Y-98292997D01*
X124364497Y-98292997D01*
G37*
G36*
X130571000Y-99665000D02*
X129271000Y-99665000D01*
X129271000Y-98465000D01*
X130571000Y-98465000D01*
X130571000Y-99665000D01*
X130571000Y-99665000D01*
G37*
G36*
X106640622Y-98275617D02*
X106688585Y-98290166D01*
X106732775Y-98313786D01*
X106771518Y-98345582D01*
X106803314Y-98384325D01*
X106826934Y-98428515D01*
X106841483Y-98476478D01*
X106847000Y-98532491D01*
X106847000Y-99282709D01*
X106841483Y-99338722D01*
X106826934Y-99386685D01*
X106803314Y-99430875D01*
X106771518Y-99469618D01*
X106732775Y-99501414D01*
X106688585Y-99525034D01*
X106640622Y-99539583D01*
X106584609Y-99545100D01*
X105759391Y-99545100D01*
X105703378Y-99539583D01*
X105655415Y-99525034D01*
X105611225Y-99501414D01*
X105572482Y-99469618D01*
X105540686Y-99430875D01*
X105517066Y-99386685D01*
X105502517Y-99338722D01*
X105497000Y-99282709D01*
X105497000Y-98532491D01*
X105502517Y-98476478D01*
X105517066Y-98428515D01*
X105540686Y-98384325D01*
X105572482Y-98345582D01*
X105611225Y-98313786D01*
X105655415Y-98290166D01*
X105703378Y-98275617D01*
X105759391Y-98270100D01*
X106584609Y-98270100D01*
X106640622Y-98275617D01*
X106640622Y-98275617D01*
G37*
G36*
X109180622Y-98275617D02*
X109228585Y-98290166D01*
X109272775Y-98313786D01*
X109311518Y-98345582D01*
X109343314Y-98384325D01*
X109366934Y-98428515D01*
X109381483Y-98476478D01*
X109387000Y-98532491D01*
X109387000Y-99282709D01*
X109381483Y-99338722D01*
X109366934Y-99386685D01*
X109343314Y-99430875D01*
X109311518Y-99469618D01*
X109272775Y-99501414D01*
X109228585Y-99525034D01*
X109180622Y-99539583D01*
X109124609Y-99545100D01*
X108299391Y-99545100D01*
X108243378Y-99539583D01*
X108195415Y-99525034D01*
X108151225Y-99501414D01*
X108112482Y-99469618D01*
X108080686Y-99430875D01*
X108057066Y-99386685D01*
X108042517Y-99338722D01*
X108037000Y-99282709D01*
X108037000Y-98532491D01*
X108042517Y-98476478D01*
X108057066Y-98428515D01*
X108080686Y-98384325D01*
X108112482Y-98345582D01*
X108151225Y-98313786D01*
X108195415Y-98290166D01*
X108243378Y-98275617D01*
X108299391Y-98270100D01*
X109124609Y-98270100D01*
X109180622Y-98275617D01*
X109180622Y-98275617D01*
G37*
G36*
X111720622Y-98250317D02*
X111768585Y-98264866D01*
X111812775Y-98288486D01*
X111851518Y-98320282D01*
X111883314Y-98359025D01*
X111906934Y-98403215D01*
X111921483Y-98451178D01*
X111927000Y-98507191D01*
X111927000Y-99257409D01*
X111921483Y-99313422D01*
X111906934Y-99361385D01*
X111883314Y-99405575D01*
X111851518Y-99444318D01*
X111812775Y-99476114D01*
X111768585Y-99499734D01*
X111720622Y-99514283D01*
X111664609Y-99519800D01*
X110839391Y-99519800D01*
X110783378Y-99514283D01*
X110735415Y-99499734D01*
X110691225Y-99476114D01*
X110652482Y-99444318D01*
X110620686Y-99405575D01*
X110597066Y-99361385D01*
X110582517Y-99313422D01*
X110577000Y-99257409D01*
X110577000Y-98507191D01*
X110582517Y-98451178D01*
X110597066Y-98403215D01*
X110620686Y-98359025D01*
X110652482Y-98320282D01*
X110691225Y-98288486D01*
X110735415Y-98264866D01*
X110783378Y-98250317D01*
X110839391Y-98244800D01*
X111664609Y-98244800D01*
X111720622Y-98250317D01*
X111720622Y-98250317D01*
G37*
G36*
X134572997Y-97149997D02*
X134625653Y-97165970D01*
X134674165Y-97191900D01*
X134716696Y-97226804D01*
X134751600Y-97269335D01*
X134777530Y-97317847D01*
X134793503Y-97370503D01*
X134799500Y-97431390D01*
X134799500Y-98656610D01*
X134793503Y-98717497D01*
X134777530Y-98770153D01*
X134751600Y-98818665D01*
X134716696Y-98861196D01*
X134674165Y-98896100D01*
X134625653Y-98922030D01*
X134572997Y-98938003D01*
X134512110Y-98944000D01*
X133711890Y-98944000D01*
X133651003Y-98938003D01*
X133598347Y-98922030D01*
X133549835Y-98896100D01*
X133507304Y-98861196D01*
X133472400Y-98818665D01*
X133446470Y-98770153D01*
X133430497Y-98717497D01*
X133424500Y-98656610D01*
X133424500Y-97431390D01*
X133430497Y-97370503D01*
X133446470Y-97317847D01*
X133472400Y-97269335D01*
X133507304Y-97226804D01*
X133549835Y-97191900D01*
X133598347Y-97165970D01*
X133651003Y-97149997D01*
X133711890Y-97144000D01*
X134512110Y-97144000D01*
X134572997Y-97149997D01*
X134572997Y-97149997D01*
G37*
G36*
X132697997Y-97149997D02*
X132750653Y-97165970D01*
X132799165Y-97191900D01*
X132841696Y-97226804D01*
X132876600Y-97269335D01*
X132902530Y-97317847D01*
X132918503Y-97370503D01*
X132924500Y-97431390D01*
X132924500Y-98656610D01*
X132918503Y-98717497D01*
X132902530Y-98770153D01*
X132876600Y-98818665D01*
X132841696Y-98861196D01*
X132799165Y-98896100D01*
X132750653Y-98922030D01*
X132697997Y-98938003D01*
X132637110Y-98944000D01*
X131836890Y-98944000D01*
X131776003Y-98938003D01*
X131723347Y-98922030D01*
X131674835Y-98896100D01*
X131632304Y-98861196D01*
X131597400Y-98818665D01*
X131571470Y-98770153D01*
X131555497Y-98717497D01*
X131549500Y-98656610D01*
X131549500Y-97431390D01*
X131555497Y-97370503D01*
X131571470Y-97317847D01*
X131597400Y-97269335D01*
X131632304Y-97226804D01*
X131674835Y-97191900D01*
X131723347Y-97165970D01*
X131776003Y-97149997D01*
X131836890Y-97144000D01*
X132637110Y-97144000D01*
X132697997Y-97149997D01*
X132697997Y-97149997D01*
G37*
G36*
X138658122Y-97374517D02*
X138706085Y-97389066D01*
X138750275Y-97412686D01*
X138789018Y-97444482D01*
X138820814Y-97483225D01*
X138844434Y-97527415D01*
X138858983Y-97575378D01*
X138864500Y-97631391D01*
X138864500Y-98456609D01*
X138858983Y-98512622D01*
X138844434Y-98560585D01*
X138820814Y-98604775D01*
X138789018Y-98643518D01*
X138750275Y-98675314D01*
X138706085Y-98698934D01*
X138658122Y-98713483D01*
X138602109Y-98719000D01*
X137851891Y-98719000D01*
X137795878Y-98713483D01*
X137747915Y-98698934D01*
X137703725Y-98675314D01*
X137664982Y-98643518D01*
X137633186Y-98604775D01*
X137609566Y-98560585D01*
X137595017Y-98512622D01*
X137589500Y-98456609D01*
X137589500Y-97631391D01*
X137595017Y-97575378D01*
X137609566Y-97527415D01*
X137633186Y-97483225D01*
X137664982Y-97444482D01*
X137703725Y-97412686D01*
X137747915Y-97389066D01*
X137795878Y-97374517D01*
X137851891Y-97369000D01*
X138602109Y-97369000D01*
X138658122Y-97374517D01*
X138658122Y-97374517D01*
G37*
G36*
X137083122Y-97374517D02*
X137131085Y-97389066D01*
X137175275Y-97412686D01*
X137214018Y-97444482D01*
X137245814Y-97483225D01*
X137269434Y-97527415D01*
X137283983Y-97575378D01*
X137289500Y-97631391D01*
X137289500Y-98456609D01*
X137283983Y-98512622D01*
X137269434Y-98560585D01*
X137245814Y-98604775D01*
X137214018Y-98643518D01*
X137175275Y-98675314D01*
X137131085Y-98698934D01*
X137083122Y-98713483D01*
X137027109Y-98719000D01*
X136276891Y-98719000D01*
X136220878Y-98713483D01*
X136172915Y-98698934D01*
X136128725Y-98675314D01*
X136089982Y-98643518D01*
X136058186Y-98604775D01*
X136034566Y-98560585D01*
X136020017Y-98512622D01*
X136014500Y-98456609D01*
X136014500Y-97631391D01*
X136020017Y-97575378D01*
X136034566Y-97527415D01*
X136058186Y-97483225D01*
X136089982Y-97444482D01*
X136128725Y-97412686D01*
X136172915Y-97389066D01*
X136220878Y-97374517D01*
X136276891Y-97369000D01*
X137027109Y-97369000D01*
X137083122Y-97374517D01*
X137083122Y-97374517D01*
G37*
G36*
X109180622Y-96700617D02*
X109228585Y-96715166D01*
X109272775Y-96738786D01*
X109311518Y-96770582D01*
X109343314Y-96809325D01*
X109366934Y-96853515D01*
X109381483Y-96901478D01*
X109387000Y-96957491D01*
X109387000Y-97707709D01*
X109381483Y-97763722D01*
X109366934Y-97811685D01*
X109343314Y-97855875D01*
X109311518Y-97894618D01*
X109272775Y-97926414D01*
X109228585Y-97950034D01*
X109180622Y-97964583D01*
X109124609Y-97970100D01*
X108299391Y-97970100D01*
X108243378Y-97964583D01*
X108195415Y-97950034D01*
X108151225Y-97926414D01*
X108112482Y-97894618D01*
X108080686Y-97855875D01*
X108057066Y-97811685D01*
X108042517Y-97763722D01*
X108037000Y-97707709D01*
X108037000Y-96957491D01*
X108042517Y-96901478D01*
X108057066Y-96853515D01*
X108080686Y-96809325D01*
X108112482Y-96770582D01*
X108151225Y-96738786D01*
X108195415Y-96715166D01*
X108243378Y-96700617D01*
X108299391Y-96695100D01*
X109124609Y-96695100D01*
X109180622Y-96700617D01*
X109180622Y-96700617D01*
G37*
G36*
X106640622Y-96700617D02*
X106688585Y-96715166D01*
X106732775Y-96738786D01*
X106771518Y-96770582D01*
X106803314Y-96809325D01*
X106826934Y-96853515D01*
X106841483Y-96901478D01*
X106847000Y-96957491D01*
X106847000Y-97707709D01*
X106841483Y-97763722D01*
X106826934Y-97811685D01*
X106803314Y-97855875D01*
X106771518Y-97894618D01*
X106732775Y-97926414D01*
X106688585Y-97950034D01*
X106640622Y-97964583D01*
X106584609Y-97970100D01*
X105759391Y-97970100D01*
X105703378Y-97964583D01*
X105655415Y-97950034D01*
X105611225Y-97926414D01*
X105572482Y-97894618D01*
X105540686Y-97855875D01*
X105517066Y-97811685D01*
X105502517Y-97763722D01*
X105497000Y-97707709D01*
X105497000Y-96957491D01*
X105502517Y-96901478D01*
X105517066Y-96853515D01*
X105540686Y-96809325D01*
X105572482Y-96770582D01*
X105611225Y-96738786D01*
X105655415Y-96715166D01*
X105703378Y-96700617D01*
X105759391Y-96695100D01*
X106584609Y-96695100D01*
X106640622Y-96700617D01*
X106640622Y-96700617D01*
G37*
G36*
X111720622Y-96675317D02*
X111768585Y-96689866D01*
X111812775Y-96713486D01*
X111851518Y-96745282D01*
X111883314Y-96784025D01*
X111906934Y-96828215D01*
X111921483Y-96876178D01*
X111927000Y-96932191D01*
X111927000Y-97682409D01*
X111921483Y-97738422D01*
X111906934Y-97786385D01*
X111883314Y-97830575D01*
X111851518Y-97869318D01*
X111812775Y-97901114D01*
X111768585Y-97924734D01*
X111720622Y-97939283D01*
X111664609Y-97944800D01*
X110839391Y-97944800D01*
X110783378Y-97939283D01*
X110735415Y-97924734D01*
X110691225Y-97901114D01*
X110652482Y-97869318D01*
X110620686Y-97830575D01*
X110597066Y-97786385D01*
X110582517Y-97738422D01*
X110577000Y-97682409D01*
X110577000Y-96932191D01*
X110582517Y-96876178D01*
X110597066Y-96828215D01*
X110620686Y-96784025D01*
X110652482Y-96745282D01*
X110691225Y-96713486D01*
X110735415Y-96689866D01*
X110783378Y-96675317D01*
X110839391Y-96669800D01*
X111664609Y-96669800D01*
X111720622Y-96675317D01*
X111720622Y-96675317D01*
G37*
G36*
X121574901Y-92701044D02*
X121731542Y-92748561D01*
X121875902Y-92825723D01*
X122002435Y-92929566D01*
X122106278Y-93056099D01*
X122183440Y-93200459D01*
X122230957Y-93357100D01*
X122247001Y-93520000D01*
X122247001Y-94282000D01*
X122230957Y-94444900D01*
X122183440Y-94601541D01*
X122106278Y-94745901D01*
X122002435Y-94872434D01*
X121875902Y-94976277D01*
X121731542Y-95053439D01*
X121574901Y-95100956D01*
X121412001Y-95117000D01*
X121411999Y-95117000D01*
X121249099Y-95100956D01*
X121092458Y-95053439D01*
X120948098Y-94976277D01*
X120821565Y-94872434D01*
X120717722Y-94745901D01*
X120640560Y-94601541D01*
X120593043Y-94444900D01*
X120576999Y-94282000D01*
X120576999Y-93520000D01*
X120593043Y-93357100D01*
X120640560Y-93200459D01*
X120717722Y-93056099D01*
X120821565Y-92929566D01*
X120948098Y-92825723D01*
X121092458Y-92748561D01*
X121249099Y-92701044D01*
X121411999Y-92685000D01*
X121412001Y-92685000D01*
X121574901Y-92701044D01*
X121574901Y-92701044D01*
G37*
G36*
X141894901Y-92701044D02*
X142051542Y-92748561D01*
X142195902Y-92825723D01*
X142322435Y-92929566D01*
X142426278Y-93056099D01*
X142503440Y-93200459D01*
X142550957Y-93357100D01*
X142567001Y-93520000D01*
X142567001Y-94282000D01*
X142550957Y-94444900D01*
X142503440Y-94601541D01*
X142426278Y-94745901D01*
X142322435Y-94872434D01*
X142195902Y-94976277D01*
X142051542Y-95053439D01*
X141894901Y-95100956D01*
X141732001Y-95117000D01*
X141731999Y-95117000D01*
X141569099Y-95100956D01*
X141412458Y-95053439D01*
X141268098Y-94976277D01*
X141141565Y-94872434D01*
X141037722Y-94745901D01*
X140960560Y-94601541D01*
X140913043Y-94444900D01*
X140896999Y-94282000D01*
X140896999Y-93520000D01*
X140913043Y-93357100D01*
X140960560Y-93200459D01*
X141037722Y-93056099D01*
X141141565Y-92929566D01*
X141268098Y-92825723D01*
X141412458Y-92748561D01*
X141569099Y-92701044D01*
X141731999Y-92685000D01*
X141732001Y-92685000D01*
X141894901Y-92701044D01*
X141894901Y-92701044D01*
G37*
G36*
X139354901Y-92701044D02*
X139511542Y-92748561D01*
X139655902Y-92825723D01*
X139782435Y-92929566D01*
X139886278Y-93056099D01*
X139963440Y-93200459D01*
X140010957Y-93357100D01*
X140027001Y-93520000D01*
X140027001Y-94282000D01*
X140010957Y-94444900D01*
X139963440Y-94601541D01*
X139886278Y-94745901D01*
X139782435Y-94872434D01*
X139655902Y-94976277D01*
X139511542Y-95053439D01*
X139354901Y-95100956D01*
X139192001Y-95117000D01*
X139191999Y-95117000D01*
X139029099Y-95100956D01*
X138872458Y-95053439D01*
X138728098Y-94976277D01*
X138601565Y-94872434D01*
X138497722Y-94745901D01*
X138420560Y-94601541D01*
X138373043Y-94444900D01*
X138356999Y-94282000D01*
X138356999Y-93520000D01*
X138373043Y-93357100D01*
X138420560Y-93200459D01*
X138497722Y-93056099D01*
X138601565Y-92929566D01*
X138728098Y-92825723D01*
X138872458Y-92748561D01*
X139029099Y-92701044D01*
X139191999Y-92685000D01*
X139192001Y-92685000D01*
X139354901Y-92701044D01*
X139354901Y-92701044D01*
G37*
G36*
X136814901Y-92701044D02*
X136971542Y-92748561D01*
X137115902Y-92825723D01*
X137242435Y-92929566D01*
X137346278Y-93056099D01*
X137423440Y-93200459D01*
X137470957Y-93357100D01*
X137487001Y-93520000D01*
X137487001Y-94282000D01*
X137470957Y-94444900D01*
X137423440Y-94601541D01*
X137346278Y-94745901D01*
X137242435Y-94872434D01*
X137115902Y-94976277D01*
X136971542Y-95053439D01*
X136814901Y-95100956D01*
X136652001Y-95117000D01*
X136651999Y-95117000D01*
X136489099Y-95100956D01*
X136332458Y-95053439D01*
X136188098Y-94976277D01*
X136061565Y-94872434D01*
X135957722Y-94745901D01*
X135880560Y-94601541D01*
X135833043Y-94444900D01*
X135816999Y-94282000D01*
X135816999Y-93520000D01*
X135833043Y-93357100D01*
X135880560Y-93200459D01*
X135957722Y-93056099D01*
X136061565Y-92929566D01*
X136188098Y-92825723D01*
X136332458Y-92748561D01*
X136489099Y-92701044D01*
X136651999Y-92685000D01*
X136652001Y-92685000D01*
X136814901Y-92701044D01*
X136814901Y-92701044D01*
G37*
G36*
X134274901Y-92701044D02*
X134431542Y-92748561D01*
X134575902Y-92825723D01*
X134702435Y-92929566D01*
X134806278Y-93056099D01*
X134883440Y-93200459D01*
X134930957Y-93357100D01*
X134947001Y-93520000D01*
X134947001Y-94282000D01*
X134930957Y-94444900D01*
X134883440Y-94601541D01*
X134806278Y-94745901D01*
X134702435Y-94872434D01*
X134575902Y-94976277D01*
X134431542Y-95053439D01*
X134274901Y-95100956D01*
X134112001Y-95117000D01*
X134111999Y-95117000D01*
X133949099Y-95100956D01*
X133792458Y-95053439D01*
X133648098Y-94976277D01*
X133521565Y-94872434D01*
X133417722Y-94745901D01*
X133340560Y-94601541D01*
X133293043Y-94444900D01*
X133276999Y-94282000D01*
X133276999Y-93520000D01*
X133293043Y-93357100D01*
X133340560Y-93200459D01*
X133417722Y-93056099D01*
X133521565Y-92929566D01*
X133648098Y-92825723D01*
X133792458Y-92748561D01*
X133949099Y-92701044D01*
X134111999Y-92685000D01*
X134112001Y-92685000D01*
X134274901Y-92701044D01*
X134274901Y-92701044D01*
G37*
G36*
X131734901Y-92701044D02*
X131891542Y-92748561D01*
X132035902Y-92825723D01*
X132162435Y-92929566D01*
X132266278Y-93056099D01*
X132343440Y-93200459D01*
X132390957Y-93357100D01*
X132407001Y-93520000D01*
X132407001Y-94282000D01*
X132390957Y-94444900D01*
X132343440Y-94601541D01*
X132266278Y-94745901D01*
X132162435Y-94872434D01*
X132035902Y-94976277D01*
X131891542Y-95053439D01*
X131734901Y-95100956D01*
X131572001Y-95117000D01*
X131571999Y-95117000D01*
X131409099Y-95100956D01*
X131252458Y-95053439D01*
X131108098Y-94976277D01*
X130981565Y-94872434D01*
X130877722Y-94745901D01*
X130800560Y-94601541D01*
X130753043Y-94444900D01*
X130736999Y-94282000D01*
X130736999Y-93520000D01*
X130753043Y-93357100D01*
X130800560Y-93200459D01*
X130877722Y-93056099D01*
X130981565Y-92929566D01*
X131108098Y-92825723D01*
X131252458Y-92748561D01*
X131409099Y-92701044D01*
X131571999Y-92685000D01*
X131572001Y-92685000D01*
X131734901Y-92701044D01*
X131734901Y-92701044D01*
G37*
G36*
X129194901Y-92701044D02*
X129351542Y-92748561D01*
X129495902Y-92825723D01*
X129622435Y-92929566D01*
X129726278Y-93056099D01*
X129803440Y-93200459D01*
X129850957Y-93357100D01*
X129867001Y-93520000D01*
X129867001Y-94282000D01*
X129850957Y-94444900D01*
X129803440Y-94601541D01*
X129726278Y-94745901D01*
X129622435Y-94872434D01*
X129495902Y-94976277D01*
X129351542Y-95053439D01*
X129194901Y-95100956D01*
X129032001Y-95117000D01*
X129031999Y-95117000D01*
X128869099Y-95100956D01*
X128712458Y-95053439D01*
X128568098Y-94976277D01*
X128441565Y-94872434D01*
X128337722Y-94745901D01*
X128260560Y-94601541D01*
X128213043Y-94444900D01*
X128196999Y-94282000D01*
X128196999Y-93520000D01*
X128213043Y-93357100D01*
X128260560Y-93200459D01*
X128337722Y-93056099D01*
X128441565Y-92929566D01*
X128568098Y-92825723D01*
X128712458Y-92748561D01*
X128869099Y-92701044D01*
X129031999Y-92685000D01*
X129032001Y-92685000D01*
X129194901Y-92701044D01*
X129194901Y-92701044D01*
G37*
G36*
X124114901Y-92701044D02*
X124271542Y-92748561D01*
X124415902Y-92825723D01*
X124542435Y-92929566D01*
X124646278Y-93056099D01*
X124723440Y-93200459D01*
X124770957Y-93357100D01*
X124787001Y-93520000D01*
X124787001Y-94282000D01*
X124770957Y-94444900D01*
X124723440Y-94601541D01*
X124646278Y-94745901D01*
X124542435Y-94872434D01*
X124415902Y-94976277D01*
X124271542Y-95053439D01*
X124114901Y-95100956D01*
X123952001Y-95117000D01*
X123951999Y-95117000D01*
X123789099Y-95100956D01*
X123632458Y-95053439D01*
X123488098Y-94976277D01*
X123361565Y-94872434D01*
X123257722Y-94745901D01*
X123180560Y-94601541D01*
X123133043Y-94444900D01*
X123116999Y-94282000D01*
X123116999Y-93520000D01*
X123133043Y-93357100D01*
X123180560Y-93200459D01*
X123257722Y-93056099D01*
X123361565Y-92929566D01*
X123488098Y-92825723D01*
X123632458Y-92748561D01*
X123789099Y-92701044D01*
X123951999Y-92685000D01*
X123952001Y-92685000D01*
X124114901Y-92701044D01*
X124114901Y-92701044D01*
G37*
G36*
X119034901Y-92701044D02*
X119191542Y-92748561D01*
X119335902Y-92825723D01*
X119462435Y-92929566D01*
X119566278Y-93056099D01*
X119643440Y-93200459D01*
X119690957Y-93357100D01*
X119707001Y-93520000D01*
X119707001Y-94282000D01*
X119690957Y-94444900D01*
X119643440Y-94601541D01*
X119566278Y-94745901D01*
X119462435Y-94872434D01*
X119335902Y-94976277D01*
X119191542Y-95053439D01*
X119034901Y-95100956D01*
X118872001Y-95117000D01*
X118871999Y-95117000D01*
X118709099Y-95100956D01*
X118552458Y-95053439D01*
X118408098Y-94976277D01*
X118281565Y-94872434D01*
X118177722Y-94745901D01*
X118100560Y-94601541D01*
X118053043Y-94444900D01*
X118036999Y-94282000D01*
X118036999Y-93520000D01*
X118053043Y-93357100D01*
X118100560Y-93200459D01*
X118177722Y-93056099D01*
X118281565Y-92929566D01*
X118408098Y-92825723D01*
X118552458Y-92748561D01*
X118709099Y-92701044D01*
X118871999Y-92685000D01*
X118872001Y-92685000D01*
X119034901Y-92701044D01*
X119034901Y-92701044D01*
G37*
G36*
X116494901Y-92701044D02*
X116651542Y-92748561D01*
X116795902Y-92825723D01*
X116922435Y-92929566D01*
X117026278Y-93056099D01*
X117103440Y-93200459D01*
X117150957Y-93357100D01*
X117167001Y-93520000D01*
X117167001Y-94282000D01*
X117150957Y-94444900D01*
X117103440Y-94601541D01*
X117026278Y-94745901D01*
X116922435Y-94872434D01*
X116795902Y-94976277D01*
X116651542Y-95053439D01*
X116494901Y-95100956D01*
X116332001Y-95117000D01*
X116331999Y-95117000D01*
X116169099Y-95100956D01*
X116012458Y-95053439D01*
X115868098Y-94976277D01*
X115741565Y-94872434D01*
X115637722Y-94745901D01*
X115560560Y-94601541D01*
X115513043Y-94444900D01*
X115496999Y-94282000D01*
X115496999Y-93520000D01*
X115513043Y-93357100D01*
X115560560Y-93200459D01*
X115637722Y-93056099D01*
X115741565Y-92929566D01*
X115868098Y-92825723D01*
X116012458Y-92748561D01*
X116169099Y-92701044D01*
X116331999Y-92685000D01*
X116332001Y-92685000D01*
X116494901Y-92701044D01*
X116494901Y-92701044D01*
G37*
G36*
X113954901Y-92701044D02*
X114111542Y-92748561D01*
X114255902Y-92825723D01*
X114382435Y-92929566D01*
X114486278Y-93056099D01*
X114563440Y-93200459D01*
X114610957Y-93357100D01*
X114627001Y-93520000D01*
X114627001Y-94282000D01*
X114610957Y-94444900D01*
X114563440Y-94601541D01*
X114486278Y-94745901D01*
X114382435Y-94872434D01*
X114255902Y-94976277D01*
X114111542Y-95053439D01*
X113954901Y-95100956D01*
X113792001Y-95117000D01*
X113791999Y-95117000D01*
X113629099Y-95100956D01*
X113472458Y-95053439D01*
X113328098Y-94976277D01*
X113201565Y-94872434D01*
X113097722Y-94745901D01*
X113020560Y-94601541D01*
X112973043Y-94444900D01*
X112956999Y-94282000D01*
X112956999Y-93520000D01*
X112973043Y-93357100D01*
X113020560Y-93200459D01*
X113097722Y-93056099D01*
X113201565Y-92929566D01*
X113328098Y-92825723D01*
X113472458Y-92748561D01*
X113629099Y-92701044D01*
X113791999Y-92685000D01*
X113792001Y-92685000D01*
X113954901Y-92701044D01*
X113954901Y-92701044D01*
G37*
G36*
X111414901Y-92701044D02*
X111571542Y-92748561D01*
X111715902Y-92825723D01*
X111842435Y-92929566D01*
X111946278Y-93056099D01*
X112023440Y-93200459D01*
X112070957Y-93357100D01*
X112087001Y-93520000D01*
X112087001Y-94282000D01*
X112070957Y-94444900D01*
X112023440Y-94601541D01*
X111946278Y-94745901D01*
X111842435Y-94872434D01*
X111715902Y-94976277D01*
X111571542Y-95053439D01*
X111414901Y-95100956D01*
X111252001Y-95117000D01*
X111251999Y-95117000D01*
X111089099Y-95100956D01*
X110932458Y-95053439D01*
X110788098Y-94976277D01*
X110661565Y-94872434D01*
X110557722Y-94745901D01*
X110480560Y-94601541D01*
X110433043Y-94444900D01*
X110416999Y-94282000D01*
X110416999Y-93520000D01*
X110433043Y-93357100D01*
X110480560Y-93200459D01*
X110557722Y-93056099D01*
X110661565Y-92929566D01*
X110788098Y-92825723D01*
X110932458Y-92748561D01*
X111089099Y-92701044D01*
X111251999Y-92685000D01*
X111252001Y-92685000D01*
X111414901Y-92701044D01*
X111414901Y-92701044D01*
G37*
G36*
X108874901Y-92701044D02*
X109031542Y-92748561D01*
X109175902Y-92825723D01*
X109302435Y-92929566D01*
X109406278Y-93056099D01*
X109483440Y-93200459D01*
X109530957Y-93357100D01*
X109547001Y-93520000D01*
X109547001Y-94282000D01*
X109530957Y-94444900D01*
X109483440Y-94601541D01*
X109406278Y-94745901D01*
X109302435Y-94872434D01*
X109175902Y-94976277D01*
X109031542Y-95053439D01*
X108874901Y-95100956D01*
X108712001Y-95117000D01*
X108711999Y-95117000D01*
X108549099Y-95100956D01*
X108392458Y-95053439D01*
X108248098Y-94976277D01*
X108121565Y-94872434D01*
X108017722Y-94745901D01*
X107940560Y-94601541D01*
X107893043Y-94444900D01*
X107876999Y-94282000D01*
X107876999Y-93520000D01*
X107893043Y-93357100D01*
X107940560Y-93200459D01*
X108017722Y-93056099D01*
X108121565Y-92929566D01*
X108248098Y-92825723D01*
X108392458Y-92748561D01*
X108549099Y-92701044D01*
X108711999Y-92685000D01*
X108712001Y-92685000D01*
X108874901Y-92701044D01*
X108874901Y-92701044D01*
G37*
G36*
X106334901Y-92701044D02*
X106491542Y-92748561D01*
X106635902Y-92825723D01*
X106762435Y-92929566D01*
X106866278Y-93056099D01*
X106943440Y-93200459D01*
X106990957Y-93357100D01*
X107007001Y-93520000D01*
X107007001Y-94282000D01*
X106990957Y-94444900D01*
X106943440Y-94601541D01*
X106866278Y-94745901D01*
X106762435Y-94872434D01*
X106635902Y-94976277D01*
X106491542Y-95053439D01*
X106334901Y-95100956D01*
X106172001Y-95117000D01*
X106171999Y-95117000D01*
X106009099Y-95100956D01*
X105852458Y-95053439D01*
X105708098Y-94976277D01*
X105581565Y-94872434D01*
X105477722Y-94745901D01*
X105400560Y-94601541D01*
X105353043Y-94444900D01*
X105336999Y-94282000D01*
X105336999Y-93520000D01*
X105353043Y-93357100D01*
X105400560Y-93200459D01*
X105477722Y-93056099D01*
X105581565Y-92929566D01*
X105708098Y-92825723D01*
X105852458Y-92748561D01*
X106009099Y-92701044D01*
X106171999Y-92685000D01*
X106172001Y-92685000D01*
X106334901Y-92701044D01*
X106334901Y-92701044D01*
G37*
G36*
X126654901Y-92701044D02*
X126811542Y-92748561D01*
X126955902Y-92825723D01*
X127082435Y-92929566D01*
X127186278Y-93056099D01*
X127263440Y-93200459D01*
X127310957Y-93357100D01*
X127327001Y-93520000D01*
X127327001Y-94282000D01*
X127310957Y-94444900D01*
X127263440Y-94601541D01*
X127186278Y-94745901D01*
X127082435Y-94872434D01*
X126955902Y-94976277D01*
X126811542Y-95053439D01*
X126654901Y-95100956D01*
X126492001Y-95117000D01*
X126491999Y-95117000D01*
X126329099Y-95100956D01*
X126172458Y-95053439D01*
X126028098Y-94976277D01*
X125901565Y-94872434D01*
X125797722Y-94745901D01*
X125720560Y-94601541D01*
X125673043Y-94444900D01*
X125656999Y-94282000D01*
X125656999Y-93520000D01*
X125673043Y-93357100D01*
X125720560Y-93200459D01*
X125797722Y-93056099D01*
X125901565Y-92929566D01*
X126028098Y-92825723D01*
X126172458Y-92748561D01*
X126329099Y-92701044D01*
X126491999Y-92685000D01*
X126492001Y-92685000D01*
X126654901Y-92701044D01*
X126654901Y-92701044D01*
G37*
G36*
X128786200Y-91958600D02*
X124036200Y-91958600D01*
X124036200Y-90108600D01*
X128786200Y-90108600D01*
X128786200Y-91958600D01*
X128786200Y-91958600D01*
G37*
G36*
X144396007Y-89560009D02*
X144555961Y-89575763D01*
X144782162Y-89644381D01*
X144782164Y-89644382D01*
X144782167Y-89644383D01*
X144990630Y-89755808D01*
X145173354Y-89905766D01*
X145323312Y-90088490D01*
X145434737Y-90296953D01*
X145434738Y-90296956D01*
X145434739Y-90296958D01*
X145503357Y-90523159D01*
X145526526Y-90758400D01*
X145503357Y-90993641D01*
X145434739Y-91219842D01*
X145434737Y-91219847D01*
X145323312Y-91428310D01*
X145173354Y-91611034D01*
X144990630Y-91760992D01*
X144782167Y-91872417D01*
X144782164Y-91872418D01*
X144782162Y-91872419D01*
X144555961Y-91941037D01*
X144414928Y-91954927D01*
X144379671Y-91958400D01*
X142761769Y-91958400D01*
X142726512Y-91954927D01*
X142585479Y-91941037D01*
X142359278Y-91872419D01*
X142359276Y-91872418D01*
X142359273Y-91872417D01*
X142150810Y-91760992D01*
X141968086Y-91611034D01*
X141818128Y-91428310D01*
X141706703Y-91219847D01*
X141706701Y-91219842D01*
X141638083Y-90993641D01*
X141614914Y-90758400D01*
X141638083Y-90523159D01*
X141706701Y-90296958D01*
X141706702Y-90296956D01*
X141706703Y-90296953D01*
X141818128Y-90088490D01*
X141968086Y-89905766D01*
X142150810Y-89755808D01*
X142359273Y-89644383D01*
X142359276Y-89644382D01*
X142359278Y-89644381D01*
X142585479Y-89575763D01*
X142745433Y-89560009D01*
X142761769Y-89558400D01*
X144379671Y-89558400D01*
X144396007Y-89560009D01*
X144396007Y-89560009D01*
G37*
G36*
X122744222Y-90401617D02*
X122792185Y-90416166D01*
X122836375Y-90439786D01*
X122875118Y-90471582D01*
X122906914Y-90510325D01*
X122930534Y-90554515D01*
X122945083Y-90602478D01*
X122950600Y-90658491D01*
X122950600Y-91408709D01*
X122945083Y-91464722D01*
X122930534Y-91512685D01*
X122906914Y-91556875D01*
X122875118Y-91595618D01*
X122836375Y-91627414D01*
X122792185Y-91651034D01*
X122744222Y-91665583D01*
X122688209Y-91671100D01*
X121862991Y-91671100D01*
X121806978Y-91665583D01*
X121759015Y-91651034D01*
X121714825Y-91627414D01*
X121676082Y-91595618D01*
X121644286Y-91556875D01*
X121620666Y-91512685D01*
X121606117Y-91464722D01*
X121600600Y-91408709D01*
X121600600Y-90658491D01*
X121606117Y-90602478D01*
X121620666Y-90554515D01*
X121644286Y-90510325D01*
X121676082Y-90471582D01*
X121714825Y-90439786D01*
X121759015Y-90416166D01*
X121806978Y-90401617D01*
X121862991Y-90396100D01*
X122688209Y-90396100D01*
X122744222Y-90401617D01*
X122744222Y-90401617D01*
G37*
G36*
X120322000Y-91575600D02*
X117422000Y-91575600D01*
X117422000Y-89475600D01*
X120322000Y-89475600D01*
X120322000Y-91575600D01*
X120322000Y-91575600D01*
G37*
G36*
X134271002Y-88651270D02*
X134321437Y-88666569D01*
X134367913Y-88691412D01*
X134408654Y-88724846D01*
X134442088Y-88765587D01*
X134466931Y-88812063D01*
X134482230Y-88862498D01*
X134488000Y-88921084D01*
X134488000Y-89894916D01*
X134482230Y-89953502D01*
X134466931Y-90003937D01*
X134442088Y-90050413D01*
X134408654Y-90091154D01*
X134367913Y-90124588D01*
X134321437Y-90149431D01*
X134271002Y-90164730D01*
X134212416Y-90170500D01*
X130963584Y-90170500D01*
X130904998Y-90164730D01*
X130854563Y-90149431D01*
X130808087Y-90124588D01*
X130767346Y-90091154D01*
X130733912Y-90050413D01*
X130709069Y-90003937D01*
X130693770Y-89953502D01*
X130688000Y-89894916D01*
X130688000Y-88921084D01*
X130693770Y-88862498D01*
X130709069Y-88812063D01*
X130733912Y-88765587D01*
X130767346Y-88724846D01*
X130808087Y-88691412D01*
X130854563Y-88666569D01*
X130904998Y-88651270D01*
X130963584Y-88645500D01*
X134212416Y-88645500D01*
X134271002Y-88651270D01*
X134271002Y-88651270D01*
G37*
G36*
X122744222Y-88826617D02*
X122792185Y-88841166D01*
X122836375Y-88864786D01*
X122875118Y-88896582D01*
X122906914Y-88935325D01*
X122930534Y-88979515D01*
X122945083Y-89027478D01*
X122950600Y-89083491D01*
X122950600Y-89833709D01*
X122945083Y-89889722D01*
X122930534Y-89937685D01*
X122906914Y-89981875D01*
X122875118Y-90020618D01*
X122836375Y-90052414D01*
X122792185Y-90076034D01*
X122744222Y-90090583D01*
X122688209Y-90096100D01*
X121862991Y-90096100D01*
X121806978Y-90090583D01*
X121759015Y-90076034D01*
X121714825Y-90052414D01*
X121676082Y-90020618D01*
X121644286Y-89981875D01*
X121620666Y-89937685D01*
X121606117Y-89889722D01*
X121600600Y-89833709D01*
X121600600Y-89083491D01*
X121606117Y-89027478D01*
X121620666Y-88979515D01*
X121644286Y-88935325D01*
X121676082Y-88896582D01*
X121714825Y-88864786D01*
X121759015Y-88841166D01*
X121806978Y-88826617D01*
X121862991Y-88821100D01*
X122688209Y-88821100D01*
X122744222Y-88826617D01*
X122744222Y-88826617D01*
G37*
G36*
X110323227Y-87582576D02*
X110398628Y-87605449D01*
X110474029Y-87628321D01*
X110613008Y-87702608D01*
X110734822Y-87802578D01*
X110834792Y-87924392D01*
X110909079Y-88063371D01*
X110909079Y-88063372D01*
X110954824Y-88214173D01*
X110966400Y-88331707D01*
X110966400Y-88960293D01*
X110954824Y-89077827D01*
X110931952Y-89153227D01*
X110909079Y-89228629D01*
X110834792Y-89367608D01*
X110734825Y-89489419D01*
X110734823Y-89489420D01*
X110734822Y-89489422D01*
X110650771Y-89558400D01*
X110613004Y-89589394D01*
X110474028Y-89663679D01*
X110398627Y-89686551D01*
X110323226Y-89709424D01*
X110166400Y-89724870D01*
X110009573Y-89709424D01*
X109934172Y-89686551D01*
X109858771Y-89663679D01*
X109719792Y-89589392D01*
X109597981Y-89489425D01*
X109597980Y-89489423D01*
X109597978Y-89489422D01*
X109498007Y-89367605D01*
X109423722Y-89228629D01*
X109423721Y-89228628D01*
X109396791Y-89139850D01*
X109377976Y-89077826D01*
X109366400Y-88960292D01*
X109366400Y-88331707D01*
X109377976Y-88214173D01*
X109423721Y-88063372D01*
X109423721Y-88063371D01*
X109498008Y-87924392D01*
X109597979Y-87802578D01*
X109719793Y-87702608D01*
X109858772Y-87628321D01*
X109934173Y-87605449D01*
X110009574Y-87582576D01*
X110166400Y-87567130D01*
X110323227Y-87582576D01*
X110323227Y-87582576D01*
G37*
G36*
X108323227Y-87582576D02*
X108398628Y-87605449D01*
X108474029Y-87628321D01*
X108613008Y-87702608D01*
X108734822Y-87802578D01*
X108834792Y-87924392D01*
X108909079Y-88063371D01*
X108909079Y-88063372D01*
X108954824Y-88214173D01*
X108966400Y-88331707D01*
X108966400Y-88960293D01*
X108954824Y-89077827D01*
X108931952Y-89153227D01*
X108909079Y-89228629D01*
X108834792Y-89367608D01*
X108734825Y-89489419D01*
X108734823Y-89489420D01*
X108734822Y-89489422D01*
X108650771Y-89558400D01*
X108613004Y-89589394D01*
X108474028Y-89663679D01*
X108398627Y-89686551D01*
X108323226Y-89709424D01*
X108166400Y-89724870D01*
X108009573Y-89709424D01*
X107934172Y-89686551D01*
X107858771Y-89663679D01*
X107719792Y-89589392D01*
X107597981Y-89489425D01*
X107597980Y-89489423D01*
X107597978Y-89489422D01*
X107498007Y-89367605D01*
X107423722Y-89228629D01*
X107423721Y-89228628D01*
X107396791Y-89139850D01*
X107377976Y-89077826D01*
X107366400Y-88960292D01*
X107366400Y-88331707D01*
X107377976Y-88214173D01*
X107423721Y-88063372D01*
X107423721Y-88063371D01*
X107498008Y-87924392D01*
X107597979Y-87802578D01*
X107719793Y-87702608D01*
X107858772Y-87628321D01*
X107934173Y-87605449D01*
X108009574Y-87582576D01*
X108166400Y-87567130D01*
X108323227Y-87582576D01*
X108323227Y-87582576D01*
G37*
G36*
X104323227Y-87582576D02*
X104398628Y-87605449D01*
X104474029Y-87628321D01*
X104613008Y-87702608D01*
X104734822Y-87802578D01*
X104834792Y-87924392D01*
X104909079Y-88063371D01*
X104909079Y-88063372D01*
X104954824Y-88214173D01*
X104966400Y-88331707D01*
X104966400Y-88960293D01*
X104954824Y-89077827D01*
X104931952Y-89153227D01*
X104909079Y-89228629D01*
X104834792Y-89367608D01*
X104734825Y-89489419D01*
X104734823Y-89489420D01*
X104734822Y-89489422D01*
X104650771Y-89558400D01*
X104613004Y-89589394D01*
X104474028Y-89663679D01*
X104398627Y-89686551D01*
X104323226Y-89709424D01*
X104166400Y-89724870D01*
X104009573Y-89709424D01*
X103934172Y-89686551D01*
X103858771Y-89663679D01*
X103719792Y-89589392D01*
X103597981Y-89489425D01*
X103597980Y-89489423D01*
X103597978Y-89489422D01*
X103498007Y-89367605D01*
X103423722Y-89228629D01*
X103423721Y-89228628D01*
X103396791Y-89139850D01*
X103377976Y-89077826D01*
X103366400Y-88960292D01*
X103366400Y-88331707D01*
X103377976Y-88214173D01*
X103423721Y-88063372D01*
X103423721Y-88063371D01*
X103498008Y-87924392D01*
X103597979Y-87802578D01*
X103719793Y-87702608D01*
X103858772Y-87628321D01*
X103934173Y-87605449D01*
X104009574Y-87582576D01*
X104166400Y-87567130D01*
X104323227Y-87582576D01*
X104323227Y-87582576D01*
G37*
G36*
X102323227Y-87582576D02*
X102398628Y-87605449D01*
X102474029Y-87628321D01*
X102613008Y-87702608D01*
X102734822Y-87802578D01*
X102834792Y-87924392D01*
X102909079Y-88063371D01*
X102909079Y-88063372D01*
X102954824Y-88214173D01*
X102966400Y-88331707D01*
X102966400Y-88960293D01*
X102954824Y-89077827D01*
X102931952Y-89153227D01*
X102909079Y-89228629D01*
X102834792Y-89367608D01*
X102734825Y-89489419D01*
X102734823Y-89489420D01*
X102734822Y-89489422D01*
X102650771Y-89558400D01*
X102613004Y-89589394D01*
X102474028Y-89663679D01*
X102398627Y-89686551D01*
X102323226Y-89709424D01*
X102166400Y-89724870D01*
X102009573Y-89709424D01*
X101934172Y-89686551D01*
X101858771Y-89663679D01*
X101719792Y-89589392D01*
X101597981Y-89489425D01*
X101597980Y-89489423D01*
X101597978Y-89489422D01*
X101498007Y-89367605D01*
X101423722Y-89228629D01*
X101423721Y-89228628D01*
X101396791Y-89139850D01*
X101377976Y-89077826D01*
X101366400Y-88960292D01*
X101366400Y-88331707D01*
X101377976Y-88214173D01*
X101423721Y-88063372D01*
X101423721Y-88063371D01*
X101498008Y-87924392D01*
X101597979Y-87802578D01*
X101719793Y-87702608D01*
X101858772Y-87628321D01*
X101934173Y-87605449D01*
X102009574Y-87582576D01*
X102166400Y-87567130D01*
X102323227Y-87582576D01*
X102323227Y-87582576D01*
G37*
G36*
X106323227Y-87582576D02*
X106398628Y-87605449D01*
X106474029Y-87628321D01*
X106613008Y-87702608D01*
X106734822Y-87802578D01*
X106834792Y-87924392D01*
X106909079Y-88063371D01*
X106909079Y-88063372D01*
X106954824Y-88214173D01*
X106966400Y-88331707D01*
X106966400Y-88960293D01*
X106954824Y-89077827D01*
X106931952Y-89153227D01*
X106909079Y-89228629D01*
X106834792Y-89367608D01*
X106734825Y-89489419D01*
X106734823Y-89489420D01*
X106734822Y-89489422D01*
X106650771Y-89558400D01*
X106613004Y-89589394D01*
X106474028Y-89663679D01*
X106398627Y-89686551D01*
X106323226Y-89709424D01*
X106166400Y-89724870D01*
X106009573Y-89709424D01*
X105934172Y-89686551D01*
X105858771Y-89663679D01*
X105719792Y-89589392D01*
X105597981Y-89489425D01*
X105597980Y-89489423D01*
X105597978Y-89489422D01*
X105498007Y-89367605D01*
X105423722Y-89228629D01*
X105423721Y-89228628D01*
X105396791Y-89139850D01*
X105377976Y-89077826D01*
X105366400Y-88960292D01*
X105366400Y-88331707D01*
X105377976Y-88214173D01*
X105423721Y-88063372D01*
X105423721Y-88063371D01*
X105498008Y-87924392D01*
X105597979Y-87802578D01*
X105719793Y-87702608D01*
X105858772Y-87628321D01*
X105934173Y-87605449D01*
X106009574Y-87582576D01*
X106166400Y-87567130D01*
X106323227Y-87582576D01*
X106323227Y-87582576D01*
G37*
G36*
X112756669Y-87576597D02*
X112805409Y-87591382D01*
X112850331Y-87615393D01*
X112889698Y-87647702D01*
X112922007Y-87687069D01*
X112946018Y-87731991D01*
X112960803Y-87780731D01*
X112966400Y-87837557D01*
X112966400Y-89454443D01*
X112960803Y-89511269D01*
X112946018Y-89560009D01*
X112922007Y-89604931D01*
X112889698Y-89644298D01*
X112850331Y-89676607D01*
X112805409Y-89700618D01*
X112756669Y-89715403D01*
X112699843Y-89721000D01*
X111632957Y-89721000D01*
X111576131Y-89715403D01*
X111527391Y-89700618D01*
X111482469Y-89676607D01*
X111443102Y-89644298D01*
X111410793Y-89604931D01*
X111386782Y-89560009D01*
X111371997Y-89511269D01*
X111366400Y-89454443D01*
X111366400Y-87837557D01*
X111371997Y-87780731D01*
X111386782Y-87731991D01*
X111410793Y-87687069D01*
X111443102Y-87647702D01*
X111482469Y-87615393D01*
X111527391Y-87591382D01*
X111576131Y-87576597D01*
X111632957Y-87571000D01*
X112699843Y-87571000D01*
X112756669Y-87576597D01*
X112756669Y-87576597D01*
G37*
G36*
X119400707Y-86943197D02*
X119477836Y-86950793D01*
X119609787Y-86990820D01*
X119675763Y-87010833D01*
X119858172Y-87108333D01*
X120018054Y-87239546D01*
X120149267Y-87399428D01*
X120246767Y-87581837D01*
X120266747Y-87647702D01*
X120306807Y-87779764D01*
X120327080Y-87985600D01*
X120306807Y-88191436D01*
X120266780Y-88323387D01*
X120246767Y-88389363D01*
X120149267Y-88571772D01*
X120018054Y-88731654D01*
X119858172Y-88862867D01*
X119675763Y-88960367D01*
X119612639Y-88979515D01*
X119477836Y-89020407D01*
X119400707Y-89028003D01*
X119323580Y-89035600D01*
X118420420Y-89035600D01*
X118343293Y-89028003D01*
X118266164Y-89020407D01*
X118131361Y-88979515D01*
X118068237Y-88960367D01*
X117885828Y-88862867D01*
X117725946Y-88731654D01*
X117594733Y-88571772D01*
X117497233Y-88389363D01*
X117477220Y-88323387D01*
X117437193Y-88191436D01*
X117416920Y-87985600D01*
X117437193Y-87779764D01*
X117477253Y-87647702D01*
X117497233Y-87581837D01*
X117594733Y-87399428D01*
X117725946Y-87239546D01*
X117885828Y-87108333D01*
X118068237Y-87010833D01*
X118134213Y-86990820D01*
X118266164Y-86950793D01*
X118343293Y-86943197D01*
X118420420Y-86935600D01*
X119323580Y-86935600D01*
X119400707Y-86943197D01*
X119400707Y-86943197D01*
G37*
G36*
X137770720Y-88458400D02*
X135370720Y-88458400D01*
X135370720Y-84058400D01*
X137770720Y-84058400D01*
X137770720Y-88458400D01*
X137770720Y-88458400D01*
G37*
G36*
X142805960Y-84425763D02*
X143032161Y-84494381D01*
X143032163Y-84494382D01*
X143032166Y-84494383D01*
X143240625Y-84605806D01*
X143240628Y-84605808D01*
X143240629Y-84605809D01*
X143423354Y-84755766D01*
X143423355Y-84755768D01*
X143423357Y-84755769D01*
X143573312Y-84938490D01*
X143684737Y-85146953D01*
X143684737Y-85146954D01*
X143684739Y-85146958D01*
X143753357Y-85373159D01*
X143770720Y-85549450D01*
X143770720Y-86967350D01*
X143753357Y-87143641D01*
X143684739Y-87369842D01*
X143684737Y-87369847D01*
X143573312Y-87578310D01*
X143423354Y-87761034D01*
X143240630Y-87910992D01*
X143032167Y-88022417D01*
X143032164Y-88022418D01*
X143032162Y-88022419D01*
X142805961Y-88091037D01*
X142570720Y-88114206D01*
X142335480Y-88091037D01*
X142109279Y-88022419D01*
X142109277Y-88022418D01*
X142109274Y-88022417D01*
X141900811Y-87910992D01*
X141718087Y-87761034D01*
X141571631Y-87582576D01*
X141568130Y-87578310D01*
X141456701Y-87369842D01*
X141388083Y-87143641D01*
X141370720Y-86967350D01*
X141370720Y-85549451D01*
X141388083Y-85373160D01*
X141456701Y-85146959D01*
X141456702Y-85146957D01*
X141456703Y-85146954D01*
X141568126Y-84938495D01*
X141580119Y-84923881D01*
X141718086Y-84755766D01*
X141718088Y-84755765D01*
X141718089Y-84755763D01*
X141900810Y-84605808D01*
X142109273Y-84494383D01*
X142109276Y-84494382D01*
X142109278Y-84494381D01*
X142335479Y-84425763D01*
X142570720Y-84402594D01*
X142805960Y-84425763D01*
X142805960Y-84425763D01*
G37*
G36*
X122744222Y-86083617D02*
X122792185Y-86098166D01*
X122836375Y-86121786D01*
X122875118Y-86153582D01*
X122906914Y-86192325D01*
X122930534Y-86236515D01*
X122945083Y-86284478D01*
X122950600Y-86340491D01*
X122950600Y-87090709D01*
X122945083Y-87146722D01*
X122930534Y-87194685D01*
X122906914Y-87238875D01*
X122875118Y-87277618D01*
X122836375Y-87309414D01*
X122792185Y-87333034D01*
X122744222Y-87347583D01*
X122688209Y-87353100D01*
X121862991Y-87353100D01*
X121806978Y-87347583D01*
X121759015Y-87333034D01*
X121714825Y-87309414D01*
X121676082Y-87277618D01*
X121644286Y-87238875D01*
X121620666Y-87194685D01*
X121606117Y-87146722D01*
X121600600Y-87090709D01*
X121600600Y-86340491D01*
X121606117Y-86284478D01*
X121620666Y-86236515D01*
X121644286Y-86192325D01*
X121676082Y-86153582D01*
X121714825Y-86121786D01*
X121759015Y-86098166D01*
X121806978Y-86083617D01*
X121862991Y-86078100D01*
X122688209Y-86078100D01*
X122744222Y-86083617D01*
X122744222Y-86083617D01*
G37*
G36*
X145746490Y-85273772D02*
X145862409Y-85296829D01*
X146044398Y-85372211D01*
X146208183Y-85481649D01*
X146347471Y-85620937D01*
X146456909Y-85784722D01*
X146532291Y-85966711D01*
X146545232Y-86031771D01*
X146569462Y-86153582D01*
X146570720Y-86159909D01*
X146570720Y-86356891D01*
X146532291Y-86550089D01*
X146456909Y-86732078D01*
X146347471Y-86895863D01*
X146208183Y-87035151D01*
X146044398Y-87144589D01*
X145862409Y-87219971D01*
X145746490Y-87243028D01*
X145669213Y-87258400D01*
X145472227Y-87258400D01*
X145394950Y-87243028D01*
X145279031Y-87219971D01*
X145097042Y-87144589D01*
X144933257Y-87035151D01*
X144793969Y-86895863D01*
X144684531Y-86732078D01*
X144609149Y-86550089D01*
X144570720Y-86356891D01*
X144570720Y-86159909D01*
X144571979Y-86153582D01*
X144596208Y-86031771D01*
X144609149Y-85966711D01*
X144684531Y-85784722D01*
X144793969Y-85620937D01*
X144933257Y-85481649D01*
X145097042Y-85372211D01*
X145279031Y-85296829D01*
X145394950Y-85273772D01*
X145472227Y-85258400D01*
X145669213Y-85258400D01*
X145746490Y-85273772D01*
X145746490Y-85273772D01*
G37*
G36*
X119394590Y-84402594D02*
X119477836Y-84410793D01*
X119606577Y-84449846D01*
X119675763Y-84470833D01*
X119858172Y-84568333D01*
X120018054Y-84699546D01*
X120149267Y-84859428D01*
X120246767Y-85041837D01*
X120246767Y-85041838D01*
X120306807Y-85239764D01*
X120327080Y-85445600D01*
X120306807Y-85651436D01*
X120296704Y-85684740D01*
X120246767Y-85849363D01*
X120149267Y-86031772D01*
X120018054Y-86191654D01*
X119858172Y-86322867D01*
X119675763Y-86420367D01*
X119609787Y-86440380D01*
X119477836Y-86480407D01*
X119400707Y-86488003D01*
X119323580Y-86495600D01*
X118420420Y-86495600D01*
X118343293Y-86488003D01*
X118266164Y-86480407D01*
X118134213Y-86440380D01*
X118068237Y-86420367D01*
X117885828Y-86322867D01*
X117725946Y-86191654D01*
X117594733Y-86031772D01*
X117497233Y-85849363D01*
X117447296Y-85684740D01*
X117437193Y-85651436D01*
X117416920Y-85445600D01*
X117437193Y-85239764D01*
X117497233Y-85041838D01*
X117497233Y-85041837D01*
X117594733Y-84859428D01*
X117725946Y-84699546D01*
X117885828Y-84568333D01*
X118068237Y-84470833D01*
X118137423Y-84449846D01*
X118266164Y-84410793D01*
X118349410Y-84402594D01*
X118420420Y-84395600D01*
X119323580Y-84395600D01*
X119394590Y-84402594D01*
X119394590Y-84402594D01*
G37*
G36*
X128786200Y-86058600D02*
X124036200Y-86058600D01*
X124036200Y-84208600D01*
X128786200Y-84208600D01*
X128786200Y-86058600D01*
X128786200Y-86058600D01*
G37*
G36*
X134271002Y-84376270D02*
X134321437Y-84391569D01*
X134367913Y-84416412D01*
X134408654Y-84449846D01*
X134442088Y-84490587D01*
X134466931Y-84537063D01*
X134482230Y-84587498D01*
X134488000Y-84646084D01*
X134488000Y-85619916D01*
X134482230Y-85678502D01*
X134466931Y-85728937D01*
X134442088Y-85775413D01*
X134408654Y-85816154D01*
X134367913Y-85849588D01*
X134321437Y-85874431D01*
X134271002Y-85889730D01*
X134212416Y-85895500D01*
X130963584Y-85895500D01*
X130904998Y-85889730D01*
X130854563Y-85874431D01*
X130808087Y-85849588D01*
X130767346Y-85816154D01*
X130733912Y-85775413D01*
X130709069Y-85728937D01*
X130693770Y-85678502D01*
X130688000Y-85619916D01*
X130688000Y-84646084D01*
X130693770Y-84587498D01*
X130709069Y-84537063D01*
X130733912Y-84490587D01*
X130767346Y-84449846D01*
X130808087Y-84416412D01*
X130854563Y-84391569D01*
X130904998Y-84376270D01*
X130963584Y-84370500D01*
X134212416Y-84370500D01*
X134271002Y-84376270D01*
X134271002Y-84376270D01*
G37*
G36*
X122744222Y-84508617D02*
X122792185Y-84523166D01*
X122836375Y-84546786D01*
X122875118Y-84578582D01*
X122906914Y-84617325D01*
X122930534Y-84661515D01*
X122945083Y-84709478D01*
X122950600Y-84765491D01*
X122950600Y-85515709D01*
X122945083Y-85571722D01*
X122930534Y-85619685D01*
X122906914Y-85663875D01*
X122875118Y-85702618D01*
X122836375Y-85734414D01*
X122792185Y-85758034D01*
X122744222Y-85772583D01*
X122688209Y-85778100D01*
X121862991Y-85778100D01*
X121806978Y-85772583D01*
X121759015Y-85758034D01*
X121714825Y-85734414D01*
X121676082Y-85702618D01*
X121644286Y-85663875D01*
X121620666Y-85619685D01*
X121606117Y-85571722D01*
X121600600Y-85515709D01*
X121600600Y-84765491D01*
X121606117Y-84709478D01*
X121620666Y-84661515D01*
X121644286Y-84617325D01*
X121676082Y-84578582D01*
X121714825Y-84546786D01*
X121759015Y-84523166D01*
X121806978Y-84508617D01*
X121862991Y-84503100D01*
X122688209Y-84503100D01*
X122744222Y-84508617D01*
X122744222Y-84508617D01*
G37*
G36*
X111987922Y-83633117D02*
X112035885Y-83647666D01*
X112080075Y-83671286D01*
X112118818Y-83703082D01*
X112150614Y-83741825D01*
X112174234Y-83786015D01*
X112188783Y-83833978D01*
X112194300Y-83889991D01*
X112194300Y-84715209D01*
X112188783Y-84771222D01*
X112174234Y-84819185D01*
X112150614Y-84863375D01*
X112118818Y-84902118D01*
X112080075Y-84933914D01*
X112035885Y-84957534D01*
X111987922Y-84972083D01*
X111931909Y-84977600D01*
X111181691Y-84977600D01*
X111125678Y-84972083D01*
X111077715Y-84957534D01*
X111033525Y-84933914D01*
X110994782Y-84902118D01*
X110962986Y-84863375D01*
X110939366Y-84819185D01*
X110924817Y-84771222D01*
X110919300Y-84715209D01*
X110919300Y-83889991D01*
X110924817Y-83833978D01*
X110939366Y-83786015D01*
X110962986Y-83741825D01*
X110994782Y-83703082D01*
X111033525Y-83671286D01*
X111077715Y-83647666D01*
X111125678Y-83633117D01*
X111181691Y-83627600D01*
X111931909Y-83627600D01*
X111987922Y-83633117D01*
X111987922Y-83633117D01*
G37*
G36*
X113562922Y-83633117D02*
X113610885Y-83647666D01*
X113655075Y-83671286D01*
X113693818Y-83703082D01*
X113725614Y-83741825D01*
X113749234Y-83786015D01*
X113763783Y-83833978D01*
X113769300Y-83889991D01*
X113769300Y-84715209D01*
X113763783Y-84771222D01*
X113749234Y-84819185D01*
X113725614Y-84863375D01*
X113693818Y-84902118D01*
X113655075Y-84933914D01*
X113610885Y-84957534D01*
X113562922Y-84972083D01*
X113506909Y-84977600D01*
X112756691Y-84977600D01*
X112700678Y-84972083D01*
X112652715Y-84957534D01*
X112608525Y-84933914D01*
X112569782Y-84902118D01*
X112537986Y-84863375D01*
X112514366Y-84819185D01*
X112499817Y-84771222D01*
X112494300Y-84715209D01*
X112494300Y-83889991D01*
X112499817Y-83833978D01*
X112514366Y-83786015D01*
X112537986Y-83741825D01*
X112569782Y-83703082D01*
X112608525Y-83671286D01*
X112652715Y-83647666D01*
X112700678Y-83633117D01*
X112756691Y-83627600D01*
X113506909Y-83627600D01*
X113562922Y-83633117D01*
X113562922Y-83633117D01*
G37*
G36*
X109220600Y-84793600D02*
X108020600Y-84793600D01*
X108020600Y-83493600D01*
X109220600Y-83493600D01*
X109220600Y-84793600D01*
X109220600Y-84793600D01*
G37*
G36*
X117347197Y-81325797D02*
X117399853Y-81341770D01*
X117448365Y-81367700D01*
X117490896Y-81402604D01*
X117525800Y-81445135D01*
X117551730Y-81493647D01*
X117567703Y-81546303D01*
X117573700Y-81607190D01*
X117573700Y-82832410D01*
X117567703Y-82893297D01*
X117551730Y-82945953D01*
X117525800Y-82994465D01*
X117490896Y-83036996D01*
X117448365Y-83071900D01*
X117399853Y-83097830D01*
X117347197Y-83113803D01*
X117286310Y-83119800D01*
X116486090Y-83119800D01*
X116425203Y-83113803D01*
X116372547Y-83097830D01*
X116324035Y-83071900D01*
X116281504Y-83036996D01*
X116246600Y-82994465D01*
X116220670Y-82945953D01*
X116204697Y-82893297D01*
X116198700Y-82832410D01*
X116198700Y-81607190D01*
X116204697Y-81546303D01*
X116220670Y-81493647D01*
X116246600Y-81445135D01*
X116281504Y-81402604D01*
X116324035Y-81367700D01*
X116372547Y-81341770D01*
X116425203Y-81325797D01*
X116486090Y-81319800D01*
X117286310Y-81319800D01*
X117347197Y-81325797D01*
X117347197Y-81325797D01*
G37*
G36*
X115472197Y-81325797D02*
X115524853Y-81341770D01*
X115573365Y-81367700D01*
X115615896Y-81402604D01*
X115650800Y-81445135D01*
X115676730Y-81493647D01*
X115692703Y-81546303D01*
X115698700Y-81607190D01*
X115698700Y-82832410D01*
X115692703Y-82893297D01*
X115676730Y-82945953D01*
X115650800Y-82994465D01*
X115615896Y-83036996D01*
X115573365Y-83071900D01*
X115524853Y-83097830D01*
X115472197Y-83113803D01*
X115411310Y-83119800D01*
X114611090Y-83119800D01*
X114550203Y-83113803D01*
X114497547Y-83097830D01*
X114449035Y-83071900D01*
X114406504Y-83036996D01*
X114371600Y-82994465D01*
X114345670Y-82945953D01*
X114329697Y-82893297D01*
X114323700Y-82832410D01*
X114323700Y-81607190D01*
X114329697Y-81546303D01*
X114345670Y-81493647D01*
X114371600Y-81445135D01*
X114406504Y-81402604D01*
X114449035Y-81367700D01*
X114497547Y-81341770D01*
X114550203Y-81325797D01*
X114611090Y-81319800D01*
X115411310Y-81319800D01*
X115472197Y-81325797D01*
X115472197Y-81325797D01*
G37*
G36*
X144414928Y-80561873D02*
X144555961Y-80575763D01*
X144782162Y-80644381D01*
X144782164Y-80644382D01*
X144782167Y-80644383D01*
X144990630Y-80755808D01*
X145173354Y-80905766D01*
X145323312Y-81088490D01*
X145434737Y-81296953D01*
X145434738Y-81296956D01*
X145434739Y-81296958D01*
X145503357Y-81523159D01*
X145526526Y-81758400D01*
X145503357Y-81993641D01*
X145434739Y-82219842D01*
X145434737Y-82219847D01*
X145323312Y-82428310D01*
X145173354Y-82611034D01*
X144990630Y-82760992D01*
X144782167Y-82872417D01*
X144782164Y-82872418D01*
X144782162Y-82872419D01*
X144555961Y-82941037D01*
X144414928Y-82954927D01*
X144379671Y-82958400D01*
X142761769Y-82958400D01*
X142726512Y-82954927D01*
X142585479Y-82941037D01*
X142359278Y-82872419D01*
X142359276Y-82872418D01*
X142359273Y-82872417D01*
X142150810Y-82760992D01*
X141968086Y-82611034D01*
X141818128Y-82428310D01*
X141706703Y-82219847D01*
X141706701Y-82219842D01*
X141638083Y-81993641D01*
X141614914Y-81758400D01*
X141638083Y-81523159D01*
X141706701Y-81296958D01*
X141706702Y-81296956D01*
X141706703Y-81296953D01*
X141818128Y-81088490D01*
X141968086Y-80905766D01*
X142150810Y-80755808D01*
X142359273Y-80644383D01*
X142359276Y-80644382D01*
X142359278Y-80644381D01*
X142585479Y-80575763D01*
X142726512Y-80561873D01*
X142761769Y-80558400D01*
X144379671Y-80558400D01*
X144414928Y-80561873D01*
X144414928Y-80561873D01*
G37*
G36*
X111962322Y-81550317D02*
X112010285Y-81564866D01*
X112054475Y-81588486D01*
X112093218Y-81620282D01*
X112125014Y-81659025D01*
X112148634Y-81703215D01*
X112163183Y-81751178D01*
X112168700Y-81807191D01*
X112168700Y-82632409D01*
X112163183Y-82688422D01*
X112148634Y-82736385D01*
X112125014Y-82780575D01*
X112093218Y-82819318D01*
X112054475Y-82851114D01*
X112010285Y-82874734D01*
X111962322Y-82889283D01*
X111906309Y-82894800D01*
X111156091Y-82894800D01*
X111100078Y-82889283D01*
X111052115Y-82874734D01*
X111007925Y-82851114D01*
X110969182Y-82819318D01*
X110937386Y-82780575D01*
X110913766Y-82736385D01*
X110899217Y-82688422D01*
X110893700Y-82632409D01*
X110893700Y-81807191D01*
X110899217Y-81751178D01*
X110913766Y-81703215D01*
X110937386Y-81659025D01*
X110969182Y-81620282D01*
X111007925Y-81588486D01*
X111052115Y-81564866D01*
X111100078Y-81550317D01*
X111156091Y-81544800D01*
X111906309Y-81544800D01*
X111962322Y-81550317D01*
X111962322Y-81550317D01*
G37*
G36*
X113537322Y-81550317D02*
X113585285Y-81564866D01*
X113629475Y-81588486D01*
X113668218Y-81620282D01*
X113700014Y-81659025D01*
X113723634Y-81703215D01*
X113738183Y-81751178D01*
X113743700Y-81807191D01*
X113743700Y-82632409D01*
X113738183Y-82688422D01*
X113723634Y-82736385D01*
X113700014Y-82780575D01*
X113668218Y-82819318D01*
X113629475Y-82851114D01*
X113585285Y-82874734D01*
X113537322Y-82889283D01*
X113481309Y-82894800D01*
X112731091Y-82894800D01*
X112675078Y-82889283D01*
X112627115Y-82874734D01*
X112582925Y-82851114D01*
X112544182Y-82819318D01*
X112512386Y-82780575D01*
X112488766Y-82736385D01*
X112474217Y-82688422D01*
X112468700Y-82632409D01*
X112468700Y-81807191D01*
X112474217Y-81751178D01*
X112488766Y-81703215D01*
X112512386Y-81659025D01*
X112544182Y-81620282D01*
X112582925Y-81588486D01*
X112627115Y-81564866D01*
X112675078Y-81550317D01*
X112731091Y-81544800D01*
X113481309Y-81544800D01*
X113537322Y-81550317D01*
X113537322Y-81550317D01*
G37*
G36*
X108270600Y-82793600D02*
X107070600Y-82793600D01*
X107070600Y-81493600D01*
X108270600Y-81493600D01*
X108270600Y-82793600D01*
X108270600Y-82793600D01*
G37*
G36*
X110170600Y-82793600D02*
X108970600Y-82793600D01*
X108970600Y-81493600D01*
X110170600Y-81493600D01*
X110170600Y-82793600D01*
X110170600Y-82793600D01*
G37*
G36*
X134444400Y-82735600D02*
X131544400Y-82735600D01*
X131544400Y-80535600D01*
X134444400Y-80535600D01*
X134444400Y-82735600D01*
X134444400Y-82735600D01*
G37*
G36*
X130444400Y-82735600D02*
X127544400Y-82735600D01*
X127544400Y-80535600D01*
X130444400Y-80535600D01*
X130444400Y-82735600D01*
X130444400Y-82735600D01*
G37*
G36*
X102398427Y-80318176D02*
X102473828Y-80341049D01*
X102549229Y-80363921D01*
X102688208Y-80438208D01*
X102810022Y-80538178D01*
X102909992Y-80659992D01*
X102984279Y-80798971D01*
X102984279Y-80798972D01*
X103016675Y-80905766D01*
X103030024Y-80949774D01*
X103041600Y-81067305D01*
X103041600Y-81695895D01*
X103030024Y-81813426D01*
X102984279Y-81964229D01*
X102909992Y-82103208D01*
X102810025Y-82225019D01*
X102810023Y-82225020D01*
X102810022Y-82225022D01*
X102724010Y-82295609D01*
X102688204Y-82324994D01*
X102549228Y-82399279D01*
X102497402Y-82415000D01*
X102398426Y-82445024D01*
X102241600Y-82460470D01*
X102084773Y-82445024D01*
X101985797Y-82415000D01*
X101933971Y-82399279D01*
X101794992Y-82324992D01*
X101673181Y-82225025D01*
X101673180Y-82225023D01*
X101673178Y-82225022D01*
X101573207Y-82103205D01*
X101498922Y-81964229D01*
X101498921Y-81964228D01*
X101468381Y-81863550D01*
X101453176Y-81813426D01*
X101441600Y-81695892D01*
X101441600Y-81067307D01*
X101453176Y-80949773D01*
X101498921Y-80798972D01*
X101498921Y-80798971D01*
X101573208Y-80659992D01*
X101673179Y-80538178D01*
X101794993Y-80438208D01*
X101933972Y-80363921D01*
X102009374Y-80341048D01*
X102084774Y-80318176D01*
X102241600Y-80302730D01*
X102398427Y-80318176D01*
X102398427Y-80318176D01*
G37*
G36*
X104831869Y-80312197D02*
X104880609Y-80326982D01*
X104925531Y-80350993D01*
X104964898Y-80383302D01*
X104997207Y-80422669D01*
X105021218Y-80467591D01*
X105036003Y-80516331D01*
X105041600Y-80573157D01*
X105041600Y-82190043D01*
X105036003Y-82246869D01*
X105021218Y-82295609D01*
X104997207Y-82340531D01*
X104964898Y-82379898D01*
X104925531Y-82412207D01*
X104880609Y-82436218D01*
X104831869Y-82451003D01*
X104775043Y-82456600D01*
X103708157Y-82456600D01*
X103651331Y-82451003D01*
X103602591Y-82436218D01*
X103557669Y-82412207D01*
X103518302Y-82379898D01*
X103485993Y-82340531D01*
X103461982Y-82295609D01*
X103447197Y-82246869D01*
X103441600Y-82190043D01*
X103441600Y-80573157D01*
X103447197Y-80516331D01*
X103461982Y-80467591D01*
X103485993Y-80422669D01*
X103518302Y-80383302D01*
X103557669Y-80350993D01*
X103602591Y-80326982D01*
X103651331Y-80312197D01*
X103708157Y-80306600D01*
X104775043Y-80306600D01*
X104831869Y-80312197D01*
X104831869Y-80312197D01*
G37*
G36*
X99483000Y-82415000D02*
X98383000Y-82415000D01*
X98383000Y-81415000D01*
X99483000Y-81415000D01*
X99483000Y-82415000D01*
X99483000Y-82415000D01*
G37*
G36*
X99483000Y-81015000D02*
X98383000Y-81015000D01*
X98383000Y-80015000D01*
X99483000Y-80015000D01*
X99483000Y-81015000D01*
X99483000Y-81015000D01*
G37*
G36*
X113047000Y-80888400D02*
X111997000Y-80888400D01*
X111997000Y-78928400D01*
X113047000Y-78928400D01*
X113047000Y-80888400D01*
X113047000Y-80888400D01*
G37*
G36*
X111147000Y-80888400D02*
X110097000Y-80888400D01*
X110097000Y-78928400D01*
X111147000Y-78928400D01*
X111147000Y-80888400D01*
X111147000Y-80888400D01*
G37*
G36*
X118280400Y-80530000D02*
X114180400Y-80530000D01*
X114180400Y-79150000D01*
X118280400Y-79150000D01*
X118280400Y-80530000D01*
X118280400Y-80530000D01*
G37*
G36*
X109053622Y-78768417D02*
X109101585Y-78782966D01*
X109145775Y-78806586D01*
X109184518Y-78838382D01*
X109216314Y-78877125D01*
X109239934Y-78921315D01*
X109254483Y-78969278D01*
X109260000Y-79025291D01*
X109260000Y-79775509D01*
X109254483Y-79831522D01*
X109239934Y-79879485D01*
X109216314Y-79923675D01*
X109184518Y-79962418D01*
X109145775Y-79994214D01*
X109101585Y-80017834D01*
X109053622Y-80032383D01*
X108997609Y-80037900D01*
X108172391Y-80037900D01*
X108116378Y-80032383D01*
X108068415Y-80017834D01*
X108024225Y-79994214D01*
X107985482Y-79962418D01*
X107953686Y-79923675D01*
X107930066Y-79879485D01*
X107915517Y-79831522D01*
X107910000Y-79775509D01*
X107910000Y-79025291D01*
X107915517Y-78969278D01*
X107930066Y-78921315D01*
X107953686Y-78877125D01*
X107985482Y-78838382D01*
X108024225Y-78806586D01*
X108068415Y-78782966D01*
X108116378Y-78768417D01*
X108172391Y-78762900D01*
X108997609Y-78762900D01*
X109053622Y-78768417D01*
X109053622Y-78768417D01*
G37*
G36*
X109053622Y-77193417D02*
X109101585Y-77207966D01*
X109145775Y-77231586D01*
X109184518Y-77263382D01*
X109216314Y-77302125D01*
X109239934Y-77346315D01*
X109254483Y-77394278D01*
X109260000Y-77450291D01*
X109260000Y-78200509D01*
X109254483Y-78256522D01*
X109239934Y-78304485D01*
X109216314Y-78348675D01*
X109184518Y-78387418D01*
X109145775Y-78419214D01*
X109101585Y-78442834D01*
X109053622Y-78457383D01*
X108997609Y-78462900D01*
X108172391Y-78462900D01*
X108116378Y-78457383D01*
X108068415Y-78442834D01*
X108024225Y-78419214D01*
X107985482Y-78387418D01*
X107953686Y-78348675D01*
X107930066Y-78304485D01*
X107915517Y-78256522D01*
X107910000Y-78200509D01*
X107910000Y-77450291D01*
X107915517Y-77394278D01*
X107930066Y-77346315D01*
X107953686Y-77302125D01*
X107985482Y-77263382D01*
X108024225Y-77231586D01*
X108068415Y-77207966D01*
X108116378Y-77193417D01*
X108172391Y-77187900D01*
X108997609Y-77187900D01*
X109053622Y-77193417D01*
X109053622Y-77193417D01*
G37*
G36*
X113047000Y-78188400D02*
X110097000Y-78188400D01*
X110097000Y-76228400D01*
X113047000Y-76228400D01*
X113047000Y-78188400D01*
X113047000Y-78188400D01*
G37*
G36*
X118280400Y-78160000D02*
X114180400Y-78160000D01*
X114180400Y-76780000D01*
X118280400Y-76780000D01*
X118280400Y-78160000D01*
X118280400Y-78160000D01*
G37*
G36*
X138110827Y-74882576D02*
X138186228Y-74905449D01*
X138261629Y-74928321D01*
X138400608Y-75002608D01*
X138522422Y-75102578D01*
X138622392Y-75224392D01*
X138696679Y-75363371D01*
X138696679Y-75363372D01*
X138741656Y-75511640D01*
X138742424Y-75514174D01*
X138754000Y-75631705D01*
X138754000Y-76260295D01*
X138742424Y-76377826D01*
X138696679Y-76528629D01*
X138622392Y-76667608D01*
X138522425Y-76789419D01*
X138522423Y-76789420D01*
X138522422Y-76789422D01*
X138436410Y-76860009D01*
X138400604Y-76889394D01*
X138261628Y-76963679D01*
X138186226Y-76986552D01*
X138110826Y-77009424D01*
X137954000Y-77024870D01*
X137797173Y-77009424D01*
X137721772Y-76986551D01*
X137646371Y-76963679D01*
X137507392Y-76889392D01*
X137385581Y-76789425D01*
X137385580Y-76789423D01*
X137385578Y-76789422D01*
X137285607Y-76667605D01*
X137250954Y-76602775D01*
X137211321Y-76528628D01*
X137175982Y-76412130D01*
X137165576Y-76377826D01*
X137154000Y-76260292D01*
X137154000Y-75631707D01*
X137165576Y-75514173D01*
X137211321Y-75363372D01*
X137211321Y-75363371D01*
X137285608Y-75224392D01*
X137385579Y-75102578D01*
X137507393Y-75002608D01*
X137646372Y-74928321D01*
X137721774Y-74905448D01*
X137797174Y-74882576D01*
X137954000Y-74867130D01*
X138110827Y-74882576D01*
X138110827Y-74882576D01*
G37*
G36*
X124795627Y-74882576D02*
X124871028Y-74905449D01*
X124946429Y-74928321D01*
X125085408Y-75002608D01*
X125207222Y-75102578D01*
X125307192Y-75224392D01*
X125381479Y-75363371D01*
X125381479Y-75363372D01*
X125426456Y-75511640D01*
X125427224Y-75514174D01*
X125438800Y-75631705D01*
X125438800Y-76260295D01*
X125427224Y-76377826D01*
X125381479Y-76528629D01*
X125307192Y-76667608D01*
X125207225Y-76789419D01*
X125207223Y-76789420D01*
X125207222Y-76789422D01*
X125121210Y-76860009D01*
X125085404Y-76889394D01*
X124946428Y-76963679D01*
X124871026Y-76986552D01*
X124795626Y-77009424D01*
X124638800Y-77024870D01*
X124481973Y-77009424D01*
X124406572Y-76986551D01*
X124331171Y-76963679D01*
X124192192Y-76889392D01*
X124070381Y-76789425D01*
X124070380Y-76789423D01*
X124070378Y-76789422D01*
X123970407Y-76667605D01*
X123935754Y-76602775D01*
X123896121Y-76528628D01*
X123860782Y-76412130D01*
X123850376Y-76377826D01*
X123838800Y-76260292D01*
X123838800Y-75631707D01*
X123850376Y-75514173D01*
X123896121Y-75363372D01*
X123896121Y-75363371D01*
X123970408Y-75224392D01*
X124070379Y-75102578D01*
X124192193Y-75002608D01*
X124331172Y-74928321D01*
X124406574Y-74905448D01*
X124481974Y-74882576D01*
X124638800Y-74867130D01*
X124795627Y-74882576D01*
X124795627Y-74882576D01*
G37*
G36*
X126795627Y-74882576D02*
X126871028Y-74905449D01*
X126946429Y-74928321D01*
X127085408Y-75002608D01*
X127207222Y-75102578D01*
X127307192Y-75224392D01*
X127381479Y-75363371D01*
X127381479Y-75363372D01*
X127426456Y-75511640D01*
X127427224Y-75514174D01*
X127438800Y-75631705D01*
X127438800Y-76260295D01*
X127427224Y-76377826D01*
X127381479Y-76528629D01*
X127307192Y-76667608D01*
X127207225Y-76789419D01*
X127207223Y-76789420D01*
X127207222Y-76789422D01*
X127121210Y-76860009D01*
X127085404Y-76889394D01*
X126946428Y-76963679D01*
X126871026Y-76986552D01*
X126795626Y-77009424D01*
X126638800Y-77024870D01*
X126481973Y-77009424D01*
X126406572Y-76986551D01*
X126331171Y-76963679D01*
X126192192Y-76889392D01*
X126070381Y-76789425D01*
X126070380Y-76789423D01*
X126070378Y-76789422D01*
X125970407Y-76667605D01*
X125935754Y-76602775D01*
X125896121Y-76528628D01*
X125860782Y-76412130D01*
X125850376Y-76377826D01*
X125838800Y-76260292D01*
X125838800Y-75631707D01*
X125850376Y-75514173D01*
X125896121Y-75363372D01*
X125896121Y-75363371D01*
X125970408Y-75224392D01*
X126070379Y-75102578D01*
X126192193Y-75002608D01*
X126331172Y-74928321D01*
X126406574Y-74905448D01*
X126481974Y-74882576D01*
X126638800Y-74867130D01*
X126795627Y-74882576D01*
X126795627Y-74882576D01*
G37*
G36*
X128795627Y-74882576D02*
X128871028Y-74905449D01*
X128946429Y-74928321D01*
X129085408Y-75002608D01*
X129207222Y-75102578D01*
X129307192Y-75224392D01*
X129381479Y-75363371D01*
X129381479Y-75363372D01*
X129426456Y-75511640D01*
X129427224Y-75514174D01*
X129438800Y-75631705D01*
X129438800Y-76260295D01*
X129427224Y-76377826D01*
X129381479Y-76528629D01*
X129307192Y-76667608D01*
X129207225Y-76789419D01*
X129207223Y-76789420D01*
X129207222Y-76789422D01*
X129121210Y-76860009D01*
X129085404Y-76889394D01*
X128946428Y-76963679D01*
X128871026Y-76986552D01*
X128795626Y-77009424D01*
X128638800Y-77024870D01*
X128481973Y-77009424D01*
X128406572Y-76986551D01*
X128331171Y-76963679D01*
X128192192Y-76889392D01*
X128070381Y-76789425D01*
X128070380Y-76789423D01*
X128070378Y-76789422D01*
X127970407Y-76667605D01*
X127935754Y-76602775D01*
X127896121Y-76528628D01*
X127860782Y-76412130D01*
X127850376Y-76377826D01*
X127838800Y-76260292D01*
X127838800Y-75631707D01*
X127850376Y-75514173D01*
X127896121Y-75363372D01*
X127896121Y-75363371D01*
X127970408Y-75224392D01*
X128070379Y-75102578D01*
X128192193Y-75002608D01*
X128331172Y-74928321D01*
X128406574Y-74905448D01*
X128481974Y-74882576D01*
X128638800Y-74867130D01*
X128795627Y-74882576D01*
X128795627Y-74882576D01*
G37*
G36*
X130795627Y-74882576D02*
X130871028Y-74905449D01*
X130946429Y-74928321D01*
X131085408Y-75002608D01*
X131207222Y-75102578D01*
X131307192Y-75224392D01*
X131381479Y-75363371D01*
X131381479Y-75363372D01*
X131426456Y-75511640D01*
X131427224Y-75514174D01*
X131438800Y-75631705D01*
X131438800Y-76260295D01*
X131427224Y-76377826D01*
X131381479Y-76528629D01*
X131307192Y-76667608D01*
X131207225Y-76789419D01*
X131207223Y-76789420D01*
X131207222Y-76789422D01*
X131121210Y-76860009D01*
X131085404Y-76889394D01*
X130946428Y-76963679D01*
X130871026Y-76986552D01*
X130795626Y-77009424D01*
X130638800Y-77024870D01*
X130481973Y-77009424D01*
X130406572Y-76986551D01*
X130331171Y-76963679D01*
X130192192Y-76889392D01*
X130070381Y-76789425D01*
X130070380Y-76789423D01*
X130070378Y-76789422D01*
X129970407Y-76667605D01*
X129935754Y-76602775D01*
X129896121Y-76528628D01*
X129860782Y-76412130D01*
X129850376Y-76377826D01*
X129838800Y-76260292D01*
X129838800Y-75631707D01*
X129850376Y-75514173D01*
X129896121Y-75363372D01*
X129896121Y-75363371D01*
X129970408Y-75224392D01*
X130070379Y-75102578D01*
X130192193Y-75002608D01*
X130331172Y-74928321D01*
X130406574Y-74905448D01*
X130481974Y-74882576D01*
X130638800Y-74867130D01*
X130795627Y-74882576D01*
X130795627Y-74882576D01*
G37*
G36*
X122795627Y-74882576D02*
X122871028Y-74905449D01*
X122946429Y-74928321D01*
X123085408Y-75002608D01*
X123207222Y-75102578D01*
X123307192Y-75224392D01*
X123381479Y-75363371D01*
X123381479Y-75363372D01*
X123426456Y-75511640D01*
X123427224Y-75514174D01*
X123438800Y-75631705D01*
X123438800Y-76260295D01*
X123427224Y-76377826D01*
X123381479Y-76528629D01*
X123307192Y-76667608D01*
X123207225Y-76789419D01*
X123207223Y-76789420D01*
X123207222Y-76789422D01*
X123121210Y-76860009D01*
X123085404Y-76889394D01*
X122946428Y-76963679D01*
X122871026Y-76986552D01*
X122795626Y-77009424D01*
X122638800Y-77024870D01*
X122481973Y-77009424D01*
X122406572Y-76986551D01*
X122331171Y-76963679D01*
X122192192Y-76889392D01*
X122070381Y-76789425D01*
X122070380Y-76789423D01*
X122070378Y-76789422D01*
X121970407Y-76667605D01*
X121935754Y-76602775D01*
X121896121Y-76528628D01*
X121860782Y-76412130D01*
X121850376Y-76377826D01*
X121838800Y-76260292D01*
X121838800Y-75631707D01*
X121850376Y-75514173D01*
X121896121Y-75363372D01*
X121896121Y-75363371D01*
X121970408Y-75224392D01*
X122070379Y-75102578D01*
X122192193Y-75002608D01*
X122331172Y-74928321D01*
X122406574Y-74905448D01*
X122481974Y-74882576D01*
X122638800Y-74867130D01*
X122795627Y-74882576D01*
X122795627Y-74882576D01*
G37*
G36*
X133229069Y-74876597D02*
X133277809Y-74891382D01*
X133322731Y-74915393D01*
X133362098Y-74947702D01*
X133394407Y-74987069D01*
X133418418Y-75031991D01*
X133433203Y-75080731D01*
X133438800Y-75137557D01*
X133438800Y-76754443D01*
X133433203Y-76811269D01*
X133418418Y-76860009D01*
X133394407Y-76904931D01*
X133362098Y-76944298D01*
X133322731Y-76976607D01*
X133277809Y-77000618D01*
X133229069Y-77015403D01*
X133172243Y-77021000D01*
X132105357Y-77021000D01*
X132048531Y-77015403D01*
X131999791Y-77000618D01*
X131954869Y-76976607D01*
X131915502Y-76944298D01*
X131883193Y-76904931D01*
X131859182Y-76860009D01*
X131844397Y-76811269D01*
X131838800Y-76754443D01*
X131838800Y-75137557D01*
X131844397Y-75080731D01*
X131859182Y-75031991D01*
X131883193Y-74987069D01*
X131915502Y-74947702D01*
X131954869Y-74915393D01*
X131999791Y-74891382D01*
X132048531Y-74876597D01*
X132105357Y-74871000D01*
X133172243Y-74871000D01*
X133229069Y-74876597D01*
X133229069Y-74876597D01*
G37*
G36*
X140544269Y-74876597D02*
X140593009Y-74891382D01*
X140637931Y-74915393D01*
X140677298Y-74947702D01*
X140709607Y-74987069D01*
X140733618Y-75031991D01*
X140748403Y-75080731D01*
X140754000Y-75137557D01*
X140754000Y-76754443D01*
X140748403Y-76811269D01*
X140733618Y-76860009D01*
X140709607Y-76904931D01*
X140677298Y-76944298D01*
X140637931Y-76976607D01*
X140593009Y-77000618D01*
X140544269Y-77015403D01*
X140487443Y-77021000D01*
X139420557Y-77021000D01*
X139363731Y-77015403D01*
X139314991Y-77000618D01*
X139270069Y-76976607D01*
X139230702Y-76944298D01*
X139198393Y-76904931D01*
X139174382Y-76860009D01*
X139159597Y-76811269D01*
X139154000Y-76754443D01*
X139154000Y-75137557D01*
X139159597Y-75080731D01*
X139174382Y-75031991D01*
X139198393Y-74987069D01*
X139230702Y-74947702D01*
X139270069Y-74915393D01*
X139314991Y-74891382D01*
X139363731Y-74876597D01*
X139420557Y-74871000D01*
X140487443Y-74871000D01*
X140544269Y-74876597D01*
X140544269Y-74876597D01*
G37*
G36*
X107199422Y-75339417D02*
X107247385Y-75353966D01*
X107291575Y-75377586D01*
X107330318Y-75409382D01*
X107362114Y-75448125D01*
X107385734Y-75492315D01*
X107400283Y-75540278D01*
X107405800Y-75596291D01*
X107405800Y-76346509D01*
X107400283Y-76402522D01*
X107385734Y-76450485D01*
X107362114Y-76494675D01*
X107330318Y-76533418D01*
X107291575Y-76565214D01*
X107247385Y-76588834D01*
X107199422Y-76603383D01*
X107143409Y-76608900D01*
X106318191Y-76608900D01*
X106262178Y-76603383D01*
X106214215Y-76588834D01*
X106170025Y-76565214D01*
X106131282Y-76533418D01*
X106099486Y-76494675D01*
X106075866Y-76450485D01*
X106061317Y-76402522D01*
X106055800Y-76346509D01*
X106055800Y-75596291D01*
X106061317Y-75540278D01*
X106075866Y-75492315D01*
X106099486Y-75448125D01*
X106131282Y-75409382D01*
X106170025Y-75377586D01*
X106214215Y-75353966D01*
X106262178Y-75339417D01*
X106318191Y-75333900D01*
X107143409Y-75333900D01*
X107199422Y-75339417D01*
X107199422Y-75339417D01*
G37*
G36*
X109079022Y-75339417D02*
X109126985Y-75353966D01*
X109171175Y-75377586D01*
X109209918Y-75409382D01*
X109241714Y-75448125D01*
X109265334Y-75492315D01*
X109279883Y-75540278D01*
X109285400Y-75596291D01*
X109285400Y-76346509D01*
X109279883Y-76402522D01*
X109265334Y-76450485D01*
X109241714Y-76494675D01*
X109209918Y-76533418D01*
X109171175Y-76565214D01*
X109126985Y-76588834D01*
X109079022Y-76603383D01*
X109023009Y-76608900D01*
X108197791Y-76608900D01*
X108141778Y-76603383D01*
X108093815Y-76588834D01*
X108049625Y-76565214D01*
X108010882Y-76533418D01*
X107979086Y-76494675D01*
X107955466Y-76450485D01*
X107940917Y-76402522D01*
X107935400Y-76346509D01*
X107935400Y-75596291D01*
X107940917Y-75540278D01*
X107955466Y-75492315D01*
X107979086Y-75448125D01*
X108010882Y-75409382D01*
X108049625Y-75377586D01*
X108093815Y-75353966D01*
X108141778Y-75339417D01*
X108197791Y-75333900D01*
X109023009Y-75333900D01*
X109079022Y-75339417D01*
X109079022Y-75339417D01*
G37*
G36*
X101176002Y-72403955D02*
X101291921Y-72427013D01*
X101523554Y-72522959D01*
X101570444Y-72542381D01*
X101619500Y-72562701D01*
X101883902Y-72739369D01*
X101914316Y-72759691D01*
X102165029Y-73010404D01*
X102165031Y-73010407D01*
X102362019Y-73305220D01*
X102494126Y-73624153D01*
X102497707Y-73632800D01*
X102566880Y-73980554D01*
X102566880Y-74335126D01*
X102551307Y-74413415D01*
X102497707Y-74682881D01*
X102433815Y-74837130D01*
X102365272Y-75002608D01*
X102362019Y-75010460D01*
X102277095Y-75137557D01*
X102165029Y-75305276D01*
X101914316Y-75555989D01*
X101914313Y-75555991D01*
X101619500Y-75752979D01*
X101291921Y-75888667D01*
X101176002Y-75911725D01*
X100944166Y-75957840D01*
X100589594Y-75957840D01*
X100357758Y-75911725D01*
X100241839Y-75888667D01*
X99914260Y-75752979D01*
X99619447Y-75555991D01*
X99619444Y-75555989D01*
X99368731Y-75305276D01*
X99256665Y-75137557D01*
X99171741Y-75010460D01*
X99168489Y-75002608D01*
X99099945Y-74837130D01*
X99036053Y-74682881D01*
X98982453Y-74413415D01*
X98966880Y-74335126D01*
X98966880Y-73980554D01*
X99036053Y-73632800D01*
X99039635Y-73624153D01*
X99171741Y-73305220D01*
X99368729Y-73010407D01*
X99368731Y-73010404D01*
X99619444Y-72759691D01*
X99649858Y-72739369D01*
X99914260Y-72562701D01*
X99963317Y-72542381D01*
X100010206Y-72522959D01*
X100241839Y-72427013D01*
X100357758Y-72403955D01*
X100589594Y-72357840D01*
X100944166Y-72357840D01*
X101176002Y-72403955D01*
X101176002Y-72403955D01*
G37*
G36*
X146575962Y-72383635D02*
X146691881Y-72406693D01*
X147019460Y-72542381D01*
X147049869Y-72562700D01*
X147314276Y-72739371D01*
X147564989Y-72990084D01*
X147564991Y-72990087D01*
X147761979Y-73284900D01*
X147880692Y-73571497D01*
X147897667Y-73612480D01*
X147966840Y-73960234D01*
X147966840Y-74314806D01*
X147947225Y-74413415D01*
X147897667Y-74662561D01*
X147809471Y-74875485D01*
X147779558Y-74947702D01*
X147761979Y-74990140D01*
X147736832Y-75027775D01*
X147564989Y-75284956D01*
X147314276Y-75535669D01*
X147314273Y-75535671D01*
X147019460Y-75732659D01*
X147019459Y-75732660D01*
X147019458Y-75732660D01*
X146970401Y-75752980D01*
X146691881Y-75868347D01*
X146589725Y-75888667D01*
X146344126Y-75937520D01*
X145989554Y-75937520D01*
X145743955Y-75888667D01*
X145641799Y-75868347D01*
X145363279Y-75752980D01*
X145314222Y-75732660D01*
X145314221Y-75732660D01*
X145314220Y-75732659D01*
X145019407Y-75535671D01*
X145019404Y-75535669D01*
X144768691Y-75284956D01*
X144596848Y-75027775D01*
X144571701Y-74990140D01*
X144554123Y-74947702D01*
X144524209Y-74875485D01*
X144436013Y-74662561D01*
X144386455Y-74413415D01*
X144366840Y-74314806D01*
X144366840Y-73960234D01*
X144436013Y-73612480D01*
X144452989Y-73571497D01*
X144571701Y-73284900D01*
X144768689Y-72990087D01*
X144768691Y-72990084D01*
X145019404Y-72739371D01*
X145283811Y-72562700D01*
X145314220Y-72542381D01*
X145641799Y-72406693D01*
X145757718Y-72383635D01*
X145989554Y-72337520D01*
X146344126Y-72337520D01*
X146575962Y-72383635D01*
X146575962Y-72383635D01*
G37*
G36*
X118504000Y-75730000D02*
X117204000Y-75730000D01*
X117204000Y-74130000D01*
X118504000Y-74130000D01*
X118504000Y-75730000D01*
X118504000Y-75730000D01*
G37*
G36*
X115204000Y-75730000D02*
X113904000Y-75730000D01*
X113904000Y-74130000D01*
X115204000Y-74130000D01*
X115204000Y-75730000D01*
X115204000Y-75730000D01*
G37*
G36*
X111276722Y-74260517D02*
X111324685Y-74275066D01*
X111368875Y-74298686D01*
X111407618Y-74330482D01*
X111439414Y-74369225D01*
X111463034Y-74413415D01*
X111477583Y-74461378D01*
X111483100Y-74517391D01*
X111483100Y-75342609D01*
X111477583Y-75398622D01*
X111463034Y-75446585D01*
X111439414Y-75490775D01*
X111407618Y-75529518D01*
X111368875Y-75561314D01*
X111324685Y-75584934D01*
X111276722Y-75599483D01*
X111220709Y-75605000D01*
X110470491Y-75605000D01*
X110414478Y-75599483D01*
X110366515Y-75584934D01*
X110322325Y-75561314D01*
X110283582Y-75529518D01*
X110251786Y-75490775D01*
X110228166Y-75446585D01*
X110213617Y-75398622D01*
X110208100Y-75342609D01*
X110208100Y-74517391D01*
X110213617Y-74461378D01*
X110228166Y-74413415D01*
X110251786Y-74369225D01*
X110283582Y-74330482D01*
X110322325Y-74298686D01*
X110366515Y-74275066D01*
X110414478Y-74260517D01*
X110470491Y-74255000D01*
X111220709Y-74255000D01*
X111276722Y-74260517D01*
X111276722Y-74260517D01*
G37*
G36*
X112851722Y-74260517D02*
X112899685Y-74275066D01*
X112943875Y-74298686D01*
X112982618Y-74330482D01*
X113014414Y-74369225D01*
X113038034Y-74413415D01*
X113052583Y-74461378D01*
X113058100Y-74517391D01*
X113058100Y-75342609D01*
X113052583Y-75398622D01*
X113038034Y-75446585D01*
X113014414Y-75490775D01*
X112982618Y-75529518D01*
X112943875Y-75561314D01*
X112899685Y-75584934D01*
X112851722Y-75599483D01*
X112795709Y-75605000D01*
X112045491Y-75605000D01*
X111989478Y-75599483D01*
X111941515Y-75584934D01*
X111897325Y-75561314D01*
X111858582Y-75529518D01*
X111826786Y-75490775D01*
X111803166Y-75446585D01*
X111788617Y-75398622D01*
X111783100Y-75342609D01*
X111783100Y-74517391D01*
X111788617Y-74461378D01*
X111803166Y-74413415D01*
X111826786Y-74369225D01*
X111858582Y-74330482D01*
X111897325Y-74298686D01*
X111941515Y-74275066D01*
X111989478Y-74260517D01*
X112045491Y-74255000D01*
X112795709Y-74255000D01*
X112851722Y-74260517D01*
X112851722Y-74260517D01*
G37*
G36*
X107199422Y-73764417D02*
X107247385Y-73778966D01*
X107291575Y-73802586D01*
X107330318Y-73834382D01*
X107362114Y-73873125D01*
X107385734Y-73917315D01*
X107400283Y-73965278D01*
X107405800Y-74021291D01*
X107405800Y-74771509D01*
X107400283Y-74827522D01*
X107385734Y-74875485D01*
X107362114Y-74919675D01*
X107330318Y-74958418D01*
X107291575Y-74990214D01*
X107247385Y-75013834D01*
X107199422Y-75028383D01*
X107143409Y-75033900D01*
X106318191Y-75033900D01*
X106262178Y-75028383D01*
X106214215Y-75013834D01*
X106170025Y-74990214D01*
X106131282Y-74958418D01*
X106099486Y-74919675D01*
X106075866Y-74875485D01*
X106061317Y-74827522D01*
X106055800Y-74771509D01*
X106055800Y-74021291D01*
X106061317Y-73965278D01*
X106075866Y-73917315D01*
X106099486Y-73873125D01*
X106131282Y-73834382D01*
X106170025Y-73802586D01*
X106214215Y-73778966D01*
X106262178Y-73764417D01*
X106318191Y-73758900D01*
X107143409Y-73758900D01*
X107199422Y-73764417D01*
X107199422Y-73764417D01*
G37*
G36*
X109079022Y-73764417D02*
X109126985Y-73778966D01*
X109171175Y-73802586D01*
X109209918Y-73834382D01*
X109241714Y-73873125D01*
X109265334Y-73917315D01*
X109279883Y-73965278D01*
X109285400Y-74021291D01*
X109285400Y-74771509D01*
X109279883Y-74827522D01*
X109265334Y-74875485D01*
X109241714Y-74919675D01*
X109209918Y-74958418D01*
X109171175Y-74990214D01*
X109126985Y-75013834D01*
X109079022Y-75028383D01*
X109023009Y-75033900D01*
X108197791Y-75033900D01*
X108141778Y-75028383D01*
X108093815Y-75013834D01*
X108049625Y-74990214D01*
X108010882Y-74958418D01*
X107979086Y-74919675D01*
X107955466Y-74875485D01*
X107940917Y-74827522D01*
X107935400Y-74771509D01*
X107935400Y-74021291D01*
X107940917Y-73965278D01*
X107955466Y-73917315D01*
X107979086Y-73873125D01*
X108010882Y-73834382D01*
X108049625Y-73802586D01*
X108093815Y-73778966D01*
X108141778Y-73764417D01*
X108197791Y-73758900D01*
X109023009Y-73758900D01*
X109079022Y-73764417D01*
X109079022Y-73764417D01*
G37*
G36*
X113029197Y-72003997D02*
X113081853Y-72019970D01*
X113130365Y-72045900D01*
X113172896Y-72080804D01*
X113207800Y-72123335D01*
X113233730Y-72171847D01*
X113249703Y-72224503D01*
X113255700Y-72285390D01*
X113255700Y-73510610D01*
X113249703Y-73571497D01*
X113233730Y-73624153D01*
X113207800Y-73672665D01*
X113172896Y-73715196D01*
X113130365Y-73750100D01*
X113081853Y-73776030D01*
X113029197Y-73792003D01*
X112968310Y-73798000D01*
X112168090Y-73798000D01*
X112107203Y-73792003D01*
X112054547Y-73776030D01*
X112006035Y-73750100D01*
X111963504Y-73715196D01*
X111928600Y-73672665D01*
X111902670Y-73624153D01*
X111886697Y-73571497D01*
X111880700Y-73510610D01*
X111880700Y-72285390D01*
X111886697Y-72224503D01*
X111902670Y-72171847D01*
X111928600Y-72123335D01*
X111963504Y-72080804D01*
X112006035Y-72045900D01*
X112054547Y-72019970D01*
X112107203Y-72003997D01*
X112168090Y-71998000D01*
X112968310Y-71998000D01*
X113029197Y-72003997D01*
X113029197Y-72003997D01*
G37*
G36*
X111154197Y-72003997D02*
X111206853Y-72019970D01*
X111255365Y-72045900D01*
X111297896Y-72080804D01*
X111332800Y-72123335D01*
X111358730Y-72171847D01*
X111374703Y-72224503D01*
X111380700Y-72285390D01*
X111380700Y-73510610D01*
X111374703Y-73571497D01*
X111358730Y-73624153D01*
X111332800Y-73672665D01*
X111297896Y-73715196D01*
X111255365Y-73750100D01*
X111206853Y-73776030D01*
X111154197Y-73792003D01*
X111093310Y-73798000D01*
X110293090Y-73798000D01*
X110232203Y-73792003D01*
X110179547Y-73776030D01*
X110131035Y-73750100D01*
X110088504Y-73715196D01*
X110053600Y-73672665D01*
X110027670Y-73624153D01*
X110011697Y-73571497D01*
X110005700Y-73510610D01*
X110005700Y-72285390D01*
X110011697Y-72224503D01*
X110027670Y-72171847D01*
X110053600Y-72123335D01*
X110088504Y-72080804D01*
X110131035Y-72045900D01*
X110179547Y-72019970D01*
X110232203Y-72003997D01*
X110293090Y-71998000D01*
X111093310Y-71998000D01*
X111154197Y-72003997D01*
X111154197Y-72003997D01*
G37*
M02*
