G04 #@! TF.GenerationSoftware,KiCad,Pcbnew,(5.0.1)-rc2*
G04 #@! TF.CreationDate,2018-12-27T01:27:39+01:00*
G04 #@! TF.ProjectId,IoP_plant_base,496F505F706C616E745F626173652E6B,rev?*
G04 #@! TF.SameCoordinates,Original*
G04 #@! TF.FileFunction,Legend,Bot*
G04 #@! TF.FilePolarity,Positive*
%FSLAX46Y46*%
G04 Gerber Fmt 4.6, Leading zero omitted, Abs format (unit mm)*
G04 Created by KiCad (PCBNEW (5.0.1)-rc2) date 2018/12/27 1:27:39*
%MOMM*%
%LPD*%
G01*
G04 APERTURE LIST*
%ADD10C,0.304800*%
%ADD11C,0.203200*%
%ADD12C,0.150000*%
G04 APERTURE END LIST*
D10*
X106746523Y-115069257D02*
X106746523Y-114343542D01*
X106746523Y-114706400D02*
X105476523Y-114706400D01*
X105657952Y-114585447D01*
X105778904Y-114464495D01*
X105839380Y-114343542D01*
D11*
X139615333Y-85664523D02*
X139576628Y-85625819D01*
X139460514Y-85548409D01*
X139383104Y-85509704D01*
X139266990Y-85471000D01*
X139073466Y-85432295D01*
X138918647Y-85432295D01*
X138725123Y-85471000D01*
X138609009Y-85509704D01*
X138531600Y-85548409D01*
X138415485Y-85625819D01*
X138376780Y-85664523D01*
X138996057Y-85974161D02*
X138996057Y-86593438D01*
X139305695Y-86283800D02*
X138686419Y-86283800D01*
X139615333Y-86903076D02*
X139576628Y-86941780D01*
X139460514Y-87019190D01*
X139383104Y-87057895D01*
X139266990Y-87096600D01*
X139073466Y-87135304D01*
X138918647Y-87135304D01*
X138725123Y-87096600D01*
X138609009Y-87057895D01*
X138531600Y-87019190D01*
X138415485Y-86941780D01*
X138376780Y-86903076D01*
X139573000Y-77892123D02*
X139534295Y-77814714D01*
X139534295Y-77698600D01*
X139573000Y-77582485D01*
X139650409Y-77505076D01*
X139727819Y-77466371D01*
X139882638Y-77427666D01*
X139998752Y-77427666D01*
X140153571Y-77466371D01*
X140230980Y-77505076D01*
X140308390Y-77582485D01*
X140347095Y-77698600D01*
X140347095Y-77776009D01*
X140308390Y-77892123D01*
X140269685Y-77930828D01*
X139998752Y-77930828D01*
X139998752Y-77776009D01*
X140347095Y-78279171D02*
X139534295Y-78279171D01*
X140347095Y-78743628D01*
X139534295Y-78743628D01*
X140347095Y-79130676D02*
X139534295Y-79130676D01*
X139534295Y-79324200D01*
X139573000Y-79440314D01*
X139650409Y-79517723D01*
X139727819Y-79556428D01*
X139882638Y-79595133D01*
X139998752Y-79595133D01*
X140153571Y-79556428D01*
X140230980Y-79517723D01*
X140308390Y-79440314D01*
X140347095Y-79324200D01*
X140347095Y-79130676D01*
X137954657Y-77542571D02*
X137954657Y-78161847D01*
X138264295Y-77852209D02*
X137645019Y-77852209D01*
X137451495Y-78935942D02*
X137451495Y-78548895D01*
X137838542Y-78510190D01*
X137799838Y-78548895D01*
X137761133Y-78626304D01*
X137761133Y-78819828D01*
X137799838Y-78897238D01*
X137838542Y-78935942D01*
X137915952Y-78974647D01*
X138109476Y-78974647D01*
X138186885Y-78935942D01*
X138225590Y-78897238D01*
X138264295Y-78819828D01*
X138264295Y-78626304D01*
X138225590Y-78548895D01*
X138186885Y-78510190D01*
X137451495Y-79206876D02*
X138264295Y-79477809D01*
X137451495Y-79748742D01*
X132671457Y-77669571D02*
X132671457Y-78288847D01*
X132981095Y-77979209D02*
X132361819Y-77979209D01*
X132168295Y-79062942D02*
X132168295Y-78675895D01*
X132555342Y-78637190D01*
X132516638Y-78675895D01*
X132477933Y-78753304D01*
X132477933Y-78946828D01*
X132516638Y-79024238D01*
X132555342Y-79062942D01*
X132632752Y-79101647D01*
X132826276Y-79101647D01*
X132903685Y-79062942D01*
X132942390Y-79024238D01*
X132981095Y-78946828D01*
X132981095Y-78753304D01*
X132942390Y-78675895D01*
X132903685Y-78637190D01*
X132168295Y-79333876D02*
X132981095Y-79604809D01*
X132168295Y-79875742D01*
X130251200Y-77968323D02*
X130212495Y-77890914D01*
X130212495Y-77774800D01*
X130251200Y-77658685D01*
X130328609Y-77581276D01*
X130406019Y-77542571D01*
X130560838Y-77503866D01*
X130676952Y-77503866D01*
X130831771Y-77542571D01*
X130909180Y-77581276D01*
X130986590Y-77658685D01*
X131025295Y-77774800D01*
X131025295Y-77852209D01*
X130986590Y-77968323D01*
X130947885Y-78007028D01*
X130676952Y-78007028D01*
X130676952Y-77852209D01*
X131025295Y-78355371D02*
X130212495Y-78355371D01*
X131025295Y-78819828D01*
X130212495Y-78819828D01*
X131025295Y-79206876D02*
X130212495Y-79206876D01*
X130212495Y-79400400D01*
X130251200Y-79516514D01*
X130328609Y-79593923D01*
X130406019Y-79632628D01*
X130560838Y-79671333D01*
X130676952Y-79671333D01*
X130831771Y-79632628D01*
X130909180Y-79593923D01*
X130986590Y-79516514D01*
X131025295Y-79400400D01*
X131025295Y-79206876D01*
X128915885Y-78102580D02*
X128954590Y-78063876D01*
X128993295Y-77947761D01*
X128993295Y-77870352D01*
X128954590Y-77754238D01*
X128877180Y-77676828D01*
X128799771Y-77638123D01*
X128644952Y-77599419D01*
X128528838Y-77599419D01*
X128374019Y-77638123D01*
X128296609Y-77676828D01*
X128219200Y-77754238D01*
X128180495Y-77870352D01*
X128180495Y-77947761D01*
X128219200Y-78063876D01*
X128257904Y-78102580D01*
X128954590Y-78412219D02*
X128993295Y-78528333D01*
X128993295Y-78721857D01*
X128954590Y-78799266D01*
X128915885Y-78837971D01*
X128838476Y-78876676D01*
X128761066Y-78876676D01*
X128683657Y-78837971D01*
X128644952Y-78799266D01*
X128606247Y-78721857D01*
X128567542Y-78567038D01*
X128528838Y-78489628D01*
X128490133Y-78450923D01*
X128412723Y-78412219D01*
X128335314Y-78412219D01*
X128257904Y-78450923D01*
X128219200Y-78489628D01*
X128180495Y-78567038D01*
X128180495Y-78760561D01*
X128219200Y-78876676D01*
X128993295Y-79225019D02*
X128180495Y-79225019D01*
X128993295Y-79689476D01*
X128180495Y-79689476D01*
X126961295Y-77437342D02*
X126148495Y-77437342D01*
X126729066Y-77708276D01*
X126148495Y-77979209D01*
X126961295Y-77979209D01*
X126148495Y-78521076D02*
X126148495Y-78675895D01*
X126187200Y-78753304D01*
X126264609Y-78830714D01*
X126419428Y-78869419D01*
X126690361Y-78869419D01*
X126845180Y-78830714D01*
X126922590Y-78753304D01*
X126961295Y-78675895D01*
X126961295Y-78521076D01*
X126922590Y-78443666D01*
X126845180Y-78366257D01*
X126690361Y-78327552D01*
X126419428Y-78327552D01*
X126264609Y-78366257D01*
X126187200Y-78443666D01*
X126148495Y-78521076D01*
X126922590Y-79179057D02*
X126961295Y-79295171D01*
X126961295Y-79488695D01*
X126922590Y-79566104D01*
X126883885Y-79604809D01*
X126806476Y-79643514D01*
X126729066Y-79643514D01*
X126651657Y-79604809D01*
X126612952Y-79566104D01*
X126574247Y-79488695D01*
X126535542Y-79333876D01*
X126496838Y-79256466D01*
X126458133Y-79217761D01*
X126380723Y-79179057D01*
X126303314Y-79179057D01*
X126225904Y-79217761D01*
X126187200Y-79256466D01*
X126148495Y-79333876D01*
X126148495Y-79527400D01*
X126187200Y-79643514D01*
X126961295Y-79991857D02*
X126148495Y-79991857D01*
X125005495Y-77437342D02*
X124192695Y-77437342D01*
X124773266Y-77708276D01*
X124192695Y-77979209D01*
X125005495Y-77979209D01*
X125005495Y-78366257D02*
X124192695Y-78366257D01*
X124966790Y-78714600D02*
X125005495Y-78830714D01*
X125005495Y-79024238D01*
X124966790Y-79101647D01*
X124928085Y-79140352D01*
X124850676Y-79179057D01*
X124773266Y-79179057D01*
X124695857Y-79140352D01*
X124657152Y-79101647D01*
X124618447Y-79024238D01*
X124579742Y-78869419D01*
X124541038Y-78792009D01*
X124502333Y-78753304D01*
X124424923Y-78714600D01*
X124347514Y-78714600D01*
X124270104Y-78753304D01*
X124231400Y-78792009D01*
X124192695Y-78869419D01*
X124192695Y-79062942D01*
X124231400Y-79179057D01*
X124192695Y-79682219D02*
X124192695Y-79837038D01*
X124231400Y-79914447D01*
X124308809Y-79991857D01*
X124463628Y-80030561D01*
X124734561Y-80030561D01*
X124889380Y-79991857D01*
X124966790Y-79914447D01*
X125005495Y-79837038D01*
X125005495Y-79682219D01*
X124966790Y-79604809D01*
X124889380Y-79527400D01*
X124734561Y-79488695D01*
X124463628Y-79488695D01*
X124308809Y-79527400D01*
X124231400Y-79604809D01*
X124192695Y-79682219D01*
X122934790Y-77694971D02*
X122973495Y-77811085D01*
X122973495Y-78004609D01*
X122934790Y-78082019D01*
X122896085Y-78120723D01*
X122818676Y-78159428D01*
X122741266Y-78159428D01*
X122663857Y-78120723D01*
X122625152Y-78082019D01*
X122586447Y-78004609D01*
X122547742Y-77849790D01*
X122509038Y-77772380D01*
X122470333Y-77733676D01*
X122392923Y-77694971D01*
X122315514Y-77694971D01*
X122238104Y-77733676D01*
X122199400Y-77772380D01*
X122160695Y-77849790D01*
X122160695Y-78043314D01*
X122199400Y-78159428D01*
X122896085Y-78972228D02*
X122934790Y-78933523D01*
X122973495Y-78817409D01*
X122973495Y-78740000D01*
X122934790Y-78623885D01*
X122857380Y-78546476D01*
X122779971Y-78507771D01*
X122625152Y-78469066D01*
X122509038Y-78469066D01*
X122354219Y-78507771D01*
X122276809Y-78546476D01*
X122199400Y-78623885D01*
X122160695Y-78740000D01*
X122160695Y-78817409D01*
X122199400Y-78933523D01*
X122238104Y-78972228D01*
X122973495Y-79320571D02*
X122160695Y-79320571D01*
X122973495Y-79785028D02*
X122509038Y-79436685D01*
X122160695Y-79785028D02*
X122625152Y-79320571D01*
X112469990Y-85163780D02*
X112508695Y-85279895D01*
X112508695Y-85473419D01*
X112469990Y-85550828D01*
X112431285Y-85589533D01*
X112353876Y-85628238D01*
X112276466Y-85628238D01*
X112199057Y-85589533D01*
X112160352Y-85550828D01*
X112121647Y-85473419D01*
X112082942Y-85318600D01*
X112044238Y-85241190D01*
X112005533Y-85202485D01*
X111928123Y-85163780D01*
X111850714Y-85163780D01*
X111773304Y-85202485D01*
X111734600Y-85241190D01*
X111695895Y-85318600D01*
X111695895Y-85512123D01*
X111734600Y-85628238D01*
X112431285Y-86441038D02*
X112469990Y-86402333D01*
X112508695Y-86286219D01*
X112508695Y-86208809D01*
X112469990Y-86092695D01*
X112392580Y-86015285D01*
X112315171Y-85976580D01*
X112160352Y-85937876D01*
X112044238Y-85937876D01*
X111889419Y-85976580D01*
X111812009Y-86015285D01*
X111734600Y-86092695D01*
X111695895Y-86208809D01*
X111695895Y-86286219D01*
X111734600Y-86402333D01*
X111773304Y-86441038D01*
X112508695Y-87176428D02*
X112508695Y-86789380D01*
X111695895Y-86789380D01*
X110488790Y-85144428D02*
X110527495Y-85260542D01*
X110527495Y-85454066D01*
X110488790Y-85531476D01*
X110450085Y-85570180D01*
X110372676Y-85608885D01*
X110295266Y-85608885D01*
X110217857Y-85570180D01*
X110179152Y-85531476D01*
X110140447Y-85454066D01*
X110101742Y-85299247D01*
X110063038Y-85221838D01*
X110024333Y-85183133D01*
X109946923Y-85144428D01*
X109869514Y-85144428D01*
X109792104Y-85183133D01*
X109753400Y-85221838D01*
X109714695Y-85299247D01*
X109714695Y-85492771D01*
X109753400Y-85608885D01*
X110527495Y-85957228D02*
X109714695Y-85957228D01*
X109714695Y-86150752D01*
X109753400Y-86266866D01*
X109830809Y-86344276D01*
X109908219Y-86382980D01*
X110063038Y-86421685D01*
X110179152Y-86421685D01*
X110333971Y-86382980D01*
X110411380Y-86344276D01*
X110488790Y-86266866D01*
X110527495Y-86150752D01*
X110527495Y-85957228D01*
X110295266Y-86731323D02*
X110295266Y-87118371D01*
X110527495Y-86653914D02*
X109714695Y-86924847D01*
X110527495Y-87195780D01*
X108185857Y-83947000D02*
X108185857Y-84566276D01*
X108495495Y-84256638D02*
X107876219Y-84256638D01*
X107682695Y-84875914D02*
X107682695Y-85379076D01*
X107992333Y-85108142D01*
X107992333Y-85224257D01*
X108031038Y-85301666D01*
X108069742Y-85340371D01*
X108147152Y-85379076D01*
X108340676Y-85379076D01*
X108418085Y-85340371D01*
X108456790Y-85301666D01*
X108495495Y-85224257D01*
X108495495Y-84992028D01*
X108456790Y-84914619D01*
X108418085Y-84875914D01*
X108418085Y-85727419D02*
X108456790Y-85766123D01*
X108495495Y-85727419D01*
X108456790Y-85688714D01*
X108418085Y-85727419D01*
X108495495Y-85727419D01*
X107682695Y-86037057D02*
X107682695Y-86540219D01*
X107992333Y-86269285D01*
X107992333Y-86385400D01*
X108031038Y-86462809D01*
X108069742Y-86501514D01*
X108147152Y-86540219D01*
X108340676Y-86540219D01*
X108418085Y-86501514D01*
X108456790Y-86462809D01*
X108495495Y-86385400D01*
X108495495Y-86153171D01*
X108456790Y-86075761D01*
X108418085Y-86037057D01*
X107682695Y-86772447D02*
X108495495Y-87043380D01*
X107682695Y-87314314D01*
X105791000Y-85562923D02*
X105752295Y-85485514D01*
X105752295Y-85369400D01*
X105791000Y-85253285D01*
X105868409Y-85175876D01*
X105945819Y-85137171D01*
X106100638Y-85098466D01*
X106216752Y-85098466D01*
X106371571Y-85137171D01*
X106448980Y-85175876D01*
X106526390Y-85253285D01*
X106565095Y-85369400D01*
X106565095Y-85446809D01*
X106526390Y-85562923D01*
X106487685Y-85601628D01*
X106216752Y-85601628D01*
X106216752Y-85446809D01*
X106565095Y-85949971D02*
X105752295Y-85949971D01*
X106565095Y-86414428D01*
X105752295Y-86414428D01*
X106565095Y-86801476D02*
X105752295Y-86801476D01*
X105752295Y-86995000D01*
X105791000Y-87111114D01*
X105868409Y-87188523D01*
X105945819Y-87227228D01*
X106100638Y-87265933D01*
X106216752Y-87265933D01*
X106371571Y-87227228D01*
X106448980Y-87188523D01*
X106526390Y-87111114D01*
X106565095Y-86995000D01*
X106565095Y-86801476D01*
X104248857Y-85213371D02*
X104248857Y-85832647D01*
X104558495Y-85523009D02*
X103939219Y-85523009D01*
X103745695Y-86606742D02*
X103745695Y-86219695D01*
X104132742Y-86180990D01*
X104094038Y-86219695D01*
X104055333Y-86297104D01*
X104055333Y-86490628D01*
X104094038Y-86568038D01*
X104132742Y-86606742D01*
X104210152Y-86645447D01*
X104403676Y-86645447D01*
X104481085Y-86606742D01*
X104519790Y-86568038D01*
X104558495Y-86490628D01*
X104558495Y-86297104D01*
X104519790Y-86219695D01*
X104481085Y-86180990D01*
X103745695Y-86877676D02*
X104558495Y-87148609D01*
X103745695Y-87419542D01*
X102268866Y-85201276D02*
X102268866Y-85588323D01*
X102501095Y-85123866D02*
X101688295Y-85394800D01*
X102501095Y-85665733D01*
X102501095Y-85936666D02*
X101688295Y-85936666D01*
X101688295Y-86130190D01*
X101727000Y-86246304D01*
X101804409Y-86323714D01*
X101881819Y-86362419D01*
X102036638Y-86401123D01*
X102152752Y-86401123D01*
X102307571Y-86362419D01*
X102384980Y-86323714D01*
X102462390Y-86246304D01*
X102501095Y-86130190D01*
X102501095Y-85936666D01*
X102423685Y-87213923D02*
X102462390Y-87175219D01*
X102501095Y-87059104D01*
X102501095Y-86981695D01*
X102462390Y-86865580D01*
X102384980Y-86788171D01*
X102307571Y-86749466D01*
X102152752Y-86710761D01*
X102036638Y-86710761D01*
X101881819Y-86749466D01*
X101804409Y-86788171D01*
X101727000Y-86865580D01*
X101688295Y-86981695D01*
X101688295Y-87059104D01*
X101727000Y-87175219D01*
X101765704Y-87213923D01*
X104274257Y-76774523D02*
X104274257Y-77393800D01*
X104583895Y-77084161D02*
X103964619Y-77084161D01*
X104583895Y-78206600D02*
X104583895Y-77742142D01*
X104583895Y-77974371D02*
X103771095Y-77974371D01*
X103887209Y-77896961D01*
X103964619Y-77819552D01*
X104003323Y-77742142D01*
X103848504Y-78516238D02*
X103809800Y-78554942D01*
X103771095Y-78632352D01*
X103771095Y-78825876D01*
X103809800Y-78903285D01*
X103848504Y-78941990D01*
X103925914Y-78980695D01*
X104003323Y-78980695D01*
X104119438Y-78941990D01*
X104583895Y-78477533D01*
X104583895Y-78980695D01*
X103771095Y-79212923D02*
X104583895Y-79483857D01*
X103771095Y-79754790D01*
X102602695Y-78332390D02*
X102215647Y-78061457D01*
X102602695Y-77867933D02*
X101789895Y-77867933D01*
X101789895Y-78177571D01*
X101828600Y-78254980D01*
X101867304Y-78293685D01*
X101944714Y-78332390D01*
X102060828Y-78332390D01*
X102138238Y-78293685D01*
X102176942Y-78254980D01*
X102215647Y-78177571D01*
X102215647Y-77867933D01*
X101789895Y-78564619D02*
X101789895Y-79029076D01*
X102602695Y-78796847D02*
X101789895Y-78796847D01*
X102602695Y-79300009D02*
X101789895Y-79300009D01*
X102602695Y-79764466D01*
X101789895Y-79764466D01*
X121139857Y-88569800D02*
X121139857Y-89189076D01*
X121449495Y-88879438D02*
X120830219Y-88879438D01*
X120636695Y-89498714D02*
X120636695Y-90001876D01*
X120946333Y-89730942D01*
X120946333Y-89847057D01*
X120985038Y-89924466D01*
X121023742Y-89963171D01*
X121101152Y-90001876D01*
X121294676Y-90001876D01*
X121372085Y-89963171D01*
X121410790Y-89924466D01*
X121449495Y-89847057D01*
X121449495Y-89614828D01*
X121410790Y-89537419D01*
X121372085Y-89498714D01*
X121372085Y-90350219D02*
X121410790Y-90388923D01*
X121449495Y-90350219D01*
X121410790Y-90311514D01*
X121372085Y-90350219D01*
X121449495Y-90350219D01*
X120636695Y-90659857D02*
X120636695Y-91163019D01*
X120946333Y-90892085D01*
X120946333Y-91008200D01*
X120985038Y-91085609D01*
X121023742Y-91124314D01*
X121101152Y-91163019D01*
X121294676Y-91163019D01*
X121372085Y-91124314D01*
X121410790Y-91085609D01*
X121449495Y-91008200D01*
X121449495Y-90775971D01*
X121410790Y-90698561D01*
X121372085Y-90659857D01*
X120636695Y-91395247D02*
X121449495Y-91666180D01*
X120636695Y-91937114D01*
X121063657Y-84349771D02*
X121063657Y-84969047D01*
X121373295Y-84659409D02*
X120754019Y-84659409D01*
X120560495Y-85743142D02*
X120560495Y-85356095D01*
X120947542Y-85317390D01*
X120908838Y-85356095D01*
X120870133Y-85433504D01*
X120870133Y-85627028D01*
X120908838Y-85704438D01*
X120947542Y-85743142D01*
X121024952Y-85781847D01*
X121218476Y-85781847D01*
X121295885Y-85743142D01*
X121334590Y-85704438D01*
X121373295Y-85627028D01*
X121373295Y-85433504D01*
X121334590Y-85356095D01*
X121295885Y-85317390D01*
X120560495Y-86014076D02*
X121373295Y-86285009D01*
X120560495Y-86555942D01*
D12*
X116809780Y-86401447D02*
X116762161Y-86306209D01*
X116666923Y-86258590D01*
X115809780Y-86258590D01*
X116762161Y-87163352D02*
X116809780Y-87068114D01*
X116809780Y-86877638D01*
X116762161Y-86782400D01*
X116666923Y-86734780D01*
X116285971Y-86734780D01*
X116190733Y-86782400D01*
X116143114Y-86877638D01*
X116143114Y-87068114D01*
X116190733Y-87163352D01*
X116285971Y-87210971D01*
X116381209Y-87210971D01*
X116476447Y-86734780D01*
X116143114Y-87544304D02*
X116809780Y-87782400D01*
X116143114Y-88020495D01*
X116762161Y-88782400D02*
X116809780Y-88687161D01*
X116809780Y-88496685D01*
X116762161Y-88401447D01*
X116666923Y-88353828D01*
X116285971Y-88353828D01*
X116190733Y-88401447D01*
X116143114Y-88496685D01*
X116143114Y-88687161D01*
X116190733Y-88782400D01*
X116285971Y-88830019D01*
X116381209Y-88830019D01*
X116476447Y-88353828D01*
X116809780Y-89401447D02*
X116762161Y-89306209D01*
X116666923Y-89258590D01*
X115809780Y-89258590D01*
X136494780Y-74511066D02*
X135494780Y-74511066D01*
X135494780Y-74892019D01*
X135542400Y-74987257D01*
X135590019Y-75034876D01*
X135685257Y-75082495D01*
X135828114Y-75082495D01*
X135923352Y-75034876D01*
X135970971Y-74987257D01*
X136018590Y-74892019D01*
X136018590Y-74511066D01*
X135494780Y-75415828D02*
X136494780Y-75653923D01*
X135780495Y-75844400D01*
X136494780Y-76034876D01*
X135494780Y-76272971D01*
X136494780Y-77225352D02*
X136018590Y-76892019D01*
X136494780Y-76653923D02*
X135494780Y-76653923D01*
X135494780Y-77034876D01*
X135542400Y-77130114D01*
X135590019Y-77177733D01*
X135685257Y-77225352D01*
X135828114Y-77225352D01*
X135923352Y-77177733D01*
X135970971Y-77130114D01*
X136018590Y-77034876D01*
X136018590Y-76653923D01*
X121207161Y-74896790D02*
X121254780Y-75039647D01*
X121254780Y-75277742D01*
X121207161Y-75372980D01*
X121159542Y-75420600D01*
X121064304Y-75468219D01*
X120969066Y-75468219D01*
X120873828Y-75420600D01*
X120826209Y-75372980D01*
X120778590Y-75277742D01*
X120730971Y-75087266D01*
X120683352Y-74992028D01*
X120635733Y-74944409D01*
X120540495Y-74896790D01*
X120445257Y-74896790D01*
X120350019Y-74944409D01*
X120302400Y-74992028D01*
X120254780Y-75087266D01*
X120254780Y-75325361D01*
X120302400Y-75468219D01*
X121254780Y-75896790D02*
X120254780Y-75896790D01*
X120254780Y-76277742D01*
X120302400Y-76372980D01*
X120350019Y-76420600D01*
X120445257Y-76468219D01*
X120588114Y-76468219D01*
X120683352Y-76420600D01*
X120730971Y-76372980D01*
X120778590Y-76277742D01*
X120778590Y-75896790D01*
X121254780Y-76896790D02*
X120254780Y-76896790D01*
X99785514Y-79418085D02*
X100785514Y-79418085D01*
X99833133Y-79418085D02*
X99785514Y-79513323D01*
X99785514Y-79703800D01*
X99833133Y-79799038D01*
X99880752Y-79846657D01*
X99975990Y-79894276D01*
X100261704Y-79894276D01*
X100356942Y-79846657D01*
X100404561Y-79799038D01*
X100452180Y-79703800D01*
X100452180Y-79513323D01*
X100404561Y-79418085D01*
X99785514Y-80751419D02*
X100452180Y-80751419D01*
X99785514Y-80322847D02*
X100309323Y-80322847D01*
X100404561Y-80370466D01*
X100452180Y-80465704D01*
X100452180Y-80608561D01*
X100404561Y-80703800D01*
X100356942Y-80751419D01*
X100452180Y-81227609D02*
X99785514Y-81227609D01*
X99880752Y-81227609D02*
X99833133Y-81275228D01*
X99785514Y-81370466D01*
X99785514Y-81513323D01*
X99833133Y-81608561D01*
X99928371Y-81656180D01*
X100452180Y-81656180D01*
X99928371Y-81656180D02*
X99833133Y-81703800D01*
X99785514Y-81799038D01*
X99785514Y-81941895D01*
X99833133Y-82037133D01*
X99928371Y-82084752D01*
X100452180Y-82084752D01*
X99785514Y-82560942D02*
X100785514Y-82560942D01*
X99833133Y-82560942D02*
X99785514Y-82656180D01*
X99785514Y-82846657D01*
X99833133Y-82941895D01*
X99880752Y-82989514D01*
X99975990Y-83037133D01*
X100261704Y-83037133D01*
X100356942Y-82989514D01*
X100404561Y-82941895D01*
X100452180Y-82846657D01*
X100452180Y-82656180D01*
X100404561Y-82560942D01*
X100426780Y-87542809D02*
X100379161Y-87447571D01*
X100283923Y-87399952D01*
X99426780Y-87399952D01*
X100426780Y-87923761D02*
X99760114Y-87923761D01*
X99426780Y-87923761D02*
X99474400Y-87876142D01*
X99522019Y-87923761D01*
X99474400Y-87971380D01*
X99426780Y-87923761D01*
X99522019Y-87923761D01*
X99760114Y-88399952D02*
X100426780Y-88399952D01*
X99855352Y-88399952D02*
X99807733Y-88447571D01*
X99760114Y-88542809D01*
X99760114Y-88685666D01*
X99807733Y-88780904D01*
X99902971Y-88828523D01*
X100426780Y-88828523D01*
X100426780Y-89304714D02*
X99426780Y-89304714D01*
X100045828Y-89399952D02*
X100426780Y-89685666D01*
X99760114Y-89685666D02*
X100141066Y-89304714D01*
D11*
X137742990Y-117859628D02*
X137781695Y-117975742D01*
X137781695Y-118169266D01*
X137742990Y-118246676D01*
X137704285Y-118285380D01*
X137626876Y-118324085D01*
X137549466Y-118324085D01*
X137472057Y-118285380D01*
X137433352Y-118246676D01*
X137394647Y-118169266D01*
X137355942Y-118014447D01*
X137317238Y-117937038D01*
X137278533Y-117898333D01*
X137201123Y-117859628D01*
X137123714Y-117859628D01*
X137046304Y-117898333D01*
X137007600Y-117937038D01*
X136968895Y-118014447D01*
X136968895Y-118207971D01*
X137007600Y-118324085D01*
X137781695Y-118672428D02*
X136968895Y-118672428D01*
X137355942Y-118672428D02*
X137355942Y-119136885D01*
X137781695Y-119136885D02*
X136968895Y-119136885D01*
X137781695Y-119910980D02*
X137781695Y-119523933D01*
X136968895Y-119523933D01*
X137781695Y-120181914D02*
X136968895Y-120181914D01*
X136968895Y-120375438D01*
X137007600Y-120491552D01*
X137085009Y-120568961D01*
X137162419Y-120607666D01*
X137317238Y-120646371D01*
X137433352Y-120646371D01*
X137588171Y-120607666D01*
X137665580Y-120568961D01*
X137742990Y-120491552D01*
X137781695Y-120375438D01*
X137781695Y-120181914D01*
X135710990Y-118771609D02*
X135749695Y-118887723D01*
X135749695Y-119081247D01*
X135710990Y-119158657D01*
X135672285Y-119197361D01*
X135594876Y-119236066D01*
X135517466Y-119236066D01*
X135440057Y-119197361D01*
X135401352Y-119158657D01*
X135362647Y-119081247D01*
X135323942Y-118926428D01*
X135285238Y-118849019D01*
X135246533Y-118810314D01*
X135169123Y-118771609D01*
X135091714Y-118771609D01*
X135014304Y-118810314D01*
X134975600Y-118849019D01*
X134936895Y-118926428D01*
X134936895Y-119119952D01*
X134975600Y-119236066D01*
X135440057Y-119584409D02*
X135440057Y-120203685D01*
X135749695Y-119894047D02*
X135130419Y-119894047D01*
X133805990Y-118771609D02*
X133844695Y-118887723D01*
X133844695Y-119081247D01*
X133805990Y-119158657D01*
X133767285Y-119197361D01*
X133689876Y-119236066D01*
X133612466Y-119236066D01*
X133535057Y-119197361D01*
X133496352Y-119158657D01*
X133457647Y-119081247D01*
X133418942Y-118926428D01*
X133380238Y-118849019D01*
X133341533Y-118810314D01*
X133264123Y-118771609D01*
X133186714Y-118771609D01*
X133109304Y-118810314D01*
X133070600Y-118849019D01*
X133031895Y-118926428D01*
X133031895Y-119119952D01*
X133070600Y-119236066D01*
X133535057Y-119584409D02*
X133535057Y-120203685D01*
X131038600Y-118887723D02*
X130999895Y-118810314D01*
X130999895Y-118694200D01*
X131038600Y-118578085D01*
X131116009Y-118500676D01*
X131193419Y-118461971D01*
X131348238Y-118423266D01*
X131464352Y-118423266D01*
X131619171Y-118461971D01*
X131696580Y-118500676D01*
X131773990Y-118578085D01*
X131812695Y-118694200D01*
X131812695Y-118771609D01*
X131773990Y-118887723D01*
X131735285Y-118926428D01*
X131464352Y-118926428D01*
X131464352Y-118771609D01*
X131812695Y-119274771D02*
X130999895Y-119274771D01*
X131812695Y-119739228D01*
X130999895Y-119739228D01*
X131812695Y-120126276D02*
X130999895Y-120126276D01*
X130999895Y-120319800D01*
X131038600Y-120435914D01*
X131116009Y-120513323D01*
X131193419Y-120552028D01*
X131348238Y-120590733D01*
X131464352Y-120590733D01*
X131619171Y-120552028D01*
X131696580Y-120513323D01*
X131773990Y-120435914D01*
X131812695Y-120319800D01*
X131812695Y-120126276D01*
X129354942Y-118829666D02*
X129354942Y-119100600D01*
X129780695Y-119216714D02*
X129780695Y-118829666D01*
X128967895Y-118829666D01*
X128967895Y-119216714D01*
X129471057Y-119565057D02*
X129471057Y-120184333D01*
X129780695Y-119874695D02*
X129161419Y-119874695D01*
D12*
X126198761Y-119205619D02*
X126246380Y-119300857D01*
X126246380Y-119491333D01*
X126198761Y-119586571D01*
X126103523Y-119634190D01*
X126055904Y-119634190D01*
X125960666Y-119586571D01*
X125913047Y-119491333D01*
X125913047Y-119348476D01*
X125865428Y-119253238D01*
X125770190Y-119205619D01*
X125722571Y-119205619D01*
X125627333Y-119253238D01*
X125579714Y-119348476D01*
X125579714Y-119491333D01*
X125627333Y-119586571D01*
X125579714Y-119919904D02*
X125579714Y-120300857D01*
X125246380Y-120062761D02*
X126103523Y-120062761D01*
X126198761Y-120110380D01*
X126246380Y-120205619D01*
X126246380Y-120300857D01*
X126246380Y-120634190D02*
X125579714Y-120634190D01*
X125770190Y-120634190D02*
X125674952Y-120681809D01*
X125627333Y-120729428D01*
X125579714Y-120824666D01*
X125579714Y-120919904D01*
X126246380Y-121681809D02*
X125722571Y-121681809D01*
X125627333Y-121634190D01*
X125579714Y-121538952D01*
X125579714Y-121348476D01*
X125627333Y-121253238D01*
X126198761Y-121681809D02*
X126246380Y-121586571D01*
X126246380Y-121348476D01*
X126198761Y-121253238D01*
X126103523Y-121205619D01*
X126008285Y-121205619D01*
X125913047Y-121253238D01*
X125865428Y-121348476D01*
X125865428Y-121586571D01*
X125817809Y-121681809D01*
X126246380Y-122158000D02*
X125579714Y-122158000D01*
X125246380Y-122158000D02*
X125294000Y-122110380D01*
X125341619Y-122158000D01*
X125294000Y-122205619D01*
X125246380Y-122158000D01*
X125341619Y-122158000D01*
X125579714Y-122634190D02*
X126246380Y-122634190D01*
X125674952Y-122634190D02*
X125627333Y-122681809D01*
X125579714Y-122777047D01*
X125579714Y-122919904D01*
X125627333Y-123015142D01*
X125722571Y-123062761D01*
X126246380Y-123062761D01*
X127229714Y-119586571D02*
X128039238Y-119586571D01*
X128134476Y-119538952D01*
X128182095Y-119491333D01*
X128229714Y-119396095D01*
X128229714Y-119253238D01*
X128182095Y-119158000D01*
X127848761Y-119586571D02*
X127896380Y-119491333D01*
X127896380Y-119300857D01*
X127848761Y-119205619D01*
X127801142Y-119158000D01*
X127705904Y-119110380D01*
X127420190Y-119110380D01*
X127324952Y-119158000D01*
X127277333Y-119205619D01*
X127229714Y-119300857D01*
X127229714Y-119491333D01*
X127277333Y-119586571D01*
X127896380Y-120491333D02*
X127372571Y-120491333D01*
X127277333Y-120443714D01*
X127229714Y-120348476D01*
X127229714Y-120158000D01*
X127277333Y-120062761D01*
X127848761Y-120491333D02*
X127896380Y-120396095D01*
X127896380Y-120158000D01*
X127848761Y-120062761D01*
X127753523Y-120015142D01*
X127658285Y-120015142D01*
X127563047Y-120062761D01*
X127515428Y-120158000D01*
X127515428Y-120396095D01*
X127467809Y-120491333D01*
X127229714Y-121396095D02*
X127896380Y-121396095D01*
X127229714Y-120967523D02*
X127753523Y-120967523D01*
X127848761Y-121015142D01*
X127896380Y-121110380D01*
X127896380Y-121253238D01*
X127848761Y-121348476D01*
X127801142Y-121396095D01*
X127229714Y-122300857D02*
X128039238Y-122300857D01*
X128134476Y-122253238D01*
X128182095Y-122205619D01*
X128229714Y-122110380D01*
X128229714Y-121967523D01*
X128182095Y-121872285D01*
X127848761Y-122300857D02*
X127896380Y-122205619D01*
X127896380Y-122015142D01*
X127848761Y-121919904D01*
X127801142Y-121872285D01*
X127705904Y-121824666D01*
X127420190Y-121824666D01*
X127324952Y-121872285D01*
X127277333Y-121919904D01*
X127229714Y-122015142D01*
X127229714Y-122205619D01*
X127277333Y-122300857D01*
X127848761Y-123158000D02*
X127896380Y-123062761D01*
X127896380Y-122872285D01*
X127848761Y-122777047D01*
X127753523Y-122729428D01*
X127372571Y-122729428D01*
X127277333Y-122777047D01*
X127229714Y-122872285D01*
X127229714Y-123062761D01*
X127277333Y-123158000D01*
X127372571Y-123205619D01*
X127467809Y-123205619D01*
X127563047Y-122729428D01*
X118435380Y-119586571D02*
X117435380Y-119586571D01*
X118387761Y-119586571D02*
X118435380Y-119491333D01*
X118435380Y-119300857D01*
X118387761Y-119205619D01*
X118340142Y-119158000D01*
X118244904Y-119110380D01*
X117959190Y-119110380D01*
X117863952Y-119158000D01*
X117816333Y-119205619D01*
X117768714Y-119300857D01*
X117768714Y-119491333D01*
X117816333Y-119586571D01*
X118387761Y-120443714D02*
X118435380Y-120348476D01*
X118435380Y-120158000D01*
X118387761Y-120062761D01*
X118292523Y-120015142D01*
X117911571Y-120015142D01*
X117816333Y-120062761D01*
X117768714Y-120158000D01*
X117768714Y-120348476D01*
X117816333Y-120443714D01*
X117911571Y-120491333D01*
X118006809Y-120491333D01*
X118102047Y-120015142D01*
X118435380Y-120919904D02*
X117435380Y-120919904D01*
X117816333Y-120919904D02*
X117768714Y-121015142D01*
X117768714Y-121205619D01*
X117816333Y-121300857D01*
X117863952Y-121348476D01*
X117959190Y-121396095D01*
X118244904Y-121396095D01*
X118340142Y-121348476D01*
X118387761Y-121300857D01*
X118435380Y-121205619D01*
X118435380Y-121015142D01*
X118387761Y-120919904D01*
X117768714Y-122253238D02*
X118435380Y-122253238D01*
X117768714Y-121824666D02*
X118292523Y-121824666D01*
X118387761Y-121872285D01*
X118435380Y-121967523D01*
X118435380Y-122110380D01*
X118387761Y-122205619D01*
X118340142Y-122253238D01*
X117768714Y-123158000D02*
X118578238Y-123158000D01*
X118673476Y-123110380D01*
X118721095Y-123062761D01*
X118768714Y-122967523D01*
X118768714Y-122824666D01*
X118721095Y-122729428D01*
X118387761Y-123158000D02*
X118435380Y-123062761D01*
X118435380Y-122872285D01*
X118387761Y-122777047D01*
X118340142Y-122729428D01*
X118244904Y-122681809D01*
X117959190Y-122681809D01*
X117863952Y-122729428D01*
X117816333Y-122777047D01*
X117768714Y-122872285D01*
X117768714Y-123062761D01*
X117816333Y-123158000D01*
D11*
X121855895Y-118760723D02*
X121855895Y-119225180D01*
X122668695Y-118992952D02*
X121855895Y-118992952D01*
X121855895Y-119418704D02*
X122668695Y-119960571D01*
X121855895Y-119960571D02*
X122668695Y-119418704D01*
X119862600Y-118760723D02*
X119823895Y-118683314D01*
X119823895Y-118567200D01*
X119862600Y-118451085D01*
X119940009Y-118373676D01*
X120017419Y-118334971D01*
X120172238Y-118296266D01*
X120288352Y-118296266D01*
X120443171Y-118334971D01*
X120520580Y-118373676D01*
X120597990Y-118451085D01*
X120636695Y-118567200D01*
X120636695Y-118644609D01*
X120597990Y-118760723D01*
X120559285Y-118799428D01*
X120288352Y-118799428D01*
X120288352Y-118644609D01*
X120636695Y-119147771D02*
X119823895Y-119147771D01*
X120636695Y-119612228D01*
X119823895Y-119612228D01*
X120636695Y-119999276D02*
X119823895Y-119999276D01*
X119823895Y-120192800D01*
X119862600Y-120308914D01*
X119940009Y-120386323D01*
X120017419Y-120425028D01*
X120172238Y-120463733D01*
X120288352Y-120463733D01*
X120443171Y-120425028D01*
X120520580Y-120386323D01*
X120597990Y-120308914D01*
X120636695Y-120192800D01*
X120636695Y-119999276D01*
X109355466Y-118373676D02*
X109355466Y-118760723D01*
X109587695Y-118296266D02*
X108774895Y-118567200D01*
X109587695Y-118838133D01*
X109587695Y-119109066D02*
X108774895Y-119109066D01*
X108774895Y-119302590D01*
X108813600Y-119418704D01*
X108891009Y-119496114D01*
X108968419Y-119534819D01*
X109123238Y-119573523D01*
X109239352Y-119573523D01*
X109394171Y-119534819D01*
X109471580Y-119496114D01*
X109548990Y-119418704D01*
X109587695Y-119302590D01*
X109587695Y-119109066D01*
X109510285Y-120386323D02*
X109548990Y-120347619D01*
X109587695Y-120231504D01*
X109587695Y-120154095D01*
X109548990Y-120037980D01*
X109471580Y-119960571D01*
X109394171Y-119921866D01*
X109239352Y-119883161D01*
X109123238Y-119883161D01*
X108968419Y-119921866D01*
X108891009Y-119960571D01*
X108813600Y-120037980D01*
X108774895Y-120154095D01*
X108774895Y-120231504D01*
X108813600Y-120347619D01*
X108852304Y-120386323D01*
X111183057Y-118334971D02*
X111183057Y-118954247D01*
X111492695Y-118644609D02*
X110873419Y-118644609D01*
X110679895Y-119728342D02*
X110679895Y-119341295D01*
X111066942Y-119302590D01*
X111028238Y-119341295D01*
X110989533Y-119418704D01*
X110989533Y-119612228D01*
X111028238Y-119689638D01*
X111066942Y-119728342D01*
X111144352Y-119767047D01*
X111337876Y-119767047D01*
X111415285Y-119728342D01*
X111453990Y-119689638D01*
X111492695Y-119612228D01*
X111492695Y-119418704D01*
X111453990Y-119341295D01*
X111415285Y-119302590D01*
X110679895Y-119999276D02*
X111492695Y-120270209D01*
X110679895Y-120541142D01*
X112877600Y-118760723D02*
X112838895Y-118683314D01*
X112838895Y-118567200D01*
X112877600Y-118451085D01*
X112955009Y-118373676D01*
X113032419Y-118334971D01*
X113187238Y-118296266D01*
X113303352Y-118296266D01*
X113458171Y-118334971D01*
X113535580Y-118373676D01*
X113612990Y-118451085D01*
X113651695Y-118567200D01*
X113651695Y-118644609D01*
X113612990Y-118760723D01*
X113574285Y-118799428D01*
X113303352Y-118799428D01*
X113303352Y-118644609D01*
X113651695Y-119147771D02*
X112838895Y-119147771D01*
X113651695Y-119612228D01*
X112838895Y-119612228D01*
X113651695Y-119999276D02*
X112838895Y-119999276D01*
X112838895Y-120192800D01*
X112877600Y-120308914D01*
X112955009Y-120386323D01*
X113032419Y-120425028D01*
X113187238Y-120463733D01*
X113303352Y-120463733D01*
X113458171Y-120425028D01*
X113535580Y-120386323D01*
X113612990Y-120308914D01*
X113651695Y-120192800D01*
X113651695Y-119999276D01*
D12*
X105751761Y-119991333D02*
X105799380Y-120086571D01*
X105799380Y-120277047D01*
X105751761Y-120372285D01*
X105656523Y-120419904D01*
X105608904Y-120419904D01*
X105513666Y-120372285D01*
X105466047Y-120277047D01*
X105466047Y-120134190D01*
X105418428Y-120038952D01*
X105323190Y-119991333D01*
X105275571Y-119991333D01*
X105180333Y-120038952D01*
X105132714Y-120134190D01*
X105132714Y-120277047D01*
X105180333Y-120372285D01*
X105799380Y-120991333D02*
X105751761Y-120896095D01*
X105704142Y-120848476D01*
X105608904Y-120800857D01*
X105323190Y-120800857D01*
X105227952Y-120848476D01*
X105180333Y-120896095D01*
X105132714Y-120991333D01*
X105132714Y-121134190D01*
X105180333Y-121229428D01*
X105227952Y-121277047D01*
X105323190Y-121324666D01*
X105608904Y-121324666D01*
X105704142Y-121277047D01*
X105751761Y-121229428D01*
X105799380Y-121134190D01*
X105799380Y-120991333D01*
X105799380Y-121753238D02*
X105132714Y-121753238D01*
X104799380Y-121753238D02*
X104847000Y-121705619D01*
X104894619Y-121753238D01*
X104847000Y-121800857D01*
X104799380Y-121753238D01*
X104894619Y-121753238D01*
X105799380Y-122372285D02*
X105751761Y-122277047D01*
X105656523Y-122229428D01*
X104799380Y-122229428D01*
X107401761Y-118896095D02*
X107449380Y-118991333D01*
X107449380Y-119181809D01*
X107401761Y-119277047D01*
X107306523Y-119324666D01*
X107258904Y-119324666D01*
X107163666Y-119277047D01*
X107116047Y-119181809D01*
X107116047Y-119038952D01*
X107068428Y-118943714D01*
X106973190Y-118896095D01*
X106925571Y-118896095D01*
X106830333Y-118943714D01*
X106782714Y-119038952D01*
X106782714Y-119181809D01*
X106830333Y-119277047D01*
X107401761Y-120134190D02*
X107449380Y-120038952D01*
X107449380Y-119848476D01*
X107401761Y-119753238D01*
X107306523Y-119705619D01*
X106925571Y-119705619D01*
X106830333Y-119753238D01*
X106782714Y-119848476D01*
X106782714Y-120038952D01*
X106830333Y-120134190D01*
X106925571Y-120181809D01*
X107020809Y-120181809D01*
X107116047Y-119705619D01*
X106782714Y-120610380D02*
X107449380Y-120610380D01*
X106877952Y-120610380D02*
X106830333Y-120658000D01*
X106782714Y-120753238D01*
X106782714Y-120896095D01*
X106830333Y-120991333D01*
X106925571Y-121038952D01*
X107449380Y-121038952D01*
X107401761Y-121467523D02*
X107449380Y-121562761D01*
X107449380Y-121753238D01*
X107401761Y-121848476D01*
X107306523Y-121896095D01*
X107258904Y-121896095D01*
X107163666Y-121848476D01*
X107116047Y-121753238D01*
X107116047Y-121610380D01*
X107068428Y-121515142D01*
X106973190Y-121467523D01*
X106925571Y-121467523D01*
X106830333Y-121515142D01*
X106782714Y-121610380D01*
X106782714Y-121753238D01*
X106830333Y-121848476D01*
X107449380Y-122467523D02*
X107401761Y-122372285D01*
X107354142Y-122324666D01*
X107258904Y-122277047D01*
X106973190Y-122277047D01*
X106877952Y-122324666D01*
X106830333Y-122372285D01*
X106782714Y-122467523D01*
X106782714Y-122610380D01*
X106830333Y-122705619D01*
X106877952Y-122753238D01*
X106973190Y-122800857D01*
X107258904Y-122800857D01*
X107354142Y-122753238D01*
X107401761Y-122705619D01*
X107449380Y-122610380D01*
X107449380Y-122467523D01*
X107449380Y-123229428D02*
X106782714Y-123229428D01*
X106973190Y-123229428D02*
X106877952Y-123277047D01*
X106830333Y-123324666D01*
X106782714Y-123419904D01*
X106782714Y-123515142D01*
M02*
